<svg xmlns="http://www.w3.org/2000/svg" width="93" height="94" viewBox="0 0 93 94">
  <g id="Grupo_1111242" data-name="Grupo 1111242" transform="translate(-223.915 -3826.75)">
    <ellipse id="Elipse_11699" data-name="Elipse 11699" cx="46.5" cy="47" rx="46.5" ry="47" transform="translate(223.915 3826.75)" fill="#e69999"/>
    <g id="assessment_16873861" transform="translate(240.051 3847.877)">
      <g id="Shadow" transform="translate(0.413 0.413)">
        <g id="Grupo_1110102" data-name="Grupo 1110102">
          <g id="Grupo_1110091" data-name="Grupo 1110091" transform="translate(34.782 7.845)">
            <path id="Trazado_881702" data-name="Trazado 881702" d="M356.373,118.136H342.027a1.245,1.245,0,0,1-1.147-1.987l7.173-12.424a1.245,1.245,0,0,1,2.294,0l7.173,12.424a1.245,1.245,0,0,1-1.147,1.987Z" transform="translate(-340.645 -102.964)" fill="#ffd15b"/>
            <g id="Grupo_1110090" data-name="Grupo 1110090" transform="translate(7.872 4.107)">
              <path id="Trazado_881703" data-name="Trazado 881703" d="M417.522,148.726a.682.682,0,0,1-.682-.682V143.4a.682.682,0,1,1,1.364,0v4.647A.682.682,0,0,1,417.522,148.726Z" transform="translate(-416.84 -142.715)" fill="#fd4755"/>
              <path id="Trazado_881704" data-name="Trazado 881704" d="M417.522,213.325a.682.682,0,0,1-.682-.682v-.4a.682.682,0,0,1,1.364,0v.4A.682.682,0,0,1,417.522,213.325Z" transform="translate(-416.84 -204.443)" fill="#fd4755"/>
            </g>
          </g>
          <g id="Grupo_1110096" data-name="Grupo 1110096">
            <g id="Grupo_1110092" data-name="Grupo 1110092" transform="translate(4.015)">
              <path id="Trazado_881705" data-name="Trazado 881705" d="M67.9,94.843a2.121,2.121,0,0,1-2.114,2.114H44.975a2.121,2.121,0,0,1-2.114-2.114V68.475a2.12,2.12,0,0,1,2.114-2.114H65.788A2.12,2.12,0,0,1,67.9,68.475Z" transform="translate(-42.861 -62.298)" fill="#dedbee"/>
              <path id="Trazado_881706" data-name="Trazado 881706" d="M87.563,75.18a2.121,2.121,0,0,1-2.114,2.114H64.636a2.121,2.121,0,0,1-2.114-2.114V48.812A2.121,2.121,0,0,1,64.636,46.7H85.449a2.121,2.121,0,0,1,2.114,2.114Z" transform="translate(-60.491 -44.666)" fill="#dedbee"/>
              <path id="Trazado_881707" data-name="Trazado 881707" d="M107.225,55.517a2.12,2.12,0,0,1-2.114,2.114H84.3a2.12,2.12,0,0,1-2.114-2.114V29.149A2.121,2.121,0,0,1,84.3,27.035h20.812a2.121,2.121,0,0,1,2.114,2.114Z" transform="translate(-78.121 -27.035)" fill="#dedbee"/>
            </g>
            <g id="Grupo_1110093" data-name="Grupo 1110093" transform="translate(0 4.291)">
              <path id="Trazado_881708" data-name="Trazado 881708" d="M5.88,77.336a1,1,0,0,1-.323-.054,2.42,2.42,0,0,1-1.521-2.039,4.815,4.815,0,0,1,2.237-4.5,14.048,14.048,0,0,1,8.043-2.177,1,1,0,1,1,0,1.99,12.114,12.114,0,0,0-6.882,1.8A2.9,2.9,0,0,0,6,74.953c.044.3.162.434.2.446a1,1,0,0,1-.323,1.937Z" transform="translate(-3.999 -68.567)" fill="#3a313a"/>
            </g>
            <g id="Grupo_1110094" data-name="Grupo 1110094" transform="translate(0 13.06)">
              <path id="Trazado_881709" data-name="Trazado 881709" d="M5.88,162.209a.994.994,0,0,1-.323-.054,2.42,2.42,0,0,1-1.521-2.039,4.815,4.815,0,0,1,2.237-4.5,14.047,14.047,0,0,1,8.043-2.177,1,1,0,1,1,0,1.99,12.114,12.114,0,0,0-6.882,1.8A2.9,2.9,0,0,0,6,159.826c.044.3.162.434.2.446a1,1,0,0,1-.323,1.936Z" transform="translate(-3.999 -153.44)" fill="#3a313a"/>
            </g>
            <g id="Grupo_1110095" data-name="Grupo 1110095" transform="translate(0 21.829)">
              <path id="Trazado_881710" data-name="Trazado 881710" d="M5.88,247.078a.994.994,0,0,1-.323-.054,2.42,2.42,0,0,1-1.521-2.039,4.815,4.815,0,0,1,2.237-4.5,14.047,14.047,0,0,1,8.043-2.177,1,1,0,1,1,0,1.99,12.115,12.115,0,0,0-6.882,1.8A2.9,2.9,0,0,0,6,244.695c.044.3.162.434.2.446a1,1,0,0,1-.323,1.936Z" transform="translate(-3.999 -238.309)" fill="#3a313a"/>
            </g>
          </g>
          <g id="Grupo_1110101" data-name="Grupo 1110101" transform="translate(17.203 25.507)">
            <g id="Grupo_1110099" data-name="Grupo 1110099">
              <g id="XMLID_15_">
                <g id="Grupo_1110098" data-name="Grupo 1110098">
                  <path id="Trazado_881711" data-name="Trazado 881711" d="M339.8,274.889a1.216,1.216,0,0,1,.061,1.71l-2.084,2.083-2.36-2.361,2.083-2.083a1.215,1.215,0,0,1,1.71.061Z" transform="translate(-318.379 -273.914)" fill="#fd4755"/>
                  <path id="Trazado_881712" data-name="Trazado 881712" d="M174.487,448.761l-3.983,1.623,1.622-3.984Z" transform="translate(-170.504 -428.579)" fill="#935b50"/>
                  <path id="Trazado_881713" data-name="Trazado 881713" d="M192.121,403.076l-3.559,3.557-2.361-2.361,4.683-4.682.049-.048.125-.124a2.219,2.219,0,0,0-.574,1.477A2.351,2.351,0,0,0,192.121,403.076Z" transform="translate(-184.579 -386.451)" fill="#dedbee"/>
                  <path id="Trazado_881714" data-name="Trazado 881714" d="M245.362,297.2l2.36,2.361-1.655,1.657-5.7,5.7h-3.637a2.6,2.6,0,0,0-1.747.663l6.325-6.325Z" transform="translate(-228.323 -294.791)" fill="#dedbee"/>
                  <g id="Grupo_1110097" data-name="Grupo 1110097" transform="translate(0.67 6.424)">
                    <path id="Trazado_881715" data-name="Trazado 881715" d="M289.9,436.222v2.684a1.784,1.784,0,1,1-3.559,0v-2.684H289.9Z" transform="translate(-275.039 -425.876)" fill="#ffcebf"/>
                    <path id="Trazado_881716" data-name="Trazado 881716" d="M255.452,436.222v2.684a1.784,1.784,0,1,1-3.559,0v-2.684h3.559Z" transform="translate(-244.154 -425.876)" fill="#ffcebf"/>
                    <path id="Trazado_881717" data-name="Trazado 881717" d="M189.3,336.119l-6.325,6.325-.008.006c-.05.047-.1.094-.142.143a.048.048,0,0,0-.014.014l-.145.145-.049.048c-3.139,3.107-4.927,1.612-5.517,1.031l-.117-.117,6.555-6.555C184.2,336.506,186.409,335.938,189.3,336.119Z" transform="translate(-176.986 -336.085)" fill="#ffcebf"/>
                    <path id="Trazado_881718" data-name="Trazado 881718" d="M233.8,341.783l5.7-5.7h2.694l8.644,2.337,3.3.19V347l-3.3.188c-3.549,4.174-10.435,2.035-12.276-.756h-8.4a2.667,2.667,0,0,1-.867-.144,2.351,2.351,0,0,1-1.638-2.181,2.22,2.22,0,0,1,.574-1.477l.019-.021a.047.047,0,0,1,.014-.014l.15-.15a2.6,2.6,0,0,1,1.747-.663H233.8Z" transform="translate(-222.418 -336.087)" fill="#ffcebf"/>
                  </g>
                </g>
              </g>
            </g>
            <g id="Grupo_1110100" data-name="Grupo 1110100" transform="translate(29.212 6.371)">
              <path id="Trazado_881719" data-name="Trazado 881719" d="M458.892,336.587a1.016,1.016,0,0,0-1.013-1.013h-3.632a1.016,1.016,0,0,0-1.013,1.013v11.669a1.016,1.016,0,0,0,1.013,1.013h3.632a1.016,1.016,0,0,0,1.013-1.013Z" transform="translate(-453.234 -335.574)" fill="#6fd7a3"/>
              <ellipse id="Elipse_11738" data-name="Elipse 11738" cx="1.283" cy="1.283" rx="1.283" ry="1.283" transform="translate(1.546 9.352)" fill="#3a313a"/>
            </g>
          </g>
        </g>
      </g>
      <g id="Base" transform="translate(2 0.685)">
        <path id="Trazado_881720" data-name="Trazado 881720" d="M356.464,118.91a.345.345,0,0,1-.342-.592l7.173-12.423c.1-.18.238-.3.342-.3s.238.116.342.3l7.173,12.424a.345.345,0,0,1-.342.592H356.464Zm6.135-3.573a1.609,1.609,0,0,0-.574,1.233v.4a1.612,1.612,0,1,0,3.224,0v-.4a1.609,1.609,0,0,0-.574-1.233,1.609,1.609,0,0,0,.574-1.233v-4.647a1.612,1.612,0,1,0-3.224,0V114.1A1.608,1.608,0,0,0,362.6,115.337Z" transform="translate(-321.229 -97.753)" fill="#fee45a"/>
        <path id="Trazado_881721" data-name="Trazado 881721" d="M427.476,140.351a.269.269,0,0,0-.269.269v4.647a.269.269,0,0,0,.538,0V140.62A.269.269,0,0,0,427.476,140.351Z" transform="translate(-385.068 -128.915)" fill="#fe646f"/>
        <path id="Trazado_881722" data-name="Trazado 881722" d="M427.476,209.19a.269.269,0,0,0-.269.269v.4a.269.269,0,1,0,.538,0v-.4A.269.269,0,0,0,427.476,209.19Z" transform="translate(-385.068 -190.642)" fill="#fe646f"/>
        <g id="Grupo_1110103" data-name="Grupo 1110103" transform="translate(4.016)">
          <path id="Trazado_881723" data-name="Trazado 881723" d="M58.228,99.947l.172-.082v4.664l-.172.054Z" transform="translate(-58.228 -92.612)" fill="#f9f7f8"/>
          <path id="Trazado_881724" data-name="Trazado 881724" d="M59.411,277.613a1.186,1.186,0,0,1-1.184-1.185v-6.744l.172-.082V274.4a3.048,3.048,0,0,0,3.044,3.044h14.4l-.172.172Z" transform="translate(-58.227 -244.813)" fill="#f9f7f8"/>
          <path id="Trazado_881725" data-name="Trazado 881725" d="M58.228,184.816l.172-.082V189.4l-.172.054Z" transform="translate(-58.228 -168.713)" fill="#f9f7f8"/>
          <path id="Trazado_881726" data-name="Trazado 881726" d="M77.889,93.518l.172-.038v4.855l-.172.029Z" transform="translate(-75.858 -86.887)" fill="#f9f7f8"/>
          <path id="Trazado_881727" data-name="Trazado 881727" d="M77.889,178.389l.172-.038v4.855l-.172.029Z" transform="translate(-75.858 -162.989)" fill="#f9f7f8"/>
          <path id="Trazado_881728" data-name="Trazado 881728" d="M79.073,269.858a1.186,1.186,0,0,1-1.184-1.184v-5.415l.172-.038v3.422a3.048,3.048,0,0,0,3.044,3.044H96.171c-.162.054-.316.111-.459.172Z" transform="translate(-75.858 -239.09)" fill="#f9f7f8"/>
          <path id="Trazado_881729" data-name="Trazado 881729" d="M79.118,54.973q.021-.041.045-.08v.073Z" transform="translate(-76.96 -52.287)" fill="#f9f7f8"/>
          <path id="Trazado_881730" data-name="Trazado 881730" d="M98.735,58.406a1.186,1.186,0,0,1-1.184-1.185V53.537c.427-.033.865-.049,1.309-.049a1.925,1.925,0,1,0,0-3.85c-.438,0-.877.014-1.309.041V44.768c.427-.033.865-.049,1.309-.049a1.925,1.925,0,1,0,0-3.85c-.438,0-.877.014-1.309.041V36c.426-.033.864-.049,1.309-.049a1.925,1.925,0,1,0,0-3.85c-.438,0-.877.014-1.309.041V30.854a1.186,1.186,0,0,1,1.184-1.185h20.812a1.186,1.186,0,0,1,1.184,1.185V57.221a1.131,1.131,0,0,1-.016.185l-.984.984a1.126,1.126,0,0,1-.185.016H98.735Zm4.726-10.261a.93.93,0,0,0-.8,1.411l1.617,2.674a.928.928,0,0,0,.759.448h.036a.931.931,0,0,0,.756-.389l2.985-4.166a.93.93,0,0,0-1.512-1.083l-2.163,3.02-.887-1.467A.936.936,0,0,0,103.461,48.145Zm6.634,2.177a.93.93,0,0,0,0,1.86h8.582a.93.93,0,0,0,0-1.86Zm0-2.446a.93.93,0,0,0,0,1.86h3.068a.93.93,0,1,0,0-1.86Zm-6.634-7.442a.93.93,0,0,0-.8,1.411l1.617,2.674a.927.927,0,0,0,.759.448h.036a.931.931,0,0,0,.756-.389l2.985-4.166a.93.93,0,0,0-1.512-1.083l-2.163,3.02-.887-1.467A.936.936,0,0,0,103.461,40.433ZM110.1,42.61a.93.93,0,0,0,0,1.86h8.582a.93.93,0,0,0,0-1.86Zm0-2.446a.93.93,0,0,0,0,1.86h3.068a.93.93,0,1,0,0-1.86Zm-6.634-7.442a.93.93,0,0,0-.8,1.411l1.617,2.674a.927.927,0,0,0,.759.448h.036a.931.931,0,0,0,.756-.389L108.82,32.7a.93.93,0,1,0-1.512-1.083l-2.163,3.02-.887-1.467A.935.935,0,0,0,103.461,32.722ZM110.1,34.9a.93.93,0,0,0,0,1.86h8.582a.93.93,0,0,0,0-1.86Zm0-2.446a.93.93,0,0,0,0,1.86h3.068a.93.93,0,1,0,0-1.86Z" transform="translate(-93.488 -29.669)" fill="#f9f7f8"/>
        </g>
        <path id="Trazado_881731" data-name="Trazado 881731" d="M20.31,78.109a.068.068,0,0,1-.022,0,1.517,1.517,0,0,1-.9-1.295,3.9,3.9,0,0,1,1.86-3.608,13.143,13.143,0,0,1,7.5-2,.065.065,0,1,1,0,.13,13.013,13.013,0,0,0-7.424,1.978,3.821,3.821,0,0,0-1.807,3.483,1.389,1.389,0,0,0,.817,1.191.065.065,0,0,1-.022.127Z" transform="translate(-19.359 -66.909)" fill="#685e68"/>
        <path id="Trazado_881732" data-name="Trazado 881732" d="M20.31,162.981a.066.066,0,0,1-.021,0,1.516,1.516,0,0,1-.9-1.295,3.9,3.9,0,0,1,1.86-3.608,13.142,13.142,0,0,1,7.5-2,.065.065,0,1,1,0,.13,13.015,13.015,0,0,0-7.424,1.978,3.821,3.821,0,0,0-1.807,3.483,1.391,1.391,0,0,0,.816,1.191.065.065,0,0,1-.021.127Z" transform="translate(-19.359 -143.012)" fill="#685e68"/>
        <path id="Trazado_881733" data-name="Trazado 881733" d="M20.31,247.851a.066.066,0,0,1-.021,0,1.516,1.516,0,0,1-.9-1.295,3.9,3.9,0,0,1,1.86-3.608,13.141,13.141,0,0,1,7.5-2,.065.065,0,1,1,0,.13,13.015,13.015,0,0,0-7.424,1.978,3.821,3.821,0,0,0-1.807,3.483,1.389,1.389,0,0,0,.817,1.191.065.065,0,0,1-.022.127Z" transform="translate(-19.359 -219.113)" fill="#685e68"/>
        <path id="Trazado_881734" data-name="Trazado 881734" d="M354.51,278.01l1.425-1.425a.2.2,0,0,1,.142-.052.366.366,0,0,1,.253.113l.591.591a.3.3,0,0,1,.06.4l-1.426,1.425Z" transform="translate(-319.882 -251.027)" fill="#fe646f"/>
        <path id="Trazado_881735" data-name="Trazado 881735" d="M193.524,455.984l.38.381-.642.262Z" transform="translate(-175.295 -411.937)" fill="#ab695d"/>
        <path id="Trazado_881736" data-name="Trazado 881736" d="M205.3,420.487l2.252-2.252a3.254,3.254,0,0,0,.859,1.235l-2.065,2.064Z" transform="translate(-186.085 -378.088)" fill="#f9f7f8"/>
        <path id="Trazado_881737" data-name="Trazado 881737" d="M269.5,311.03l7.468-7.468,1.045,1.046-6.423,6.422Z" transform="translate(-243.655 -275.263)" fill="#f9f7f8"/>
        <path id="Trazado_881738" data-name="Trazado 881738" d="M302.553,441.6a.927.927,0,0,1-.85-.987v-1.754h1.7v1.754A.927.927,0,0,1,302.553,441.6Z" transform="translate(-272.531 -396.579)" fill="#ffdfcf"/>
        <path id="Trazado_881739" data-name="Trazado 881739" d="M268.108,441.6a.927.927,0,0,1-.849-.987v-1.754h1.7v1.754A.927.927,0,0,1,268.108,441.6Z" transform="translate(-241.646 -396.579)" fill="#ffdfcf"/>
        <path id="Trazado_881740" data-name="Trazado 881740" d="M197.67,345.866a1.658,1.658,0,0,1-.7-.151l5.805-5.805a5.775,5.775,0,0,1,2.849-.757l-4.707,4.707c-.064.059-.12.115-.172.171l-.018.019-.11.11-.074.073A4.559,4.559,0,0,1,197.67,345.866Z" transform="translate(-178.621 -307.177)" fill="#ffdfcf"/>
        <path id="Trazado_881741" data-name="Trazado 881741" d="M259.878,350.3c-.16,0-.323,0-.485-.015-2.3-.14-4.719-1.285-5.629-2.664l-.018-.027-.006-.007a.956.956,0,0,0-.082-.1c-.018-.018-.035-.034-.053-.05l-.01-.009a.838.838,0,0,0-.09-.07.627.627,0,0,0-.066-.038h0a.809.809,0,0,0-.091-.046l-.033-.014-.024-.007a.917.917,0,0,0-.178-.041l-.028,0-.022-.006h-8.471a1.734,1.734,0,0,1-.564-.094,1.424,1.424,0,0,1-1.01-1.3,1.3,1.3,0,0,1,.325-.843l.059-.049.012-.023.068-.068a1.666,1.666,0,0,1,1.11-.412h8.4a.93.93,0,1,0,0-1.86h-2.514l3.836-3.836H256.5l7.968,2.154V348.4a6.018,6.018,0,0,1-4.586,1.908Z" transform="translate(-219.909 -306.79)" fill="#ffdfcf"/>
        <path id="Trazado_881742" data-name="Trazado 881742" d="M471.1,350.042a2.223,2.223,0,0,0,1.3-.995v.912a.084.084,0,0,1-.083.083Zm-2.418,0a.084.084,0,0,1-.083-.083v-.912a2.222,2.222,0,0,0,1.3.995Zm3.715-3.265a2.212,2.212,0,0,0-3.8,0V338.29a.084.084,0,0,1,.083-.083h3.632a.084.084,0,0,1,.083.083Z" transform="translate(-422.185 -306.329)" fill="#9be69d"/>
        <path id="Trazado_881743" data-name="Trazado 881743" d="M483.916,429.43a.353.353,0,1,1,.353-.353A.354.354,0,0,1,483.916,429.43Z" transform="translate(-435.602 -387.493)" fill="#685e68"/>
      </g>
      <g id="Outline" transform="translate(0 0)">
        <path id="Trazado_881744" data-name="Trazado 881744" d="M345.605,98.964a1.759,1.759,0,0,0-1.5.968l-7.173,12.424a1.654,1.654,0,0,0,1.505,2.607h14.346a1.654,1.654,0,0,0,1.5-2.607L347.11,99.932a1.758,1.758,0,0,0-1.505-.968Zm8.048,14.766a.961.961,0,0,1-.875.406H338.432a.839.839,0,0,1-.789-1.367l7.173-12.424a.839.839,0,0,1,1.579,0l7.173,12.424A.962.962,0,0,1,353.653,113.73Z" transform="translate(-301.855 -91.119)"/>
        <path id="Trazado_881745" data-name="Trazado 881745" d="M413.936,138.717a1.1,1.1,0,0,0-1.1,1.1v4.647a1.1,1.1,0,0,0,2.191,0v-4.647A1.1,1.1,0,0,0,413.936,138.717Zm.269,5.743a.269.269,0,0,1-.538,0v-4.647a.269.269,0,1,1,.538,0Z" transform="translate(-370.186 -126.765)"/>
        <path id="Trazado_881746" data-name="Trazado 881746" d="M413.936,207.557a1.1,1.1,0,0,0-1.1,1.1v.4a1.1,1.1,0,1,0,2.191,0v-.4A1.1,1.1,0,0,0,413.936,207.557Zm.269,1.5a.269.269,0,1,1-.538,0v-.4a.269.269,0,0,1,.538,0Z" transform="translate(-370.186 -188.492)"/>
        <path id="Trazado_881747" data-name="Trazado 881747" d="M145.159,57.832a.413.413,0,0,0-.707.428l1.617,2.674a.414.414,0,0,0,.338.2h.016a.413.413,0,0,0,.336-.173l2.985-4.167a.413.413,0,0,0-.672-.481l-2.62,3.657Z" transform="translate(-129.474 -52.72)"/>
        <path id="Trazado_881748" data-name="Trazado 881748" d="M212.078,67.978H209.01a.413.413,0,1,0,0,.827h3.068a.413.413,0,1,0,0-.827Z" transform="translate(-187.045 -63.334)"/>
        <path id="Trazado_881749" data-name="Trazado 881749" d="M217.591,91.651h-8.582a.413.413,0,1,0,0,.827h8.582a.413.413,0,0,0,0-.827Z" transform="translate(-187.044 -84.562)"/>
        <path id="Trazado_881750" data-name="Trazado 881750" d="M149.649,130.852a.414.414,0,0,0-.577.1l-2.62,3.657-1.293-2.137a.413.413,0,1,0-.707.428l1.617,2.674a.414.414,0,0,0,.338.2h.016a.413.413,0,0,0,.336-.173l2.985-4.167A.413.413,0,0,0,149.649,130.852Z" transform="translate(-129.475 -119.643)"/>
        <path id="Trazado_881751" data-name="Trazado 881751" d="M209.01,143.439h3.068a.413.413,0,1,0,0-.827H209.01a.413.413,0,1,0,0,.827Z" transform="translate(-187.045 -130.257)"/>
        <path id="Trazado_881752" data-name="Trazado 881752" d="M217.591,166.286h-8.582a.413.413,0,1,0,0,.827h8.582a.413.413,0,0,0,0-.827Z" transform="translate(-187.044 -151.485)"/>
        <path id="Trazado_881753" data-name="Trazado 881753" d="M149.649,205.487a.414.414,0,0,0-.577.1l-2.62,3.657L145.16,207.1a.413.413,0,1,0-.707.428l1.617,2.674a.414.414,0,0,0,.338.2h.016a.413.413,0,0,0,.336-.173l2.985-4.167A.413.413,0,0,0,149.649,205.487Z" transform="translate(-129.475 -186.567)"/>
        <path id="Trazado_881754" data-name="Trazado 881754" d="M209.01,218.072h3.068a.413.413,0,0,0,0-.827H209.01a.413.413,0,0,0,0,.827Z" transform="translate(-187.045 -197.179)"/>
        <path id="Trazado_881755" data-name="Trazado 881755" d="M217.591,240.922h-8.582a.413.413,0,1,0,0,.827h8.582a.413.413,0,0,0,0-.827Z" transform="translate(-187.044 -218.41)"/>
        <path id="Trazado_881756" data-name="Trazado 881756" d="M51.475,54.913H47.843a1.428,1.428,0,0,0-1.427,1.427v.872L38.164,54.98a.414.414,0,0,0-.108-.014h-1.7l.951-.951,2.085-2.083a1.627,1.627,0,0,0-.061-2.293l-.591-.591a1.625,1.625,0,0,0-2.294-.061l-2.083,2.083-.418.418V25.563a2.531,2.531,0,0,0-2.528-2.528H10.608a2.531,2.531,0,0,0-2.486,2.073A2.533,2.533,0,0,0,6.09,27.14a2.535,2.535,0,0,0-1.832,1.41,10.256,10.256,0,0,0-1.81,1.031A5.223,5.223,0,0,0,.043,34.475a2.824,2.824,0,0,0,1.8,2.37,1.408,1.408,0,0,0,1.032-2.618.69.69,0,0,1-.041-.162,2.482,2.482,0,0,1,1.188-2.14v5.5a10.12,10.12,0,0,0-1.569.919A5.223,5.223,0,0,0,.043,43.244a2.824,2.824,0,0,0,1.8,2.37A1.408,1.408,0,0,0,2.871,43a.69.69,0,0,1-.041-.162,2.482,2.482,0,0,1,1.188-2.14v5.5a10.12,10.12,0,0,0-1.569.919A5.223,5.223,0,0,0,.043,52.012a2.824,2.824,0,0,0,1.8,2.37,1.408,1.408,0,0,0,1.033-2.617A.7.7,0,0,1,2.83,51.6a2.482,2.482,0,0,1,1.188-2.14v6.531a2.531,2.531,0,0,0,2.528,2.528H22.191L18,62.716a.413.413,0,0,0,0,.585l.12.12a3.224,3.224,0,0,0,2.269.983,3.365,3.365,0,0,0,.727-.082L18.95,66.483a.415.415,0,0,0-.065.086.422.422,0,0,0-.027.051h0l-1.622,3.984a.413.413,0,0,0,.539.538l3.982-1.623a.426.426,0,0,0,.074-.039.4.4,0,0,0,.065-.053l3.385-3.383a3.091,3.091,0,0,0,.335.062v2.3a2.267,2.267,0,0,0,2.193,2.33,2.155,2.155,0,0,0,1.779-.971,2.154,2.154,0,0,0,1.779.971,2.267,2.267,0,0,0,2.193-2.33V66.139h.651a9.3,9.3,0,0,0,6.538,3.08q.29.018.575.018a7.4,7.4,0,0,0,5.095-1.868v.641a1.428,1.428,0,0,0,1.427,1.426h3.632A1.428,1.428,0,0,0,52.9,68.008V56.34a1.428,1.428,0,0,0-1.427-1.427Zm.6,13.1a.6.6,0,0,1-.6.6H47.843a.6.6,0,0,1-.6-.6V56.34a.6.6,0,0,1,.6-.6h3.632a.6.6,0,0,1,.6.6ZM40.8,68.393c-2.486-.151-5.022-1.369-6.029-2.9v0a.424.424,0,0,0-.046-.057c-.008-.008-.017-.015-.025-.023a.438.438,0,0,0-.042-.034c-.008-.006-.018-.01-.027-.015a.44.44,0,0,0-.044-.024l-.015,0a.4.4,0,0,0-.088-.022.438.438,0,0,0-.053-.005h-8.4a2.248,2.248,0,0,1-.732-.122,1.94,1.94,0,0,1-1.359-1.79,1.817,1.817,0,0,1,.466-1.2l.011-.012h0l0,0,.007-.007h0l.01-.01.127-.127a2.18,2.18,0,0,1,1.466-.553h8.4a.413.413,0,1,0,0-.827H30.663l4.869-4.869H38l8.416,2.275v8.116a.4.4,0,0,0-.032.03A6.592,6.592,0,0,1,40.8,68.393Zm-9.432,1.52A1.442,1.442,0,0,1,30,68.409V66.139h2.732v2.271A1.442,1.442,0,0,1,31.366,69.913Zm-3.559,0a1.442,1.442,0,0,1-1.366-1.5V66.139h2.732v2.271A1.441,1.441,0,0,1,27.807,69.913ZM2.012,51.723a.916.916,0,0,0,.472.777.582.582,0,1,1-.378,1.1A2.017,2.017,0,0,1,.861,51.892a4.407,4.407,0,0,1,2.07-4.1,13.644,13.644,0,0,1,7.8-2.1.582.582,0,1,1,0,1.163,12.514,12.514,0,0,0-7.123,1.881,3.308,3.308,0,0,0-1.6,2.988Zm0-8.769a.917.917,0,0,0,.472.777.582.582,0,1,1-.378,1.1A2.017,2.017,0,0,1,.861,43.123a4.407,4.407,0,0,1,2.07-4.1,13.644,13.644,0,0,1,7.8-2.1.582.582,0,1,1,0,1.163,12.514,12.514,0,0,0-7.123,1.881A3.308,3.308,0,0,0,2.012,42.954Zm0-8.769a.916.916,0,0,0,.472.777.582.582,0,1,1-.378,1.1A2.017,2.017,0,0,1,.861,34.355a4.407,4.407,0,0,1,2.07-4.1,13.645,13.645,0,0,1,7.8-2.1.582.582,0,1,1,0,1.163A12.513,12.513,0,0,0,3.609,31.2a3.308,3.308,0,0,0-1.6,2.988Zm8.6-10.324H31.42a1.7,1.7,0,0,1,1.7,1.7V51.93a1.689,1.689,0,0,1-.061.444l-1.2,1.2a1.7,1.7,0,0,1-.444.061H10.608a1.7,1.7,0,0,1-1.7-1.7V47.774a17.363,17.363,0,0,1,1.826-.094,1.408,1.408,0,1,0,0-2.817c-.56,0-1.176.023-1.826.082v-5.94a17.363,17.363,0,0,1,1.826-.094,1.408,1.408,0,1,0,0-2.817c-.56,0-1.176.023-1.826.082v-5.94a17.337,17.337,0,0,1,1.826-.094,1.408,1.408,0,1,0,0-2.817c-.56,0-1.176.023-1.826.082V25.563A1.7,1.7,0,0,1,10.608,23.862Zm27.55,25.77.591.591a.8.8,0,0,1,.061,1.125l-1.792,1.791-1.776-1.777,1.79-1.79a.8.8,0,0,1,1.125.061ZM8.08,36.271c-.4.054-.8.124-1.2.211V30.606c.4-.107.806-.192,1.2-.258Zm0,8.769c-.4.054-.8.124-1.2.211V39.374c.4-.107.806-.192,1.2-.258Zm-1.205,3.1c.4-.107.806-.192,1.2-.258V51.93a2.531,2.531,0,0,0,2.528,2.528H30.977l-.533.533a12.027,12.027,0,0,0-5.122.672H8.576a1.7,1.7,0,0,1-1.7-1.7ZM29.494,60.662H26.028l-.088,0L30.9,55.706l3.759-3.759,1.776,1.777ZM8.08,25.967V27.5c-.4.054-.8.124-1.2.211v-.118a1.7,1.7,0,0,1,1.2-1.627Zm-2.032,4.9v5.82c-.4.111-.806.241-1.2.394V31.4a8.581,8.581,0,0,1,1.2-.535Zm0,8.769v5.82c-.4.111-.806.241-1.2.394V40.167A8.593,8.593,0,0,1,6.049,39.632Zm-1.2,9.3a8.582,8.582,0,0,1,1.2-.535v5.561a2.531,2.531,0,0,0,2.528,2.528H24.223l-1.205,1.205H6.545a1.7,1.7,0,0,1-1.7-1.7Zm20.291,7.81c.439-.438,2.081-.975,4.506-.953L24,61.435l-.008.007h0c-.055.051-.1.1-.149.149l-.019.02h0l-.115.115-.077.076c-1.887,1.867-3.484,2.269-4.752,1.2Zm-2.022,6.743A2.721,2.721,0,0,0,24.454,65.7L21.6,68.554l-1.777-1.777Zm-3.725,4.021,1.481,1.481-2.5,1.018Z" transform="translate(-0.002 -23.035)"/>
        <path id="Trazado_881757" data-name="Trazado 881757" d="M465.893,422.089a1.7,1.7,0,1,0,1.7,1.7A1.7,1.7,0,0,0,465.893,422.089Zm0,2.566a.87.87,0,1,1,.87-.87A.871.871,0,0,1,465.893,424.655Z" transform="translate(-416.237 -380.859)"/>
      </g>
    </g>
  </g>
</svg>
