<svg xmlns="http://www.w3.org/2000/svg" width="93" height="94" viewBox="0 0 93 94">
  <g id="Grupo_1111243" data-name="Grupo 1111243" transform="translate(-437.915 -3826.75)">
    <ellipse id="Elipse_11698" data-name="Elipse 11698" cx="46.5" cy="47" rx="46.5" ry="47" transform="translate(437.915 3826.75)" fill="#c10000"/>
    <g id="assessment_9971584" transform="translate(462.958 3849.185)">
      <g id="Grupo_1110104" data-name="Grupo 1110104" transform="translate(0.652 0.646)">
        <path id="Trazado_881758" data-name="Trazado 881758" d="M87.807,49.8H53.9V96.947H87.807Z" transform="translate(-53.9 -46.722)" fill="#e6e6e6" fill-rule="evenodd"/>
        <path id="Trazado_881759" data-name="Trazado 881759" d="M109.075,21c-1.1,0-2.009.481-2.009,1.069v3.591c0,.588.908,1.069,2.009,1.069s2.009-.481,2.009-1.069V22.069C111.094,21.481,110.186,21,109.075,21Zm10.376,0c-1.1,0-2.009.481-2.009,1.069v3.591c0,.588.908,1.069,2.009,1.069s2.009-.481,2.009-1.069V22.069C121.471,21.481,120.562,21,119.451,21ZM98.709,21c-1.1,0-2.009.481-2.009,1.069v3.591c0,.588.908,1.069,2.009,1.069s2.009-.481,2.009-1.069V22.069C100.718,21.481,99.81,21,98.709,21Z" transform="translate(-92.126 -21)" fill="#f6851f" fill-rule="evenodd"/>
        <path id="Trazado_881760" data-name="Trazado 881760" d="M418.2,141.2v28.906l2.041,5.984,2.244-5.984V141.2Z" transform="translate(-379.27 -128.355)" fill="#f6851f" fill-rule="evenodd"/>
        <path id="Trazado_881761" data-name="Trazado 881761" d="M420.79,75h-.705a1.683,1.683,0,0,0-1.785,1.56v5.525h4.285V76.549A1.7,1.7,0,0,0,420.79,75Z" transform="translate(-379.36 -69.229)" fill="#e6e6e6" fill-rule="evenodd"/>
        <path id="Trazado_881762" data-name="Trazado 881762" d="M101.27,110.02l5.471,9.479a2.249,2.249,0,0,1-1.956,3.377H93.843a2.249,2.249,0,0,1-1.956-3.377l5.471-9.479a2.265,2.265,0,0,1,3.911,0Z" transform="translate(-87.549 -99.505)" fill="#fdb614" fill-rule="evenodd"/>
      </g>
      <path id="Trazado_881763" data-name="Trazado 881763" d="M155.985,143.455l-.385-3.046v-1.582a.431.431,0,0,1,.438-.427h.93a.431.431,0,0,1,.438.427v1.592l-.374,3.046a.439.439,0,0,1-.438.374h-.171A.449.449,0,0,1,155.985,143.455Zm-.321,3.227v-.769a.422.422,0,0,1,.438-.417h.791a.429.429,0,0,1,.438.417v.769a.431.431,0,0,1-.438.427H156.1A.453.453,0,0,1,155.664,146.682Z" transform="translate(-144.08 -125.208)" fill="#e6e6e6"/>
      <path id="Trazado_881764" data-name="Trazado 881764" d="M59.053,33.283l-.385-3.046-.011-1.667a1.072,1.072,0,0,1,1.079-1.058h.93a1.079,1.079,0,0,1,1.079,1.058l-.011,1.667-.374,3.046a1.082,1.082,0,0,1-1.069.94,1.2,1.2,0,0,1-.876-.256A1.135,1.135,0,0,1,59.053,33.283Zm.887-3.2.267,2.094.256-2.094v-1.3H59.94Zm.524,0Zm-1.731,6.337v-.769A1.072,1.072,0,0,1,59.811,34.6h.8a1.079,1.079,0,0,1,1.079,1.058v.769a1.081,1.081,0,0,1-1.079,1.069h-.8A1.088,1.088,0,0,1,58.732,36.425Zm1.282-.556V36.2H60.4v-.331Zm2.693-10.077,5.471,9.479a2.889,2.889,0,0,1-2.511,4.339H54.735a2.891,2.891,0,0,1-2.5-4.349l5.471-9.479a2.884,2.884,0,0,1,5,.011ZM67.078,35.9l-5.471-9.479a1.615,1.615,0,0,0-2.8,0L53.335,35.9a1.613,1.613,0,0,0,1.4,2.426H65.678a1.588,1.588,0,0,0,.812-.214A1.616,1.616,0,0,0,67.078,35.9Zm4.606,3.291a.642.642,0,1,1,1.111-.641l.481.844,2.233-2.233a.632.632,0,0,1,.908,0,.652.652,0,0,1,0,.908L73.586,40.9a.636.636,0,0,1-1-.128Zm0-5.525a.645.645,0,0,1,.235-.876.635.635,0,0,1,.876.235l.481.844,2.233-2.233a.632.632,0,0,1,.908,0,.652.652,0,0,1,0,.908L73.6,35.367a.636.636,0,0,1-1-.128Zm1.72-3.826a.642.642,0,0,1-.908-.908l.695-.695-.695-.695a.632.632,0,0,1,0-.908.652.652,0,0,1,.908,0l.695.695.695-.695a.642.642,0,0,1,.908.908l-.695.695.695.695a.652.652,0,0,1,0,.908.632.632,0,0,1-.908,0l-.695-.695Zm-1.72,27.517a.642.642,0,1,1,1.111-.641l.481.844,2.233-2.233a.632.632,0,0,1,.908,0,.652.652,0,0,1,0,.908l-2.832,2.821a.636.636,0,0,1-1-.128Zm0-5.525a.642.642,0,1,1,1.111-.641l.481.844L75.509,49.8a.632.632,0,0,1,.908,0,.652.652,0,0,1,0,.908L73.6,53.533a.636.636,0,0,1-1-.128Zm1.72-3.826a.652.652,0,0,1-.908,0,.632.632,0,0,1,0-.908l.695-.695-.695-.695A.642.642,0,1,1,73.4,44.8l.695.695.695-.695a.632.632,0,0,1,.908,0,.652.652,0,0,1,0,.908l-.695.695.695.695a.642.642,0,0,1-.908.908l-.695-.695ZM53.913,43.146a.641.641,0,1,1,0-1.282H65.731a.641.641,0,1,1,0,1.282Zm0,8.015a.641.641,0,1,1,0-1.282H65.731a.641.641,0,1,1,0,1.282Zm0-4.007a.641.641,0,0,1,0-1.282H65.731a.641.641,0,1,1,0,1.282Zm0,8.015a.641.641,0,1,1,0-1.282H65.731a.641.641,0,1,1,0,1.282Zm0,4.007a.641.641,0,0,1,0-1.282H65.731a.641.641,0,1,1,0,1.282ZM91.015,27.8V22.917A1.065,1.065,0,0,0,89.872,22a2.2,2.2,0,0,0-1.56.3.806.806,0,0,0-.3.62V27.8Zm-4.285.641V22.917a2.327,2.327,0,0,1,2.426-2.2h.716a2.321,2.321,0,0,1,2.426,2.2v34.42a.558.558,0,0,1-.043.224l-2.233,5.952a.639.639,0,0,1-1.218.011l-2.03-5.942a.634.634,0,0,1-.053-.246v-28.9Zm1.282.641V57.242l1.432,4.189,1.582-4.2V29.083ZM65.389,16.239a2.573,2.573,0,0,0-1.122.235c-.15.085-.246.15-.246.192v3.591c0,.043.1.107.246.192a2.738,2.738,0,0,0,2.244,0c.15-.085.246-.15.246-.192V16.666c0-.043-.1-.107-.246-.192A2.573,2.573,0,0,0,65.389,16.239Zm0-1.282a3.788,3.788,0,0,1,1.72.385,1.532,1.532,0,0,1,.93,1.314v1.368H73.1V16.666a1.534,1.534,0,0,1,.93-1.325c1.571-.834,4.381-.278,4.381,1.325v1.368h3.922a.643.643,0,0,1,.641.641V65.823a.643.643,0,0,1-.641.641h-33.9a.643.643,0,0,1-.641-.641V18.675a.643.643,0,0,1,.641-.641h3.922V16.666a1.534,1.534,0,0,1,.93-1.325c1.571-.844,4.371-.278,4.371,1.314v1.368h5.065V16.666a1.534,1.534,0,0,1,.93-1.325,3.9,3.9,0,0,1,1.731-.385Zm2.661,4.36v.94c0,1.592-2.789,2.159-4.371,1.325a1.532,1.532,0,0,1-.93-1.314v-.94H57.685v.94a1.553,1.553,0,0,1-.93,1.325c-1.582.834-4.371.278-4.371-1.325v-.94h-3.3V65.181H81.707V19.316H78.416v.94c0,1.592-2.778,2.159-4.371,1.325a1.532,1.532,0,0,1-.93-1.314v-.94H68.05Zm7.715-3.078a2.573,2.573,0,0,0-1.122.235c-.15.085-.246.15-.246.192v3.591c0,.043.1.107.246.192a2.738,2.738,0,0,0,2.244,0c.15-.085.256-.15.256-.192V16.666c0-.043-.139-.128-.278-.2A2.515,2.515,0,0,0,75.766,16.239Zm-20.753,0a2.573,2.573,0,0,0-1.122.235c-.15.085-.256.15-.256.192v3.591c0,.043.139.128.278.2a2.74,2.74,0,0,0,2.244-.032c.139-.075.214-.139.214-.171V16.666c0-.032-.1-.107-.246-.192A2.454,2.454,0,0,0,55.013,16.239Z" transform="translate(-47.8 -14.951)"/>
    </g>
  </g>
</svg>
