<svg xmlns="http://www.w3.org/2000/svg" xmlns:xlink="http://www.w3.org/1999/xlink" width="157.455" height="152.162" viewBox="0 0 157.455 152.162">
  <defs>
    <filter id="Trazado_881532" x="52.427" y="47.024" width="105.028" height="105.139" filterUnits="userSpaceOnUse">
      <feOffset dx="5" dy="3" input="SourceAlpha"/>
      <feGaussianBlur stdDeviation="3" result="blur"/>
      <feFlood flood-opacity="0.161"/>
      <feComposite operator="in" in2="blur"/>
      <feComposite in="SourceGraphic"/>
    </filter>
    <filter id="Trazado_881533" x="0" y="0" width="92.156" height="92.368" filterUnits="userSpaceOnUse">
      <feOffset dx="5" dy="3" input="SourceAlpha"/>
      <feGaussianBlur stdDeviation="3" result="blur-2"/>
      <feFlood flood-opacity="0.161"/>
      <feComposite operator="in" in2="blur-2"/>
      <feComposite in="SourceGraphic"/>
    </filter>
  </defs>
  <g id="Grupo_1111243" data-name="Grupo 1111243" transform="translate(-1331 -3745.296)">
    <g id="Grupo_1109796" data-name="Grupo 1109796" transform="translate(0 -80)">
      <g transform="matrix(1, 0, 0, 1, 1331, 3825.3)" filter="url(#Trazado_881532)">
        <path id="Trazado_881532-2" data-name="Trazado 881532" d="M12.151,47.841c.2.307.4.6.608.894Q9.84,51.477,7.12,54.468A33.669,33.669,0,0,0,22.9,65.7c1.288-2.345,2.482-4.76,3.578-7.218a25.462,25.462,0,0,0,5.894,1.007q.329,4.014.97,8.014a36.173,36.173,0,0,0,9.7-1.3,36.141,36.141,0,0,0,8.919-4.048q-1.562-3.725-3.42-7.3a25.35,25.35,0,0,0,4.474-3.977c2.223,1.5,4.52,2.912,6.873,4.23a35.808,35.808,0,0,0,5.017-8.407,35.9,35.9,0,0,0,2.4-9.479c-2.6-.732-5.2-1.364-7.825-1.879a26.418,26.418,0,0,0-.334-5.989c2.555-.8,5.089-1.713,7.566-2.726A33.921,33.921,0,0,0,57.381,9.662c-2.2,1.566-4.325,3.227-6.363,4.95a25.124,25.124,0,0,0-4.875-3.474Q47.6,7.381,48.723,3.517A32.691,32.691,0,0,0,39.431.5,32.112,32.112,0,0,0,29.657.263q-.215,4.05-.095,8.035A24.933,24.933,0,0,0,23.8,9.963q-2.018-3.444-4.354-6.775l-1.114.526c-.362.189-.713.395-1.065.6-.7.412-1.416.806-2.1,1.243A36.373,36.373,0,0,0,11.3,8.566a33.086,33.086,0,0,0-3.444,3.5c-.526.628-1,1.295-1.5,1.951a18.833,18.833,0,0,0-1.354,2.045q3.037,2.69,6.236,5.085l0,.008a24.8,24.8,0,0,0-2.3,5.53c-2.643-.383-5.3-.661-8-.827A33.494,33.494,0,0,0,2.008,45.19q3.959-.685,7.867-1.7a24.8,24.8,0,0,0,2.275,4.354M23.043,17.27a19.643,19.643,0,1,1-5.7,27.181,19.667,19.667,0,0,1,5.7-27.181" transform="translate(56.43 77.14) rotate(-21)" fill="#c10000"/>
      </g>
      <g transform="matrix(1, 0, 0, 1, 1331, 3825.3)" filter="url(#Trazado_881533)">
        <path id="Trazado_881533-2" data-name="Trazado 881533" d="M65.5,212.1c.221.339.445.662.669.985q-3.215,3.021-6.212,6.316a37.1,37.1,0,0,0,17.386,12.372c1.419-2.584,2.735-5.245,3.942-7.952a28.053,28.053,0,0,0,6.494,1.11q.363,4.422,1.069,8.829a37.007,37.007,0,0,0,20.517-5.9q-1.721-4.1-3.767-8.046a27.93,27.93,0,0,0,4.93-4.382c2.449,1.651,4.98,3.208,7.573,4.66a37.256,37.256,0,0,0,8.169-19.706c-2.863-.806-5.733-1.5-8.622-2.07a29.107,29.107,0,0,0-.368-6.6c2.815-.886,5.607-1.887,8.336-3a37.373,37.373,0,0,0-10.284-18.682c-2.422,1.726-4.764,3.556-7.01,5.453a27.679,27.679,0,0,0-5.371-3.827q1.6-4.14,2.843-8.4a36.016,36.016,0,0,0-10.237-3.324,35.379,35.379,0,0,0-10.769-.262q-.237,4.462-.1,8.852a27.469,27.469,0,0,0-6.346,1.834q-2.223-3.794-4.8-7.465l-1.227.58c-.4.208-.786.435-1.173.662-.774.453-1.56.888-2.316,1.369a40.081,40.081,0,0,0-4.256,3.316,36.455,36.455,0,0,0-3.795,3.861c-.579.692-1.1,1.426-1.651,2.149a20.751,20.751,0,0,0-1.492,2.253q3.346,2.963,6.87,5.6l.005.009a27.328,27.328,0,0,0-2.533,6.092c-2.911-.422-5.839-.728-8.817-.911a36.9,36.9,0,0,0,1.17,21.294q4.362-.755,8.668-1.877a27.321,27.321,0,0,0,2.507,4.8m12-33.681a21.642,21.642,0,1,1-6.283,29.946A21.667,21.667,0,0,1,77.5,178.419" transform="translate(-48.11 -153.39)" fill="#265e92"/>
      </g>
    </g>
  </g>
</svg>
