<svg xmlns="http://www.w3.org/2000/svg" xmlns:xlink="http://www.w3.org/1999/xlink" width="85" height="85" viewBox="0 0 85 85">
  <defs>
    <filter id="Trazado_881680" x="10.001" y="8.921" width="73.999" height="74.159" filterUnits="userSpaceOnUse">
      <feOffset dx="5" dy="3" input="SourceAlpha"/>
      <feGaussianBlur stdDeviation="3" result="blur"/>
      <feFlood flood-opacity="0.161"/>
      <feComposite operator="in" in2="blur"/>
      <feComposite in="SourceGraphic"/>
    </filter>
  </defs>
  <g id="Grupo_1111240" data-name="Grupo 1111240" transform="translate(-390 -8413)">
    <circle id="Elipse_11589" data-name="Elipse 11589" cx="42.5" cy="42.5" r="42.5" transform="translate(390 8413)" fill="#740000"/>
    <g transform="matrix(1, 0, 0, 1, 390, 8413)" filter="url(#Trazado_881680)">
      <path id="Trazado_881680-2" data-name="Trazado 881680" d="M62.224,199.195c.167.256.336.5.506.744q-2.428,2.281-4.691,4.769a28.012,28.012,0,0,0,13.129,9.342c1.071-1.951,2.065-3.961,2.977-6.005a21.182,21.182,0,0,0,4.9.838q.274,3.339.807,6.668A27.945,27.945,0,0,0,95.349,211.1q-1.3-3.1-2.845-6.076a21.092,21.092,0,0,0,3.723-3.309c1.849,1.247,3.761,2.422,5.718,3.519a28.134,28.134,0,0,0,6.169-14.881c-2.162-.609-4.329-1.135-6.511-1.563a21.98,21.98,0,0,0-.278-4.983c2.125-.669,4.234-1.425,6.295-2.268a28.222,28.222,0,0,0-7.766-14.107c-1.829,1.3-3.6,2.685-5.294,4.118a20.9,20.9,0,0,0-4.056-2.89q1.211-3.126,2.147-6.34a27.2,27.2,0,0,0-7.731-2.51,26.716,26.716,0,0,0-8.132-.2q-.179,3.37-.079,6.685a20.744,20.744,0,0,0-4.792,1.385q-1.679-2.865-3.623-5.637l-.926.438c-.3.157-.594.328-.886.5-.584.342-1.178.671-1.749,1.034a30.264,30.264,0,0,0-3.214,2.5,27.528,27.528,0,0,0-2.866,2.916c-.437.522-.834,1.077-1.247,1.623a15.669,15.669,0,0,0-1.126,1.7q2.526,2.238,5.188,4.23l0,.007a20.636,20.636,0,0,0-1.913,4.6c-2.2-.318-4.409-.55-6.658-.688a27.866,27.866,0,0,0,.883,16.08q3.294-.57,6.545-1.417a20.631,20.631,0,0,0,1.893,3.623m9.062-25.434a16.343,16.343,0,1,1-4.744,22.614,16.362,16.362,0,0,1,4.744-22.614" transform="translate(-38.11 -144.47)" fill="#fff"/>
    </g>
  </g>
</svg>
