<svg xmlns="http://www.w3.org/2000/svg" width="69.107" height="69.112" viewBox="0 0 69.107 69.112">
  <g id="Gear_05" transform="translate(-0.001)">
    <g id="Grupo_1111138" data-name="Grupo 1111138" transform="translate(11.823 23.001)">
      <g id="Grupo_1111125" data-name="Grupo 1111125" transform="translate(0 2.16)">
        <rect id="Rectángulo_404831" data-name="Rectángulo 404831" width="7.859" height="2.622" transform="translate(7.568 5.589) rotate(-45.332)" fill="#12263f"/>
        <g id="Grupo_1111124" data-name="Grupo 1111124" transform="translate(0 3.143)">
          <g id="Grupo_1111121" data-name="Grupo 1111121" transform="translate(0 5.324)">
            <rect id="Rectángulo_404832" data-name="Rectángulo 404832" width="2.591" height="1.088" transform="translate(4.519 0) rotate(45.292)" fill="#12263f"/>
            <rect id="Rectángulo_404833" data-name="Rectángulo 404833" width="1.558" height="1.627" transform="translate(4.439 0.807) rotate(45.292)" fill="#12263f"/>
            <rect id="Rectángulo_404834" data-name="Rectángulo 404834" width="2.591" height="1.088" transform="translate(4.519 0) rotate(45.292)" fill="#12263f"/>
            <g id="Grupo_1111120" data-name="Grupo 1111120" transform="translate(1.587 1.891)">
              <path id="Trazado_883435" data-name="Trazado 883435" d="M1328.3,668.12v0h0l0-.268a1.566,1.566,0,0,0-.453-1.086h0a1.564,1.564,0,0,0-1.082-.464l-.269-.005h0l-.915.906h0l0,.272a1.565,1.565,0,0,0,.453,1.074l.009.01a1.564,1.564,0,0,0,1.069.463l.272.008h0Z" transform="translate(-1325.352 -666.293)" fill="#12263f"/>
              <rect id="Rectángulo_404835" data-name="Rectángulo 404835" width="1.482" height="1.04" transform="translate(0.739 1.161) rotate(45.292)" fill="#12263f"/>
            </g>
            <path id="Trazado_883436" data-name="Trazado 883436" d="M1317.359,672.3l-3.159,3.127,0,.41.424.019,3.159-3.127Z" transform="translate(-1314.2 -669.448)" fill="#12263f"/>
          </g>
          <g id="Grupo_1111122" data-name="Grupo 1111122" transform="translate(3.953 3.14)">
            <path id="Trazado_883437" data-name="Trazado 883437" d="M1341.2,645.321,1339,643.1l.113-2.37,4.46,4.5Z" transform="translate(-1339 -640.727)" fill="#12263f"/>
          </g>
          <g id="Grupo_1111123" data-name="Grupo 1111123" transform="translate(6.592 0.313)">
            <path id="Trazado_883438" data-name="Trazado 883438" d="M1357.615,623.379l2.362,2.386.368,2.059-4.785-4.834Z" transform="translate(-1355.56 -622.99)" fill="#12263f"/>
          </g>
          <rect id="Rectángulo_404836" data-name="Rectángulo 404836" width="7.215" height="4.128" transform="translate(6.613 0) rotate(45.292)" fill="#12263f"/>
        </g>
      </g>
      <g id="Grupo_1111137" data-name="Grupo 1111137" transform="translate(11.196)">
        <path id="Trazado_883439" data-name="Trazado 883439" d="M1415.6,597.026a4.883,4.883,0,0,1-1.552-.78,5.244,5.244,0,0,1-1.909-3.169c-.583-2.64-2.079-4.332-4.214-4.765a6.631,6.631,0,0,0-6.46,2.766l-.371-.263a7.1,7.1,0,0,1,6.921-2.948c2.322.47,3.944,2.286,4.568,5.112a4.549,4.549,0,0,0,4.526,3.828c2.292.063,4.527-1.211,4.982-2.84l.438.122c-.516,1.848-2.9,3.242-5.432,3.172A5.757,5.757,0,0,1,1415.6,597.026Z" transform="translate(-1398.441 -587.754)" fill="#12263f"/>
        <g id="Grupo_1111135" data-name="Grupo 1111135" transform="translate(0 0.036)">
          <rect id="Rectángulo_404837" data-name="Rectángulo 404837" width="2.622" height="11.701" transform="translate(6.384 8.906) rotate(-42.605)" fill="#12263f"/>
          <g id="Grupo_1111129" data-name="Grupo 1111129" transform="translate(11.239)">
            <path id="Trazado_883440" data-name="Trazado 883440" d="M1456.619,601.575l13.547-12.279a5.075,5.075,0,0,1,7.169.352h0a5.075,5.075,0,0,1-.352,7.169L1463.436,609.1a5.075,5.075,0,0,1-7.169-.352h0A5.075,5.075,0,0,1,1456.619,601.575Z" transform="translate(-1454.952 -587.982)" fill="#12263f"/>
            <g id="Grupo_1111128" data-name="Grupo 1111128" transform="translate(2.465 2.551)">
              <g id="Grupo_1111126" data-name="Grupo 1111126" transform="translate(13.638)">
                <path id="Trazado_883441" data-name="Trazado 883441" d="M1560.924,607.679a2.6,2.6,0,1,0-3.451,1.251A2.6,2.6,0,0,0,1560.924,607.679Z" transform="translate(-1555.977 -603.984)" fill="#12263f"/>
              </g>
              <g id="Grupo_1111127" data-name="Grupo 1111127" transform="translate(0 12.19)">
                <path id="Trazado_883442" data-name="Trazado 883442" d="M1475.372,684.134a2.6,2.6,0,1,0-3.437,1.288A2.6,2.6,0,0,0,1475.372,684.134Z" transform="translate(-1470.414 -680.464)" fill="#12263f"/>
              </g>
            </g>
          </g>
          <g id="Grupo_1111134" data-name="Grupo 1111134" transform="translate(0 0.433)">
            <path id="Trazado_883443" data-name="Trazado 883443" d="M1391.88,602.536l-6.708-7.237a2.739,2.739,0,0,1,.147-3.871h0a2.739,2.739,0,0,1,3.871.147l6.708,7.237a2.739,2.739,0,0,1-.147,3.871h0A2.739,2.739,0,0,1,1391.88,602.536Z" transform="translate(-1384.442 -590.698)" fill="#12263f"/>
            <g id="Grupo_1111131" data-name="Grupo 1111131" transform="translate(1.651 1.571)">
              <g id="Grupo_1111130" data-name="Grupo 1111130">
                <path id="Trazado_883444" data-name="Trazado 883444" d="M1396.393,600.653a1.126,1.126,0,1,0,.56,1.492A1.128,1.128,0,0,0,1396.393,600.653Z" transform="translate(-1394.8 -600.552)" fill="#12263f"/>
              </g>
            </g>
            <g id="Grupo_1111133" data-name="Grupo 1111133" transform="translate(8.404 9.04)">
              <g id="Grupo_1111132" data-name="Grupo 1111132">
                <path id="Trazado_883445" data-name="Trazado 883445" d="M1438.763,647.516a1.126,1.126,0,1,0,.559,1.491A1.128,1.128,0,0,0,1438.763,647.516Z" transform="translate(-1437.17 -647.415)" fill="#12263f"/>
              </g>
            </g>
          </g>
        </g>
        <g id="Grupo_1111136" data-name="Grupo 1111136" transform="translate(14.877 15.951)">
          <path id="Trazado_883446" data-name="Trazado 883446" d="M1480.495,689.837a1.422,1.422,0,1,0-1.883.706A1.424,1.424,0,0,0,1480.495,689.837Z" transform="translate(-1477.779 -687.826)" fill="#12263f"/>
        </g>
      </g>
    </g>
    <g id="Grupo_1111140" data-name="Grupo 1111140">
      <g id="Grupo_1111139" data-name="Grupo 1111139">
        <path id="Trazado_883447" data-name="Trazado 883447" d="M1309.115,482.9l-1.089-.164-2.669-.38a30.909,30.909,0,0,0-.707-12.208l3.695-.964a35.173,35.173,0,0,0-1.141-3.581,34.324,34.324,0,0,0-4.738-8.578l-1.682,1.263-1.367,1.028a30.989,30.989,0,0,0-9.123-8.142l1.925-3.282a34.932,34.932,0,0,0-12.746-4.446l-.54,3.773a30.918,30.918,0,0,0-12.209.707l-.964-3.695a34.508,34.508,0,0,0-12.157,5.88l2.291,3.049a30.95,30.95,0,0,0-8.143,9.122l-3.282-1.925a34.667,34.667,0,0,0-4.446,12.746l.031.007,2.485.354,1.257.179a30.974,30.974,0,0,0,.705,12.209l-3.695.965a34.726,34.726,0,0,0,5.862,12.148l3.049-2.291a31.287,31.287,0,0,0,9.139,8.152l-1.923,3.282a34.808,34.808,0,0,0,12.732,4.45l.125-.84.414-2.934a30.983,30.983,0,0,0,12.222-.709l.965,3.695a34.483,34.483,0,0,0,12.145-5.876l-2.291-3.051a31.034,31.034,0,0,0,8.156-9.124l3.282,1.923a34.914,34.914,0,0,0,4.446-12.746Zm-34.54,24.51a29.408,29.408,0,1,1,29.408-29.408A29.407,29.407,0,0,1,1274.575,507.414Z" transform="translate(-1240.021 -443.449)" fill="#f8fafc"/>
      </g>
      <path id="Trazado_883448" data-name="Trazado 883448" d="M1308.979,538.592a28.212,28.212,0,1,1,28.212-28.212A28.244,28.244,0,0,1,1308.979,538.592Zm0-55.976a27.764,27.764,0,1,0,27.764,27.764A27.8,27.8,0,0,0,1308.979,482.616Z" transform="translate(-1274.272 -475.996)" fill="#f8fafc"/>
    </g>
  </g>
</svg>
