<svg xmlns="http://www.w3.org/2000/svg" xmlns:xlink="http://www.w3.org/1999/xlink" width="1323" height="523" viewBox="0 0 1323 523">
  <defs>
    <clipPath id="clip-path">
      <rect id="Rectángulo_402662" data-name="Rectángulo 402662" width="1323" height="522" rx="24" transform="translate(-13594 -13041)" fill="#fff"/>
    </clipPath>
    <clipPath id="clip-path-2">
      <rect id="Rectángulo_402659" data-name="Rectángulo 402659" width="1337.627" height="752.415" fill="none"/>
    </clipPath>
    <linearGradient id="linear-gradient" x1="0.349" y1="0.44" x2="0.74" y2="0.849" gradientUnits="objectBoundingBox">
      <stop offset="0" stop-color="#0f1f33"/>
      <stop offset="1" stop-color="#6b8ba8"/>
    </linearGradient>
    <clipPath id="clip-path-3">
      <rect id="Rectángulo_402660" data-name="Rectángulo 402660" width="99.716" height="99.716" transform="translate(0 0)" fill="#f8fafc"/>
    </clipPath>
    <clipPath id="clip-path-4">
      <rect id="Rectángulo_402661" data-name="Rectángulo 402661" width="99.716" height="99.716" transform="translate(0 0)" fill="#ffcf64"/>
    </clipPath>
    <clipPath id="clip-path-5">
      <rect id="Rectángulo_361491" data-name="Rectángulo 361491" width="1323" height="523" transform="translate(0 -19.34)" fill="none"/>
    </clipPath>
    <clipPath id="clip-path-6">
      <path id="Rectángulo_361445" data-name="Rectángulo 361445" d="M24,0H1299a24,24,0,0,1,24,24V499a24,24,0,0,1-24,24H24A24,24,0,0,1,0,499V24A24,24,0,0,1,24,0Z" fill="none"/>
    </clipPath>
    <clipPath id="clip-path-7">
      <rect id="Rectángulo_361443" data-name="Rectángulo 361443" width="66.861" height="69.32" fill="none"/>
    </clipPath>
    <clipPath id="clip-path-10">
      <path id="Trazado_766085" data-name="Trazado 766085" d="M1468.149,538.34a255.775,255.775,0,0,0-160.88,237.975c0,141.233,113.754,255.724,254.074,255.724s254.075-114.492,254.075-255.724A255.776,255.776,0,0,0,1654.54,538.34Z" transform="translate(-1307.27 -538.34)" fill="none"/>
    </clipPath>
    <clipPath id="clip-path-11">
      <path id="Rectángulo_361490" data-name="Rectángulo 361490" d="M24,0H1299a24,24,0,0,1,24,24V499a24,24,0,0,1-24,24H24A24,24,0,0,1,0,499V24A24,24,0,0,1,24,0Z" transform="translate(0 -15.313)" fill="none"/>
    </clipPath>
    <clipPath id="clip-path-12">
      <rect id="Rectángulo_402498" data-name="Rectángulo 402498" width="121.967" height="20.373" transform="translate(0 0)" fill="#fff"/>
    </clipPath>
    <clipPath id="clip-path-13">
      <rect id="Rectángulo_402501" data-name="Rectángulo 402501" width="89.604" height="67.666" fill="none"/>
    </clipPath>
  </defs>
  <g id="Grupo_1111258" data-name="Grupo 1111258" transform="translate(-144.333 -67)">
    <g id="Grupo_1111257" data-name="Grupo 1111257">
      <g id="Enmascarar_grupo_1101615" data-name="Enmascarar grupo 1101615" transform="translate(13738.333 13109)" clip-path="url(#clip-path)">
        <g id="Grupo_1102118" data-name="Grupo 1102118" transform="translate(-13600.529 -13147)">
          <g id="Grupo_1102117" data-name="Grupo 1102117" clip-path="url(#clip-path-2)">
            <path id="Trazado_875740" data-name="Trazado 875740" d="M0,0H1486.925V1468.074H0Z" transform="matrix(0.723, -0.691, 0.691, 0.723, -375.817, 359.073)" fill="url(#linear-gradient)"/>
          </g>
        </g>
        <g id="Grupo_1102120" data-name="Grupo 1102120" transform="translate(-13113 -13084.391)">
          <g id="Grupo_1102119" data-name="Grupo 1102119" clip-path="url(#clip-path-3)">
            <path id="Trazado_875741" data-name="Trazado 875741" d="M3.89,55.182a1.945,1.945,0,1,1-1.945-1.945A1.948,1.948,0,0,1,3.89,55.182" fill="#f8fafc"/>
            <path id="Trazado_875742" data-name="Trazado 875742" d="M3.89,12.592a1.945,1.945,0,1,1-1.945-1.945A1.948,1.948,0,0,1,3.89,12.592" fill="#f8fafc"/>
            <path id="Trazado_875743" data-name="Trazado 875743" d="M3.89,76.476a1.945,1.945,0,1,1-1.945-1.945A1.948,1.948,0,0,1,3.89,76.476" fill="#f8fafc"/>
            <path id="Trazado_875744" data-name="Trazado 875744" d="M3.89,33.887a1.945,1.945,0,1,1-1.945-1.945A1.948,1.948,0,0,1,3.89,33.887" fill="#f8fafc"/>
            <path id="Trazado_875745" data-name="Trazado 875745" d="M3.89,97.771a1.945,1.945,0,1,1-1.945-1.945A1.948,1.948,0,0,1,3.89,97.771" fill="#f8fafc"/>
            <path id="Trazado_875746" data-name="Trazado 875746" d="M19.861,87.124a1.945,1.945,0,1,1-1.945-1.945,1.948,1.948,0,0,1,1.945,1.945" fill="#f8fafc"/>
            <path id="Trazado_875747" data-name="Trazado 875747" d="M19.861,65.829a1.945,1.945,0,1,1-1.945-1.945,1.948,1.948,0,0,1,1.945,1.945" fill="#f8fafc"/>
            <path id="Trazado_875748" data-name="Trazado 875748" d="M19.861,44.534a1.945,1.945,0,1,1-1.945-1.945,1.948,1.948,0,0,1,1.945,1.945" fill="#f8fafc"/>
            <path id="Trazado_875749" data-name="Trazado 875749" d="M19.861,23.24A1.945,1.945,0,1,1,17.916,21.3a1.948,1.948,0,0,1,1.945,1.945" fill="#f8fafc"/>
            <path id="Trazado_875750" data-name="Trazado 875750" d="M19.861,1.945A1.945,1.945,0,1,1,17.916,0a1.948,1.948,0,0,1,1.945,1.945" fill="#f8fafc"/>
            <path id="Trazado_875751" data-name="Trazado 875751" d="M35.832,97.771a1.945,1.945,0,1,1-1.945-1.945,1.948,1.948,0,0,1,1.945,1.945" fill="#f8fafc"/>
            <path id="Trazado_875752" data-name="Trazado 875752" d="M35.832,12.592a1.945,1.945,0,1,1-1.945-1.945,1.948,1.948,0,0,1,1.945,1.945" fill="#f8fafc"/>
            <path id="Trazado_875753" data-name="Trazado 875753" d="M35.832,33.887a1.945,1.945,0,1,1-1.945-1.945,1.948,1.948,0,0,1,1.945,1.945" fill="#f8fafc"/>
            <path id="Trazado_875754" data-name="Trazado 875754" d="M35.832,76.476a1.945,1.945,0,1,1-1.945-1.945,1.948,1.948,0,0,1,1.945,1.945" fill="#f8fafc"/>
            <path id="Trazado_875755" data-name="Trazado 875755" d="M35.832,55.182a1.945,1.945,0,1,1-1.945-1.945,1.948,1.948,0,0,1,1.945,1.945" fill="#f8fafc"/>
            <path id="Trazado_875756" data-name="Trazado 875756" d="M51.8,87.124a1.945,1.945,0,1,1-1.945-1.945A1.948,1.948,0,0,1,51.8,87.124" fill="#f8fafc"/>
            <path id="Trazado_875757" data-name="Trazado 875757" d="M51.8,23.24A1.945,1.945,0,1,1,49.858,21.3,1.948,1.948,0,0,1,51.8,23.24" fill="#f8fafc"/>
            <path id="Trazado_875758" data-name="Trazado 875758" d="M51.8,65.829a1.945,1.945,0,1,1-1.945-1.945A1.948,1.948,0,0,1,51.8,65.829" fill="#f8fafc"/>
            <path id="Trazado_875759" data-name="Trazado 875759" d="M51.8,44.534a1.945,1.945,0,1,1-1.945-1.945A1.948,1.948,0,0,1,51.8,44.534" fill="#f8fafc"/>
            <path id="Trazado_875760" data-name="Trazado 875760" d="M67.774,12.592a1.945,1.945,0,1,1-1.945-1.945,1.948,1.948,0,0,1,1.945,1.945" fill="#f8fafc"/>
            <path id="Trazado_875761" data-name="Trazado 875761" d="M67.774,76.476a1.945,1.945,0,1,1-1.945-1.945,1.948,1.948,0,0,1,1.945,1.945" fill="#f8fafc"/>
            <path id="Trazado_875762" data-name="Trazado 875762" d="M51.8,1.945A1.945,1.945,0,1,1,49.858,0,1.948,1.948,0,0,1,51.8,1.945" fill="#f8fafc"/>
            <path id="Trazado_875763" data-name="Trazado 875763" d="M67.774,97.771a1.945,1.945,0,1,1-1.945-1.945,1.948,1.948,0,0,1,1.945,1.945" fill="#f8fafc"/>
            <path id="Trazado_875764" data-name="Trazado 875764" d="M67.774,55.182a1.945,1.945,0,1,1-1.945-1.945,1.948,1.948,0,0,1,1.945,1.945" fill="#f8fafc"/>
            <path id="Trazado_875765" data-name="Trazado 875765" d="M67.774,33.887a1.945,1.945,0,1,1-1.945-1.945,1.948,1.948,0,0,1,1.945,1.945" fill="#f8fafc"/>
            <path id="Trazado_875766" data-name="Trazado 875766" d="M83.745,87.124A1.945,1.945,0,1,1,81.8,85.179a1.948,1.948,0,0,1,1.945,1.945" fill="#f8fafc"/>
            <path id="Trazado_875767" data-name="Trazado 875767" d="M83.745,65.829A1.945,1.945,0,1,1,81.8,63.884a1.948,1.948,0,0,1,1.945,1.945" fill="#f8fafc"/>
            <path id="Trazado_875768" data-name="Trazado 875768" d="M83.745,44.534A1.945,1.945,0,1,1,81.8,42.589a1.948,1.948,0,0,1,1.945,1.945" fill="#f8fafc"/>
            <path id="Trazado_875769" data-name="Trazado 875769" d="M83.745,23.24A1.945,1.945,0,1,1,81.8,21.3a1.948,1.948,0,0,1,1.945,1.945" fill="#f8fafc"/>
            <path id="Trazado_875770" data-name="Trazado 875770" d="M83.745,1.945A1.945,1.945,0,1,1,81.8,0a1.948,1.948,0,0,1,1.945,1.945" fill="#f8fafc"/>
            <path id="Trazado_875771" data-name="Trazado 875771" d="M99.716,33.887a1.945,1.945,0,1,1-1.945-1.945,1.948,1.948,0,0,1,1.945,1.945" fill="#f8fafc"/>
            <path id="Trazado_875772" data-name="Trazado 875772" d="M99.716,76.476a1.945,1.945,0,1,1-1.945-1.945,1.948,1.948,0,0,1,1.945,1.945" fill="#f8fafc"/>
            <path id="Trazado_875773" data-name="Trazado 875773" d="M99.716,12.592a1.945,1.945,0,1,1-1.945-1.945,1.948,1.948,0,0,1,1.945,1.945" fill="#f8fafc"/>
            <path id="Trazado_875774" data-name="Trazado 875774" d="M99.716,97.771a1.945,1.945,0,1,1-1.945-1.945,1.948,1.948,0,0,1,1.945,1.945" fill="#f8fafc"/>
            <path id="Trazado_875775" data-name="Trazado 875775" d="M99.716,55.182a1.945,1.945,0,1,1-1.945-1.945,1.948,1.948,0,0,1,1.945,1.945" fill="#f8fafc"/>
          </g>
        </g>
        <g id="Grupo_1102122" data-name="Grupo 1102122" transform="translate(-13290 -12586.391)">
          <g id="Grupo_1102121" data-name="Grupo 1102121" clip-path="url(#clip-path-4)">
            <path id="Trazado_875776" data-name="Trazado 875776" d="M3.89,55.182a1.945,1.945,0,1,1-1.945-1.945A1.948,1.948,0,0,1,3.89,55.182" fill="#ffcf64"/>
            <path id="Trazado_875777" data-name="Trazado 875777" d="M3.89,12.592a1.945,1.945,0,1,1-1.945-1.945A1.948,1.948,0,0,1,3.89,12.592" fill="#ffcf64"/>
            <path id="Trazado_875778" data-name="Trazado 875778" d="M3.89,76.476a1.945,1.945,0,1,1-1.945-1.945A1.948,1.948,0,0,1,3.89,76.476" fill="#ffcf64"/>
            <path id="Trazado_875779" data-name="Trazado 875779" d="M3.89,33.887a1.945,1.945,0,1,1-1.945-1.945A1.948,1.948,0,0,1,3.89,33.887" fill="#ffcf64"/>
            <path id="Trazado_875780" data-name="Trazado 875780" d="M3.89,97.771a1.945,1.945,0,1,1-1.945-1.945A1.948,1.948,0,0,1,3.89,97.771" fill="#ffcf64"/>
            <path id="Trazado_875781" data-name="Trazado 875781" d="M19.861,87.124a1.945,1.945,0,1,1-1.945-1.945,1.948,1.948,0,0,1,1.945,1.945" fill="#ffcf64"/>
            <path id="Trazado_875782" data-name="Trazado 875782" d="M19.861,65.829a1.945,1.945,0,1,1-1.945-1.945,1.948,1.948,0,0,1,1.945,1.945" fill="#ffcf64"/>
            <path id="Trazado_875783" data-name="Trazado 875783" d="M19.861,44.534a1.945,1.945,0,1,1-1.945-1.945,1.948,1.948,0,0,1,1.945,1.945" fill="#ffcf64"/>
            <path id="Trazado_875784" data-name="Trazado 875784" d="M19.861,23.24A1.945,1.945,0,1,1,17.916,21.3a1.948,1.948,0,0,1,1.945,1.945" fill="#ffcf64"/>
            <path id="Trazado_875785" data-name="Trazado 875785" d="M19.861,1.945A1.945,1.945,0,1,1,17.916,0a1.948,1.948,0,0,1,1.945,1.945" fill="#ffcf64"/>
            <path id="Trazado_875786" data-name="Trazado 875786" d="M35.832,97.771a1.945,1.945,0,1,1-1.945-1.945,1.948,1.948,0,0,1,1.945,1.945" fill="#ffcf64"/>
            <path id="Trazado_875787" data-name="Trazado 875787" d="M35.832,12.592a1.945,1.945,0,1,1-1.945-1.945,1.948,1.948,0,0,1,1.945,1.945" fill="#ffcf64"/>
            <path id="Trazado_875788" data-name="Trazado 875788" d="M35.832,33.887a1.945,1.945,0,1,1-1.945-1.945,1.948,1.948,0,0,1,1.945,1.945" fill="#ffcf64"/>
            <path id="Trazado_875789" data-name="Trazado 875789" d="M35.832,76.476a1.945,1.945,0,1,1-1.945-1.945,1.948,1.948,0,0,1,1.945,1.945" fill="#ffcf64"/>
            <path id="Trazado_875790" data-name="Trazado 875790" d="M35.832,55.182a1.945,1.945,0,1,1-1.945-1.945,1.948,1.948,0,0,1,1.945,1.945" fill="#ffcf64"/>
            <path id="Trazado_875791" data-name="Trazado 875791" d="M51.8,87.124a1.945,1.945,0,1,1-1.945-1.945A1.948,1.948,0,0,1,51.8,87.124" fill="#ffcf64"/>
            <path id="Trazado_875792" data-name="Trazado 875792" d="M51.8,23.24A1.945,1.945,0,1,1,49.858,21.3,1.948,1.948,0,0,1,51.8,23.24" fill="#ffcf64"/>
            <path id="Trazado_875793" data-name="Trazado 875793" d="M51.8,65.829a1.945,1.945,0,1,1-1.945-1.945A1.948,1.948,0,0,1,51.8,65.829" fill="#ffcf64"/>
            <path id="Trazado_875794" data-name="Trazado 875794" d="M51.8,44.534a1.945,1.945,0,1,1-1.945-1.945A1.948,1.948,0,0,1,51.8,44.534" fill="#ffcf64"/>
            <path id="Trazado_875795" data-name="Trazado 875795" d="M67.774,12.592a1.945,1.945,0,1,1-1.945-1.945,1.948,1.948,0,0,1,1.945,1.945" fill="#ffcf64"/>
            <path id="Trazado_875796" data-name="Trazado 875796" d="M67.774,76.476a1.945,1.945,0,1,1-1.945-1.945,1.948,1.948,0,0,1,1.945,1.945" fill="#ffcf64"/>
            <path id="Trazado_875797" data-name="Trazado 875797" d="M51.8,1.945A1.945,1.945,0,1,1,49.858,0,1.948,1.948,0,0,1,51.8,1.945" fill="#ffcf64"/>
            <path id="Trazado_875798" data-name="Trazado 875798" d="M67.774,97.771a1.945,1.945,0,1,1-1.945-1.945,1.948,1.948,0,0,1,1.945,1.945" fill="#ffcf64"/>
            <path id="Trazado_875799" data-name="Trazado 875799" d="M67.774,55.182a1.945,1.945,0,1,1-1.945-1.945,1.948,1.948,0,0,1,1.945,1.945" fill="#ffcf64"/>
            <path id="Trazado_875800" data-name="Trazado 875800" d="M67.774,33.887a1.945,1.945,0,1,1-1.945-1.945,1.948,1.948,0,0,1,1.945,1.945" fill="#ffcf64"/>
            <path id="Trazado_875801" data-name="Trazado 875801" d="M83.745,87.124A1.945,1.945,0,1,1,81.8,85.179a1.948,1.948,0,0,1,1.945,1.945" fill="#ffcf64"/>
            <path id="Trazado_875802" data-name="Trazado 875802" d="M83.745,65.829A1.945,1.945,0,1,1,81.8,63.884a1.948,1.948,0,0,1,1.945,1.945" fill="#ffcf64"/>
            <path id="Trazado_875803" data-name="Trazado 875803" d="M83.745,44.534A1.945,1.945,0,1,1,81.8,42.589a1.948,1.948,0,0,1,1.945,1.945" fill="#ffcf64"/>
            <path id="Trazado_875804" data-name="Trazado 875804" d="M83.745,23.24A1.945,1.945,0,1,1,81.8,21.3a1.948,1.948,0,0,1,1.945,1.945" fill="#ffcf64"/>
            <path id="Trazado_875805" data-name="Trazado 875805" d="M83.745,1.945A1.945,1.945,0,1,1,81.8,0a1.948,1.948,0,0,1,1.945,1.945" fill="#ffcf64"/>
            <path id="Trazado_875806" data-name="Trazado 875806" d="M99.716,33.887a1.945,1.945,0,1,1-1.945-1.945,1.948,1.948,0,0,1,1.945,1.945" fill="#ffcf64"/>
            <path id="Trazado_875807" data-name="Trazado 875807" d="M99.716,76.476a1.945,1.945,0,1,1-1.945-1.945,1.948,1.948,0,0,1,1.945,1.945" fill="#ffcf64"/>
            <path id="Trazado_875808" data-name="Trazado 875808" d="M99.716,12.592a1.945,1.945,0,1,1-1.945-1.945,1.948,1.948,0,0,1,1.945,1.945" fill="#ffcf64"/>
            <path id="Trazado_875809" data-name="Trazado 875809" d="M99.716,97.771a1.945,1.945,0,1,1-1.945-1.945,1.948,1.948,0,0,1,1.945,1.945" fill="#ffcf64"/>
            <path id="Trazado_875810" data-name="Trazado 875810" d="M99.716,55.182a1.945,1.945,0,1,1-1.945-1.945,1.948,1.948,0,0,1,1.945,1.945" fill="#ffcf64"/>
          </g>
        </g>
      </g>
      <g id="Grupo_1102124" data-name="Grupo 1102124" transform="translate(-377.648 -456)">
        <g id="Grupo_1025657" data-name="Grupo 1025657" transform="translate(521.981 542.34)" clip-path="url(#clip-path-5)">
          <g id="Grupo_1025577" data-name="Grupo 1025577" transform="translate(0 -4.027)">
            <g id="Grupo_1025576" data-name="Grupo 1025576" transform="translate(0 -15.313)" clip-path="url(#clip-path-6)">
              <g id="Grupo_1025572" data-name="Grupo 1025572" transform="translate(973.784 521.861)" opacity="0.34">
                <g id="Grupo_1025571" data-name="Grupo 1025571">
                  <g id="Grupo_1025570" data-name="Grupo 1025570" clip-path="url(#clip-path-7)">
                    <g id="Grupo_1025569" data-name="Grupo 1025569" opacity="0.39">
                      <g id="Grupo_1025568" data-name="Grupo 1025568">
                        <g id="Grupo_1025567" data-name="Grupo 1025567" clip-path="url(#clip-path-7)">
                          <ellipse id="Elipse_8513" data-name="Elipse 8513" cx="32.187" cy="33.373" rx="32.187" ry="33.373" transform="translate(1.243 1.287)" fill="none" stroke="#fff" stroke-miterlimit="10" stroke-width="2.481"/>
                        </g>
                      </g>
                    </g>
                  </g>
                </g>
              </g>
            </g>
          </g>
        </g>
      </g>
      <g id="Grupo_1102126" data-name="Grupo 1102126" transform="translate(200.333 532.347)">
        <g id="Grupo_1101601" data-name="Grupo 1101601" clip-path="url(#clip-path-12)">
          <path id="Trazado_874406" data-name="Trazado 874406" d="M.68,20.373a.68.68,0,0,1-.68-.68V.68A.678.678,0,0,1,.34.092a.673.673,0,0,1,.68,0L17.485,9.6a.679.679,0,0,1,0,1.177L1.02,20.282a.675.675,0,0,1-.34.091M1.36,1.858V18.515l14.425-8.328Z" fill="#fff"/>
          <path id="Trazado_874407" data-name="Trazado 874407" d="M26.716,20.373a.68.68,0,0,1-.68-.68V.68a.678.678,0,0,1,.34-.588.673.673,0,0,1,.68,0L43.521,9.6a.679.679,0,0,1,0,1.177L27.056,20.282a.675.675,0,0,1-.34.091M27.4,1.858V18.515l14.425-8.328Z" fill="#fff"/>
          <path id="Trazado_874408" data-name="Trazado 874408" d="M52.751,20.373a.68.68,0,0,1-.68-.68V.68a.678.678,0,0,1,.34-.588.673.673,0,0,1,.68,0L69.556,9.6a.679.679,0,0,1,0,1.177L53.091,20.282a.675.675,0,0,1-.34.091m.68-18.515V18.515l14.425-8.328Z" fill="#fff"/>
          <path id="Trazado_874409" data-name="Trazado 874409" d="M78.787,20.373a.68.68,0,0,1-.68-.68V.68a.678.678,0,0,1,.34-.588.673.673,0,0,1,.68,0L95.592,9.6a.679.679,0,0,1,0,1.177L79.127,20.282a.675.675,0,0,1-.34.091m.68-18.515V18.515l14.425-8.328Z" fill="#fff"/>
          <path id="Trazado_874410" data-name="Trazado 874410" d="M104.822,20.373a.68.68,0,0,1-.68-.68V.68a.678.678,0,0,1,.34-.588.673.673,0,0,1,.68,0L121.627,9.6a.679.679,0,0,1,0,1.177l-16.465,9.507a.675.675,0,0,1-.34.091m.68-18.515V18.515l14.425-8.328Z" fill="#fff"/>
        </g>
      </g>
      <g id="Grupo_1102127" data-name="Grupo 1102127" transform="translate(196.712 99.016)">
        <g id="Grupo_1101607" data-name="Grupo 1101607" transform="translate(0 0)" clip-path="url(#clip-path-13)">
          <path id="Trazado_874481" data-name="Trazado 874481" d="M61.913,30.277a14.736,14.736,0,0,1-3.365-.384.522.522,0,0,1-.39-.623l.44-1.944a12.4,12.4,0,0,1-3.33-1.444l-1.13,1.655a.522.522,0,0,1-.336.219.53.53,0,0,1-.392-.084,15.288,15.288,0,0,1-5.176-6.005.521.521,0,0,1,.244-.691l1.79-.869a12.538,12.538,0,0,1-.949-3.517l-1.981.155a.522.522,0,0,1-.561-.48A14.974,14.974,0,0,1,48.24,8.45a.521.521,0,0,1,.694-.237l1.788.862A12.694,12.694,0,0,1,52.88,6.148L51.518,4.69a.522.522,0,0,1,.016-.729A14.666,14.666,0,0,1,54.791,1.63l.335-.168a11.174,11.174,0,0,1,1.522-.67l.3-.108c.211-.077.421-.153.634-.215L58.54.228a.531.531,0,0,1,.4.061.522.522,0,0,1,.236.33l.44,1.948a12.949,12.949,0,0,1,3.643-.147L63.551.446A.52.52,0,0,1,64.13,0,14.753,14.753,0,0,1,67.988,1.09l.4.193A12.072,12.072,0,0,1,69.8,2.03,14.446,14.446,0,0,1,71.42,3.154a.523.523,0,0,1,.092.74L70.267,5.457A12.646,12.646,0,0,1,72.651,8.21l1.715-1a.523.523,0,0,1,.71.18l.556,1.037c.121.248.244.5.357.761.071.2.133.364.195.529a10.643,10.643,0,0,1,.454,1.4,15.587,15.587,0,0,1,.526,3.927.522.522,0,0,1-.522.538h-2a12.511,12.511,0,0,1-.674,3.584l1.858.718a.522.522,0,0,1,.3.668l-.047.13c-.043.122-.086.242-.137.358l-.336.7c-.106.216-.211.43-.325.639l-.22.371a11.6,11.6,0,0,1-.872,1.334,15.085,15.085,0,0,1-2.758,2.873.506.506,0,0,1-.385.115.517.517,0,0,1-.353-.193L69.451,25.32a12.788,12.788,0,0,1-3.217,1.71l.6,1.914a.522.522,0,0,1-.348.657,16.013,16.013,0,0,1-4.576.677m-2.62-1.291a14.46,14.46,0,0,0,6.387-.242l-.6-1.888a.522.522,0,0,1,.342-.655,11.765,11.765,0,0,0,3.791-2.014.523.523,0,0,1,.731.084l1.229,1.537a13.573,13.573,0,0,0,2.182-2.353,10.861,10.861,0,0,0,.806-1.236l.213-.358c.1-.177.195-.379.295-.582l.292-.609-1.851-.716a.521.521,0,0,1-.3-.678,11.478,11.478,0,0,0,.794-4.216.521.521,0,0,1,.522-.522H76.1a13.489,13.489,0,0,0-.47-3.157,10.018,10.018,0,0,0-.422-1.3c-.064-.172-.129-.343-.19-.515-.092-.211-.209-.45-.323-.684l-.248-.513-1.71,1a.527.527,0,0,1-.4.054.516.516,0,0,1-.318-.242,11.628,11.628,0,0,0-2.807-3.243.522.522,0,0,1-.082-.733l1.23-1.544a10.722,10.722,0,0,0-1.1-.739,11.316,11.316,0,0,0-1.314-.7l-.384-.183a14.639,14.639,0,0,0-3.053-.928l-.291,1.961a.521.521,0,0,1-.589.44,11.69,11.69,0,0,0-4.283.177.507.507,0,0,1-.4-.064.521.521,0,0,1-.234-.328l-.436-1.93-.417.105c-.174.051-.361.119-.55.188l-.329.117a10.126,10.126,0,0,0-1.386.613l-.32.16a14.592,14.592,0,0,0-2.637,1.8l1.354,1.45a.523.523,0,0,1-.026.738,11.643,11.643,0,0,0-2.541,3.446.519.519,0,0,1-.7.242l-1.774-.855a13.932,13.932,0,0,0-1.166,6.282l1.962-.154a.522.522,0,0,1,.561.482,11.536,11.536,0,0,0,1.115,4.138.522.522,0,0,1-.243.694l-1.775.862a14.268,14.268,0,0,0,4.171,4.824l1.116-1.635a.523.523,0,0,1,.725-.138,11.377,11.377,0,0,0,3.917,1.7.523.523,0,0,1,.394.625Z" transform="translate(-10.872 0)" fill="#fff"/>
          <path id="Trazado_874482" data-name="Trazado 874482" d="M100.607,55.535c0-.209-.005-.414-.012-.618,1.5-.266,3-.59,4.494-.981a19.26,19.26,0,0,0-4.046-10.316c-1.35.721-2.678,1.5-3.972,2.338a14.545,14.545,0,0,0-2.508-2.327q1.1-2.026,2.043-4.142a19.21,19.21,0,0,0-10.593-3.263c-.279,1.516-.494,3.042-.647,4.568a14.467,14.467,0,0,0-3.388.5c-.6-1.413-1.254-2.809-1.968-4.176a19.334,19.334,0,0,0-9.147,6.247q1.523,1.745,3.16,3.348a15.1,15.1,0,0,0-1.714,2.973c-1.475-.414-2.973-.771-4.477-1.061A19.409,19.409,0,0,0,67,59.672c1.543-.062,3.081-.193,4.6-.38a14.373,14.373,0,0,0,1.248,3.188q-1.872,1.346-3.62,2.843a18.672,18.672,0,0,0,3.507,4.352,18.35,18.35,0,0,0,4.607,3.172q1.37-1.873,2.559-3.819a14.265,14.265,0,0,0,3.279,1c-.074,1.521-.084,3.053-.034,4.607l.7.1c.233.023.465.035.7.045.466.023.931.057,1.4.063a20.778,20.778,0,0,0,2.792-.233,18.912,18.912,0,0,0,2.746-.6c.448-.137.886-.307,1.328-.466a10.723,10.723,0,0,0,1.288-.556c-.408-1.493-.874-2.95-1.4-4.386V68.6a14.14,14.14,0,0,0,2.832-1.929c1.146,1.011,2.332,1.975,3.574,2.9a19.159,19.159,0,0,0,5.538-9.59q-2.111-.91-4.3-1.645a14.156,14.156,0,0,0,.272-2.8m-6.735.051a7.949,7.949,0,0,1-.147,1.521c.794.266,1.572.567,2.337.9a10.4,10.4,0,0,1-3.013,5.22c-.675-.5-1.322-1.033-1.946-1.578a7.917,7.917,0,0,1-1.538,1.05c.283.783.533,1.578.76,2.389a6.911,6.911,0,0,1-.7.3c-.239.085-.477.182-.721.256a10.35,10.35,0,0,1-1.5.323,11.253,11.253,0,0,1-1.52.13c-.25-.005-.5-.022-.755-.034-.13-.005-.256-.012-.38-.028l-.381-.051c-.028-.846-.022-1.68.018-2.508a7.636,7.636,0,0,1-1.788-.545c-.431.71-.9,1.4-1.39,2.077a10.513,10.513,0,0,1-4.415-4.092q.945-.816,1.969-1.549a7.951,7.951,0,0,1-.681-1.737c-.823.1-1.662.17-2.5.2a10.6,10.6,0,0,1,.454-6.008c.817.159,1.634.351,2.44.579a8.17,8.17,0,0,1,.93-1.618c-.6-.579-1.169-1.192-1.719-1.821a10.428,10.428,0,0,1,4.976-3.4c.391.744.749,1.5,1.072,2.27a7.9,7.9,0,0,1,1.844-.272c.085-.834.2-1.662.352-2.485a10.383,10.383,0,0,1,5.764,1.776c-.34.766-.714,1.515-1.112,2.253a8.045,8.045,0,0,1,1.367,1.265c.7-.454,1.424-.879,2.162-1.271a10.519,10.519,0,0,1,2.2,5.612c-.812.216-1.629.391-2.446.533,0,.114.005.227.005.341" transform="translate(-15.485 -8.428)" fill="#868c90"/>
          <path id="Trazado_874483" data-name="Trazado 874483" d="M94.593,60.117a4.2,4.2,0,1,1-4.2-4.2,4.2,4.2,0,0,1,4.2,4.2" transform="translate(-20.053 -13.008)" fill="#868c90"/>
          <path id="Trazado_874484" data-name="Trazado 874484" d="M43.043,50.462h4.026a24.252,24.252,0,0,0-.834-6.136,25.039,25.039,0,0,0-.991-2.95c-.2-.473-.435-.939-.66-1.4l-.338-.7-.4-.668-3.462,2.02A19.46,19.46,0,0,0,35.692,35.2L38.2,32.064A22.663,22.663,0,0,0,35.647,30.3a23.941,23.941,0,0,0-2.756-1.434,23.606,23.606,0,0,0-5.97-1.682l-.578,3.965a19.362,19.362,0,0,0-2.824-.2,18.836,18.836,0,0,0-4.34.5l-.893-3.92-1.5.383c-.5.135-.984.338-1.472.511a22.607,22.607,0,0,0-2.838,1.262,23.675,23.675,0,0,0-5.032,3.612l2.741,2.928a19.592,19.592,0,0,0-4.25,5.767l-3.6-1.734A23.361,23.361,0,0,0,.069,52.317l3.995-.308a19.517,19.517,0,0,0,1.869,6.924l-3.6,1.742a23.8,23.8,0,0,0,8.012,9.3L12.6,66.637a19.1,19.1,0,0,0,6.578,2.846l-.893,3.92a23.979,23.979,0,0,0,12.277-.466l-1.209-3.844a19.5,19.5,0,0,0,6.338-3.372L38.2,68.86a23.66,23.66,0,0,0,4.28-4.468,25.557,25.557,0,0,0,1.682-2.606c.248-.458.466-.931.691-1.4l.33-.7c.105-.24.188-.488.278-.728l-3.739-1.45a19.283,19.283,0,0,0,1.321-7.05M23.535,66.914a16.4,16.4,0,1,1,16.4-16.392,16.408,16.408,0,0,1-16.4,16.392" transform="translate(0 -6.324)" fill="#ffcf64"/>
          <path id="Trazado_874485" data-name="Trazado 874485" d="M26.383,39.162A14.143,14.143,0,1,0,40.53,53.309,14.16,14.16,0,0,0,26.383,39.162m0,21.649a7.505,7.505,0,1,1,7.509-7.5,7.505,7.505,0,0,1-7.509,7.5" transform="translate(-2.848 -9.111)" fill="#ffcf64"/>
        </g>
      </g>
      <g id="Grupo_1102132" data-name="Grupo 1102132" transform="translate(12691.333 12293.168)">
        <path id="Trazado_874772" data-name="Trazado 874772" d="M274.36,79.027,281.087,61.4h7.884l-6.726,17.631Z" transform="translate(-11912.752 -12285.564)" fill="#ffcf64"/>
        <path id="Trazado_874773" data-name="Trazado 874773" d="M295.54,79.027,302.267,61.4h7.884l-6.726,17.631Z" transform="translate(-11916.498 -12285.564)" fill="#ffcf64"/>
        <path id="Trazado_874774" data-name="Trazado 874774" d="M316.72,79.027,323.447,61.4h7.884L324.6,79.027Z" transform="translate(-11920.243 -12285.564)" fill="#ffcf64"/>
        <path id="Trazado_874775" data-name="Trazado 874775" d="M337.9,79.027,344.626,61.4h7.884l-6.726,17.631Z" transform="translate(-11923.989 -12285.564)" fill="#ffcf64"/>
        <path id="Trazado_874776" data-name="Trazado 874776" d="M359.08,79.027,365.806,61.4h7.884l-6.726,17.631Z" transform="translate(-11927.735 -12285.564)" fill="#ffcf64"/>
        <path id="Trazado_874777" data-name="Trazado 874777" d="M380.259,79.027,386.986,61.4h7.884l-6.726,17.631Z" transform="translate(-11931.481 -12285.564)" fill="#ffcf64"/>
        <path id="Trazado_874778" data-name="Trazado 874778" d="M401.439,79.027,408.166,61.4h7.884l-6.726,17.631Z" transform="translate(-11935.227 -12285.564)" fill="#ffcf64"/>
        <path id="Trazado_874779" data-name="Trazado 874779" d="M422.619,79.027,429.346,61.4h7.884L430.5,79.027Z" transform="translate(-11938.973 -12285.564)" fill="#ffcf64"/>
      </g>
    </g>
  </g>
</svg>
