<svg xmlns="http://www.w3.org/2000/svg" width="1030" height="199.5" viewBox="0 0 1030 199.5">
  <g id="Grupo_1107713" data-name="Grupo 1107713" transform="translate(-285.051 -11284.28)">
    <g id="Rectángulo_403536" data-name="Rectángulo 403536" transform="translate(285.051 11284.28)" fill="#fff" stroke="#e1e1e1" stroke-width="1">
      <rect width="1030" height="199" stroke="none"/>
      <rect x="0.5" y="0.5" width="1029" height="198" fill="none"/>
    </g>
    <path id="Trazado_878157" data-name="Trazado 878157" d="M0,0H1030V61H0Z" transform="translate(285.051 11284.28)" fill="#e69999"/>
    <line id="Línea_3994" data-name="Línea 3994" x1="1029" transform="translate(286.051 11393.703)" fill="none" stroke="#e1e1e1" stroke-width="1"/>
    <line id="Línea_3995" data-name="Línea 3995" y2="136.602" transform="translate(838.051 11345.41)" fill="none" stroke="#e1e1e1" stroke-width="1"/>
    <path id="Trazado_883594" data-name="Trazado 883594" d="M-57.45-4.526h-1.67V0H-62.2V-12.8h5.036a5.621,5.621,0,0,1,3.56,1.01,3.421,3.421,0,0,1,1.283,2.853,4.155,4.155,0,0,1-.541,2.213A3.837,3.837,0,0,1-54.558-5.3l2.672,5.167V0h-3.3ZM-59.12-6.9h1.951a1.751,1.751,0,0,0,1.323-.463A1.788,1.788,0,0,0-55.4-8.653a1.809,1.809,0,0,0-.448-1.3,1.735,1.735,0,0,0-1.318-.471H-59.12Zm19.494.765a7.546,7.546,0,0,1-.694,3.313A5.132,5.132,0,0,1-42.293-.6a5.494,5.494,0,0,1-2.914.778,5.572,5.572,0,0,1-2.9-.751A5.123,5.123,0,0,1-50.08-2.725a7.329,7.329,0,0,1-.743-3.208v-.721a7.58,7.58,0,0,1,.69-3.318,5.119,5.119,0,0,1,1.978-2.219,5.533,5.533,0,0,1,2.931-.782,5.479,5.479,0,0,1,2.9.773A5.211,5.211,0,0,1-40.342-10a7.362,7.362,0,0,1,.716,3.274Zm-3.138-.536a5.381,5.381,0,0,0-.637-2.9,2.044,2.044,0,0,0-1.824-.989q-2.32,0-2.452,3.48l-.009.94a5.535,5.535,0,0,0,.624,2.892,2.041,2.041,0,0,0,1.854,1.011,2.016,2.016,0,0,0,1.8-.993,5.383,5.383,0,0,0,.642-2.856ZM-38.035,0V-12.8h4.122a6.064,6.064,0,0,1,3.05.769,5.406,5.406,0,0,1,2.114,2.171,6.554,6.554,0,0,1,.769,3.142v.589a6.592,6.592,0,0,1-.743,3.151A5.429,5.429,0,0,1-30.814-.8a5.93,5.93,0,0,1-3.01.8Zm3.085-10.415v8.042h1.072a2.4,2.4,0,0,0,2.039-.945,4.63,4.63,0,0,0,.712-2.808V-6.68a4.592,4.592,0,0,0-.712-2.795,2.442,2.442,0,0,0-2.074-.94Zm15.636,8.024h-4.228L-24.28,0h-3.3l4.693-12.8h2.9L-15.253,0h-3.313ZM-22.8-4.772h2.751l-1.38-4.438ZM-10.27-12.8l2.856,8.9,2.848-8.9H-.505V0H-3.6V-2.988l.3-6.117L-6.394,0H-8.433l-3.1-9.114.3,6.126V0h-3.085V-12.8ZM4.742,0H1.666V-12.8H4.742ZM14.823-5.432H9.971v3.059H15.7V0H6.886V-12.8h8.833v2.382H9.971v2.7h4.852ZM27.646,0H24.579L20.043-7.963V0H16.958V-12.8h3.085L24.57-4.834V-12.8h3.076ZM39.388-10.415H35.547V0H32.462V-10.415H28.692V-12.8h10.7ZM51.28-6.135a7.546,7.546,0,0,1-.694,3.313A5.132,5.132,0,0,1,48.612-.6,5.494,5.494,0,0,1,45.7.176a5.572,5.572,0,0,1-2.9-.751,5.123,5.123,0,0,1-1.973-2.149,7.329,7.329,0,0,1-.743-3.208v-.721a7.58,7.58,0,0,1,.69-3.318A5.119,5.119,0,0,1,42.75-12.19a5.533,5.533,0,0,1,2.931-.782,5.479,5.479,0,0,1,2.9.773A5.211,5.211,0,0,1,50.563-10a7.362,7.362,0,0,1,.716,3.274Zm-3.138-.536a5.381,5.381,0,0,0-.637-2.9,2.044,2.044,0,0,0-1.824-.989q-2.32,0-2.452,3.48l-.009.94a5.535,5.535,0,0,0,.624,2.892A2.041,2.041,0,0,0,45.7-2.232a2.016,2.016,0,0,0,1.8-.993,5.383,5.383,0,0,0,.642-2.856ZM59.471-3.4a1.268,1.268,0,0,0-.479-1.055,5.954,5.954,0,0,0-1.683-.782,16.147,16.147,0,0,1-1.969-.782q-2.487-1.222-2.487-3.357a3.011,3.011,0,0,1,.62-1.876,4.008,4.008,0,0,1,1.753-1.266,6.823,6.823,0,0,1,2.549-.453,5.969,5.969,0,0,1,2.474.492,3.917,3.917,0,0,1,1.7,1.4A3.661,3.661,0,0,1,62.556-9H59.48A1.547,1.547,0,0,0,59-10.213a1.867,1.867,0,0,0-1.3-.431,2.106,2.106,0,0,0-1.305.365,1.119,1.119,0,0,0-.479.927,1.127,1.127,0,0,0,.527.892,6.65,6.65,0,0,0,1.854.826,11.36,11.36,0,0,1,2.18.918,3.663,3.663,0,0,1,2.074,3.3A3.125,3.125,0,0,1,61.291-.782a5.629,5.629,0,0,1-3.472.958A6.888,6.888,0,0,1,55-.382a4.247,4.247,0,0,1-1.9-1.529,3.985,3.985,0,0,1-.637-2.237H55.56a1.963,1.963,0,0,0,.532,1.516,2.513,2.513,0,0,0,1.727.488,1.985,1.985,0,0,0,1.208-.33A1.088,1.088,0,0,0,59.471-3.4Z" transform="translate(825.051 11321.28)" fill="#12263f"/>
    <line id="Línea_3996" data-name="Línea 3996" y2="137.605" transform="translate(569.745 11345.675)" fill="none" stroke="#e1e1e1" stroke-width="1"/>
    <line id="Línea_3997" data-name="Línea 3997" x1="1029" transform="translate(285.051 11438.28)" fill="none" stroke="#e1e1e1" stroke-width="1"/>
    <line id="Línea_3999" data-name="Línea 3999" y2="138.37" transform="translate(1105.051 11345.41)" fill="none" stroke="#e1e1e1" stroke-width="1"/>
    <path id="Trazado_883592" data-name="Trazado 883592" d="M3.258,3.625l3.719,9.281L10.7,3.625h1.945V15h-1.5V10.57l.141-4.781L7.547,15H6.4L2.672,5.813,2.82,10.57V15H1.32V3.625Zm18.453,8.4H16.945L15.875,15H14.328L18.672,3.625h1.313L24.336,15H22.8ZM17.4,10.8h3.867l-1.937-5.32Zm12.641-.4H27.367V15H25.859V3.625h3.766a4.457,4.457,0,0,1,2.957.875,3.148,3.148,0,0,1,1.035,2.547A3.062,3.062,0,0,1,33.043,8.9a3.428,3.428,0,0,1-1.6,1.18l2.672,4.828V15H32.508ZM27.367,9.172h2.3a2.6,2.6,0,0,0,1.777-.579,1.959,1.959,0,0,0,.66-1.55,2.062,2.062,0,0,0-.629-1.62,2.663,2.663,0,0,0-1.816-.571h-2.3Zm16.719,2.219a4.185,4.185,0,0,1-1.332,2.785,4.365,4.365,0,0,1-2.98.98,4.008,4.008,0,0,1-3.23-1.445,5.815,5.815,0,0,1-1.215-3.867V8.75a6.481,6.481,0,0,1,.566-2.789A4.231,4.231,0,0,1,37.5,4.113a4.47,4.47,0,0,1,2.406-.645A4.11,4.11,0,0,1,42.813,4.48a4.235,4.235,0,0,1,1.273,2.8H42.578a3.268,3.268,0,0,0-.848-1.975A2.565,2.565,0,0,0,39.906,4.7a2.684,2.684,0,0,0-2.254,1.063,4.882,4.882,0,0,0-.816,3.026v1.1a5.018,5.018,0,0,0,.773,2.948,2.5,2.5,0,0,0,2.164,1.095,2.887,2.887,0,0,0,1.918-.566,3.143,3.143,0,0,0,.887-1.973Zm8.328.633H47.648L46.578,15H45.031L49.375,3.625h1.313L55.039,15H53.5ZM48.1,10.8h3.867l-1.937-5.32Z" transform="translate(664.051 11360.28)" fill="#12263f"/>
    <path id="Trazado_883596" data-name="Trazado 883596" d="M9.18-10.148H5.523V0H4.031V-10.148H.383v-1.227h8.8ZM12.477,0h-1.5V-11.375h1.5Zm4.242-4.453V0h-1.5V-11.375h4.2a4.215,4.215,0,0,1,2.926.953A3.231,3.231,0,0,1,23.4-7.9a3.189,3.189,0,0,1-1.035,2.551,4.4,4.4,0,0,1-2.965.895Zm0-1.227h2.7a2.7,2.7,0,0,0,1.844-.567,2.075,2.075,0,0,0,.641-1.64,2.143,2.143,0,0,0-.641-1.628,2.525,2.525,0,0,0-1.758-.634H16.719Zm17.344.359A7.037,7.037,0,0,1,33.5-2.4,4.261,4.261,0,0,1,31.906-.5,4.385,4.385,0,0,1,29.5.156,4.347,4.347,0,0,1,27.117-.5,4.363,4.363,0,0,1,25.5-2.387a6.752,6.752,0,0,1-.59-2.832v-.82a6.953,6.953,0,0,1,.57-2.9A4.347,4.347,0,0,1,27.1-10.863a4.329,4.329,0,0,1,2.387-.668,4.41,4.41,0,0,1,2.41.66A4.253,4.253,0,0,1,33.5-8.957a7.071,7.071,0,0,1,.563,2.918ZM32.57-6.055a5.1,5.1,0,0,0-.812-3.105,2.68,2.68,0,0,0-2.273-1.082A2.651,2.651,0,0,0,27.246-9.16a5,5,0,0,0-.84,3v.836a5.107,5.107,0,0,0,.824,3.082A2.662,2.662,0,0,0,29.5-1.117a2.652,2.652,0,0,0,2.25-1.059,5.079,5.079,0,0,0,.82-3.035Z" transform="translate(409.051 11378.703)" fill="#12263f"/>
    <path id="Trazado_883595" data-name="Trazado 883595" d="M9.328,3.625v7.734a3.628,3.628,0,0,1-1.012,2.633,4.077,4.077,0,0,1-2.723,1.148l-.4.016a4.258,4.258,0,0,1-2.977-1.008,3.6,3.6,0,0,1-1.125-2.773V3.625H2.578v7.7a2.6,2.6,0,0,0,.68,1.918A2.612,2.612,0,0,0,5.2,13.93a2.63,2.63,0,0,0,1.949-.68,2.6,2.6,0,0,0,.676-1.914V3.625ZM11.7,15V3.625h3.719a4.317,4.317,0,0,1,2.785.766,2.759,2.759,0,0,1,.934,2.266,2.31,2.31,0,0,1-.453,1.41,2.937,2.937,0,0,1-1.234.949A2.638,2.638,0,0,1,18.9,10a2.814,2.814,0,0,1,.535,1.723,3.042,3.042,0,0,1-.992,2.406,4.1,4.1,0,0,1-2.8.875Zm1.5-5.32v4.094h2.477a2.385,2.385,0,0,0,1.652-.543,1.907,1.907,0,0,0,.605-1.5q0-2.055-2.234-2.055Zm0-1.2h2.266a2.375,2.375,0,0,0,1.574-.493,1.654,1.654,0,0,0,.59-1.339,1.626,1.626,0,0,0-.547-1.366,2.686,2.686,0,0,0-1.664-.427H13.2ZM23.266,15h-1.5V3.625h1.5Zm11.109-3.609a4.185,4.185,0,0,1-1.332,2.785,4.365,4.365,0,0,1-2.98.98,4.008,4.008,0,0,1-3.23-1.445,5.815,5.815,0,0,1-1.215-3.867V8.75a6.481,6.481,0,0,1,.566-2.789,4.231,4.231,0,0,1,1.605-1.848A4.47,4.47,0,0,1,30.2,3.469,4.11,4.11,0,0,1,33.1,4.48a4.235,4.235,0,0,1,1.273,2.8H32.867a3.268,3.268,0,0,0-.848-1.975A2.565,2.565,0,0,0,30.2,4.7a2.684,2.684,0,0,0-2.254,1.063,4.882,4.882,0,0,0-.816,3.026v1.1a5.018,5.018,0,0,0,.773,2.948,2.5,2.5,0,0,0,2.164,1.095,2.886,2.886,0,0,0,1.918-.566,3.143,3.143,0,0,0,.887-1.973Zm8.328.633H37.938L36.867,15H35.32L39.664,3.625h1.313L45.328,15H43.789ZM38.391,10.8h3.867L40.32,5.477Zm16.75.594a4.185,4.185,0,0,1-1.332,2.785,4.365,4.365,0,0,1-2.98.98,4.008,4.008,0,0,1-3.23-1.445,5.815,5.815,0,0,1-1.215-3.867V8.75a6.481,6.481,0,0,1,.566-2.789,4.231,4.231,0,0,1,1.605-1.848,4.47,4.47,0,0,1,2.406-.645A4.11,4.11,0,0,1,53.867,4.48a4.235,4.235,0,0,1,1.273,2.8H53.633a3.268,3.268,0,0,0-.848-1.975A2.565,2.565,0,0,0,50.961,4.7a2.684,2.684,0,0,0-2.254,1.063,4.882,4.882,0,0,0-.816,3.026v1.1a5.018,5.018,0,0,0,.773,2.948,2.5,2.5,0,0,0,2.164,1.095,2.887,2.887,0,0,0,1.918-.566,3.143,3.143,0,0,0,.887-1.973ZM58.8,15H57.3V3.625h1.5ZM70.289,9.68a7.037,7.037,0,0,1-.562,2.918,4.261,4.261,0,0,1-1.594,1.9,4.4,4.4,0,0,1-6.4-1.887,6.752,6.752,0,0,1-.59-2.832v-.82a6.953,6.953,0,0,1,.57-2.9,4.218,4.218,0,0,1,4-2.594,4.41,4.41,0,0,1,2.41.66,4.253,4.253,0,0,1,1.605,1.914,7.071,7.071,0,0,1,.563,2.918ZM68.8,8.945a5.1,5.1,0,0,0-.812-3.105,2.68,2.68,0,0,0-2.273-1.082A2.651,2.651,0,0,0,63.473,5.84a5,5,0,0,0-.84,3V9.68a5.107,5.107,0,0,0,.824,3.082,2.888,2.888,0,0,0,4.52.063,5.079,5.079,0,0,0,.82-3.035ZM66.445.563H68.2L66.1,2.859l-1.164,0ZM81.281,15H79.773L74.047,6.234V15H72.539V3.625h1.508l5.742,8.8v-8.8h1.492Z" transform="translate(1172.015 11362.175)" fill="#12263f"/>
    <path id="Trazado_883593" data-name="Trazado 883593" d="M3.258,3.625l3.719,9.281L10.7,3.625h1.945V15h-1.5V10.57l.141-4.781L7.547,15H6.4L2.672,5.813,2.82,10.57V15H1.32V3.625ZM24.039,9.68a7.037,7.037,0,0,1-.562,2.918,4.261,4.261,0,0,1-1.594,1.9,4.4,4.4,0,0,1-6.4-1.887,6.752,6.752,0,0,1-.59-2.832v-.82a6.953,6.953,0,0,1,.57-2.9,4.218,4.218,0,0,1,4-2.594,4.41,4.41,0,0,1,2.41.66,4.253,4.253,0,0,1,1.605,1.914,7.071,7.071,0,0,1,.563,2.918Zm-1.492-.734a5.1,5.1,0,0,0-.812-3.105,2.68,2.68,0,0,0-2.273-1.082A2.651,2.651,0,0,0,17.223,5.84a5,5,0,0,0-.84,3V9.68a5.107,5.107,0,0,0,.824,3.082,2.662,2.662,0,0,0,2.27,1.121,2.652,2.652,0,0,0,2.25-1.059,5.079,5.079,0,0,0,.82-3.035ZM26.289,15V3.625H29.5a5.169,5.169,0,0,1,2.625.656,4.438,4.438,0,0,1,1.762,1.867,6.078,6.078,0,0,1,.629,2.781v.727a6.1,6.1,0,0,1-.621,2.82,4.369,4.369,0,0,1-1.773,1.859A5.5,5.5,0,0,1,29.438,15Zm1.5-10.148v8.922h1.578a3.434,3.434,0,0,0,2.7-1.079,4.458,4.458,0,0,0,.965-3.073V8.957a4.529,4.529,0,0,0-.91-3.014,3.239,3.239,0,0,0-2.582-1.091ZM43.211,9.742h-4.93v4.031h5.727V15H36.781V3.625H43.93V4.852H38.281V8.516h4.93Zm4.172,4.031h5.391V15h-6.9V3.625h1.508ZM62.727,9.68a7.037,7.037,0,0,1-.562,2.918,4.261,4.261,0,0,1-1.594,1.9,4.4,4.4,0,0,1-6.4-1.887,6.752,6.752,0,0,1-.59-2.832v-.82a6.953,6.953,0,0,1,.57-2.9,4.218,4.218,0,0,1,4-2.594,4.41,4.41,0,0,1,2.41.66,4.253,4.253,0,0,1,1.605,1.914,7.071,7.071,0,0,1,.563,2.918Zm-1.492-.734a5.1,5.1,0,0,0-.812-3.105,2.68,2.68,0,0,0-2.273-1.082A2.651,2.651,0,0,0,55.91,5.84a5,5,0,0,0-.84,3V9.68a5.107,5.107,0,0,0,.824,3.082,2.888,2.888,0,0,0,4.52.063,5.079,5.079,0,0,0,.82-3.035Z" transform="translate(947.051 11360.28)" fill="#12263f"/>
  </g>
</svg>
