<svg xmlns="http://www.w3.org/2000/svg" width="735.714" height="423.105" viewBox="0 0 735.714 423.105">
  <g id="Grupo_1111243" data-name="Grupo 1111243" transform="translate(-449.75 -5781.818)">
    <g id="Grupo_1107715" data-name="Grupo 1107715" transform="translate(155.715 -4802.039)">
      <g id="Grupo_1107707" data-name="Grupo 1107707" transform="translate(-14.015)">
        <rect id="Rectángulo_673" data-name="Rectángulo 673" width="735.714" height="35" transform="translate(308.051 10583.857)" fill="#c10000"/>
        <g id="Trazado_877956" data-name="Trazado 877956" transform="translate(308.051 10583.857)" fill="none">
          <path d="M0,0H735.714V423.105H0Z" stroke="none"/>
          <path d="M 1 1.000030517578125 L 1 422.10546875 L 734.71435546875 422.10546875 L 734.71435546875 1.000030517578125 L 1 1.000030517578125 M 0 3.0517578125e-05 L 735.71435546875 3.0517578125e-05 L 735.71435546875 423.10546875 L 0 423.10546875 L 0 3.0517578125e-05 Z" stroke="none" fill="#e9e9e9"/>
        </g>
        <path id="Trazado_883538" data-name="Trazado 883538" d="M6.691-17.062,10.5-5.191l3.8-11.871h5.414V0H15.586V-3.984l.4-8.156L11.859,0H9.141L5-12.152l.4,8.168V0H1.289V-17.062Zm26.215,9.82H26.438v4.078h7.641V0H22.324V-17.062H34.1v3.176H26.438v3.6h6.469ZM35.754,0V-17.062h5.5a8.085,8.085,0,0,1,4.066,1.025,7.208,7.208,0,0,1,2.818,2.895A8.739,8.739,0,0,1,49.16-8.953v.785a8.79,8.79,0,0,1-.99,4.2,7.239,7.239,0,0,1-2.789,2.906A7.907,7.907,0,0,1,41.367,0Zm4.113-13.887V-3.164H41.3a3.2,3.2,0,0,0,2.719-1.26,6.173,6.173,0,0,0,.949-3.744v-.738a6.123,6.123,0,0,0-.949-3.727,3.256,3.256,0,0,0-2.766-1.254ZM55.652,0h-4.1V-17.062h4.1ZM72.961-8.18a10.062,10.062,0,0,1-.926,4.418A6.842,6.842,0,0,1,69.4-.8,7.326,7.326,0,0,1,65.52.234a7.429,7.429,0,0,1-3.867-1,6.831,6.831,0,0,1-2.631-2.865,9.772,9.772,0,0,1-.99-4.277v-.961a10.106,10.106,0,0,1,.92-4.424,6.825,6.825,0,0,1,2.637-2.959A7.377,7.377,0,0,1,65.5-17.3a7.3,7.3,0,0,1,3.867,1.031,6.948,6.948,0,0,1,2.643,2.936,9.816,9.816,0,0,1,.955,4.365Zm-4.184-.715a7.175,7.175,0,0,0-.85-3.861A2.725,2.725,0,0,0,65.5-14.074q-3.094,0-3.27,4.641L62.215-8.18a7.379,7.379,0,0,0,.832,3.855A2.721,2.721,0,0,0,65.52-2.977a2.688,2.688,0,0,0,2.4-1.324,7.178,7.178,0,0,0,.855-3.809ZM83.883-4.535a1.69,1.69,0,0,0-.639-1.406A7.938,7.938,0,0,0,81-6.984a21.53,21.53,0,0,1-2.625-1.043Q75.059-9.656,75.059-12.5a4.014,4.014,0,0,1,.826-2.5,5.344,5.344,0,0,1,2.338-1.687,9.1,9.1,0,0,1,3.4-.6,7.958,7.958,0,0,1,3.3.656,5.223,5.223,0,0,1,2.268,1.869A4.881,4.881,0,0,1,88-12h-4.1a2.063,2.063,0,0,0-.639-1.617,2.489,2.489,0,0,0-1.729-.574,2.807,2.807,0,0,0-1.74.486,1.492,1.492,0,0,0-.639,1.236,1.5,1.5,0,0,0,.7,1.189,8.867,8.867,0,0,0,2.473,1.1A15.147,15.147,0,0,1,85.23-8.953,4.884,4.884,0,0,1,88-4.559a4.166,4.166,0,0,1-1.687,3.516A7.506,7.506,0,0,1,81.68.234,9.184,9.184,0,0,1,77.924-.51a5.663,5.663,0,0,1-2.531-2.039,5.313,5.313,0,0,1-.85-2.982h4.125a2.617,2.617,0,0,0,.709,2.021,3.351,3.351,0,0,0,2.3.65A2.647,2.647,0,0,0,83.291-3.3,1.45,1.45,0,0,0,83.883-4.535ZM110.531-8.18a10.062,10.062,0,0,1-.926,4.418A6.842,6.842,0,0,1,106.975-.8,7.326,7.326,0,0,1,103.09.234a7.429,7.429,0,0,1-3.867-1,6.831,6.831,0,0,1-2.631-2.865A9.772,9.772,0,0,1,95.6-7.91v-.961a10.106,10.106,0,0,1,.92-4.424,6.825,6.825,0,0,1,2.637-2.959,7.377,7.377,0,0,1,3.908-1.043,7.3,7.3,0,0,1,3.867,1.031,6.948,6.948,0,0,1,2.643,2.936,9.816,9.816,0,0,1,.955,4.365Zm-4.184-.715a7.175,7.175,0,0,0-.85-3.861,2.725,2.725,0,0,0-2.432-1.318q-3.094,0-3.27,4.641L99.785-8.18a7.379,7.379,0,0,0,.832,3.855,2.721,2.721,0,0,0,2.473,1.348,2.688,2.688,0,0,0,2.4-1.324,7.178,7.178,0,0,0,.855-3.809Zm10.418,3.105V0h-4.113V-17.062h6.809a7.93,7.93,0,0,1,3.463.721,5.431,5.431,0,0,1,2.332,2.051,5.6,5.6,0,0,1,.826,3.018,4.937,4.937,0,0,1-1.787,3.99,7.415,7.415,0,0,1-4.9,1.494Zm0-3.176h2.7a2.542,2.542,0,0,0,1.822-.6,2.221,2.221,0,0,0,.627-1.687,2.745,2.745,0,0,0-.645-1.91,2.282,2.282,0,0,0-1.758-.727h-2.742Zm22.09,1.723h-6.469v4.078h7.641V0H128.273V-17.062h11.777v3.176h-7.664v3.6h6.469Zm9.188,1.207h-2.227V0H141.7V-17.062h6.715a7.5,7.5,0,0,1,4.746,1.346,4.561,4.561,0,0,1,1.711,3.8,5.54,5.54,0,0,1-.721,2.95,5.115,5.115,0,0,1-2.256,1.9l3.563,6.889V0h-4.406ZM145.816-9.2h2.6a2.335,2.335,0,0,0,1.764-.617,2.384,2.384,0,0,0,.592-1.721,2.412,2.412,0,0,0-.6-1.733,2.313,2.313,0,0,0-1.758-.629h-2.6Zm21.234,6.012h-5.637L160.43,0h-4.395l6.258-17.062h3.867L172.465,0h-4.418ZM162.4-6.363h3.668l-1.84-5.918Zm23.3-7.523h-5.121V0h-4.113V-13.887h-5.027v-3.176H185.7ZM191.813,0h-4.1V-17.062h4.1Zm9.48-4.641,3.4-12.422h4.594L203.543,0h-4.5l-5.7-17.062h4.559ZM224.824-8.18a10.062,10.062,0,0,1-.926,4.418A6.842,6.842,0,0,1,221.268-.8,7.326,7.326,0,0,1,217.383.234a7.429,7.429,0,0,1-3.867-1,6.831,6.831,0,0,1-2.631-2.865,9.772,9.772,0,0,1-.99-4.277v-.961a10.106,10.106,0,0,1,.92-4.424,6.825,6.825,0,0,1,2.637-2.959,7.377,7.377,0,0,1,3.908-1.043,7.3,7.3,0,0,1,3.867,1.031,6.948,6.948,0,0,1,2.643,2.936,9.816,9.816,0,0,1,.955,4.365Zm-4.184-.715a7.175,7.175,0,0,0-.85-3.861,2.725,2.725,0,0,0-2.432-1.318q-3.094,0-3.27,4.641l-.012,1.254a7.379,7.379,0,0,0,.832,3.855,2.721,2.721,0,0,0,2.473,1.348,2.688,2.688,0,0,0,2.4-1.324,7.178,7.178,0,0,0,.855-3.809Zm15.105,4.359a1.69,1.69,0,0,0-.639-1.406,7.938,7.938,0,0,0-2.244-1.043,21.53,21.53,0,0,1-2.625-1.043q-3.316-1.629-3.316-4.477a4.014,4.014,0,0,1,.826-2.5,5.344,5.344,0,0,1,2.338-1.687,9.1,9.1,0,0,1,3.4-.6,7.958,7.958,0,0,1,3.3.656,5.223,5.223,0,0,1,2.268,1.869A4.881,4.881,0,0,1,239.859-12h-4.1a2.063,2.063,0,0,0-.639-1.617,2.489,2.489,0,0,0-1.729-.574,2.807,2.807,0,0,0-1.74.486,1.492,1.492,0,0,0-.639,1.236,1.5,1.5,0,0,0,.7,1.189,8.867,8.867,0,0,0,2.473,1.1,15.147,15.147,0,0,1,2.906,1.225,4.884,4.884,0,0,1,2.766,4.395,4.166,4.166,0,0,1-1.687,3.516A7.506,7.506,0,0,1,233.543.234a9.184,9.184,0,0,1-3.756-.744,5.663,5.663,0,0,1-2.531-2.039,5.313,5.313,0,0,1-.85-2.982h4.125a2.617,2.617,0,0,0,.709,2.021,3.351,3.351,0,0,0,2.3.65,2.647,2.647,0,0,0,1.611-.439A1.45,1.45,0,0,0,235.746-4.535Z" transform="translate(522.364 10611.857)" fill="#fbfbf9"/>
        <path id="Trazado_878151" data-name="Trazado 878151" d="M0,111.532" transform="translate(708.364 10686.857)" fill="rgba(0,0,0,0)" stroke="#e1e1e1" stroke-width="1"/>
        <path id="Trazado_878150" data-name="Trazado 878150" d="M0,112.15" transform="translate(874.363 10686.707)" fill="rgba(0,0,0,0)" stroke="#e1e1e1" stroke-width="1"/>
        <path id="Trazado_883539" data-name="Trazado 883539" d="M7.75,9.742H2.82v4.031H8.547V15H1.32V3.625H8.469V4.852H2.82V8.516H7.75Zm4.172,4.031h5.391V15h-6.9V3.625h1.508ZM25.453,9.742h-4.93v4.031H26.25V15H19.023V3.625h7.148V4.852H20.523V8.516h4.93Zm11.031,1.648a4.185,4.185,0,0,1-1.332,2.785,4.365,4.365,0,0,1-2.98.98,4.008,4.008,0,0,1-3.23-1.445,5.815,5.815,0,0,1-1.215-3.867V8.75a6.481,6.481,0,0,1,.566-2.789A4.231,4.231,0,0,1,29.9,4.113,4.47,4.47,0,0,1,32.3,3.469,4.11,4.11,0,0,1,35.211,4.48a4.235,4.235,0,0,1,1.273,2.8H34.977a3.268,3.268,0,0,0-.848-1.975A2.565,2.565,0,0,0,32.3,4.7a2.684,2.684,0,0,0-2.254,1.063,4.882,4.882,0,0,0-.816,3.026v1.1a5.018,5.018,0,0,0,.773,2.948,2.5,2.5,0,0,0,2.164,1.095,2.887,2.887,0,0,0,1.918-.566,3.143,3.143,0,0,0,.887-1.973Zm9.68-6.539H42.508V15H41.016V4.852H37.367V3.625h8.8ZM52.023,10.4H49.352V15H47.844V3.625h3.766a4.457,4.457,0,0,1,2.957.875A3.148,3.148,0,0,1,55.6,7.047,3.062,3.062,0,0,1,55.027,8.9a3.428,3.428,0,0,1-1.6,1.18L56.1,14.906V15H54.492ZM49.352,9.172h2.3a2.6,2.6,0,0,0,1.777-.579,1.959,1.959,0,0,0,.66-1.55,2.062,2.062,0,0,0-.629-1.62,2.663,2.663,0,0,0-1.816-.571h-2.3ZM59.313,15h-1.5V3.625h1.5Zm11.109-3.609a4.185,4.185,0,0,1-1.332,2.785,4.365,4.365,0,0,1-2.98.98,4.008,4.008,0,0,1-3.23-1.445,5.815,5.815,0,0,1-1.215-3.867V8.75a6.481,6.481,0,0,1,.566-2.789,4.231,4.231,0,0,1,1.605-1.848,4.47,4.47,0,0,1,2.406-.645A4.11,4.11,0,0,1,69.148,4.48a4.235,4.235,0,0,1,1.273,2.8H68.914a3.268,3.268,0,0,0-.848-1.975A2.565,2.565,0,0,0,66.242,4.7a2.684,2.684,0,0,0-2.254,1.063,4.882,4.882,0,0,0-.816,3.026v1.1a5.018,5.018,0,0,0,.773,2.948,2.5,2.5,0,0,0,2.164,1.095,2.886,2.886,0,0,0,1.918-.566,3.143,3.143,0,0,0,.887-1.973ZM74.078,15h-1.5V3.625h1.5Zm2.742,0V3.625h3.211a5.169,5.169,0,0,1,2.625.656,4.438,4.438,0,0,1,1.762,1.867,6.078,6.078,0,0,1,.629,2.781v.727a6.1,6.1,0,0,1-.621,2.82,4.369,4.369,0,0,1-1.773,1.859A5.5,5.5,0,0,1,79.969,15Zm1.5-10.148v8.922H79.9a3.434,3.434,0,0,0,2.7-1.079,4.458,4.458,0,0,0,.965-3.073V8.957a4.529,4.529,0,0,0-.91-3.014A3.239,3.239,0,0,0,80.07,4.852ZM93.43,12.023H88.664L87.594,15H86.047L90.391,3.625H91.7L96.055,15H94.516ZM89.117,10.8h3.867l-1.937-5.32ZM97.586,15V3.625H100.8a5.169,5.169,0,0,1,2.625.656,4.438,4.438,0,0,1,1.762,1.867,6.078,6.078,0,0,1,.629,2.781v.727a6.1,6.1,0,0,1-.621,2.82,4.369,4.369,0,0,1-1.773,1.859,5.5,5.5,0,0,1-2.684.664Zm1.5-10.148v8.922h1.578a3.434,3.434,0,0,0,2.7-1.079,4.458,4.458,0,0,0,.965-3.073V8.957a4.529,4.529,0,0,0-.91-3.014,3.239,3.239,0,0,0-2.582-1.091ZM7.6,42.023H2.836L1.766,45H.219L4.563,33.625H5.875L10.227,45H8.688ZM3.289,40.8H7.156l-1.937-5.32ZM13.367,45h-1.5V33.625h1.5Zm6.914-4.6H17.609V45H16.1V33.625h3.766a4.457,4.457,0,0,1,2.957.875,3.148,3.148,0,0,1,1.035,2.547,3.062,3.062,0,0,1-.574,1.852,3.428,3.428,0,0,1-1.6,1.18l2.672,4.828V45H22.75Zm-2.672-1.227h2.3a2.6,2.6,0,0,0,1.777-.579,1.959,1.959,0,0,0,.66-1.55,2.062,2.062,0,0,0-.629-1.62,2.663,2.663,0,0,0-1.816-.571h-2.3Zm14.781.57h-4.93v4.031h5.727V45H25.961V33.625h7.148v1.227H27.461v3.664h4.93ZM10.063,75H8.555V69.742H2.82V75H1.32V63.625h1.5v4.891H8.555V63.625h1.508Zm4.273,0h-1.5V63.625h1.5Zm2.742,0V63.625h3.211a5.169,5.169,0,0,1,2.625.656,4.438,4.438,0,0,1,1.762,1.867A6.078,6.078,0,0,1,25.3,68.93v.727a6.1,6.1,0,0,1-.621,2.82,4.369,4.369,0,0,1-1.773,1.859A5.5,5.5,0,0,1,20.227,75Zm1.5-10.148v8.922h1.578a3.434,3.434,0,0,0,2.7-1.079,4.458,4.458,0,0,0,.965-3.073v-.665a4.529,4.529,0,0,0-.91-3.014,3.239,3.239,0,0,0-2.582-1.091ZM31.742,70.4H29.07V75H27.563V63.625h3.766a4.457,4.457,0,0,1,2.957.875,3.148,3.148,0,0,1,1.035,2.547,3.062,3.062,0,0,1-.574,1.852,3.428,3.428,0,0,1-1.6,1.18l2.672,4.828V75H34.211ZM29.07,69.172h2.3a2.6,2.6,0,0,0,1.777-.579,1.959,1.959,0,0,0,.66-1.55,2.062,2.062,0,0,0-.629-1.62,2.663,2.663,0,0,0-1.816-.571h-2.3ZM43.7,72.023H38.938L37.867,75H36.32l4.344-11.375h1.313L46.328,75H44.789ZM39.391,70.8h3.867l-1.937-5.32Zm2.672-10.219h1.75l-2.094,2.3-1.164,0Zm13.672,3.047v7.734a3.628,3.628,0,0,1-1.012,2.633A4.077,4.077,0,0,1,52,75.141l-.4.016a4.258,4.258,0,0,1-2.977-1.008A3.6,3.6,0,0,1,47.5,71.375v-7.75h1.484v7.7a2.372,2.372,0,0,0,2.617,2.6,2.63,2.63,0,0,0,1.949-.68,2.6,2.6,0,0,0,.676-1.914V63.625Zm3.875,10.148H65V75H58.1V63.625h1.508ZM68.32,75h-1.5V63.625h1.5ZM79.43,71.391A4.185,4.185,0,0,1,78.1,74.176a4.365,4.365,0,0,1-2.98.98,4.008,4.008,0,0,1-3.23-1.445,5.815,5.815,0,0,1-1.215-3.867V68.75a6.481,6.481,0,0,1,.566-2.789,4.231,4.231,0,0,1,1.605-1.848,4.47,4.47,0,0,1,2.406-.645,4.11,4.11,0,0,1,2.906,1.012,4.235,4.235,0,0,1,1.273,2.8H77.922a3.268,3.268,0,0,0-.848-1.975A2.565,2.565,0,0,0,75.25,64.7,2.684,2.684,0,0,0,73,65.759a4.882,4.882,0,0,0-.816,3.026v1.1a5.018,5.018,0,0,0,.773,2.948,2.5,2.5,0,0,0,2.164,1.095,2.887,2.887,0,0,0,1.918-.566,3.143,3.143,0,0,0,.887-1.973Zm10.8-1.711a7.037,7.037,0,0,1-.562,2.918,4.261,4.261,0,0,1-1.594,1.9,4.4,4.4,0,0,1-6.4-1.887,6.752,6.752,0,0,1-.59-2.832v-.82a6.953,6.953,0,0,1,.57-2.9,4.218,4.218,0,0,1,4-2.594,4.41,4.41,0,0,1,2.41.66,4.253,4.253,0,0,1,1.605,1.914,7.071,7.071,0,0,1,.563,2.918Zm-1.492-.734a5.1,5.1,0,0,0-.812-3.105,2.68,2.68,0,0,0-2.273-1.082A2.651,2.651,0,0,0,83.41,65.84a5,5,0,0,0-.84,3v.836a5.107,5.107,0,0,0,.824,3.082,2.888,2.888,0,0,0,4.52.063,5.079,5.079,0,0,0,.82-3.035ZM10.07,99.68a7.037,7.037,0,0,1-.562,2.918,4.261,4.261,0,0,1-1.594,1.9,4.385,4.385,0,0,1-2.406.656,4.348,4.348,0,0,1-2.383-.66,4.363,4.363,0,0,1-1.613-1.883,6.752,6.752,0,0,1-.59-2.832v-.82a6.953,6.953,0,0,1,.57-2.9,4.347,4.347,0,0,1,1.613-1.926,4.329,4.329,0,0,1,2.387-.668,4.41,4.41,0,0,1,2.41.66,4.253,4.253,0,0,1,1.605,1.914,7.071,7.071,0,0,1,.563,2.918Zm-1.492-.734a5.1,5.1,0,0,0-.812-3.105,2.68,2.68,0,0,0-2.273-1.082A2.651,2.651,0,0,0,3.254,95.84a5,5,0,0,0-.84,3v.836a5.107,5.107,0,0,0,.824,3.082,2.662,2.662,0,0,0,2.27,1.121,2.652,2.652,0,0,0,2.25-1.059,5.079,5.079,0,0,0,.82-3.035Zm5.25,4.828h5.391V105h-6.9V93.625h1.508Zm13.531-4.031H22.43v4.031h5.727V105H20.93V93.625h7.148v1.227H22.43v3.664h4.93ZM42.727,105H41.219V99.742H35.484V105h-1.5V93.625h1.5v4.891h5.734V93.625h1.508ZM47,105H45.5V93.625H47Zm2.742,0V93.625h3.211a5.169,5.169,0,0,1,2.625.656,4.438,4.438,0,0,1,1.762,1.867,6.078,6.078,0,0,1,.629,2.781v.727a6.1,6.1,0,0,1-.621,2.82,4.369,4.369,0,0,1-1.773,1.859,5.5,5.5,0,0,1-2.684.664Zm1.5-10.148v8.922H52.82a3.434,3.434,0,0,0,2.7-1.079,4.458,4.458,0,0,0,.965-3.073v-.665a4.529,4.529,0,0,0-.91-3.014,3.239,3.239,0,0,0-2.582-1.091ZM64.406,100.4H61.734V105H60.227V93.625h3.766a4.457,4.457,0,0,1,2.957.875,3.148,3.148,0,0,1,1.035,2.547A3.062,3.062,0,0,1,67.41,98.9a3.428,3.428,0,0,1-1.6,1.18l2.672,4.828V105H66.875Zm-2.672-1.227h2.3a2.6,2.6,0,0,0,1.777-.579,1.959,1.959,0,0,0,.66-1.55,2.062,2.062,0,0,0-.629-1.62,2.663,2.663,0,0,0-1.816-.571h-2.3Zm14.633,2.852H71.6L70.531,105H68.984l4.344-11.375h1.313L78.992,105H77.453ZM72.055,100.8h3.867l-1.937-5.32Zm2.672-10.219h1.75l-2.094,2.3-1.164,0ZM88.4,93.625v7.734a3.628,3.628,0,0,1-1.012,2.633,4.077,4.077,0,0,1-2.723,1.148l-.4.016a4.258,4.258,0,0,1-2.977-1.008,3.6,3.6,0,0,1-1.125-2.773v-7.75h1.484v7.7a2.372,2.372,0,0,0,2.617,2.6,2.63,2.63,0,0,0,1.949-.68,2.6,2.6,0,0,0,.676-1.914V93.625Zm3.875,10.148h5.391V105h-6.9V93.625h1.508ZM100.984,105h-1.5V93.625h1.5Zm11.109-3.609a4.185,4.185,0,0,1-1.332,2.785,4.365,4.365,0,0,1-2.98.98,4.008,4.008,0,0,1-3.23-1.445,5.815,5.815,0,0,1-1.215-3.867V98.75a6.481,6.481,0,0,1,.566-2.789,4.231,4.231,0,0,1,1.605-1.848,4.47,4.47,0,0,1,2.406-.645,4.11,4.11,0,0,1,2.906,1.012,4.235,4.235,0,0,1,1.273,2.8h-1.508a3.268,3.268,0,0,0-.848-1.975,2.565,2.565,0,0,0-1.824-.611,2.684,2.684,0,0,0-2.254,1.063,4.882,4.882,0,0,0-.816,3.026v1.1a5.018,5.018,0,0,0,.773,2.948,2.5,2.5,0,0,0,2.164,1.095,2.887,2.887,0,0,0,1.918-.566,3.143,3.143,0,0,0,.887-1.973Zm10.8-1.711a7.037,7.037,0,0,1-.562,2.918,4.261,4.261,0,0,1-1.594,1.9,4.4,4.4,0,0,1-6.4-1.887,6.752,6.752,0,0,1-.59-2.832v-.82a6.953,6.953,0,0,1,.57-2.9,4.218,4.218,0,0,1,4-2.594,4.41,4.41,0,0,1,2.41.66,4.253,4.253,0,0,1,1.605,1.914,7.071,7.071,0,0,1,.563,2.918Zm-1.492-.734a5.1,5.1,0,0,0-.812-3.105,2.68,2.68,0,0,0-2.273-1.082,2.651,2.651,0,0,0-2.238,1.082,5,5,0,0,0-.84,3v.836a5.107,5.107,0,0,0,.824,3.082,2.888,2.888,0,0,0,4.52.063,5.079,5.079,0,0,0,.82-3.035ZM10.07,159.68a7.037,7.037,0,0,1-.562,2.918,4.261,4.261,0,0,1-1.594,1.9,4.385,4.385,0,0,1-2.406.656,4.347,4.347,0,0,1-2.383-.66,4.363,4.363,0,0,1-1.613-1.883,6.752,6.752,0,0,1-.59-2.832v-.82a6.953,6.953,0,0,1,.57-2.9,4.347,4.347,0,0,1,1.613-1.926,4.329,4.329,0,0,1,2.387-.668,4.41,4.41,0,0,1,2.41.66,4.253,4.253,0,0,1,1.605,1.914,7.071,7.071,0,0,1,.563,2.918Zm-1.492-.734a5.1,5.1,0,0,0-.812-3.105,2.68,2.68,0,0,0-2.273-1.082,2.651,2.651,0,0,0-2.238,1.082,5,5,0,0,0-.84,3v.836a5.107,5.107,0,0,0,.824,3.082,2.662,2.662,0,0,0,2.27,1.121,2.652,2.652,0,0,0,2.25-1.059,5.079,5.079,0,0,0,.82-3.035Zm11.391-4.094H16.313V165H14.82V154.852H11.172v-1.227h8.8Zm5.859,5.547H23.156V165H21.648V153.625h3.766a4.457,4.457,0,0,1,2.957.875,3.148,3.148,0,0,1,1.035,2.547,3.062,3.062,0,0,1-.574,1.852,3.428,3.428,0,0,1-1.6,1.18l2.672,4.828V165H28.3Zm-2.672-1.227h2.3a2.6,2.6,0,0,0,1.777-.579,1.959,1.959,0,0,0,.66-1.55,2.062,2.062,0,0,0-.629-1.62,2.663,2.663,0,0,0-1.816-.571h-2.3Zm17.1.508A7.037,7.037,0,0,1,39.7,162.6a4.261,4.261,0,0,1-1.594,1.9,4.4,4.4,0,0,1-6.4-1.887,6.752,6.752,0,0,1-.59-2.832v-.82a6.953,6.953,0,0,1,.57-2.9,4.218,4.218,0,0,1,4-2.594,4.41,4.41,0,0,1,2.41.66,4.253,4.253,0,0,1,1.605,1.914,7.071,7.071,0,0,1,.563,2.918Zm-1.492-.734a5.1,5.1,0,0,0-.812-3.105,2.68,2.68,0,0,0-2.273-1.082,2.651,2.651,0,0,0-2.238,1.082,5,5,0,0,0-.84,3v.836a5.107,5.107,0,0,0,.824,3.082,2.888,2.888,0,0,0,4.52.063,5.079,5.079,0,0,0,.82-3.035Zm7.094.984a7.053,7.053,0,0,1-2.809-1.363,2.6,2.6,0,0,1-.879-2,2.752,2.752,0,0,1,1.074-2.223,4.269,4.269,0,0,1,2.793-.879,4.66,4.66,0,0,1,2.09.453,3.436,3.436,0,0,1,1.422,1.25,3.2,3.2,0,0,1,.5,1.742H48.547a2.08,2.08,0,0,0-.656-1.627,2.669,2.669,0,0,0-1.852-.592,2.732,2.732,0,0,0-1.73.489,1.632,1.632,0,0,0-.621,1.358,1.468,1.468,0,0,0,.59,1.178,5.786,5.786,0,0,0,2.008.88,9.316,9.316,0,0,1,2.219.88,3.367,3.367,0,0,1,1.188,1.121,2.861,2.861,0,0,1,.387,1.508A2.658,2.658,0,0,1,49,164.324a4.6,4.6,0,0,1-2.883.832,5.347,5.347,0,0,1-2.187-.449,3.681,3.681,0,0,1-1.566-1.23,3,3,0,0,1-.551-1.773H43.32a1.959,1.959,0,0,0,.762,1.629,3.207,3.207,0,0,0,2.035.6,2.948,2.948,0,0,0,1.82-.484,1.573,1.573,0,0,0,.633-1.32,1.545,1.545,0,0,0-.586-1.293A6.755,6.755,0,0,0,45.859,159.93Zm13.453,0a7.053,7.053,0,0,1-2.809-1.363,2.6,2.6,0,0,1-.879-2,2.752,2.752,0,0,1,1.074-2.223,4.269,4.269,0,0,1,2.793-.879,4.66,4.66,0,0,1,2.09.453A3.436,3.436,0,0,1,63,155.172a3.2,3.2,0,0,1,.5,1.742H62a2.08,2.08,0,0,0-.656-1.627,2.669,2.669,0,0,0-1.852-.592,2.732,2.732,0,0,0-1.73.489,1.632,1.632,0,0,0-.621,1.358,1.468,1.468,0,0,0,.59,1.178,5.786,5.786,0,0,0,2.008.88,9.316,9.316,0,0,1,2.219.88,3.367,3.367,0,0,1,1.188,1.121,2.861,2.861,0,0,1,.387,1.508,2.658,2.658,0,0,1-1.078,2.215,4.6,4.6,0,0,1-2.883.832,5.347,5.347,0,0,1-2.187-.449,3.681,3.681,0,0,1-1.566-1.23,3,3,0,0,1-.551-1.773h1.508a1.959,1.959,0,0,0,.762,1.629,3.207,3.207,0,0,0,2.035.6,2.948,2.948,0,0,0,1.82-.484,1.573,1.573,0,0,0,.633-1.32,1.545,1.545,0,0,0-.586-1.293A6.755,6.755,0,0,0,59.313,159.93Zm12.57-.187h-4.93v4.031H72.68V165H65.453V153.625H72.6v1.227H66.953v3.664h4.93Zm6.836.656H76.047V165H74.539V153.625H78.3a4.457,4.457,0,0,1,2.957.875,3.148,3.148,0,0,1,1.035,2.547,3.062,3.062,0,0,1-.574,1.852,3.428,3.428,0,0,1-1.6,1.18l2.672,4.828V165H81.188Zm-2.672-1.227h2.3a2.6,2.6,0,0,0,1.777-.579,1.959,1.959,0,0,0,.66-1.55,2.062,2.062,0,0,0-.629-1.62,2.663,2.663,0,0,0-1.816-.571h-2.3Zm11.969,3.836,3.25-9.383h1.641L88.688,165H87.359l-4.211-11.375h1.633ZM96.039,165h-1.5V153.625h1.5Zm11.109-3.609a4.185,4.185,0,0,1-1.332,2.785,4.365,4.365,0,0,1-2.98.98,4.008,4.008,0,0,1-3.23-1.445,5.815,5.815,0,0,1-1.215-3.867V158.75a6.481,6.481,0,0,1,.566-2.789,4.231,4.231,0,0,1,1.605-1.848,4.47,4.47,0,0,1,2.406-.645,4.11,4.11,0,0,1,2.906,1.012,4.235,4.235,0,0,1,1.273,2.8h-1.508a3.268,3.268,0,0,0-.848-1.975,2.565,2.565,0,0,0-1.824-.611,2.684,2.684,0,0,0-2.254,1.063,4.882,4.882,0,0,0-.816,3.026v1.1a5.018,5.018,0,0,0,.773,2.948,2.5,2.5,0,0,0,2.164,1.095,2.886,2.886,0,0,0,1.918-.566,3.143,3.143,0,0,0,.887-1.973ZM110.8,165h-1.5V153.625h1.5Zm11.492-5.32a7.037,7.037,0,0,1-.562,2.918,4.261,4.261,0,0,1-1.594,1.9,4.4,4.4,0,0,1-6.4-1.887,6.752,6.752,0,0,1-.59-2.832v-.82a6.953,6.953,0,0,1,.57-2.9,4.218,4.218,0,0,1,4-2.594,4.41,4.41,0,0,1,2.41.66,4.253,4.253,0,0,1,1.605,1.914,7.071,7.071,0,0,1,.563,2.918Zm-1.492-.734a5.1,5.1,0,0,0-.812-3.105,2.68,2.68,0,0,0-2.273-1.082,2.651,2.651,0,0,0-2.238,1.082,5,5,0,0,0-.84,3v.836a5.107,5.107,0,0,0,.824,3.082,2.888,2.888,0,0,0,4.52.063,5.079,5.079,0,0,0,.82-3.035Zm7.094.984a7.053,7.053,0,0,1-2.809-1.363,2.6,2.6,0,0,1-.879-2,2.751,2.751,0,0,1,1.074-2.223,4.269,4.269,0,0,1,2.793-.879,4.66,4.66,0,0,1,2.09.453,3.436,3.436,0,0,1,1.422,1.25,3.2,3.2,0,0,1,.5,1.742h-1.508a2.08,2.08,0,0,0-.656-1.627,2.669,2.669,0,0,0-1.852-.592,2.732,2.732,0,0,0-1.73.489,1.632,1.632,0,0,0-.621,1.358,1.468,1.468,0,0,0,.59,1.178,5.786,5.786,0,0,0,2.008.88,9.316,9.316,0,0,1,2.219.88,3.367,3.367,0,0,1,1.188,1.121,2.861,2.861,0,0,1,.387,1.508,2.658,2.658,0,0,1-1.078,2.215,4.6,4.6,0,0,1-2.883.832,5.347,5.347,0,0,1-2.187-.449,3.681,3.681,0,0,1-1.566-1.23,3,3,0,0,1-.551-1.773h1.508a1.959,1.959,0,0,0,.762,1.629,3.207,3.207,0,0,0,2.035.6,2.948,2.948,0,0,0,1.82-.484,1.573,1.573,0,0,0,.633-1.32,1.545,1.545,0,0,0-.586-1.293A6.755,6.755,0,0,0,127.9,159.93Zm15.563.617V165h-1.5V153.625h4.2a4.215,4.215,0,0,1,2.926.953,3.231,3.231,0,0,1,1.059,2.523,3.188,3.188,0,0,1-1.035,2.551,4.4,4.4,0,0,1-2.965.895Zm0-1.227h2.7a2.7,2.7,0,0,0,1.844-.567,2.075,2.075,0,0,0,.641-1.64,2.143,2.143,0,0,0-.641-1.628,2.525,2.525,0,0,0-1.758-.634h-2.781Zm13.8,2.7h-4.766L151.422,165h-1.547l4.344-11.375h1.313L159.883,165h-1.539Zm-4.312-1.227h3.867l-1.937-5.32Zm12.641-.4h-2.672V165h-1.508V153.625h3.766a4.457,4.457,0,0,1,2.957.875,3.148,3.148,0,0,1,1.035,2.547,3.062,3.062,0,0,1-.574,1.852,3.428,3.428,0,0,1-1.6,1.18l2.672,4.828V165h-1.609Zm-2.672-1.227h2.3a2.6,2.6,0,0,0,1.777-.579,1.959,1.959,0,0,0,.66-1.55,2.062,2.062,0,0,0-.629-1.62,2.663,2.663,0,0,0-1.816-.571h-2.3Zm14.633,2.852h-4.766L171.711,165h-1.547l4.344-11.375h1.313L180.172,165h-1.539Zm-4.312-1.227H177.1l-1.937-5.32Zm21.18-1.117a7.037,7.037,0,0,1-.562,2.918,4.261,4.261,0,0,1-1.594,1.9,4.4,4.4,0,0,1-6.4-1.887,6.752,6.752,0,0,1-.59-2.832v-.82a6.953,6.953,0,0,1,.57-2.9,4.218,4.218,0,0,1,4-2.594,4.41,4.41,0,0,1,2.41.66,4.253,4.253,0,0,1,1.605,1.914,7.071,7.071,0,0,1,.563,2.918Zm-1.492-.734a5.1,5.1,0,0,0-.812-3.105,2.68,2.68,0,0,0-2.273-1.082,2.651,2.651,0,0,0-2.238,1.082,5,5,0,0,0-.84,3v.836a5.107,5.107,0,0,0,.824,3.082,2.888,2.888,0,0,0,4.52.063,5.079,5.079,0,0,0,.82-3.035Zm5.242,1.6V165h-1.5V153.625h4.2a4.215,4.215,0,0,1,2.926.953,3.231,3.231,0,0,1,1.059,2.523,3.188,3.188,0,0,1-1.035,2.551,4.4,4.4,0,0,1-2.965.895Zm0-1.227h2.7a2.7,2.7,0,0,0,1.844-.567,2.075,2.075,0,0,0,.641-1.64,2.143,2.143,0,0,0-.641-1.628,2.525,2.525,0,0,0-1.758-.634h-2.781Zm15.023.422h-4.93v4.031h5.727V165h-7.227V153.625h7.148v1.227h-5.648v3.664h4.93Zm6.836.656h-2.672V165h-1.508V153.625h3.766a4.457,4.457,0,0,1,2.957.875,3.148,3.148,0,0,1,1.035,2.547,3.062,3.062,0,0,1-.574,1.852,3.428,3.428,0,0,1-1.6,1.18l2.672,4.828V165h-1.609Zm-2.672-1.227h2.3a2.6,2.6,0,0,0,1.777-.579,1.959,1.959,0,0,0,.66-1.55,2.062,2.062,0,0,0-.629-1.62,2.663,2.663,0,0,0-1.816-.571h-2.3Zm14.633,2.852h-4.766L226.148,165H224.6l4.344-11.375h1.313L234.609,165H233.07Zm-4.312-1.227h3.867l-1.937-5.32Zm16.75.594a4.185,4.185,0,0,1-1.332,2.785,4.365,4.365,0,0,1-2.98.98,4.008,4.008,0,0,1-3.23-1.445,5.815,5.815,0,0,1-1.215-3.867V158.75a6.481,6.481,0,0,1,.566-2.789,4.231,4.231,0,0,1,1.605-1.848,4.47,4.47,0,0,1,2.406-.645,4.11,4.11,0,0,1,2.906,1.012,4.235,4.235,0,0,1,1.273,2.8h-1.508a3.268,3.268,0,0,0-.848-1.975,2.565,2.565,0,0,0-1.824-.611,2.684,2.684,0,0,0-2.254,1.063,4.882,4.882,0,0,0-.816,3.026v1.1a5.018,5.018,0,0,0,.773,2.948,2.5,2.5,0,0,0,2.164,1.095,2.886,2.886,0,0,0,1.918-.566,3.143,3.143,0,0,0,.887-1.973ZM248.078,165h-1.5V153.625h1.5Zm11.492-5.32a7.037,7.037,0,0,1-.562,2.918,4.261,4.261,0,0,1-1.594,1.9,4.4,4.4,0,0,1-6.4-1.887,6.752,6.752,0,0,1-.59-2.832v-.82a6.953,6.953,0,0,1,.57-2.9,4.218,4.218,0,0,1,4-2.594,4.41,4.41,0,0,1,2.41.66,4.253,4.253,0,0,1,1.605,1.914,7.071,7.071,0,0,1,.563,2.918Zm-1.492-.734a5.1,5.1,0,0,0-.812-3.105,2.68,2.68,0,0,0-2.273-1.082,2.651,2.651,0,0,0-2.238,1.082,5,5,0,0,0-.84,3v.836a5.107,5.107,0,0,0,.824,3.082,2.888,2.888,0,0,0,4.52.063,5.079,5.079,0,0,0,.82-3.035Zm-2.352-8.383h1.75l-2.094,2.3-1.164,0ZM270.563,165h-1.508l-5.727-8.766V165H261.82V153.625h1.508l5.742,8.8v-8.8h1.492Zm8.531,1.18h-7.156V165h7.156Zm7.219,0h-7.156V165h7.156Zm7.219,0h-7.156V165h7.156Zm7.219,0h-7.156V165h7.156Zm7.219,0h-7.156V165h7.156Zm7.219,0h-7.156V165h7.156Zm7.219,0H315.25V165h7.156Zm7.219,0h-7.156V165h7.156Zm7.219,0h-7.156V165h7.156Zm7.219,0h-7.156V165h7.156Zm7.219,0h-7.156V165h7.156Zm7.219,0h-7.156V165H358.5Zm7.219,0h-7.156V165h7.156Zm7.219,0h-7.156V165h7.156Zm7.219,0H373V165h7.156Zm7.219,0h-7.156V165h7.156Zm7.219,0h-7.156V165h7.156Zm7.219,0h-7.156V165h7.156Zm7.219,0h-7.156V165h7.156Zm7.219,0h-7.156V165h7.156Zm7.219,0h-7.156V165h7.156Zm7.219,0h-7.156V165h7.156Zm7.219,0H430.75V165h7.156Zm7.219,0h-7.156V165h7.156Zm7.219,0h-7.156V165h7.156Zm7.219,0h-7.156V165h7.156Zm7.219,0h-7.156V165h7.156Zm7.219,0h-7.156V165H474Zm7.219,0h-7.156V165h7.156Zm7.219,0h-7.156V165h7.156Zm7.219,0H488.5V165h7.156Zm7.219,0h-7.156V165h7.156Zm7.219,0h-7.156V165h7.156Zm7.219,0h-7.156V165h7.156Zm7.219,0h-7.156V165h7.156Zm7.219,0h-7.156V165h7.156Zm7.219,0h-7.156V165h7.156Zm7.219,0h-7.156V165h7.156Zm7.219,0H546.25V165h7.156Zm7.219,0h-7.156V165h7.156Zm7.219,0h-7.156V165h7.156Zm7.219,0h-7.156V165h7.156Zm7.219,0h-7.156V165h7.156Zm7.219,0h-7.156V165H589.5Zm7.219,0h-7.156V165h7.156Zm7.219,0h-7.156V165h7.156Zm7.219,0H604V165h7.156Zm7.219,0h-7.156V165h7.156Zm7.219,0h-7.156V165h7.156Zm7.219,0h-7.156V165h7.156Zm7.219,0h-7.156V165h7.156Zm7.219,0h-7.156V165h7.156Zm7.219,0h-7.156V165h7.156Zm7.219,0h-7.156V165h7.156Zm7.219,0H661.75V165h7.156Zm-661.719,30H.031V195H7.188Zm7.219,0H7.25V195h7.156Zm7.219,0H14.469V195h7.156Zm7.219,0H21.688V195h7.156Zm7.219,0H28.906V195h7.156Zm7.219,0H36.125V195h7.156Zm7.219,0H43.344V195H50.5Zm7.219,0H50.563V195h7.156Zm7.219,0H57.781V195h7.156Zm7.219,0H65V195h7.156Zm7.219,0H72.219V195h7.156Zm7.219,0H79.438V195h7.156Zm7.219,0H86.656V195h7.156Zm7.219,0H93.875V195h7.156Zm7.219,0h-7.156V195h7.156Zm7.219,0h-7.156V195h7.156Zm7.219,0h-7.156V195h7.156Zm7.219,0H122.75V195h7.156Zm7.219,0h-7.156V195h7.156Zm7.219,0h-7.156V195h7.156Zm7.219,0h-7.156V195h7.156Zm7.219,0h-7.156V195h7.156Zm7.219,0h-7.156V195H166Zm7.219,0h-7.156V195h7.156Zm7.219,0h-7.156V195h7.156Zm7.219,0H180.5V195h7.156Zm7.219,0h-7.156V195h7.156Zm7.219,0h-7.156V195h7.156Zm7.219,0h-7.156V195h7.156Zm7.219,0h-7.156V195h7.156Zm7.219,0h-7.156V195h7.156Zm7.219,0h-7.156V195h7.156Zm7.219,0h-7.156V195h7.156Zm7.219,0H238.25V195h7.156Zm7.219,0h-7.156V195h7.156Zm7.219,0h-7.156V195h7.156Zm7.219,0h-7.156V195h7.156Zm7.219,0h-7.156V195h7.156Zm7.219,0h-7.156V195H281.5Zm7.219,0h-7.156V195h7.156Zm7.219,0h-7.156V195h7.156Zm7.219,0H296V195h7.156Zm7.219,0h-7.156V195h7.156Zm7.219,0h-7.156V195h7.156Zm7.219,0h-7.156V195h7.156Zm7.219,0h-7.156V195h7.156Zm7.219,0h-7.156V195h7.156Zm7.219,0h-7.156V195h7.156Zm7.219,0h-7.156V195h7.156Zm7.219,0H353.75V195h7.156Zm7.219,0h-7.156V195h7.156Zm7.219,0h-7.156V195h7.156Zm7.219,0h-7.156V195h7.156Zm7.219,0h-7.156V195h7.156Zm7.219,0h-7.156V195H397Zm7.219,0h-7.156V195h7.156Zm7.219,0h-7.156V195h7.156Zm7.219,0H411.5V195h7.156Zm7.219,0h-7.156V195h7.156Zm7.219,0h-7.156V195h7.156Zm7.219,0h-7.156V195h7.156Zm7.219,0h-7.156V195h7.156Zm7.219,0h-7.156V195h7.156Zm7.219,0h-7.156V195h7.156Zm7.219,0h-7.156V195h7.156Zm7.219,0H469.25V195h7.156Zm7.219,0h-7.156V195h7.156Zm7.219,0h-7.156V195h7.156Zm7.219,0h-7.156V195h7.156Zm7.219,0h-7.156V195h7.156Zm7.219,0h-7.156V195H512.5Zm7.219,0h-7.156V195h7.156Zm7.219,0h-7.156V195h7.156Zm7.219,0H527V195h7.156Zm7.219,0h-7.156V195h7.156Zm7.219,0h-7.156V195h7.156Zm7.219,0h-7.156V195h7.156Zm7.219,0h-7.156V195h7.156Zm7.219,0h-7.156V195h7.156Zm7.219,0h-7.156V195h7.156Zm7.219,0h-7.156V195h7.156Zm7.219,0H584.75V195h7.156Zm7.219,0h-7.156V195h7.156Zm7.219,0h-7.156V195h7.156Zm7.219,0h-7.156V195h7.156Zm7.219,0h-7.156V195h7.156Zm7.219,0h-7.156V195H628Zm7.219,0h-7.156V195h7.156Zm7.219,0h-7.156V195h7.156Zm7.219,0H642.5V195h7.156Zm7.219,0h-7.156V195h7.156Zm7.219,0h-7.156V195h7.156Zm7.219,0h-7.156V195h7.156ZM2.82,220.547V225H1.32V213.625h4.2a4.215,4.215,0,0,1,2.926.953A3.231,3.231,0,0,1,9.5,217.1a3.189,3.189,0,0,1-1.035,2.551,4.4,4.4,0,0,1-2.965.895Zm0-1.227h2.7a2.7,2.7,0,0,0,1.844-.567A2.075,2.075,0,0,0,8,217.113a2.143,2.143,0,0,0-.641-1.628,2.525,2.525,0,0,0-1.758-.634H2.82ZM20.156,225H18.648v-5.258H12.914V225h-1.5V213.625h1.5v4.891h5.734v-4.891h1.508Zm8.531,1.18H21.531V225h7.156Zm7.219,0H28.75V225h7.156Zm7.219,0H35.969V225h7.156Zm7.219,0H43.188V225h7.156Zm7.219,0H50.406V225h7.156ZM9.18,244.852H5.523V255H4.031V244.852H.383v-1.227h8.8ZM12.477,255h-1.5V243.625h1.5Zm9.172-5.258h-4.93v4.031h5.727V255H15.219V243.625h7.148v1.227H16.719v3.664h4.93ZM33.055,255H31.547l-5.727-8.766V255H24.313V243.625H25.82l5.742,8.8v-8.8h1.492Zm9.094-5.258h-4.93v4.031h5.727V255H35.719V243.625h7.148v1.227H37.219v3.664h4.93Zm14.992,1.648a4.185,4.185,0,0,1-1.332,2.785,4.365,4.365,0,0,1-2.98.98,4.008,4.008,0,0,1-3.23-1.445,5.815,5.815,0,0,1-1.215-3.867V248.75a6.481,6.481,0,0,1,.566-2.789,4.231,4.231,0,0,1,1.605-1.848,4.47,4.47,0,0,1,2.406-.645,4.11,4.11,0,0,1,2.906,1.012,4.235,4.235,0,0,1,1.273,2.8H55.633a3.268,3.268,0,0,0-.848-1.975,2.565,2.565,0,0,0-1.824-.611,2.684,2.684,0,0,0-2.254,1.063,4.882,4.882,0,0,0-.816,3.026v1.1a5.018,5.018,0,0,0,.773,2.948,2.5,2.5,0,0,0,2.164,1.095,2.886,2.886,0,0,0,1.918-.566,3.143,3.143,0,0,0,.887-1.973Zm8.328.633H60.7L59.633,255H58.086l4.344-11.375h1.313L68.094,255H66.555ZM61.156,250.8h3.867l-1.937-5.32Zm15.32-5.945H72.82V255H71.328V244.852H67.68v-1.227h8.8Zm7.352,7.172H79.063L77.992,255H76.445l4.344-11.375H82.1L86.453,255H84.914ZM79.516,250.8h3.867l-1.937-5.32Zm9.977,2.977h5.391V255h-6.9V243.625h1.508Zm15.344-4.094a7.037,7.037,0,0,1-.562,2.918,4.261,4.261,0,0,1-1.594,1.9,4.4,4.4,0,0,1-6.4-1.887,6.752,6.752,0,0,1-.59-2.832v-.82a6.953,6.953,0,0,1,.57-2.9,4.218,4.218,0,0,1,4-2.594,4.41,4.41,0,0,1,2.41.66,4.253,4.253,0,0,1,1.605,1.914,7.071,7.071,0,0,1,.563,2.918Zm-1.492-.734a5.1,5.1,0,0,0-.812-3.105,2.68,2.68,0,0,0-2.273-1.082,2.651,2.651,0,0,0-2.238,1.082,5,5,0,0,0-.84,3v.836A5.107,5.107,0,0,0,98,252.762a2.888,2.888,0,0,0,4.52.063,5.079,5.079,0,0,0,.82-3.035Zm12.141,4.563a3.465,3.465,0,0,1-1.613,1.238,6.517,6.517,0,0,1-2.41.41,4.674,4.674,0,0,1-2.469-.652,4.346,4.346,0,0,1-1.668-1.855,6.408,6.408,0,0,1-.605-2.789v-.992a5.982,5.982,0,0,1,1.2-3.984,4.179,4.179,0,0,1,3.371-1.414,4.316,4.316,0,0,1,2.867.91,3.965,3.965,0,0,1,1.328,2.582h-1.5A2.48,2.48,0,0,0,111.3,244.7a2.655,2.655,0,0,0-2.285,1.06,5.173,5.173,0,0,0-.785,3.069v.93a4.848,4.848,0,0,0,.875,3.046,2.836,2.836,0,0,0,2.367,1.13,5.229,5.229,0,0,0,1.477-.187,2.283,2.283,0,0,0,1.047-.631v-2.549h-2.633v-1.227h4.125Zm11.25-3.828a7.037,7.037,0,0,1-.562,2.918,4.261,4.261,0,0,1-1.594,1.9,4.4,4.4,0,0,1-6.4-1.887,6.752,6.752,0,0,1-.59-2.832v-.82a6.953,6.953,0,0,1,.57-2.9,4.218,4.218,0,0,1,4-2.594,4.41,4.41,0,0,1,2.41.66,4.253,4.253,0,0,1,1.605,1.914,7.071,7.071,0,0,1,.563,2.918Zm-1.492-.734a5.1,5.1,0,0,0-.812-3.105,2.68,2.68,0,0,0-2.273-1.082,2.651,2.651,0,0,0-2.238,1.082,5,5,0,0,0-.84,3v.836a5.107,5.107,0,0,0,.824,3.082,2.888,2.888,0,0,0,4.52.063,5.079,5.079,0,0,0,.82-3.035Z" transform="translate(344.051 10716.857)"/>
        <path id="Trazado_883549" data-name="Trazado 883549" d="M5.086,13.008l3.25-9.383H9.977L5.758,15H4.43L.219,3.625H1.852ZM20.148,9.68a7.037,7.037,0,0,1-.562,2.918,4.261,4.261,0,0,1-1.594,1.9,4.385,4.385,0,0,1-2.406.656,4.244,4.244,0,0,1-4-2.543A6.752,6.752,0,0,1,11,9.781v-.82a6.953,6.953,0,0,1,.57-2.9,4.218,4.218,0,0,1,4-2.594,4.41,4.41,0,0,1,2.41.66,4.253,4.253,0,0,1,1.605,1.914,7.071,7.071,0,0,1,.563,2.918Zm-1.492-.734a5.1,5.1,0,0,0-.812-3.105A2.68,2.68,0,0,0,15.57,4.758,2.651,2.651,0,0,0,13.332,5.84a5,5,0,0,0-.84,3V9.68a5.107,5.107,0,0,0,.824,3.082,2.662,2.662,0,0,0,2.27,1.121,2.652,2.652,0,0,0,2.25-1.059,5.079,5.079,0,0,0,.82-3.035Zm5.25,4.828H29.3V15H22.4V3.625h1.508ZM36.719,4.852H33.063V15H31.57V4.852H27.922V3.625h8.8Zm11.2,11.328H40.766V15h7.156Zm7.219,0H47.984V15h7.156Zm7.219,0H55.2V15h7.156Zm7.219,0H62.422V15h7.156Zm7.219,0H69.641V15H76.8Zm7.219,0H76.859V15h7.156Zm7.219,0H84.078V15h7.156Zm7.219,0H91.3V15h7.156Zm7.219,0H98.516V15h7.156Zm7.219,0h-7.156V15h7.156Zm7.219,0h-7.156V15h7.156Zm7.219,0h-7.156V15h7.156Zm7.219,0h-7.156V15h7.156Zm7.219,0h-7.156V15h7.156Zm7.219,0h-7.156V15h7.156Zm7.219,0h-7.156V15H156.2ZM167.8,12.023h-4.766L161.961,15h-1.547l4.344-11.375h1.313L170.422,15h-1.539ZM163.484,10.8h3.867l-1.937-5.32Zm10.406-7.172,3.719,9.281,3.719-9.281h1.945V15h-1.5V10.57l.141-4.781L178.18,15h-1.148L173.3,5.813l.148,4.758V15h-1.5V3.625Zm13.531,6.922V15h-1.5V3.625h4.2a4.215,4.215,0,0,1,2.926.953A3.231,3.231,0,0,1,194.1,7.1a3.188,3.188,0,0,1-1.035,2.551,4.4,4.4,0,0,1-2.965.895Zm0-1.227h2.7a2.7,2.7,0,0,0,1.844-.567,2.075,2.075,0,0,0,.641-1.64,2.143,2.143,0,0,0-.641-1.628,2.525,2.525,0,0,0-1.758-.634h-2.781Zm18.422,6.859h-7.156V15h7.156Zm7.219,0h-7.156V15h7.156Zm7.219,0h-7.156V15h7.156Zm7.219,0h-7.156V15H227.5Zm7.219,0h-7.156V15h7.156Zm7.219,0h-7.156V15h7.156Zm7.219,0H242V15h7.156Zm7.219,0h-7.156V15h7.156Zm11.586-6.2h-4.773V15h-1.5V3.625h7.047V4.852h-5.547v3.9h4.773Zm6.742.422h-2.672V15h-1.508V3.625h3.766a4.457,4.457,0,0,1,2.957.875,3.148,3.148,0,0,1,1.035,2.547,3.062,3.062,0,0,1-.574,1.852,3.428,3.428,0,0,1-1.6,1.18l2.672,4.828V15h-1.609Zm-2.672-1.227h2.3a2.6,2.6,0,0,0,1.777-.579,1.959,1.959,0,0,0,.66-1.55,2.062,2.062,0,0,0-.629-1.62,2.663,2.663,0,0,0-1.816-.571h-2.3Zm14.781.57h-4.93v4.031h5.727V15h-7.227V3.625h7.148V4.852h-5.648V8.516h4.93Zm11.031,1.648a4.185,4.185,0,0,1-1.332,2.785,4.365,4.365,0,0,1-2.98.98,4.008,4.008,0,0,1-3.23-1.445,5.815,5.815,0,0,1-1.215-3.867V8.75a6.481,6.481,0,0,1,.566-2.789,4.231,4.231,0,0,1,1.605-1.848,4.47,4.47,0,0,1,2.406-.645A4.11,4.11,0,0,1,296.57,4.48a4.235,4.235,0,0,1,1.273,2.8h-1.508a3.268,3.268,0,0,0-.848-1.975,2.565,2.565,0,0,0-1.824-.611,2.684,2.684,0,0,0-2.254,1.063,4.882,4.882,0,0,0-.816,3.026v1.1a5.018,5.018,0,0,0,.773,2.948,2.5,2.5,0,0,0,2.164,1.095,2.886,2.886,0,0,0,1.918-.566,3.143,3.143,0,0,0,.887-1.973Zm7.914,4.789H298.6V15h7.156Zm7.219,0H305.82V15h7.156Zm7.219,0h-7.156V15H320.2Zm7.219,0h-7.156V15h7.156Zm7.219,0h-7.156V15h7.156Zm7.219,0H334.7V15h7.156Zm7.219,0h-7.156V15h7.156Zm7.219,0h-7.156V15h7.156Zm6.813-5.633V15h-1.5V3.625h4.2a4.215,4.215,0,0,1,2.926.953A3.231,3.231,0,0,1,369.781,7.1a3.189,3.189,0,0,1-1.035,2.551,4.4,4.4,0,0,1-2.965.895Zm0-1.227h2.7a2.7,2.7,0,0,0,1.844-.567,2.075,2.075,0,0,0,.641-1.64,2.143,2.143,0,0,0-.641-1.628,2.525,2.525,0,0,0-1.758-.634H363.1Zm17.344.359a7.037,7.037,0,0,1-.562,2.918,4.261,4.261,0,0,1-1.594,1.9,4.4,4.4,0,0,1-6.4-1.887,6.751,6.751,0,0,1-.59-2.832v-.82a6.953,6.953,0,0,1,.57-2.9,4.218,4.218,0,0,1,4-2.594,4.41,4.41,0,0,1,2.41.66,4.253,4.253,0,0,1,1.605,1.914,7.071,7.071,0,0,1,.563,2.918Zm-1.492-.734a5.1,5.1,0,0,0-.812-3.105,2.68,2.68,0,0,0-2.273-1.082,2.651,2.651,0,0,0-2.238,1.082,5,5,0,0,0-.84,3V9.68a5.108,5.108,0,0,0,.824,3.082,2.888,2.888,0,0,0,4.52.063,5.079,5.079,0,0,0,.82-3.035Zm11.391-4.094h-3.656V15H385.2V4.852h-3.648V3.625h8.8ZM397.9,16.18h-7.156V15H397.9Zm7.219,0h-7.156V15h7.156Zm7.219,0H405.18V15h7.156Zm7.219,0H412.4V15h7.156Zm7.219,0h-7.156V15h7.156Zm7.219,0h-7.156V15h7.156Zm7.219,0h-7.156V15h7.156Zm7.219,0h-7.156V15h7.156Zm7.219,0h-7.156V15h7.156Zm7.219,0h-7.156V15h7.156Zm7.219,0H462.93V15h7.156ZM2.82,40.547V45H1.32V33.625h4.2a4.215,4.215,0,0,1,2.926.953A3.231,3.231,0,0,1,9.5,37.1a3.189,3.189,0,0,1-1.035,2.551,4.4,4.4,0,0,1-2.965.895Zm0-1.227h2.7a2.7,2.7,0,0,0,1.844-.567A2.075,2.075,0,0,0,8,37.113a2.143,2.143,0,0,0-.641-1.628A2.525,2.525,0,0,0,5.6,34.852H2.82ZM15.586,40.4H12.914V45H11.406V33.625h3.766a4.457,4.457,0,0,1,2.957.875,3.148,3.148,0,0,1,1.035,2.547A3.062,3.062,0,0,1,18.59,38.9a3.428,3.428,0,0,1-1.6,1.18l2.672,4.828V45H18.055Zm-2.672-1.227h2.3A2.6,2.6,0,0,0,17,38.593a1.959,1.959,0,0,0,.66-1.55,2.062,2.062,0,0,0-.629-1.62,2.663,2.663,0,0,0-1.816-.571h-2.3Zm14.781.57h-4.93v4.031h5.727V45H21.266V33.625h7.148v1.227H22.766v3.664H27.7Zm6.016.188A7.053,7.053,0,0,1,30.9,38.566a2.6,2.6,0,0,1-.879-2A2.751,2.751,0,0,1,31.1,34.348a4.269,4.269,0,0,1,2.793-.879,4.66,4.66,0,0,1,2.09.453,3.436,3.436,0,0,1,1.422,1.25,3.2,3.2,0,0,1,.5,1.742H36.4a2.08,2.08,0,0,0-.656-1.627,2.669,2.669,0,0,0-1.852-.592,2.732,2.732,0,0,0-1.73.489,1.632,1.632,0,0,0-.621,1.358,1.468,1.468,0,0,0,.59,1.178,5.786,5.786,0,0,0,2.008.88,9.316,9.316,0,0,1,2.219.88A3.367,3.367,0,0,1,37.543,40.6a2.861,2.861,0,0,1,.387,1.508,2.658,2.658,0,0,1-1.078,2.215,4.6,4.6,0,0,1-2.883.832,5.347,5.347,0,0,1-2.187-.449,3.681,3.681,0,0,1-1.566-1.23,3,3,0,0,1-.551-1.773h1.508a1.959,1.959,0,0,0,.762,1.629,3.207,3.207,0,0,0,2.035.6,2.948,2.948,0,0,0,1.82-.484,1.573,1.573,0,0,0,.633-1.32,1.545,1.545,0,0,0-.586-1.293A6.755,6.755,0,0,0,33.711,39.93ZM41.461,45h-1.5V33.625h1.5Zm11.492-5.32a7.037,7.037,0,0,1-.562,2.918A4.261,4.261,0,0,1,50.8,44.5a4.4,4.4,0,0,1-6.4-1.887,6.752,6.752,0,0,1-.59-2.832v-.82a6.953,6.953,0,0,1,.57-2.9,4.218,4.218,0,0,1,4-2.594,4.41,4.41,0,0,1,2.41.66,4.253,4.253,0,0,1,1.605,1.914,7.071,7.071,0,0,1,.563,2.918Zm-1.492-.734a5.1,5.1,0,0,0-.812-3.105,2.68,2.68,0,0,0-2.273-1.082,2.651,2.651,0,0,0-2.238,1.082,5,5,0,0,0-.84,3v.836a5.107,5.107,0,0,0,.824,3.082,2.888,2.888,0,0,0,4.52.063,5.079,5.079,0,0,0,.82-3.035Zm-2.352-8.383h1.75l-2.094,2.3-1.164,0ZM63.945,45H62.438l-5.727-8.766V45H55.2V33.625h1.508l5.742,8.8v-8.8h1.492Zm12.492,1.18H69.281V45h7.156Zm7.219,0H76.5V45h7.156Zm7.219,0H83.719V45h7.156Zm7.219,0H90.938V45h7.156Zm7.219,0H98.156V45h7.156Zm7.219,0h-7.156V45h7.156Zm7.219,0h-7.156V45h7.156Zm7.219,0h-7.156V45h7.156Zm7.219,0h-7.156V45h7.156Zm7.219,0H134.25V45h7.156Zm7.219,0h-7.156V45h7.156Zm7.219,0h-7.156V45h7.156Zm7.219,0h-7.156V45h7.156ZM2.82,70.547V75H1.32V63.625h4.2a4.215,4.215,0,0,1,2.926.953A3.231,3.231,0,0,1,9.5,67.1a3.189,3.189,0,0,1-1.035,2.551,4.4,4.4,0,0,1-2.965.895Zm0-1.227h2.7a2.7,2.7,0,0,0,1.844-.567A2.075,2.075,0,0,0,8,67.113a2.143,2.143,0,0,0-.641-1.628A2.525,2.525,0,0,0,5.6,64.852H2.82ZM15.586,70.4H12.914V75H11.406V63.625h3.766a4.457,4.457,0,0,1,2.957.875,3.148,3.148,0,0,1,1.035,2.547A3.062,3.062,0,0,1,18.59,68.9a3.428,3.428,0,0,1-1.6,1.18l2.672,4.828V75H18.055Zm-2.672-1.227h2.3A2.6,2.6,0,0,0,17,68.593a1.959,1.959,0,0,0,.66-1.55,2.062,2.062,0,0,0-.629-1.62,2.663,2.663,0,0,0-1.816-.571h-2.3Zm14.781.57h-4.93v4.031h5.727V75H21.266V63.625h7.148v1.227H22.766v3.664H27.7Zm6.016.188A7.053,7.053,0,0,1,30.9,68.566a2.6,2.6,0,0,1-.879-2A2.751,2.751,0,0,1,31.1,64.348a4.269,4.269,0,0,1,2.793-.879,4.66,4.66,0,0,1,2.09.453,3.436,3.436,0,0,1,1.422,1.25,3.2,3.2,0,0,1,.5,1.742H36.4a2.08,2.08,0,0,0-.656-1.627,2.669,2.669,0,0,0-1.852-.592,2.732,2.732,0,0,0-1.73.489,1.632,1.632,0,0,0-.621,1.358,1.468,1.468,0,0,0,.59,1.178,5.785,5.785,0,0,0,2.008.88,9.316,9.316,0,0,1,2.219.88A3.367,3.367,0,0,1,37.543,70.6a2.861,2.861,0,0,1,.387,1.508,2.658,2.658,0,0,1-1.078,2.215,4.6,4.6,0,0,1-2.883.832,5.347,5.347,0,0,1-2.187-.449,3.681,3.681,0,0,1-1.566-1.23,3,3,0,0,1-.551-1.773h1.508a1.959,1.959,0,0,0,.762,1.629,3.207,3.207,0,0,0,2.035.6,2.948,2.948,0,0,0,1.82-.484,1.573,1.573,0,0,0,.633-1.32,1.545,1.545,0,0,0-.586-1.293A6.755,6.755,0,0,0,33.711,69.93ZM41.461,75h-1.5V63.625h1.5Zm11.492-5.32a7.037,7.037,0,0,1-.562,2.918A4.261,4.261,0,0,1,50.8,74.5a4.4,4.4,0,0,1-6.4-1.887,6.752,6.752,0,0,1-.59-2.832v-.82a6.953,6.953,0,0,1,.57-2.9,4.218,4.218,0,0,1,4-2.594,4.41,4.41,0,0,1,2.41.66,4.253,4.253,0,0,1,1.605,1.914,7.071,7.071,0,0,1,.563,2.918Zm-1.492-.734a5.1,5.1,0,0,0-.812-3.105,2.68,2.68,0,0,0-2.273-1.082,2.651,2.651,0,0,0-2.238,1.082,5,5,0,0,0-.84,3v.836a5.107,5.107,0,0,0,.824,3.082,2.888,2.888,0,0,0,4.52.063,5.079,5.079,0,0,0,.82-3.035Zm-2.352-8.383h1.75l-2.094,2.3-1.164,0ZM63.945,75H62.438l-5.727-8.766V75H55.2V63.625h1.508l5.742,8.8v-8.8h1.492Zm12.492,1.18H69.281V75h7.156Zm7.219,0H76.5V75h7.156Zm7.219,0H83.719V75h7.156Zm7.219,0H90.938V75h7.156Zm7.219,0H98.156V75h7.156Zm7.219,0h-7.156V75h7.156Zm7.219,0h-7.156V75h7.156Zm7.219,0h-7.156V75h7.156Zm7.219,0h-7.156V75h7.156Zm7.219,0H134.25V75h7.156Zm7.219,0h-7.156V75h7.156Zm7.219,0h-7.156V75h7.156Zm7.219,0h-7.156V75h7.156ZM2.82,100.547V105H1.32V93.625h4.2a4.215,4.215,0,0,1,2.926.953A3.231,3.231,0,0,1,9.5,97.1a3.189,3.189,0,0,1-1.035,2.551,4.4,4.4,0,0,1-2.965.895Zm0-1.227h2.7a2.7,2.7,0,0,0,1.844-.567A2.075,2.075,0,0,0,8,97.113a2.143,2.143,0,0,0-.641-1.628A2.525,2.525,0,0,0,5.6,94.852H2.82ZM15.586,100.4H12.914V105H11.406V93.625h3.766a4.457,4.457,0,0,1,2.957.875,3.148,3.148,0,0,1,1.035,2.547A3.062,3.062,0,0,1,18.59,98.9a3.428,3.428,0,0,1-1.6,1.18l2.672,4.828V105H18.055Zm-2.672-1.227h2.3A2.6,2.6,0,0,0,17,98.593a1.959,1.959,0,0,0,.66-1.55,2.062,2.062,0,0,0-.629-1.62,2.663,2.663,0,0,0-1.816-.571h-2.3Zm14.781.57h-4.93v4.031h5.727V105H21.266V93.625h7.148v1.227H22.766v3.664H27.7Zm6.016.188A7.053,7.053,0,0,1,30.9,98.566a2.6,2.6,0,0,1-.879-2A2.751,2.751,0,0,1,31.1,94.348a4.269,4.269,0,0,1,2.793-.879,4.66,4.66,0,0,1,2.09.453,3.436,3.436,0,0,1,1.422,1.25,3.2,3.2,0,0,1,.5,1.742H36.4a2.08,2.08,0,0,0-.656-1.627,2.669,2.669,0,0,0-1.852-.592,2.732,2.732,0,0,0-1.73.489,1.632,1.632,0,0,0-.621,1.358,1.468,1.468,0,0,0,.59,1.178,5.785,5.785,0,0,0,2.008.88,9.316,9.316,0,0,1,2.219.88,3.367,3.367,0,0,1,1.188,1.121,2.861,2.861,0,0,1,.387,1.508,2.658,2.658,0,0,1-1.078,2.215,4.6,4.6,0,0,1-2.883.832,5.347,5.347,0,0,1-2.187-.449,3.681,3.681,0,0,1-1.566-1.23,3,3,0,0,1-.551-1.773h1.508a1.959,1.959,0,0,0,.762,1.629,3.207,3.207,0,0,0,2.035.6,2.948,2.948,0,0,0,1.82-.484,1.573,1.573,0,0,0,.633-1.32,1.545,1.545,0,0,0-.586-1.293A6.755,6.755,0,0,0,33.711,99.93Zm7.75,5.07h-1.5V93.625h1.5Zm11.492-5.32a7.037,7.037,0,0,1-.562,2.918,4.261,4.261,0,0,1-1.594,1.9,4.4,4.4,0,0,1-6.4-1.887,6.752,6.752,0,0,1-.59-2.832v-.82a6.953,6.953,0,0,1,.57-2.9,4.218,4.218,0,0,1,4-2.594,4.41,4.41,0,0,1,2.41.66,4.253,4.253,0,0,1,1.605,1.914,7.071,7.071,0,0,1,.563,2.918Zm-1.492-.734a5.1,5.1,0,0,0-.812-3.105,2.68,2.68,0,0,0-2.273-1.082,2.651,2.651,0,0,0-2.238,1.082,5,5,0,0,0-.84,3v.836a5.107,5.107,0,0,0,.824,3.082,2.888,2.888,0,0,0,4.52.063,5.079,5.079,0,0,0,.82-3.035Zm-2.352-8.383h1.75l-2.094,2.3-1.164,0ZM63.945,105H62.438l-5.727-8.766V105H55.2V93.625h1.508l5.742,8.8v-8.8h1.492Zm12.492,1.18H69.281V105h7.156Zm7.219,0H76.5V105h7.156Zm7.219,0H83.719V105h7.156Zm7.219,0H90.938V105h7.156Zm7.219,0H98.156V105h7.156Zm7.219,0h-7.156V105h7.156Zm7.219,0h-7.156V105h7.156Zm7.219,0h-7.156V105h7.156Zm7.219,0h-7.156V105h7.156Zm7.219,0H134.25V105h7.156Zm7.219,0h-7.156V105h7.156Zm7.219,0h-7.156V105h7.156Zm7.219,0h-7.156V105h7.156Zm7.219,0h-7.156V105h7.156Z" transform="translate(555.781 10716.857)"/>
        <path id="Trazado_883548" data-name="Trazado 883548" d="M9.688,11.391a4.185,4.185,0,0,1-1.332,2.785,4.365,4.365,0,0,1-2.98.98,4.008,4.008,0,0,1-3.23-1.445A5.815,5.815,0,0,1,.93,9.844V8.75A6.481,6.481,0,0,1,1.5,5.961,4.231,4.231,0,0,1,3.1,4.113a4.47,4.47,0,0,1,2.406-.645A4.11,4.11,0,0,1,8.414,4.48a4.235,4.235,0,0,1,1.273,2.8H8.18a3.268,3.268,0,0,0-.848-1.975A2.565,2.565,0,0,0,5.508,4.7,2.684,2.684,0,0,0,3.254,5.759a4.882,4.882,0,0,0-.816,3.026v1.1a5.018,5.018,0,0,0,.773,2.948A2.5,2.5,0,0,0,5.375,13.93a2.887,2.887,0,0,0,1.918-.566,3.143,3.143,0,0,0,.887-1.973Zm8.328.633H13.25L12.18,15H10.633L14.977,3.625h1.313L20.641,15H19.1ZM13.7,10.8H17.57l-1.937-5.32ZM30.047,3.625v7.734a3.628,3.628,0,0,1-1.012,2.633,4.077,4.077,0,0,1-2.723,1.148l-.4.016a4.258,4.258,0,0,1-2.977-1.008,3.6,3.6,0,0,1-1.125-2.773V3.625H23.3v7.7a2.6,2.6,0,0,0,.68,1.918,2.612,2.612,0,0,0,1.938.684,2.63,2.63,0,0,0,1.949-.68,2.6,2.6,0,0,0,.676-1.914V3.625ZM32.414,15V3.625h3.211a5.169,5.169,0,0,1,2.625.656,4.438,4.438,0,0,1,1.762,1.867,6.078,6.078,0,0,1,.629,2.781v.727a6.1,6.1,0,0,1-.621,2.82,4.369,4.369,0,0,1-1.773,1.859A5.5,5.5,0,0,1,35.563,15Zm1.5-10.148v8.922h1.578a3.434,3.434,0,0,0,2.7-1.079,4.458,4.458,0,0,0,.965-3.073V8.957a4.529,4.529,0,0,0-.91-3.014,3.239,3.239,0,0,0-2.582-1.091Zm15.109,7.172H44.258L43.188,15H41.641L45.984,3.625H47.3L51.648,15H50.109ZM44.711,10.8h3.867l-1.937-5.32Zm9.977,2.977h5.391V15h-6.9V3.625h1.508Zm16.93,2.406H64.461V15h7.156Zm7.219,0H71.68V15h7.156Zm7.219,0H78.9V15h7.156Zm7.219,0H86.117V15h7.156Zm7.219,0H93.336V15h7.156Zm7.219,0h-7.156V15h7.156Zm7.219,0h-7.156V15h7.156Zm7.219,0h-7.156V15h7.156Zm7.219,0h-7.156V15h7.156Zm7.219,0H129.43V15h7.156Zm7.219,0h-7.156V15H143.8Zm7.219,0h-7.156V15h7.156Zm7.219,0h-7.156V15h7.156ZM9.688,41.391a4.185,4.185,0,0,1-1.332,2.785,4.365,4.365,0,0,1-2.98.98,4.008,4.008,0,0,1-3.23-1.445A5.815,5.815,0,0,1,.93,39.844V38.75A6.481,6.481,0,0,1,1.5,35.961,4.231,4.231,0,0,1,3.1,34.113a4.47,4.47,0,0,1,2.406-.645A4.11,4.11,0,0,1,8.414,34.48a4.235,4.235,0,0,1,1.273,2.8H8.18a3.268,3.268,0,0,0-.848-1.975A2.565,2.565,0,0,0,5.508,34.7a2.684,2.684,0,0,0-2.254,1.063,4.882,4.882,0,0,0-.816,3.026v1.1a5.018,5.018,0,0,0,.773,2.948A2.5,2.5,0,0,0,5.375,43.93a2.886,2.886,0,0,0,1.918-.566,3.143,3.143,0,0,0,.887-1.973Zm8.328.633H13.25L12.18,45H10.633l4.344-11.375h1.313L20.641,45H19.1ZM13.7,40.8H17.57l-1.937-5.32Zm16.344-7.172v7.734a3.628,3.628,0,0,1-1.012,2.633,4.077,4.077,0,0,1-2.723,1.148l-.4.016a4.258,4.258,0,0,1-2.977-1.008,3.6,3.6,0,0,1-1.125-2.773v-7.75H23.3v7.7a2.372,2.372,0,0,0,2.617,2.6,2.63,2.63,0,0,0,1.949-.68,2.6,2.6,0,0,0,.676-1.914V33.625ZM32.414,45V33.625h3.211a5.169,5.169,0,0,1,2.625.656,4.438,4.438,0,0,1,1.762,1.867,6.078,6.078,0,0,1,.629,2.781v.727a6.1,6.1,0,0,1-.621,2.82,4.369,4.369,0,0,1-1.773,1.859A5.5,5.5,0,0,1,35.563,45Zm1.5-10.148v8.922h1.578a3.434,3.434,0,0,0,2.7-1.079,4.458,4.458,0,0,0,.965-3.073v-.665a4.529,4.529,0,0,0-.91-3.014,3.239,3.239,0,0,0-2.582-1.091Zm15.109,7.172H44.258L43.188,45H41.641l4.344-11.375H47.3L51.648,45H50.109ZM44.711,40.8h3.867l-1.937-5.32Zm9.977,2.977h5.391V45h-6.9V33.625h1.508Zm16.93,2.406H64.461V45h7.156Zm7.219,0H71.68V45h7.156Zm7.219,0H78.9V45h7.156Zm7.219,0H86.117V45h7.156Zm7.219,0H93.336V45h7.156Zm7.219,0h-7.156V45h7.156Zm7.219,0h-7.156V45h7.156Zm7.219,0h-7.156V45h7.156Zm7.219,0h-7.156V45h7.156Zm7.219,0H129.43V45h7.156Zm7.219,0h-7.156V45H143.8Zm7.219,0h-7.156V45h7.156Zm7.219,0h-7.156V45h7.156ZM9.688,71.391a4.185,4.185,0,0,1-1.332,2.785,4.365,4.365,0,0,1-2.98.98,4.008,4.008,0,0,1-3.23-1.445A5.815,5.815,0,0,1,.93,69.844V68.75A6.481,6.481,0,0,1,1.5,65.961,4.231,4.231,0,0,1,3.1,64.113a4.47,4.47,0,0,1,2.406-.645A4.11,4.11,0,0,1,8.414,64.48a4.235,4.235,0,0,1,1.273,2.8H8.18a3.268,3.268,0,0,0-.848-1.975A2.565,2.565,0,0,0,5.508,64.7a2.684,2.684,0,0,0-2.254,1.063,4.882,4.882,0,0,0-.816,3.026v1.1a5.018,5.018,0,0,0,.773,2.948A2.5,2.5,0,0,0,5.375,73.93a2.887,2.887,0,0,0,1.918-.566,3.143,3.143,0,0,0,.887-1.973Zm8.328.633H13.25L12.18,75H10.633l4.344-11.375h1.313L20.641,75H19.1ZM13.7,70.8H17.57l-1.937-5.32Zm16.344-7.172v7.734a3.628,3.628,0,0,1-1.012,2.633,4.077,4.077,0,0,1-2.723,1.148l-.4.016a4.258,4.258,0,0,1-2.977-1.008,3.6,3.6,0,0,1-1.125-2.773v-7.75H23.3v7.7a2.372,2.372,0,0,0,2.617,2.6,2.63,2.63,0,0,0,1.949-.68,2.6,2.6,0,0,0,.676-1.914V63.625ZM32.414,75V63.625h3.211a5.169,5.169,0,0,1,2.625.656,4.438,4.438,0,0,1,1.762,1.867,6.078,6.078,0,0,1,.629,2.781v.727a6.1,6.1,0,0,1-.621,2.82,4.369,4.369,0,0,1-1.773,1.859A5.5,5.5,0,0,1,35.563,75Zm1.5-10.148v8.922h1.578a3.434,3.434,0,0,0,2.7-1.079,4.458,4.458,0,0,0,.965-3.073v-.665a4.529,4.529,0,0,0-.91-3.014,3.239,3.239,0,0,0-2.582-1.091Zm15.109,7.172H44.258L43.188,75H41.641l4.344-11.375H47.3L51.648,75H50.109ZM44.711,70.8h3.867l-1.937-5.32Zm9.977,2.977h5.391V75h-6.9V63.625h1.508Zm16.93,2.406H64.461V75h7.156Zm7.219,0H71.68V75h7.156Zm7.219,0H78.9V75h7.156Zm7.219,0H86.117V75h7.156Zm7.219,0H93.336V75h7.156Zm7.219,0h-7.156V75h7.156Zm7.219,0h-7.156V75h7.156Zm7.219,0h-7.156V75h7.156Zm7.219,0h-7.156V75h7.156Zm7.219,0H129.43V75h7.156Zm7.219,0h-7.156V75H143.8Zm7.219,0h-7.156V75h7.156Zm7.219,0h-7.156V75h7.156Zm7.219,0H158.3V75h7.156Z" transform="translate(743.781 10745.857)"/>
        <path id="Trazado_883547" data-name="Trazado 883547" d="M8.4,0H.945V-1.039L4.883-5.414A9.354,9.354,0,0,0,6.09-7.027a2.693,2.693,0,0,0,.332-1.285,2.041,2.041,0,0,0-.539-1.461,1.885,1.885,0,0,0-1.437-.57A2.232,2.232,0,0,0,2.77-9.73a2.343,2.343,0,0,0-.6,1.707H.727a3.355,3.355,0,0,1,1.012-2.539,3.751,3.751,0,0,1,2.707-.969,3.6,3.6,0,0,1,2.508.832,2.838,2.838,0,0,1,.922,2.215q0,1.68-2.141,4L2.688-1.18H8.4Zm8.984,0H9.93V-1.039l3.938-4.375a9.354,9.354,0,0,0,1.207-1.613,2.693,2.693,0,0,0,.332-1.285,2.041,2.041,0,0,0-.539-1.461,1.885,1.885,0,0,0-1.437-.57,2.232,2.232,0,0,0-1.676.613,2.343,2.343,0,0,0-.6,1.707H9.711a3.355,3.355,0,0,1,1.012-2.539,3.751,3.751,0,0,1,2.707-.969,3.6,3.6,0,0,1,2.508.832,2.838,2.838,0,0,1,.922,2.215q0,1.68-2.141,4l-3.047,3.3h5.711Zm8.664-4.852a6.61,6.61,0,0,1-.867,3.773A3.084,3.084,0,0,1,22.469.156a3.107,3.107,0,0,1-2.7-1.207,6.274,6.274,0,0,1-.906-3.605v-1.93a6.463,6.463,0,0,1,.867-3.727,3.108,3.108,0,0,1,2.719-1.219,3.136,3.136,0,0,1,2.7,1.176,6.237,6.237,0,0,1,.891,3.629ZM24.6-6.828A5.3,5.3,0,0,0,24.086-9.5a1.775,1.775,0,0,0-1.633-.84,1.751,1.751,0,0,0-1.617.836,5.171,5.171,0,0,0-.523,2.57v2.313A5.381,5.381,0,0,0,20.848-1.9a1.771,1.771,0,0,0,1.621.879,1.747,1.747,0,0,0,1.59-.828A5.186,5.186,0,0,0,24.6-4.461ZM34.8-1.961l2.094-6.492h1.477L35.336,0h-1.1L31.172-8.453h1.477Z" transform="translate(627.051 10731.28)" fill="#12263f"/>
        <path id="Trazado_883544" data-name="Trazado 883544" d="M8.4,0H.945V-1.039L4.883-5.414A9.354,9.354,0,0,0,6.09-7.027a2.693,2.693,0,0,0,.332-1.285,2.041,2.041,0,0,0-.539-1.461,1.885,1.885,0,0,0-1.437-.57A2.232,2.232,0,0,0,2.77-9.73a2.343,2.343,0,0,0-.6,1.707H.727a3.355,3.355,0,0,1,1.012-2.539,3.751,3.751,0,0,1,2.707-.969,3.6,3.6,0,0,1,2.508.832,2.838,2.838,0,0,1,.922,2.215q0,1.68-2.141,4L2.688-1.18H8.4Zm1.711-.758a.905.905,0,0,1,.223-.625A.848.848,0,0,1,11-1.633a.874.874,0,0,1,.676.25.887.887,0,0,1,.23.625.839.839,0,0,1-.23.6A.89.89,0,0,1,11,.086a.863.863,0,0,1-.668-.242A.855.855,0,0,1,10.109-.758Zm9.7-10.625v1.227h-.266a3.805,3.805,0,0,0-2.687,1A4.161,4.161,0,0,0,15.7-6.43a3.085,3.085,0,0,1,2.453-1.031,2.95,2.95,0,0,1,2.371,1.047,4.038,4.038,0,0,1,.887,2.7A4.025,4.025,0,0,1,20.457-.9,3.3,3.3,0,0,1,17.891.156,3.247,3.247,0,0,1,15.242-1.1a4.97,4.97,0,0,1-1.016-3.23v-.555a7.488,7.488,0,0,1,1.34-4.8,4.921,4.921,0,0,1,3.988-1.7Zm-1.9,5.125a2.306,2.306,0,0,0-1.367.445A2.32,2.32,0,0,0,15.68-4.7v.531A3.731,3.731,0,0,0,16.313-1.9a1.9,1.9,0,0,0,1.578.859,1.838,1.838,0,0,0,1.535-.719,2.982,2.982,0,0,0,.559-1.883,2.983,2.983,0,0,0-.566-1.895A1.816,1.816,0,0,0,17.914-6.258ZM33.742-2.977H28.977L27.906,0H26.359L30.7-11.375h1.313L36.367,0H34.828ZM29.43-4.2H33.3l-1.937-5.32Z" transform="translate(766.051 10731.28)" fill="#12263f"/>
        <path id="Trazado_883545" data-name="Trazado 883545" d="M6.617-11.383v1.227H6.352a3.805,3.805,0,0,0-2.687,1A4.161,4.161,0,0,0,2.508-6.43,3.085,3.085,0,0,1,4.961-7.461,2.95,2.95,0,0,1,7.332-6.414a4.038,4.038,0,0,1,.887,2.7A4.025,4.025,0,0,1,7.262-.9,3.3,3.3,0,0,1,4.7.156,3.247,3.247,0,0,1,2.047-1.1a4.97,4.97,0,0,1-1.016-3.23v-.555a7.488,7.488,0,0,1,1.34-4.8,4.921,4.921,0,0,1,3.988-1.7Zm-1.9,5.125a2.306,2.306,0,0,0-1.367.445A2.32,2.32,0,0,0,2.484-4.7v.531A3.731,3.731,0,0,0,3.117-1.9,1.9,1.9,0,0,0,4.7-1.039,1.838,1.838,0,0,0,6.23-1.758a2.982,2.982,0,0,0,.559-1.883,2.983,2.983,0,0,0-.566-1.895A1.816,1.816,0,0,0,4.719-6.258ZM17.063-4.852A6.61,6.61,0,0,1,16.2-1.078,3.084,3.084,0,0,1,13.484.156a3.107,3.107,0,0,1-2.7-1.207,6.274,6.274,0,0,1-.906-3.605v-1.93a6.463,6.463,0,0,1,.867-3.727,3.108,3.108,0,0,1,2.719-1.219,3.136,3.136,0,0,1,2.7,1.176,6.237,6.237,0,0,1,.891,3.629ZM15.617-6.828A5.3,5.3,0,0,0,15.1-9.5a1.775,1.775,0,0,0-1.633-.84,1.751,1.751,0,0,0-1.617.836,5.171,5.171,0,0,0-.523,2.57v2.313A5.381,5.381,0,0,0,11.863-1.9a1.771,1.771,0,0,0,1.621.879,1.747,1.747,0,0,0,1.59-.828,5.186,5.186,0,0,0,.543-2.609Zm10.8,5.8a2.082,2.082,0,0,0,1.352-.469,1.649,1.649,0,0,0,.641-1.172h1.367a2.621,2.621,0,0,1-.5,1.383,3.293,3.293,0,0,1-1.23,1.047,3.55,3.55,0,0,1-1.629.391A3.482,3.482,0,0,1,23.668-1a4.59,4.59,0,0,1-1.02-3.152v-.242a5.089,5.089,0,0,1,.453-2.2,3.451,3.451,0,0,1,1.3-1.492,3.7,3.7,0,0,1,2-.531,3.39,3.39,0,0,1,2.363.852,3.043,3.043,0,0,1,1,2.211H28.406a1.992,1.992,0,0,0-.621-1.348,1.932,1.932,0,0,0-1.379-.527,2.023,2.023,0,0,0-1.707.793,3.724,3.724,0,0,0-.605,2.293v.273a3.65,3.65,0,0,0,.6,2.25A2.033,2.033,0,0,0,26.414-1.023Z" transform="translate(868.051 10731.28)" fill="#12263f"/>
        <path id="Trazado_883546" data-name="Trazado 883546" d="M8.078-4.852a6.61,6.61,0,0,1-.867,3.773A3.084,3.084,0,0,1,4.5.156,3.107,3.107,0,0,1,1.8-1.051,6.274,6.274,0,0,1,.9-4.656v-1.93a6.463,6.463,0,0,1,.867-3.727,3.108,3.108,0,0,1,2.719-1.219,3.136,3.136,0,0,1,2.7,1.176,6.237,6.237,0,0,1,.891,3.629ZM6.633-6.828A5.3,5.3,0,0,0,6.117-9.5a1.775,1.775,0,0,0-1.633-.84,1.751,1.751,0,0,0-1.617.836,5.171,5.171,0,0,0-.523,2.57v2.313A5.381,5.381,0,0,0,2.879-1.9,1.771,1.771,0,0,0,4.5-1.023a1.747,1.747,0,0,0,1.59-.828,5.186,5.186,0,0,0,.543-2.609Zm3.477,6.07a.905.905,0,0,1,.223-.625A.848.848,0,0,1,11-1.633a.874.874,0,0,1,.676.25.887.887,0,0,1,.23.625.839.839,0,0,1-.23.6A.89.89,0,0,1,11,.086a.863.863,0,0,1-.668-.242A.855.855,0,0,1,10.109-.758ZM14.8-5.7l.578-5.672h5.828v1.336h-4.6l-.344,3.1a3.671,3.671,0,0,1,1.9-.492A3.138,3.138,0,0,1,20.633-6.4a4.026,4.026,0,0,1,.914,2.777A3.886,3.886,0,0,1,20.6-.855,3.46,3.46,0,0,1,17.945.156,3.6,3.6,0,0,1,15.484-.68,3.337,3.337,0,0,1,14.4-2.992h1.367a2.3,2.3,0,0,0,.7,1.473,2.162,2.162,0,0,0,1.484.5,1.95,1.95,0,0,0,1.582-.687,2.874,2.874,0,0,0,.574-1.9,2.638,2.638,0,0,0-.621-1.832,2.113,2.113,0,0,0-1.652-.691,2.383,2.383,0,0,0-1.484.414l-.383.313Zm15.664-4.859L25.758,0H24.242l4.7-10.187H22.781v-1.187h7.688Zm8.867,5.273L37.945-3.844V0h-1.5V-11.375h1.5V-5.75L43-11.375h1.813L40.336-6.352,45.164,0h-1.8Zm13.906,3.3,1.625-6.461h1.445L53.852,0H52.68L50.625-6.406,48.625,0H47.453L45-8.453h1.438L48.1-2.125,50.07-8.453h1.164Z" transform="translate(957.051 10731.28)" fill="#12263f"/>
        <g id="Rectángulo_403530" data-name="Rectángulo 403530" transform="translate(498.051 10717.28)" fill="#fff" stroke="#707070" stroke-width="1">
          <rect width="24" height="18" stroke="none"/>
          <rect x="0.5" y="0.5" width="23" height="17" fill="none"/>
        </g>
        <g id="Rectángulo_403531" data-name="Rectángulo 403531" transform="translate(498.051 10717.28)" fill="#fff" stroke="#707070" stroke-width="1">
          <rect width="24" height="18" stroke="none"/>
          <rect x="0.5" y="0.5" width="23" height="17" fill="none"/>
        </g>
        <g id="Rectángulo_403532" data-name="Rectángulo 403532" transform="translate(498.051 10746.28)" fill="#fff" stroke="#707070" stroke-width="1">
          <rect width="24" height="18" stroke="none"/>
          <rect x="0.5" y="0.5" width="23" height="17" fill="none"/>
        </g>
        <g id="Rectángulo_403533" data-name="Rectángulo 403533" transform="translate(498.051 10777.28)" fill="#fff" stroke="#707070" stroke-width="1">
          <rect width="24" height="18" stroke="none"/>
          <rect x="0.5" y="0.5" width="23" height="17" fill="none"/>
        </g>
        <g id="Rectángulo_403534" data-name="Rectángulo 403534" transform="translate(498.051 10808.28)" fill="#fff" stroke="#707070" stroke-width="1">
          <rect width="24" height="18" stroke="none"/>
          <rect x="0.5" y="0.5" width="23" height="17" fill="none"/>
        </g>
        <g id="Rectángulo_403535" data-name="Rectángulo 403535" transform="translate(477.051 10956.28)" fill="#fff" stroke="#707070" stroke-width="1">
          <rect width="38" height="23" stroke="none"/>
          <rect x="0.5" y="0.5" width="37" height="22" fill="none"/>
        </g>
        <path id="Trazado_883541" data-name="Trazado 883541" d="M5.031-7.016l2.727-4.359H9.523L5.93-5.734,9.609,0H7.828l-2.8-4.437L2.219,0H.445L4.133-5.734l-3.6-5.641H2.289Z" transform="translate(504.051 10732.28)" fill="#12263f"/>
        <path id="Trazado_883540" data-name="Trazado 883540" d="M5.031-7.016l2.727-4.359H9.523L5.93-5.734,9.609,0H7.828l-2.8-4.437L2.219,0H.445L4.133-5.734l-3.6-5.641H2.289Z" transform="translate(504.051 10823.28)" fill="#12263f"/>
        <path id="Trazado_883542" data-name="Trazado 883542" d="M10.063,0H8.555L2.828-8.766V0H1.32V-11.375H2.828L8.57-2.57v-8.8h1.492ZM21.477-5.32A7.037,7.037,0,0,1,20.914-2.4,4.261,4.261,0,0,1,19.32-.5a4.385,4.385,0,0,1-2.406.656A4.347,4.347,0,0,1,14.531-.5a4.363,4.363,0,0,1-1.613-1.883,6.752,6.752,0,0,1-.59-2.832v-.82a6.953,6.953,0,0,1,.57-2.9,4.347,4.347,0,0,1,1.613-1.926,4.329,4.329,0,0,1,2.387-.668,4.41,4.41,0,0,1,2.41.66,4.253,4.253,0,0,1,1.605,1.914,7.071,7.071,0,0,1,.563,2.918Zm-1.492-.734a5.1,5.1,0,0,0-.812-3.105A2.68,2.68,0,0,0,16.9-10.242,2.651,2.651,0,0,0,14.66-9.16a5,5,0,0,0-.84,3v.836a5.107,5.107,0,0,0,.824,3.082,2.662,2.662,0,0,0,2.27,1.121,2.652,2.652,0,0,0,2.25-1.059,5.079,5.079,0,0,0,.82-3.035Z" transform="translate(485.051 10973.28)" fill="#12263f"/>
        <path id="Trazado_883543" data-name="Trazado 883543" d="M3.047-6.391H4.133A2.387,2.387,0,0,0,5.742-6.93a1.8,1.8,0,0,0,.586-1.414,1.764,1.764,0,0,0-1.992-2,2.072,2.072,0,0,0-1.5.535,1.873,1.873,0,0,0-.559,1.418H.836a2.9,2.9,0,0,1,.988-2.246,3.6,3.6,0,0,1,2.512-.895,3.558,3.558,0,0,1,2.523.852,3.076,3.076,0,0,1,.914,2.367,2.5,2.5,0,0,1-.48,1.438A2.9,2.9,0,0,1,5.984-5.836a2.8,2.8,0,0,1,1.449.984,2.734,2.734,0,0,1,.512,1.68,3.1,3.1,0,0,1-1,2.43,3.745,3.745,0,0,1-2.6.9A3.844,3.844,0,0,1,1.738-.711,2.877,2.877,0,0,1,.734-3H2.188a1.859,1.859,0,0,0,.586,1.438,2.229,2.229,0,0,0,1.57.539,2.187,2.187,0,0,0,1.6-.547A2.108,2.108,0,0,0,6.5-3.141a1.912,1.912,0,0,0-.609-1.523,2.655,2.655,0,0,0-1.758-.547H3.047Z" transform="translate(379.051 10942.28)" fill="#12263f"/>
      </g>
    </g>
  </g>
</svg>
