<svg xmlns="http://www.w3.org/2000/svg" xmlns:xlink="http://www.w3.org/1999/xlink" width="1284" height="327" viewBox="0 0 1284 327">
  <defs>
    <clipPath id="clip-path">
      <rect y="68" width="131.851" height="290.5" fill="none"/>
    </clipPath>
    <clipPath id="clip-path-2">
      <rect id="Rect치ngulo_404035" data-name="Rect치ngulo 404035" width="131.851" height="377.5" transform="translate(0 0)" fill="#fff" stroke="#707070" stroke-width="1"/>
    </clipPath>
    <filter id="Trazado_881533" x="1115.006" y="9.172" width="329.651" height="330.048" filterUnits="userSpaceOnUse">
      <feOffset dx="5" dy="3" input="SourceAlpha"/>
      <feGaussianBlur stdDeviation="3" result="blur"/>
      <feFlood flood-opacity="0.161"/>
      <feComposite operator="in" in2="blur"/>
      <feComposite in="SourceGraphic"/>
    </filter>
  </defs>
  <g id="Grupo_1111245" data-name="Grupo 1111245" transform="translate(-180 -1752)">
    <g id="Grupo_1111244" data-name="Grupo 1111244">
      <g id="Grupo_de_desplazamiento_1" data-name="Grupo de desplazamiento 1" transform="translate(1331.149 1701.72)" clip-path="url(#clip-path)" style="isolation: isolate">
        <g id="Grupo_1109997" data-name="Grupo 1109997" transform="translate(-1415 -1533.171)">
          <g id="Enmascarar_grupo_1101694" data-name="Enmascarar grupo 1101694" transform="translate(1546.851 1910.671) rotate(180)" clip-path="url(#clip-path-2)">
            <g transform="matrix(-1, 0, 0, -1, 1283, 327.22)" filter="url(#Trazado_881533)">
              <path id="Trazado_881533-2" data-name="Trazado 881533" d="M43.512,171.322c.718,1.1,1.447,2.151,2.176,3.2q-10.451,9.819-20.19,20.528A120.571,120.571,0,0,0,82.01,235.264c4.612-8.4,8.889-17.047,12.814-25.847a91.179,91.179,0,0,0,21.108,3.607q1.179,14.373,3.474,28.7a129.535,129.535,0,0,0,34.749-4.667,129.426,129.426,0,0,0,31.938-14.5q-5.595-13.339-12.245-26.153a90.784,90.784,0,0,0,16.023-14.242c7.959,5.365,16.187,10.427,24.613,15.147a128.228,128.228,0,0,0,17.966-30.105,128.57,128.57,0,0,0,8.585-33.945c-9.3-2.621-18.633-4.884-28.023-6.727a94.6,94.6,0,0,0-1.2-21.447c9.149-2.878,18.224-6.133,27.094-9.764A121.474,121.474,0,0,0,205.482,34.6C197.609,40.21,190,46.159,182.7,52.326a89.967,89.967,0,0,0-17.458-12.439q5.211-13.456,9.241-27.291A117.068,117.068,0,0,0,141.2,1.792a115,115,0,0,0-35-.852q-.771,14.5-.34,28.773a89.287,89.287,0,0,0-20.626,5.963Q78.01,23.344,69.643,11.414L65.656,13.3c-1.3.677-2.555,1.413-3.813,2.151-2.516,1.474-5.07,2.887-7.529,4.45-4.732,3.474-9.618,6.708-13.833,10.777A118.486,118.486,0,0,0,28.146,43.227c-1.883,2.249-3.589,4.636-5.365,6.985a67.443,67.443,0,0,0-4.848,7.323q10.875,9.632,22.331,18.208l.018.03a88.828,88.828,0,0,0-8.235,19.8c-9.463-1.371-18.98-2.366-28.658-2.96a119.942,119.942,0,0,0,3.8,69.213q14.179-2.453,28.173-6.1a88.8,88.8,0,0,0,8.148,15.593M82.518,61.846A70.344,70.344,0,1,1,62.1,159.182,70.427,70.427,0,0,1,82.518,61.846" transform="translate(1430.66 240.84) rotate(159)" fill="#b2bbc0"/>
            </g>
          </g>
        </g>
      </g>
      <rect id="Rect치ngulo_405012" data-name="Rect치ngulo 405012" width="1284" height="327" transform="translate(180 1752)" fill="none"/>
    </g>
  </g>
</svg>
