<svg xmlns="http://www.w3.org/2000/svg" width="1030" height="243.654" viewBox="0 0 1030 243.654">
  <g id="Grupo_1107698" data-name="Grupo 1107698" transform="translate(-308.051 -8530.386)">
    <g id="Rectángulo_403525" data-name="Rectángulo 403525" transform="translate(308.051 8530.386)" fill="#fff" stroke="#e1e1e1" stroke-width="1">
      <rect width="1030" height="243.154" stroke="none"/>
      <rect x="0.5" y="0.5" width="1029" height="242.154" fill="none"/>
    </g>
    <path id="Trazado_878152" data-name="Trazado 878152" d="M0,0H1030V61H0Z" transform="translate(308.051 8530.386)" fill="#e69999"/>
    <line id="Línea_3957" data-name="Línea 3957" x1="1029" transform="translate(309.051 8639.809)" fill="none" stroke="#e1e1e1" stroke-width="1"/>
    <line id="Línea_3958" data-name="Línea 3958" y2="180.757" transform="translate(725.663 8591.516)" fill="none" stroke="#e1e1e1" stroke-width="1"/>
    <line id="Línea_3959" data-name="Línea 3959" y2="181.91" transform="translate(909.215 8591.235)" fill="none" stroke="#e1e1e1" stroke-width="1"/>
    <path id="Trazado_883545" data-name="Trazado 883545" d="M4.672,9.93A7.053,7.053,0,0,1,1.863,8.566a2.6,2.6,0,0,1-.879-2A2.751,2.751,0,0,1,2.059,4.348a4.269,4.269,0,0,1,2.793-.879,4.66,4.66,0,0,1,2.09.453,3.436,3.436,0,0,1,1.422,1.25,3.2,3.2,0,0,1,.5,1.742H7.359A2.08,2.08,0,0,0,6.7,5.287,2.669,2.669,0,0,0,4.852,4.7a2.732,2.732,0,0,0-1.73.489A1.632,1.632,0,0,0,2.5,6.542,1.468,1.468,0,0,0,3.09,7.72,5.785,5.785,0,0,0,5.1,8.6a9.316,9.316,0,0,1,2.219.88A3.367,3.367,0,0,1,8.5,10.6a2.861,2.861,0,0,1,.387,1.508,2.658,2.658,0,0,1-1.078,2.215,4.6,4.6,0,0,1-2.883.832,5.347,5.347,0,0,1-2.187-.449,3.681,3.681,0,0,1-1.566-1.23A3,3,0,0,1,.625,11.7H2.133a1.959,1.959,0,0,0,.762,1.629,3.207,3.207,0,0,0,2.035.6,2.948,2.948,0,0,0,1.82-.484,1.573,1.573,0,0,0,.633-1.32A1.545,1.545,0,0,0,6.8,10.832,6.755,6.755,0,0,0,4.672,9.93Zm12.57-.187h-4.93v4.031h5.727V15H10.813V3.625h7.148V4.852H12.313V8.516h4.93Zm6.836.656H21.406V15H19.9V3.625h3.766a4.457,4.457,0,0,1,2.957.875,3.148,3.148,0,0,1,1.035,2.547A3.062,3.062,0,0,1,27.082,8.9a3.428,3.428,0,0,1-1.6,1.18l2.672,4.828V15H26.547ZM21.406,9.172h2.3a2.6,2.6,0,0,0,1.777-.579,1.959,1.959,0,0,0,.66-1.55,2.062,2.062,0,0,0-.629-1.62A2.663,2.663,0,0,0,23.7,4.852h-2.3ZM31.367,15h-1.5V3.625h1.5Zm9.172-5.258h-4.93v4.031h5.727V15H34.109V3.625h7.148V4.852H35.609V8.516h4.93Z" transform="translate(979.051 8608.809)" fill="#12263f"/>
    <path id="Trazado_883541" data-name="Trazado 883541" d="M3.258-11.375,6.977-2.094,10.7-11.375h1.945V0h-1.5V-4.43l.141-4.781L7.547,0H6.4L2.672-9.187,2.82-4.43V0H1.32V-11.375Zm18.453,8.4H16.945L15.875,0H14.328l4.344-11.375h1.313L24.336,0H22.8ZM17.4-4.2h3.867l-1.937-5.32Zm12.641-.4H27.367V0H25.859V-11.375h3.766a4.457,4.457,0,0,1,2.957.875,3.148,3.148,0,0,1,1.035,2.547A3.062,3.062,0,0,1,33.043-6.1a3.428,3.428,0,0,1-1.6,1.18L34.117-.094V0H32.508ZM27.367-5.828h2.3a2.6,2.6,0,0,0,1.777-.579,1.959,1.959,0,0,0,.66-1.55,2.062,2.062,0,0,0-.629-1.62,2.663,2.663,0,0,0-1.816-.571h-2.3ZM44.086-3.609A4.185,4.185,0,0,1,42.754-.824a4.365,4.365,0,0,1-2.98.98,4.008,4.008,0,0,1-3.23-1.445,5.815,5.815,0,0,1-1.215-3.867V-6.25a6.481,6.481,0,0,1,.566-2.789A4.231,4.231,0,0,1,37.5-10.887a4.47,4.47,0,0,1,2.406-.645,4.11,4.11,0,0,1,2.906,1.012,4.235,4.235,0,0,1,1.273,2.8H42.578a3.268,3.268,0,0,0-.848-1.975,2.565,2.565,0,0,0-1.824-.611,2.684,2.684,0,0,0-2.254,1.063,4.882,4.882,0,0,0-.816,3.026v1.1a5.018,5.018,0,0,0,.773,2.948A2.5,2.5,0,0,0,39.773-1.07a2.887,2.887,0,0,0,1.918-.566,3.143,3.143,0,0,0,.887-1.973Zm8.328.633H47.648L46.578,0H45.031l4.344-11.375h1.313L55.039,0H53.5ZM48.1-4.2h3.867l-1.937-5.32Z" transform="translate(620.051 8625.809)" fill="#12263f"/>
    <path id="Trazado_883537" data-name="Trazado 883537" d="M5.019-12.8l2.856,8.9,2.848-8.9h4.061V0H11.689V-2.988l.3-6.117L8.895,0H6.855l-3.1-9.114.3,6.126V0H.967V-12.8ZM27.58-6.135a7.546,7.546,0,0,1-.694,3.313A5.132,5.132,0,0,1,24.913-.6,5.494,5.494,0,0,1,22,.176a5.572,5.572,0,0,1-2.9-.751,5.123,5.123,0,0,1-1.973-2.149,7.329,7.329,0,0,1-.743-3.208v-.721a7.58,7.58,0,0,1,.69-3.318A5.119,5.119,0,0,1,19.05-12.19a5.533,5.533,0,0,1,2.931-.782,5.479,5.479,0,0,1,2.9.773A5.211,5.211,0,0,1,26.864-10a7.362,7.362,0,0,1,.716,3.274Zm-3.138-.536a5.381,5.381,0,0,0-.637-2.9,2.044,2.044,0,0,0-1.824-.989q-2.32,0-2.452,3.48l-.009.94a5.535,5.535,0,0,0,.624,2.892A2.041,2.041,0,0,0,22-2.232a2.016,2.016,0,0,0,1.8-.993,5.383,5.383,0,0,0,.642-2.856ZM38.47-10.415H34.629V0H31.544V-10.415H27.773V-12.8h10.7Zm11.892,4.28a7.546,7.546,0,0,1-.694,3.313A5.132,5.132,0,0,1,47.694-.6,5.494,5.494,0,0,1,44.78.176a5.572,5.572,0,0,1-2.9-.751,5.123,5.123,0,0,1-1.973-2.149,7.329,7.329,0,0,1-.743-3.208v-.721a7.58,7.58,0,0,1,.69-3.318,5.119,5.119,0,0,1,1.978-2.219,5.533,5.533,0,0,1,2.931-.782,5.479,5.479,0,0,1,2.9.773A5.211,5.211,0,0,1,49.645-10a7.362,7.362,0,0,1,.716,3.274Zm-3.138-.536a5.381,5.381,0,0,0-.637-2.9,2.044,2.044,0,0,0-1.824-.989q-2.32,0-2.452,3.48l-.009.94a5.535,5.535,0,0,0,.624,2.892A2.041,2.041,0,0,0,44.78-2.232a2.016,2.016,0,0,0,1.8-.993,5.383,5.383,0,0,0,.642-2.856Zm9.483,2.145h-1.67V0H51.952V-12.8h5.036a5.621,5.621,0,0,1,3.56,1.01,3.421,3.421,0,0,1,1.283,2.853,4.155,4.155,0,0,1-.541,2.213A3.837,3.837,0,0,1,59.6-5.3L62.271-.132V0h-3.3ZM55.037-6.9h1.951a1.751,1.751,0,0,0,1.323-.463,1.788,1.788,0,0,0,.444-1.291,1.809,1.809,0,0,0-.448-1.3,1.735,1.735,0,0,0-1.318-.471H55.037ZM71.631-5.432H66.779v3.059h5.73V0H63.694V-12.8h8.833v2.382H66.779v2.7h4.852ZM80.367-3.4a1.268,1.268,0,0,0-.479-1.055,5.954,5.954,0,0,0-1.683-.782,16.147,16.147,0,0,1-1.969-.782q-2.487-1.222-2.487-3.357a3.011,3.011,0,0,1,.62-1.876,4.008,4.008,0,0,1,1.753-1.266,6.823,6.823,0,0,1,2.549-.453,5.969,5.969,0,0,1,2.474.492,3.917,3.917,0,0,1,1.7,1.4A3.661,3.661,0,0,1,83.452-9H80.376a1.547,1.547,0,0,0-.479-1.213,1.867,1.867,0,0,0-1.3-.431,2.106,2.106,0,0,0-1.305.365,1.119,1.119,0,0,0-.479.927,1.127,1.127,0,0,0,.527.892,6.65,6.65,0,0,0,1.854.826,11.36,11.36,0,0,1,2.18.918,3.663,3.663,0,0,1,2.074,3.3A3.125,3.125,0,0,1,82.187-.782a5.629,5.629,0,0,1-3.472.958A6.888,6.888,0,0,1,75.9-.382,4.247,4.247,0,0,1,74-1.912a3.985,3.985,0,0,1-.637-2.237h3.094a1.963,1.963,0,0,0,.532,1.516,2.513,2.513,0,0,0,1.727.488,1.985,1.985,0,0,0,1.208-.33A1.088,1.088,0,0,0,80.367-3.4Zm17.086-2.03H92.6v3.059h5.73V0H89.517V-12.8H98.35v2.382H92.6v2.7h4.852Zm5.221,3.059h5.37V0H99.589V-12.8h3.085Zm14.607-3.059H112.43v3.059h5.73V0h-8.815V-12.8h8.833v2.382H112.43v2.7h4.852Zm-2.874-10.793h3.129l-2.443,2.76-2.417,0ZM129.771-4.333a4.673,4.673,0,0,1-.721,2.36A4.35,4.35,0,0,1,127.2-.387a6.3,6.3,0,0,1-2.72.563,5.025,5.025,0,0,1-3.973-1.644,6.786,6.786,0,0,1-1.45-4.641v-.633a7.746,7.746,0,0,1,.655-3.292,4.961,4.961,0,0,1,1.885-2.18,5.26,5.26,0,0,1,2.848-.769,5.516,5.516,0,0,1,3.744,1.226A4.844,4.844,0,0,1,129.8-8.376h-3.076a2.292,2.292,0,0,0-.589-1.679,2.422,2.422,0,0,0-1.687-.51,1.843,1.843,0,0,0-1.687.861,5.536,5.536,0,0,0-.562,2.751v.905a6.126,6.126,0,0,0,.514,2.927,1.882,1.882,0,0,0,1.771.879,2.369,2.369,0,0,0,1.626-.5,2.126,2.126,0,0,0,.6-1.591Zm11.25-6.082H137.18V0h-3.085V-10.415h-3.771V-12.8h10.7Zm6.056,5.889h-1.67V0h-3.085V-12.8h5.036a5.621,5.621,0,0,1,3.56,1.01A3.421,3.421,0,0,1,152.2-8.934a4.155,4.155,0,0,1-.541,2.213A3.837,3.837,0,0,1,149.968-5.3L152.64-.132V0h-3.3ZM145.406-6.9h1.951a1.751,1.751,0,0,0,1.323-.463,1.788,1.788,0,0,0,.444-1.291,1.809,1.809,0,0,0-.448-1.3,1.735,1.735,0,0,0-1.318-.471h-1.951ZM157.351,0h-3.076V-12.8h3.076Zm12.5-4.333a4.673,4.673,0,0,1-.721,2.36,4.35,4.35,0,0,1-1.85,1.586,6.3,6.3,0,0,1-2.72.563,5.025,5.025,0,0,1-3.973-1.644,6.786,6.786,0,0,1-1.45-4.641v-.633a7.746,7.746,0,0,1,.655-3.292,4.961,4.961,0,0,1,1.885-2.18,5.26,5.26,0,0,1,2.848-.769,5.516,5.516,0,0,1,3.744,1.226,4.844,4.844,0,0,1,1.608,3.379H166.8a2.292,2.292,0,0,0-.589-1.679,2.422,2.422,0,0,0-1.687-.51,1.843,1.843,0,0,0-1.687.861,5.536,5.536,0,0,0-.562,2.751v.905a6.126,6.126,0,0,0,.514,2.927,1.882,1.882,0,0,0,1.771.879,2.369,2.369,0,0,0,1.626-.5,2.126,2.126,0,0,0,.6-1.591Zm12.3-1.8a7.546,7.546,0,0,1-.694,3.313A5.132,5.132,0,0,1,179.477-.6a5.494,5.494,0,0,1-2.914.778,5.572,5.572,0,0,1-2.9-.751,5.123,5.123,0,0,1-1.973-2.149,7.329,7.329,0,0,1-.743-3.208v-.721a7.58,7.58,0,0,1,.69-3.318,5.119,5.119,0,0,1,1.978-2.219,5.533,5.533,0,0,1,2.931-.782,5.479,5.479,0,0,1,2.9.773,5.211,5.211,0,0,1,1.982,2.2,7.362,7.362,0,0,1,.716,3.274Zm-3.138-.536a5.381,5.381,0,0,0-.637-2.9,2.044,2.044,0,0,0-1.824-.989q-2.32,0-2.452,3.48l-.009.94a5.535,5.535,0,0,0,.624,2.892,2.041,2.041,0,0,0,1.854,1.011,2.016,2.016,0,0,0,1.8-.993,5.383,5.383,0,0,0,.642-2.856ZM190.336-3.4a1.268,1.268,0,0,0-.479-1.055,5.954,5.954,0,0,0-1.683-.782,16.147,16.147,0,0,1-1.969-.782q-2.487-1.222-2.487-3.357a3.011,3.011,0,0,1,.62-1.876,4.008,4.008,0,0,1,1.753-1.266,6.823,6.823,0,0,1,2.549-.453,5.969,5.969,0,0,1,2.474.492,3.917,3.917,0,0,1,1.7,1.4A3.661,3.661,0,0,1,193.421-9h-3.076a1.547,1.547,0,0,0-.479-1.213,1.867,1.867,0,0,0-1.3-.431,2.106,2.106,0,0,0-1.305.365,1.119,1.119,0,0,0-.479.927,1.127,1.127,0,0,0,.527.892,6.65,6.65,0,0,0,1.854.826,11.36,11.36,0,0,1,2.18.918,3.663,3.663,0,0,1,2.074,3.3,3.125,3.125,0,0,1-1.266,2.637,5.629,5.629,0,0,1-3.472.958,6.888,6.888,0,0,1-2.817-.558,4.247,4.247,0,0,1-1.9-1.529,3.985,3.985,0,0,1-.637-2.237h3.094a1.963,1.963,0,0,0,.532,1.516,2.513,2.513,0,0,0,1.727.488,1.985,1.985,0,0,0,1.208-.33A1.088,1.088,0,0,0,190.336-3.4Z" transform="translate(349.551 8567.386)" fill="#12263f"/>
    <line id="Línea_3956" data-name="Línea 3956" y2="181.76" transform="translate(569.745 8591.78)" fill="none" stroke="#e1e1e1" stroke-width="1"/>
    <path id="Trazado_883538" data-name="Trazado 883538" d="M7.594,9.977H2.82V15H1.32V3.625H8.367V4.852H2.82v3.9H7.594ZM18.172,3.625v7.734a3.628,3.628,0,0,1-1.012,2.633,4.077,4.077,0,0,1-2.723,1.148l-.4.016a4.258,4.258,0,0,1-2.977-1.008,3.6,3.6,0,0,1-1.125-2.773V3.625h1.484v7.7a2.6,2.6,0,0,0,.68,1.918,2.612,2.612,0,0,0,1.938.684,2.63,2.63,0,0,0,1.949-.68,2.6,2.6,0,0,0,.676-1.914V3.625ZM29.281,15H27.773L22.047,6.234V15H20.539V3.625h1.508l5.742,8.8v-8.8h1.492Zm11.031-3.609a4.185,4.185,0,0,1-1.332,2.785,4.365,4.365,0,0,1-2.98.98,4.008,4.008,0,0,1-3.23-1.445,5.815,5.815,0,0,1-1.215-3.867V8.75a6.481,6.481,0,0,1,.566-2.789,4.231,4.231,0,0,1,1.605-1.848,4.47,4.47,0,0,1,2.406-.645A4.11,4.11,0,0,1,39.039,4.48a4.235,4.235,0,0,1,1.273,2.8H38.8a3.268,3.268,0,0,0-.848-1.975A2.565,2.565,0,0,0,36.133,4.7a2.684,2.684,0,0,0-2.254,1.063,4.882,4.882,0,0,0-.816,3.026v1.1a5.018,5.018,0,0,0,.773,2.948A2.5,2.5,0,0,0,36,13.93a2.887,2.887,0,0,0,1.918-.566,3.143,3.143,0,0,0,.887-1.973ZM43.969,15h-1.5V3.625h1.5ZM55.461,9.68A7.037,7.037,0,0,1,54.9,12.6,4.261,4.261,0,0,1,53.3,14.5a4.4,4.4,0,0,1-6.4-1.887,6.752,6.752,0,0,1-.59-2.832v-.82a6.953,6.953,0,0,1,.57-2.9,4.218,4.218,0,0,1,4-2.594,4.41,4.41,0,0,1,2.41.66A4.253,4.253,0,0,1,54.9,6.043a7.071,7.071,0,0,1,.563,2.918Zm-1.492-.734a5.1,5.1,0,0,0-.812-3.105,2.68,2.68,0,0,0-2.273-1.082A2.651,2.651,0,0,0,48.645,5.84a5,5,0,0,0-.84,3V9.68a5.107,5.107,0,0,0,.824,3.082,2.888,2.888,0,0,0,4.52.063,5.079,5.079,0,0,0,.82-3.035ZM51.617.563h1.75l-2.094,2.3-1.164,0ZM66.453,15H64.945L59.219,6.234V15H57.711V3.625h1.508l5.742,8.8v-8.8h1.492Z" transform="translate(416.051 8604.865)" fill="#12263f"/>
    <line id="Línea_3960" data-name="Línea 3960" x1="1029" transform="translate(308.051 8684.386)" fill="none" stroke="#e1e1e1" stroke-width="1"/>
    <line id="Línea_3961" data-name="Línea 3961" x1="1029" transform="translate(309.051 8728.963)" fill="none" stroke="#e1e1e1" stroke-width="1"/>
    <line id="Línea_3962" data-name="Línea 3962" x1="1029" transform="translate(309.051 8773.54)" fill="none" stroke="#e1e1e1" stroke-width="1"/>
    <path id="Trazado_883542" data-name="Trazado 883542" d="M3.258-11.375,6.977-2.094,10.7-11.375h1.945V0h-1.5V-4.43l.141-4.781L7.547,0H6.4L2.672-9.187,2.82-4.43V0H1.32V-11.375ZM24.039-5.32A7.037,7.037,0,0,1,23.477-2.4,4.261,4.261,0,0,1,21.883-.5a4.385,4.385,0,0,1-2.406.656A4.347,4.347,0,0,1,17.094-.5,4.363,4.363,0,0,1,15.48-2.387a6.752,6.752,0,0,1-.59-2.832v-.82a6.953,6.953,0,0,1,.57-2.9,4.347,4.347,0,0,1,1.613-1.926,4.329,4.329,0,0,1,2.387-.668,4.41,4.41,0,0,1,2.41.66,4.253,4.253,0,0,1,1.605,1.914,7.071,7.071,0,0,1,.563,2.918Zm-1.492-.734a5.1,5.1,0,0,0-.812-3.105,2.68,2.68,0,0,0-2.273-1.082A2.651,2.651,0,0,0,17.223-9.16a5,5,0,0,0-.84,3v.836a5.107,5.107,0,0,0,.824,3.082,2.662,2.662,0,0,0,2.27,1.121,2.652,2.652,0,0,0,2.25-1.059,5.079,5.079,0,0,0,.82-3.035ZM26.289,0V-11.375H29.5a5.169,5.169,0,0,1,2.625.656,4.438,4.438,0,0,1,1.762,1.867,6.078,6.078,0,0,1,.629,2.781v.727a6.1,6.1,0,0,1-.621,2.82A4.369,4.369,0,0,1,32.121-.664,5.5,5.5,0,0,1,29.438,0Zm1.5-10.148v8.922h1.578a3.434,3.434,0,0,0,2.7-1.079,4.458,4.458,0,0,0,.965-3.073v-.665a4.529,4.529,0,0,0-.91-3.014,3.239,3.239,0,0,0-2.582-1.091ZM43.211-5.258h-4.93v4.031h5.727V0H36.781V-11.375H43.93v1.227H38.281v3.664h4.93Zm4.172,4.031h5.391V0h-6.9V-11.375h1.508ZM62.727-5.32A7.037,7.037,0,0,1,62.164-2.4,4.261,4.261,0,0,1,60.57-.5a4.385,4.385,0,0,1-2.406.656A4.347,4.347,0,0,1,55.781-.5a4.363,4.363,0,0,1-1.613-1.883,6.752,6.752,0,0,1-.59-2.832v-.82a6.953,6.953,0,0,1,.57-2.9,4.347,4.347,0,0,1,1.613-1.926,4.329,4.329,0,0,1,2.387-.668,4.41,4.41,0,0,1,2.41.66,4.253,4.253,0,0,1,1.605,1.914,7.071,7.071,0,0,1,.563,2.918Zm-1.492-.734a5.1,5.1,0,0,0-.812-3.105,2.68,2.68,0,0,0-2.273-1.082A2.651,2.651,0,0,0,55.91-9.16a5,5,0,0,0-.84,3v.836a5.107,5.107,0,0,0,.824,3.082,2.662,2.662,0,0,0,2.27,1.121,2.652,2.652,0,0,0,2.25-1.059,5.079,5.079,0,0,0,.82-3.035Z" transform="translate(788.051 8625.809)" fill="#12263f"/>
    <path id="Trazado_883546" data-name="Trazado 883546" d="M5.492,10.4H2.82V15H1.313V3.625H5.078A4.457,4.457,0,0,1,8.035,4.5,3.148,3.148,0,0,1,9.07,7.047,3.062,3.062,0,0,1,8.5,8.9a3.428,3.428,0,0,1-1.6,1.18L9.57,14.906V15H7.961ZM2.82,9.172h2.3A2.6,2.6,0,0,0,6.9,8.593a1.959,1.959,0,0,0,.66-1.55,2.062,2.062,0,0,0-.629-1.62,2.663,2.663,0,0,0-1.816-.571H2.82Zm9.852,1.375V15h-1.5V3.625h4.2a4.215,4.215,0,0,1,2.926.953A3.231,3.231,0,0,1,19.352,7.1a3.189,3.189,0,0,1-1.035,2.551,4.4,4.4,0,0,1-2.965.895Zm0-1.227h2.7a2.7,2.7,0,0,0,1.844-.567,2.075,2.075,0,0,0,.641-1.64,2.143,2.143,0,0,0-.641-1.628,2.525,2.525,0,0,0-1.758-.634H12.672ZM23.2,3.625l3.719,9.281,3.719-9.281h1.945V15h-1.5V10.57l.141-4.781L27.492,15H26.344L22.617,5.813l.148,4.758V15h-1.5V3.625Z" transform="translate(1188.051 8608.809)" fill="#12263f"/>
    <line id="Línea_3963" data-name="Línea 3963" y2="181.91" transform="translate(1094.215 8591.235)" fill="none" stroke="#e1e1e1" stroke-width="1"/>
    <path id="Trazado_883544" data-name="Trazado 883544" d="M7.594,9.977H2.82V15H1.32V3.625H8.367V4.852H2.82v3.9H7.594Zm6.742.422H11.664V15H10.156V3.625h3.766a4.457,4.457,0,0,1,2.957.875,3.148,3.148,0,0,1,1.035,2.547A3.062,3.062,0,0,1,17.34,8.9a3.428,3.428,0,0,1-1.6,1.18l2.672,4.828V15H16.8ZM11.664,9.172h2.3a2.6,2.6,0,0,0,1.777-.579,1.959,1.959,0,0,0,.66-1.55,2.062,2.062,0,0,0-.629-1.62,2.663,2.663,0,0,0-1.816-.571h-2.3Zm14.781.57h-4.93v4.031h5.727V15H20.016V3.625h7.148V4.852H21.516V8.516h4.93Zm11.031,1.648a4.185,4.185,0,0,1-1.332,2.785,4.365,4.365,0,0,1-2.98.98,4.008,4.008,0,0,1-3.23-1.445,5.815,5.815,0,0,1-1.215-3.867V8.75a6.481,6.481,0,0,1,.566-2.789,4.231,4.231,0,0,1,1.605-1.848A4.47,4.47,0,0,1,33.3,3.469,4.11,4.11,0,0,1,36.2,4.48a4.235,4.235,0,0,1,1.273,2.8H35.969a3.268,3.268,0,0,0-.848-1.975A2.565,2.565,0,0,0,33.3,4.7a2.684,2.684,0,0,0-2.254,1.063,4.882,4.882,0,0,0-.816,3.026v1.1A5.018,5.018,0,0,0,31,12.835a2.5,2.5,0,0,0,2.164,1.095,2.887,2.887,0,0,0,1.918-.566,3.143,3.143,0,0,0,.887-1.973ZM47.531,3.625v7.734a3.628,3.628,0,0,1-1.012,2.633A4.077,4.077,0,0,1,43.8,15.141l-.4.016a4.258,4.258,0,0,1-2.977-1.008A3.6,3.6,0,0,1,39.3,11.375V3.625h1.484v7.7a2.6,2.6,0,0,0,.68,1.918,3.111,3.111,0,0,0,3.887,0,2.6,2.6,0,0,0,.676-1.914V3.625Zm8.8,6.117H51.4v4.031h5.727V15H49.9V3.625h7.148V4.852H51.4V8.516h4.93ZM67.734,15H66.227L60.5,6.234V15H58.992V3.625H60.5l5.742,8.8v-8.8h1.492Zm11.031-3.609a4.185,4.185,0,0,1-1.332,2.785,4.365,4.365,0,0,1-2.98.98,4.008,4.008,0,0,1-3.23-1.445,5.815,5.815,0,0,1-1.215-3.867V8.75a6.481,6.481,0,0,1,.566-2.789A4.231,4.231,0,0,1,72.18,4.113a4.47,4.47,0,0,1,2.406-.645A4.11,4.11,0,0,1,77.492,4.48a4.235,4.235,0,0,1,1.273,2.8H77.258a3.268,3.268,0,0,0-.848-1.975A2.565,2.565,0,0,0,74.586,4.7a2.684,2.684,0,0,0-2.254,1.063,4.882,4.882,0,0,0-.816,3.026v1.1a5.018,5.018,0,0,0,.773,2.948,2.5,2.5,0,0,0,2.164,1.095,2.886,2.886,0,0,0,1.918-.566,3.143,3.143,0,0,0,.887-1.973ZM82.422,15h-1.5V3.625h1.5Zm9.164-2.977H86.82L85.75,15H84.2L88.547,3.625h1.313L94.211,15H92.672ZM87.273,10.8h3.867L89.2,5.477Z" transform="translate(954.051 8700.801)" fill="#12263f"/>
    <path id="Trazado_883540" data-name="Trazado 883540" d="M5.086-1.992l3.25-9.383H9.977L5.758,0H4.43L.219-11.375H1.852ZM20.148-5.32A7.037,7.037,0,0,1,19.586-2.4,4.261,4.261,0,0,1,17.992-.5a4.385,4.385,0,0,1-2.406.656A4.347,4.347,0,0,1,13.2-.5,4.363,4.363,0,0,1,11.59-2.387,6.752,6.752,0,0,1,11-5.219v-.82a6.953,6.953,0,0,1,.57-2.9,4.347,4.347,0,0,1,1.613-1.926,4.329,4.329,0,0,1,2.387-.668,4.41,4.41,0,0,1,2.41.66,4.253,4.253,0,0,1,1.605,1.914,7.071,7.071,0,0,1,.563,2.918Zm-1.492-.734a5.1,5.1,0,0,0-.812-3.105,2.68,2.68,0,0,0-2.273-1.082A2.651,2.651,0,0,0,13.332-9.16a5,5,0,0,0-.84,3v.836a5.107,5.107,0,0,0,.824,3.082,2.662,2.662,0,0,0,2.27,1.121,2.652,2.652,0,0,0,2.25-1.059,5.079,5.079,0,0,0,.82-3.035Zm5.25,4.828H29.3V0H22.4V-11.375h1.508Zm12.813-8.922H33.063V0H31.57V-10.148H27.922v-1.227h8.8ZM44.07-2.977H39.3L38.234,0H36.688l4.344-11.375h1.313L46.7,0H45.156ZM39.758-4.2h3.867l-1.937-5.32Zm13.234-7.172H54.5V-3.32a3.336,3.336,0,0,1-.98,2.555,3.66,3.66,0,0,1-2.613.922,3.762,3.762,0,0,1-2.641-.867,3.132,3.132,0,0,1-.945-2.43h1.5a2.086,2.086,0,0,0,.535,1.523,2.073,2.073,0,0,0,1.551.547,2.012,2.012,0,0,0,1.5-.586A2.27,2.27,0,0,0,52.992-3.3ZM63.484-5.258h-4.93v4.031h5.727V0H57.055V-11.375H64.2v1.227H58.555v3.664h4.93Z" transform="translate(615.051 8717.801)" fill="#12263f"/>
    <path id="Trazado_883539" data-name="Trazado 883539" d="M2.82,10.547V15H1.32V3.625h4.2a4.215,4.215,0,0,1,2.926.953A3.231,3.231,0,0,1,9.5,7.1,3.189,3.189,0,0,1,8.465,9.652a4.4,4.4,0,0,1-2.965.895Zm0-1.227h2.7a2.7,2.7,0,0,0,1.844-.567A2.075,2.075,0,0,0,8,7.113a2.143,2.143,0,0,0-.641-1.628A2.525,2.525,0,0,0,5.6,4.852H2.82Zm17.344.359A7.037,7.037,0,0,1,19.6,12.6a4.261,4.261,0,0,1-1.594,1.9,4.385,4.385,0,0,1-2.406.656,4.244,4.244,0,0,1-4-2.543,6.752,6.752,0,0,1-.59-2.832v-.82a6.953,6.953,0,0,1,.57-2.9,4.218,4.218,0,0,1,4-2.594,4.41,4.41,0,0,1,2.41.66A4.253,4.253,0,0,1,19.6,6.043a7.071,7.071,0,0,1,.563,2.918Zm-1.492-.734a5.1,5.1,0,0,0-.812-3.105,2.68,2.68,0,0,0-2.273-1.082A2.651,2.651,0,0,0,13.348,5.84a5,5,0,0,0-.84,3V9.68a5.107,5.107,0,0,0,.824,3.082,2.662,2.662,0,0,0,2.27,1.121,2.652,2.652,0,0,0,2.25-1.059,5.079,5.079,0,0,0,.82-3.035ZM30.063,4.852H26.406V15H24.914V4.852H21.266V3.625h8.8ZM38.18,9.742H33.25v4.031h5.727V15H31.75V3.625H38.9V4.852H33.25V8.516h4.93ZM49.586,15H48.078L42.352,6.234V15H40.844V3.625h1.508l5.742,8.8v-8.8h1.492Zm11.031-3.609a4.185,4.185,0,0,1-1.332,2.785,4.365,4.365,0,0,1-2.98.98,4.008,4.008,0,0,1-3.23-1.445,5.815,5.815,0,0,1-1.215-3.867V8.75a6.481,6.481,0,0,1,.566-2.789,4.231,4.231,0,0,1,1.605-1.848,4.47,4.47,0,0,1,2.406-.645A4.11,4.11,0,0,1,59.344,4.48a4.235,4.235,0,0,1,1.273,2.8H59.109a3.268,3.268,0,0,0-.848-1.975A2.565,2.565,0,0,0,56.438,4.7a2.684,2.684,0,0,0-2.254,1.063,4.882,4.882,0,0,0-.816,3.026v1.1a5.018,5.018,0,0,0,.773,2.948A2.5,2.5,0,0,0,56.3,13.93a2.887,2.887,0,0,0,1.918-.566,3.143,3.143,0,0,0,.887-1.973ZM64.273,15h-1.5V3.625h1.5Zm9.164-2.977H68.672L67.6,15H66.055L70.4,3.625h1.313L76.063,15H74.523ZM69.125,10.8h3.867l-1.937-5.32Z" transform="translate(405.051 8696.857)" fill="#12263f"/>
    <path id="Trazado_883543" data-name="Trazado 883543" d="M7.6-2.977H2.836L1.766,0H.219L4.563-11.375H5.875L10.227,0H8.688ZM3.289-4.2H7.156L5.219-9.523ZM13.7-11.375l3.719,9.281,3.719-9.281h1.945V0h-1.5V-4.43l.141-4.781L17.984,0H16.836L13.109-9.187l.148,4.758V0h-1.5V-11.375ZM27.227-4.453V0h-1.5V-11.375h4.2a4.215,4.215,0,0,1,2.926.953A3.231,3.231,0,0,1,33.906-7.9a3.189,3.189,0,0,1-1.035,2.551,4.4,4.4,0,0,1-2.965.895Zm0-1.227h2.7a2.7,2.7,0,0,0,1.844-.567,2.075,2.075,0,0,0,.641-1.64,2.143,2.143,0,0,0-.641-1.628,2.525,2.525,0,0,0-1.758-.634H27.227Zm15.023.422H37.32v4.031h5.727V0H35.82V-11.375h7.148v1.227H37.32v3.664h4.93Zm6.836.656H46.414V0H44.906V-11.375h3.766a4.457,4.457,0,0,1,2.957.875,3.148,3.148,0,0,1,1.035,2.547A3.062,3.062,0,0,1,52.09-6.1a3.428,3.428,0,0,1-1.6,1.18L53.164-.094V0H51.555ZM46.414-5.828h2.3A2.6,2.6,0,0,0,50.5-6.407a1.959,1.959,0,0,0,.66-1.55,2.062,2.062,0,0,0-.629-1.62,2.663,2.663,0,0,0-1.816-.571h-2.3ZM61.047-2.977H56.281L55.211,0H53.664l4.344-11.375H59.32L63.672,0H62.133ZM56.734-4.2H60.6l-1.937-5.32Zm13.234-7.172h1.508V-3.32A3.336,3.336,0,0,1,70.5-.766a3.66,3.66,0,0,1-2.613.922,3.762,3.762,0,0,1-2.641-.867,3.132,3.132,0,0,1-.945-2.43h1.5a2.086,2.086,0,0,0,.535,1.523,2.073,2.073,0,0,0,1.551.547,2.012,2.012,0,0,0,1.5-.586A2.27,2.27,0,0,0,69.969-3.3ZM80.461-5.258h-4.93v4.031h5.727V0H74.031V-11.375H81.18v1.227H75.531v3.664h4.93Z" transform="translate(779.051 8717.801)" fill="#12263f"/>
    <path id="Trazado_883547" data-name="Trazado 883547" d="M2.82,10.547V15H1.32V3.625h4.2a4.215,4.215,0,0,1,2.926.953A3.231,3.231,0,0,1,9.5,7.1,3.189,3.189,0,0,1,8.465,9.652a4.4,4.4,0,0,1-2.965.895Zm0-1.227h2.7a2.7,2.7,0,0,0,1.844-.567A2.075,2.075,0,0,0,8,7.113a2.143,2.143,0,0,0-.641-1.628A2.525,2.525,0,0,0,5.6,4.852H2.82ZM20.156,15H18.648V9.742H12.914V15h-1.5V3.625h1.5V8.516h5.734V3.625h1.508Zm2.727.977H21.641l4.75-12.352h1.234Zm14.9-4.586a4.185,4.185,0,0,1-1.332,2.785,4.365,4.365,0,0,1-2.98.98,4.008,4.008,0,0,1-3.23-1.445,5.815,5.815,0,0,1-1.215-3.867V8.75a6.481,6.481,0,0,1,.566-2.789A4.231,4.231,0,0,1,31.2,4.113,4.47,4.47,0,0,1,33.6,3.469,4.11,4.11,0,0,1,36.508,4.48a4.235,4.235,0,0,1,1.273,2.8H36.273a3.268,3.268,0,0,0-.848-1.975A2.565,2.565,0,0,0,33.6,4.7a2.684,2.684,0,0,0-2.254,1.063,4.882,4.882,0,0,0-.816,3.026v1.1a5.018,5.018,0,0,0,.773,2.948,2.5,2.5,0,0,0,2.164,1.095,2.887,2.887,0,0,0,1.918-.566,3.143,3.143,0,0,0,.887-1.973Zm10.8-1.711a7.037,7.037,0,0,1-.562,2.918,4.261,4.261,0,0,1-1.594,1.9,4.4,4.4,0,0,1-6.4-1.887,6.752,6.752,0,0,1-.59-2.832v-.82a6.953,6.953,0,0,1,.57-2.9,4.218,4.218,0,0,1,4-2.594,4.41,4.41,0,0,1,2.41.66,4.253,4.253,0,0,1,1.605,1.914,7.071,7.071,0,0,1,.563,2.918Zm-1.492-.734a5.1,5.1,0,0,0-.812-3.105A2.68,2.68,0,0,0,44,4.758,2.651,2.651,0,0,0,41.762,5.84a5,5,0,0,0-.84,3V9.68a5.107,5.107,0,0,0,.824,3.082,2.888,2.888,0,0,0,4.52.063,5.079,5.079,0,0,0,.82-3.035ZM56.2,12.07a1.626,1.626,0,0,0-.5-1.211,4.508,4.508,0,0,0-1.7-.891,5.447,5.447,0,0,1-2.426-1.324A2.921,2.921,0,0,1,50.8,6.57a3,3,0,0,1,.746-2.1A3.17,3.17,0,0,1,53.6,3.492V1.781h1.164V3.5a3.011,3.011,0,0,1,2.043,1.1,3.959,3.959,0,0,1,.73,2.523H56.1a2.721,2.721,0,0,0-.523-1.756,1.72,1.72,0,0,0-1.414-.651,1.951,1.951,0,0,0-1.422.481,1.791,1.791,0,0,0-.492,1.342,1.636,1.636,0,0,0,.52,1.272,4.786,4.786,0,0,0,1.711.861,7.2,7.2,0,0,1,1.859.852,2.991,2.991,0,0,1,.984,1.082,3.128,3.128,0,0,1,.316,1.445,2.9,2.9,0,0,1-.793,2.125,3.516,3.516,0,0,1-2.223.953v1.492H53.469V15.133A3.369,3.369,0,0,1,51.191,14.1a3.493,3.493,0,0,1-.824-2.449h1.445a2.3,2.3,0,0,0,.57,1.672A2.153,2.153,0,0,0,54,13.906a2.426,2.426,0,0,0,1.609-.492A1.662,1.662,0,0,0,56.2,12.07Z" transform="translate(1175.051 8694.857)" fill="#12263f"/>
  </g>
</svg>
