<svg id="Gear_01" xmlns="http://www.w3.org/2000/svg" width="82.144" height="82.051" viewBox="0 0 82.144 82.051">
  <g id="Grupo_1111204" data-name="Grupo 1111204" transform="translate(18.252 24.484)">
    <path id="Trazado_883501" data-name="Trazado 883501" d="M957.4,1137.987l-.23-.187c2.023-2.487,2.847-4.561,2.518-6.341-.447-2.423-3-3.892-5.243-5.188a12.751,12.751,0,0,1-3.127-2.194,2.321,2.321,0,0,1-.622-1.883,4.653,4.653,0,0,1,1.962-2.677l.163.248a4.442,4.442,0,0,0-1.831,2.471,2.037,2.037,0,0,0,.553,1.647,12.6,12.6,0,0,0,3.051,2.131c2.3,1.328,4.915,2.834,5.387,5.391C960.322,1133.276,959.479,1135.428,957.4,1137.987Z" transform="translate(-935.701 -1107.134)" fill="#12263f"/>
    <path id="Trazado_883502" data-name="Trazado 883502" d="M843.438,1038.562a13.235,13.235,0,0,1-1.108-4.186,7.165,7.165,0,0,1,8.828-7.932,7.873,7.873,0,0,1,4.419,2.992l-1.035.58a6.765,6.765,0,0,0-3.681-2.424,5.981,5.981,0,0,0-7.349,6.681,12.151,12.151,0,0,0,.994,3.772Z" transform="translate(-839.429 -1024.26)" fill="#12263f"/>
    <rect id="Rectángulo_404993" data-name="Rectángulo 404993" width="3.303" height="0.907" transform="matrix(0.866, -0.5, 0.5, 0.866, 13.97, 5.896)" fill="#12263f"/>
    <g id="Grupo_1111199" data-name="Grupo 1111199" transform="translate(31.737 2.178)">
      <g id="Grupo_1111186" data-name="Grupo 1111186" transform="translate(3.818)">
        <rect id="Rectángulo_404994" data-name="Rectángulo 404994" width="1.953" height="9.047" transform="translate(1.108)" fill="#12263f"/>
        <path id="Trazado_883503" data-name="Trazado 883503" d="M1140.685,1084.448H1138.4a1.8,1.8,0,0,0-.665,1.4l0,1.655,3.617,0,0-1.656A1.805,1.805,0,0,0,1140.685,1084.448Z" transform="translate(-1137.417 -1078.162)" fill="#12263f"/>
        <g id="Grupo_1111185" data-name="Grupo 1111185" transform="translate(0 9.338)">
          <rect id="Rectángulo_404995" data-name="Rectángulo 404995" width="4.275" height="0.519" fill="#12263f"/>
        </g>
      </g>
      <g id="Grupo_1111198" data-name="Grupo 1111198" transform="translate(0 9.891)">
        <g id="Grupo_1111197" data-name="Grupo 1111197">
          <path id="Trazado_883504" data-name="Trazado 883504" d="M1104.65,1152.01l-.732.107-2.078-5.375,2-.292Z" transform="translate(-1101.717 -1143.129)" fill="#12263f"/>
          <path id="Trazado_883505" data-name="Trazado 883505" d="M1193.443,1150.6l.74-.028,1.065-5.665-2.018.077Z" transform="translate(-1182.897 -1141.761)" fill="#12263f"/>
          <path id="Trazado_883506" data-name="Trazado 883506" d="M1132.732,1118.649l-4.3,0a.956.956,0,0,1-.953-.954h0a.956.956,0,0,1,.954-.953l4.3,0a.956.956,0,0,1,.953.954h0A.957.957,0,0,1,1132.732,1118.649Z" transform="translate(-1124.489 -1116.738)" fill="#12263f"/>
          <g id="Grupo_1111191" data-name="Grupo 1111191" transform="translate(0 0.044)">
            <path id="Trazado_883507" data-name="Trazado 883507" d="M1105.177,1117.387a.817.817,0,0,0-1.138-.069l-2.814,2.428a1.359,1.359,0,0,0,.021,2.094h0a1.359,1.359,0,0,0,2-.323l2.014-3.138a.818.818,0,0,0-.083-.992Z" transform="translate(-1100.743 -1117.12)" fill="#12263f"/>
            <g id="Grupo_1111188" data-name="Grupo 1111188" transform="translate(0.886 3.108)">
              <g id="Grupo_1111187" data-name="Grupo 1111187">
                <path id="Trazado_883508" data-name="Trazado 883508" d="M1108.785,1145.129a.523.523,0,1,0,.58-.166A.523.523,0,0,0,1108.785,1145.129Z" transform="translate(-1108.67 -1144.934)" fill="#12263f"/>
              </g>
            </g>
            <g id="Grupo_1111190" data-name="Grupo 1111190" transform="translate(3.377 0.484)">
              <g id="Grupo_1111189" data-name="Grupo 1111189">
                <path id="Trazado_883509" data-name="Trazado 883509" d="M1131.057,1121.6a.4.4,0,1,0,.446-.127A.4.4,0,0,0,1131.057,1121.6Z" transform="translate(-1130.968 -1121.455)" fill="#12263f"/>
              </g>
            </g>
          </g>
          <g id="Grupo_1111196" data-name="Grupo 1111196" transform="translate(7.477)">
            <path id="Trazado_883510" data-name="Trazado 883510" d="M1167.811,1117.074a.817.817,0,0,1,1.119-.218l3.11,2.035a1.359,1.359,0,0,1,.255,2.078h0a1.359,1.359,0,0,1-2.026-.056l-2.411-2.845a.817.817,0,0,1-.048-.994Z" transform="translate(-1167.665 -1116.723)" fill="#12263f"/>
            <g id="Grupo_1111193" data-name="Grupo 1111193" transform="translate(0.466 0.48)">
              <g id="Grupo_1111192" data-name="Grupo 1111192">
                <path id="Trazado_883511" data-name="Trazado 883511" d="M1171.84,1121.343a.4.4,0,1,0,.336-.319A.4.4,0,0,0,1171.84,1121.343Z" transform="translate(-1171.832 -1121.02)" fill="#12263f"/>
              </g>
            </g>
            <g id="Grupo_1111195" data-name="Grupo 1111195" transform="translate(3.06 2.766)">
              <g id="Grupo_1111194" data-name="Grupo 1111194">
                <path id="Trazado_883512" data-name="Trazado 883512" d="M1195.062,1141.9a.523.523,0,1,0,.438-.415A.523.523,0,0,0,1195.062,1141.9Z" transform="translate(-1195.052 -1141.479)" fill="#12263f"/>
              </g>
            </g>
          </g>
        </g>
      </g>
    </g>
    <g id="Grupo_1111200" data-name="Grupo 1111200" transform="translate(24.499 0.326)">
      <rect id="Rectángulo_404996" data-name="Rectángulo 404996" width="7.195" height="2.315" transform="translate(6.319 1.376)" fill="#12263f"/>
      <path id="Trazado_883513" data-name="Trazado 883513" d="M1043.148,1016.68h-4.661a2.534,2.534,0,0,1-2.534-2.534h0a2.534,2.534,0,0,1,2.534-2.534h4.661Z" transform="translate(-1035.953 -1011.612)" fill="#12263f"/>
      <path id="Trazado_883514" data-name="Trazado 883514" d="M1128.276,1016.68h-3.285v-5.068h3.285a2.534,2.534,0,0,1,2.534,2.534h0A2.534,2.534,0,0,1,1128.276,1016.68Z" transform="translate(-1115.043 -1011.612)" fill="#12263f"/>
      <path id="Trazado_883515" data-name="Trazado 883515" d="M1145.019,1024.7a1.335,1.335,0,1,1,.715-1.748A1.337,1.337,0,0,1,1145.019,1024.7Zm-.816-1.944a.773.773,0,1,0,1.012.414A.774.774,0,0,0,1144.2,1022.758Z" transform="translate(-1131.189 -1020.96)" fill="#12263f"/>
    </g>
    <g id="Grupo_1111202" data-name="Grupo 1111202" transform="translate(4.647)">
      <rect id="Rectángulo_404997" data-name="Rectángulo 404997" width="7.402" height="1.545" transform="matrix(0.543, 0.84, -0.84, 0.543, 9.057, 7.282)" fill="#12263f"/>
      <path id="Trazado_883516" data-name="Trazado 883516" d="M858.593,1088.322h0a2.018,2.018,0,0,1,.605-2.788l10.382-6.684,2.183,3.394-10.382,6.684A2.019,2.019,0,0,1,858.593,1088.322Z" transform="translate(-858.272 -1071.012)" fill="#12263f"/>
      <g id="Grupo_1111201" data-name="Grupo 1111201" transform="translate(7.988)">
        <path id="Trazado_883517" data-name="Trazado 883517" d="M934.374,1023.145l11.231-8.317a3.4,3.4,0,0,0,.828-4.582h0a3.4,3.4,0,0,0-4.523-1.108l-12.143,6.876Z" transform="translate(-929.767 -1008.697)" fill="#12263f"/>
        <path id="Trazado_883518" data-name="Trazado 883518" d="M1037.166,1023.689a2.181,2.181,0,1,1,.641-3.016A2.183,2.183,0,0,1,1037.166,1023.689Zm-1.875-2.888a1.263,1.263,0,1,0,1.747.371A1.264,1.264,0,0,0,1035.292,1020.8Z" transform="translate(-1022.176 -1018.453)" fill="#12263f"/>
      </g>
    </g>
    <g id="Grupo_1111203" data-name="Grupo 1111203" transform="translate(0 10.858)">
      <path id="Trazado_883519" data-name="Trazado 883519" d="M835.476,1131.857h0a6.549,6.549,0,0,1-9.032-2.049l-8.753-13.89a6.549,6.549,0,0,1,2.049-9.032h0a6.549,6.549,0,0,1,9.032,2.049l8.753,13.89A6.55,6.55,0,0,1,835.476,1131.857Z" transform="translate(-816.681 -1105.877)" fill="#12263f"/>
      <path id="Trazado_883520" data-name="Trazado 883520" d="M844.215,1131.253a3.448,3.448,0,1,0,4.756,1.079A3.448,3.448,0,0,0,844.215,1131.253Zm2.938,4.661a2.062,2.062,0,1,1,.645-2.844A2.062,2.062,0,0,1,847.153,1135.914Z" transform="translate(-839.709 -1127.945)" fill="#12263f"/>
      <path id="Trazado_883521" data-name="Trazado 883521" d="M924.287,1260.1a3.448,3.448,0,1,0,4.756,1.079A3.448,3.448,0,0,0,924.287,1260.1Zm2.938,4.662a2.062,2.062,0,1,1,.645-2.844A2.062,2.062,0,0,1,927.225,1264.767Z" transform="translate(-910.835 -1242.402)" fill="#12263f"/>
    </g>
  </g>
  <g id="Grupo_1111206" data-name="Grupo 1111206">
    <path id="Trazado_883522" data-name="Trazado 883522" d="M732.434,905.088a36.312,36.312,0,1,1,25.677-10.636A36.074,36.074,0,0,1,732.434,905.088Zm0-72.286a35.973,35.973,0,1,0,35.973,35.973A36.014,36.014,0,0,0,732.434,832.8Z" transform="translate(-691.34 -827.669)" fill="#fbfbf9"/>
    <g id="Grupo_1111205" data-name="Grupo 1111205">
      <path id="Trazado_883523" data-name="Trazado 883523" d="M733.341,830.553a39.122,39.122,0,0,0-.363-5.3l2.1-.29a41.261,41.261,0,0,0-1.146-5.488l-2.034.573a38.533,38.533,0,0,0-1.784-5.008l1.93-.844a40.888,40.888,0,0,0-2.59-4.967l-1.792,1.1a38.711,38.711,0,0,0-3.072-4.338l1.624-1.327a41.486,41.486,0,0,0-3.831-4.088l-1.426,1.531a39.081,39.081,0,0,0-4.128-3.355l1.2-1.707a41.006,41.006,0,0,0-4.792-2.91l-.958,1.851a38.449,38.449,0,0,0-4.883-2.117l.694-1.963a40.849,40.849,0,0,0-5.407-1.5l-.418,2.038a38.72,38.72,0,0,0-5.273-.71l.137-2.076a41.838,41.838,0,0,0-5.6.008l.143,2.076a38.519,38.519,0,0,0-5.271.727l-.424-2.038a40.841,40.841,0,0,0-5.4,1.518l.7,1.961a38.46,38.46,0,0,0-4.875,2.131l-.962-1.85a41.206,41.206,0,0,0-4.78,2.922l1.207,1.7a38.9,38.9,0,0,0-4.116,3.366l-1.43-1.528a41.264,41.264,0,0,0-3.821,4.1l1.627,1.322a38.808,38.808,0,0,0-3.062,4.349l-1.8-1.092a41.049,41.049,0,0,0-2.579,4.98l1.933.839a38.283,38.283,0,0,0-1.77,5.017l-2.037-.567a41.126,41.126,0,0,0-1.129,5.491l2.1.284a39.108,39.108,0,0,0-.347,5.217c0,.028,0,.057,0,.084l-2.127,0a41.653,41.653,0,0,0,.382,5.588l2.113-.289a38.574,38.574,0,0,0,1.086,5.2l-2.058.578a40.863,40.863,0,0,0,1.882,5.281l1.964-.857a38.877,38.877,0,0,0,2.456,4.708L659.313,852a41.415,41.415,0,0,0,3.237,4.572l1.671-1.363a39.285,39.285,0,0,0,3.629,3.875l-1.472,1.578a41.414,41.414,0,0,0,4.347,3.537l1.248-1.767a38.73,38.73,0,0,0,4.538,2.758l-1,1.924a41.07,41.07,0,0,0,5.146,2.235l.725-2.045a38.324,38.324,0,0,0,5.118,1.426l-.438,2.126a41.2,41.2,0,0,0,5.553.754l.144-2.167q1.306.088,2.634.089,1.348,0,2.673-.091l.147,2.166a41.011,41.011,0,0,0,5.553-.76l-.44-2.125a38.565,38.565,0,0,0,5.111-1.43l.727,2.044a41.109,41.109,0,0,0,5.14-2.238l-1-1.923a38.672,38.672,0,0,0,4.532-2.759l1.25,1.766a41.376,41.376,0,0,0,4.343-3.538l-1.475-1.578a39.062,39.062,0,0,0,3.629-3.878l1.671,1.361a41.337,41.337,0,0,0,3.236-4.576l-1.836-1.118a38.792,38.792,0,0,0,2.454-4.714l1.965.855a40.86,40.86,0,0,0,1.879-5.287l-2.059-.576a38.573,38.573,0,0,0,1.082-5.2l2.112.287a41.634,41.634,0,0,0,.377-5.588v-.076h-2.125Zm-3.286,10.064a36.976,36.976,0,0,1-33.118,26.917q-1.261.087-2.543.087-1.264,0-2.507-.083a37.019,37.019,0,0,1-5-.678,36.854,36.854,0,0,1-9.5-3.365,36.978,36.978,0,0,1-19.68-27.786,37.4,37.4,0,0,1-.35-5.042c0-.028,0-.055,0-.083a37.284,37.284,0,0,1,.33-4.962,37.033,37.033,0,0,1,11.374-22.057,37.076,37.076,0,0,1,8.229-5.841,36.815,36.815,0,0,1,14.517-4.088q1.282-.09,2.586-.09,1.248,0,2.476.081a36.849,36.849,0,0,1,9.892,2.034,37.086,37.086,0,0,1,12.893,7.836,37.1,37.1,0,0,1,8.708,12.3,36.724,36.724,0,0,1,2.723,9.71,37.174,37.174,0,0,1,.345,5.041v.03a37.359,37.359,0,0,1-.347,5.089A36.785,36.785,0,0,1,730.055,840.618Z" transform="translate(-653.322 -789.558)" fill="#fbfbf9"/>
    </g>
    <path id="Trazado_883524" data-name="Trazado 883524" d="M751.461,921.719a34.064,34.064,0,0,1-8.163-.989l.521-2.107a31.886,31.886,0,0,0,7.643.926c.981,0,1.972-.045,2.945-.135l.2,2.161C753.566,921.671,752.508,921.719,751.461,921.719Zm4.276-.267-.271-2.153a31.483,31.483,0,0,0,10.157-3.075l.969,1.942A33.624,33.624,0,0,1,755.737,921.452ZM742.2,920.439a33.705,33.705,0,0,1-10.238-4.883l1.249-1.775a31.543,31.543,0,0,0,9.581,4.57Zm25.4-2.8-1.034-1.908a31.79,31.79,0,0,0,8.358-6.544l1.6,1.463A33.974,33.974,0,0,1,767.6,917.641Zm-36.563-2.759a34.01,34.01,0,0,1-7.786-8.244l1.8-1.207a31.839,31.839,0,0,0,7.29,7.719Zm46.245-5.086-1.652-1.408a31.655,31.655,0,0,0,5.443-9.115l2.024.784A33.8,33.8,0,0,1,777.281,909.8Zm-54.647-4.113a33.659,33.659,0,0,1-4.286-10.5l2.119-.47a31.494,31.494,0,0,0,4.011,9.826Zm60.858-6.7-2.049-.716a31.681,31.681,0,0,0,1.766-10.469v-.071h2.17v.066A33.874,33.874,0,0,1,783.492,898.986Zm-65.372-4.92a34.294,34.294,0,0,1-.2-11.336l2.146.322a32.123,32.123,0,0,0,.188,10.616Zm65.07-7.4a31.589,31.589,0,0,0-2.139-10.4l2.022-.789a33.76,33.76,0,0,1,2.286,11.108ZM720.241,882l-2.134-.394a33.644,33.644,0,0,1,3.907-10.65l1.883,1.079A31.468,31.468,0,0,0,720.241,882Zm60.406-6.714a31.7,31.7,0,0,0-5.76-8.914l1.6-1.465a33.863,33.863,0,0,1,6.154,9.523Zm-56.2-4.169-1.846-1.142a33.993,33.993,0,0,1,7.49-8.514l1.369,1.685A31.833,31.833,0,0,0,724.444,871.118Zm49.71-5.52a31.763,31.763,0,0,0-8.585-6.247l.966-1.944a33.925,33.925,0,0,1,9.171,6.672Zm-41.859-3.11-1.311-1.729a33.75,33.75,0,0,1,10.056-5.245l.666,2.066A31.587,31.587,0,0,0,732.295,862.488Zm32.31-3.6a31.505,31.505,0,0,0-10.263-2.711l.194-2.162a33.668,33.668,0,0,1,10.968,2.9Zm-21.879-1.623-.6-2.087a33.973,33.973,0,0,1,9.331-1.3c.645,0,1.3.018,1.939.055l-.122,2.167c-.6-.034-1.213-.051-1.817-.051A31.811,31.811,0,0,0,742.726,857.269Z" transform="translate(-710.367 -846.695)" fill="#fbfbf9"/>
  </g>
</svg>
