<svg id="Gear_06" xmlns="http://www.w3.org/2000/svg" width="75.706" height="75.621" viewBox="0 0 75.706 75.621">
  <g id="Grupo_1111117" data-name="Grupo 1111117" transform="translate(28.14 12.254)">
    <g id="Grupo_1111105" data-name="Grupo 1111105" transform="translate(0 32.097)">
      <g id="Grupo_1111104" data-name="Grupo 1111104" transform="translate(0 0)">
        <rect id="Rectángulo_404828" data-name="Rectángulo 404828" width="7.698" height="2.568" transform="translate(6.474 7.697) rotate(-89.232)" fill="#12263f"/>
        <g id="Grupo_1111103" data-name="Grupo 1111103" transform="translate(0 5.731)">
          <g id="Grupo_1111101" data-name="Grupo 1111101" transform="translate(4.337)">
            <path id="Trazado_883422" data-name="Trazado 883422" d="M1752.825,1210.43l3.288.079,1.658,1.2-6.661-.161Z" transform="translate(-1751.11 -1210.43)" fill="#12263f"/>
          </g>
          <g id="Grupo_1111102" data-name="Grupo 1111102" transform="translate(0 1.016)">
            <path id="Trazado_883423" data-name="Trazado 883423" d="M1731.874,1248.89a.445.445,0,0,1-.276-.8l1.278-1.006-3.245-8.172-5.338-.152-4.134,8.079.973.746a.445.445,0,1,1-.542.707l-1.268-.972a.445.445,0,0,1-.126-.556l4.431-8.66a.445.445,0,0,1,.409-.242l5.912.168a.445.445,0,0,1,.4.281l3.476,8.753a.446.446,0,0,1-.138.514l-1.539,1.212A.441.441,0,0,1,1731.874,1248.89Z" transform="translate(-1719.148 -1235.159)" fill="#12263f"/>
            <rect id="Rectángulo_404829" data-name="Rectángulo 404829" width="3.984" height="7.755" transform="translate(3.923 3.982) rotate(-88.367)" fill="#12263f"/>
          </g>
        </g>
      </g>
      <path id="Trazado_883424" data-name="Trazado 883424" d="M1767.771,1246.111a.446.446,0,0,1-.423-.586l.572-1.715.294-8.7a.445.445,0,0,1,.89.03l-.3,8.762a.445.445,0,0,1-.023.126l-.592,1.776A.444.444,0,0,1,1767.771,1246.111Z" transform="translate(-1760.788 -1225.66)" fill="#12263f"/>
    </g>
    <path id="Trazado_883425" data-name="Trazado 883425" d="M1753.23,1039.553a6.952,6.952,0,0,1-3.507-6.481c.247-2.307,1.869-4.055,4.569-4.922a4.456,4.456,0,0,0,3.319-4.764c-.148-2.241-1.594-4.3-3.225-4.6l.079-.438c1.85.334,3.427,2.534,3.59,5.008a4.889,4.889,0,0,1-3.628,5.218c-2.521.81-4.035,2.424-4.262,4.545a6.5,6.5,0,0,0,3.287,6.047Z" transform="translate(-1745.547 -1006.583)" fill="#12263f"/>
    <rect id="Rectángulo_404830" data-name="Rectángulo 404830" width="11.462" height="2.568" transform="matrix(0.67, -0.743, 0.743, 0.67, 11.165, 27.077)" fill="#12263f"/>
    <g id="Grupo_1111110" data-name="Grupo 1111110" transform="translate(5.136 22.987)">
      <path id="Trazado_883426" data-name="Trazado 883426" d="M1768.13,1105.521l-6.445,7.2a2.683,2.683,0,0,1-3.789.21h0a2.683,2.683,0,0,1-.211-3.789l6.446-7.2a2.683,2.683,0,0,1,3.789-.211h0A2.685,2.685,0,0,1,1768.13,1105.521Z" transform="translate(-1757.002 -1101.048)" fill="#12263f"/>
      <g id="Grupo_1111107" data-name="Grupo 1111107" transform="translate(1.535 8.751)">
        <g id="Grupo_1111106" data-name="Grupo 1111106">
          <path id="Trazado_883427" data-name="Trazado 883427" d="M1768.373,1166.285a1.1,1.1,0,1,0,1.4-.682A1.1,1.1,0,0,0,1768.373,1166.285Z" transform="translate(-1768.313 -1165.542)" fill="#12263f"/>
        </g>
      </g>
      <g id="Grupo_1111109" data-name="Grupo 1111109" transform="translate(8.202 1.481)">
        <g id="Grupo_1111108" data-name="Grupo 1111108">
          <path id="Trazado_883428" data-name="Trazado 883428" d="M1817.513,1112.705a1.1,1.1,0,1,0,1.4-.682A1.1,1.1,0,0,0,1817.513,1112.705Z" transform="translate(-1817.453 -1111.962)" fill="#12263f"/>
        </g>
      </g>
    </g>
    <g id="Grupo_1111116" data-name="Grupo 1111116" transform="translate(0.255)">
      <g id="Grupo_1111114" data-name="Grupo 1111114">
        <path id="Trazado_883429" data-name="Trazado 883429" d="M1737.811,953.624l-15.182-13.367a4.971,4.971,0,0,1-.286-7.025h0a4.971,4.971,0,0,1,7.025-.286l15.182,13.367a4.971,4.971,0,0,1,.286,7.025h0A4.971,4.971,0,0,1,1737.811,953.624Z" transform="translate(-1721.027 -931.63)" fill="#12263f"/>
        <g id="Grupo_1111113" data-name="Grupo 1111113" transform="translate(2.491 2.348)">
          <g id="Grupo_1111111" data-name="Grupo 1111111">
            <path id="Trazado_883430" data-name="Trazado 883430" d="M1742.794,949.088a2.542,2.542,0,1,0,1.524,3.257A2.545,2.545,0,0,0,1742.794,949.088Z" transform="translate(-1739.385 -948.935)" fill="#12263f"/>
          </g>
          <g id="Grupo_1111112" data-name="Grupo 1111112" transform="translate(15.103 13.465)">
            <path id="Trazado_883431" data-name="Trazado 883431" d="M1854.085,1048.317a2.542,2.542,0,1,0,1.558,3.24A2.545,2.545,0,0,0,1854.085,1048.317Z" transform="translate(-1850.702 -1048.174)" fill="#12263f"/>
          </g>
        </g>
      </g>
      <g id="Grupo_1111115" data-name="Grupo 1111115" transform="translate(18.744 16.963)">
        <path id="Trazado_883432" data-name="Trazado 883432" d="M1861.032,1056.73a1.393,1.393,0,1,0,.854,1.775A1.394,1.394,0,0,0,1861.032,1056.73Z" transform="translate(-1859.179 -1056.651)" fill="#12263f"/>
      </g>
    </g>
  </g>
  <g id="Grupo_1111119" data-name="Grupo 1111119">
    <g id="Grupo_1111118" data-name="Grupo 1111118">
      <path id="Trazado_883433" data-name="Trazado 883433" d="M1585.5,879.094a36.051,36.051,0,0,0-.335-4.887l1.936-.268a37.972,37.972,0,0,0-1.056-5.057l-1.875.528a35.512,35.512,0,0,0-1.644-4.615l1.779-.778a37.7,37.7,0,0,0-2.387-4.578l-1.652,1.01a35.623,35.623,0,0,0-2.832-4l1.5-1.223a38.219,38.219,0,0,0-3.53-3.768l-1.314,1.411a35.967,35.967,0,0,0-3.8-3.092l1.109-1.573a37.808,37.808,0,0,0-4.417-2.682l-.883,1.706a35.46,35.46,0,0,0-4.5-1.951l.64-1.81a37.648,37.648,0,0,0-4.983-1.385l-.385,1.878a35.694,35.694,0,0,0-4.859-.655l.126-1.913a38.572,38.572,0,0,0-5.16.007l.132,1.913a35.487,35.487,0,0,0-4.857.671l-.391-1.879a37.65,37.65,0,0,0-4.975,1.4l.645,1.807a35.437,35.437,0,0,0-4.493,1.964l-.887-1.705a37.975,37.975,0,0,0-4.406,2.693l1.113,1.57a35.864,35.864,0,0,0-3.793,3.1l-1.318-1.408a38.015,38.015,0,0,0-3.522,3.778l1.5,1.219a35.75,35.75,0,0,0-2.822,4.008l-1.655-1.006a37.832,37.832,0,0,0-2.376,4.59l1.782.773a35.28,35.28,0,0,0-1.631,4.624l-1.877-.523a37.907,37.907,0,0,0-1.041,5.06l1.937.262a36.043,36.043,0,0,0-.32,4.808c0,.026,0,.052,0,.078l-1.96,0a38.372,38.372,0,0,0,.353,5.15l1.947-.267a35.567,35.567,0,0,0,1,4.794l-1.9.533a37.633,37.633,0,0,0,1.735,4.867l1.811-.79a35.83,35.83,0,0,0,2.263,4.339l-1.691,1.032a38.191,38.191,0,0,0,2.983,4.214l1.54-1.256a36.194,36.194,0,0,0,3.344,3.572l-1.357,1.454a38.192,38.192,0,0,0,4.006,3.26l1.15-1.628a35.692,35.692,0,0,0,4.182,2.542l-.919,1.773a37.9,37.9,0,0,0,4.742,2.06l.668-1.884a35.336,35.336,0,0,0,4.717,1.314l-.4,1.959a37.956,37.956,0,0,0,5.117.7l.133-2q1.2.081,2.428.082,1.242,0,2.463-.084l.136,2a37.8,37.8,0,0,0,5.117-.7l-.406-1.958a35.554,35.554,0,0,0,4.711-1.318l.67,1.883a37.889,37.889,0,0,0,4.737-2.062L1566.11,911a35.646,35.646,0,0,0,4.177-2.543l1.152,1.627a38.155,38.155,0,0,0,4-3.261l-1.36-1.454a36,36,0,0,0,3.344-3.574l1.54,1.254a38.127,38.127,0,0,0,2.982-4.218l-1.692-1.031a35.709,35.709,0,0,0,2.261-4.345l1.812.788a37.68,37.68,0,0,0,1.732-4.872l-1.9-.531a35.54,35.54,0,0,0,1-4.795l1.946.265a38.345,38.345,0,0,0,.347-5.15v-.07H1585.5Zm-3.028,9.275a34.078,34.078,0,0,1-30.523,24.808q-1.162.08-2.344.08-1.165,0-2.311-.077a34.07,34.07,0,0,1-4.608-.625,33.953,33.953,0,0,1-12.731-5.519,34.261,34.261,0,0,1-9.488-10.126,33.908,33.908,0,0,1-4.672-13.064,34.439,34.439,0,0,1-.323-4.647c0-.026,0-.051,0-.077a34.375,34.375,0,0,1,.3-4.573,34.083,34.083,0,0,1,31.447-29.479q1.182-.083,2.384-.083,1.15,0,2.282.075a33.962,33.962,0,0,1,9.116,1.874,34.121,34.121,0,0,1,8.264,4.28,34.216,34.216,0,0,1,11.645,14.283,33.836,33.836,0,0,1,2.51,8.949,34.29,34.29,0,0,1,.318,4.646v.028a34.438,34.438,0,0,1-.32,4.69A33.656,33.656,0,0,1,1582.467,888.369Z" transform="translate(-1511.747 -841.311)" fill="#f8fafc"/>
    </g>
    <path id="Trazado_883434" data-name="Trazado 883434" d="M1582.48,943.951a32.529,32.529,0,1,1,23-9.528A32.316,32.316,0,0,1,1582.48,943.951Zm0-64.541a32.012,32.012,0,1,0,32.012,32.012A32.048,32.048,0,0,0,1582.48,879.41Z" transform="translate(-1544.768 -873.794)" fill="#f8fafc"/>
  </g>
</svg>
