<svg xmlns="http://www.w3.org/2000/svg" xmlns:xlink="http://www.w3.org/1999/xlink" width="343" height="593" viewBox="0 0 343 593">
  <defs>
    <clipPath id="clip-path">
      <rect id="Rectángulo_402487" data-name="Rectángulo 402487" width="343" height="593" rx="12" transform="translate(-13765.43 -12777)" fill="#dffaff"/>
    </clipPath>
    <clipPath id="clip-path-2">
      <rect id="Rectángulo_402696" data-name="Rectángulo 402696" width="1503" height="593" rx="24" transform="translate(-13594 -13041)" fill="#fff"/>
    </clipPath>
    <clipPath id="clip-path-3">
      <rect id="Rectángulo_402693" data-name="Rectángulo 402693" width="1519.565" height="854.755" fill="none"/>
    </clipPath>
    <linearGradient id="linear-gradient" x1="0.349" y1="0.44" x2="0.74" y2="0.849" gradientUnits="objectBoundingBox">
      <stop offset="0" stop-color="#0f1f33"/>
      <stop offset="1" stop-color="#6b8ba8"/>
    </linearGradient>
    <clipPath id="clip-path-4">
      <rect id="Rectángulo_402694" data-name="Rectángulo 402694" width="113.279" height="113.279" fill="#f8fafc"/>
    </clipPath>
    <clipPath id="clip-path-5">
      <rect id="Rectángulo_402695" data-name="Rectángulo 402695" width="113.279" height="113.279" fill="#ffcf64"/>
    </clipPath>
    <clipPath id="clip-path-6">
      <rect id="Rectángulo_402501" data-name="Rectángulo 402501" width="59.316" height="44.793" fill="none"/>
    </clipPath>
    <clipPath id="clip-path-7">
      <rect id="Rectángulo_402498" data-name="Rectángulo 402498" width="100.37" height="16.765" fill="#fff"/>
    </clipPath>
  </defs>
  <g id="Grupo_1111256" data-name="Grupo 1111256" transform="translate(13266.447 11566)">
    <g id="Enmascarar_grupo_1098672" data-name="Enmascarar grupo 1098672" transform="translate(498.982 1211)" clip-path="url(#clip-path)">
      <g id="Enmascarar_grupo_1101622" data-name="Enmascarar grupo 1101622" transform="translate(-420.982 264)" clip-path="url(#clip-path-2)">
        <g id="Grupo_1102207" data-name="Grupo 1102207" transform="translate(-13948.417 -13171.877)">
          <g id="Grupo_1102206" data-name="Grupo 1102206" clip-path="url(#clip-path-3)">
            <path id="Trazado_876029" data-name="Trazado 876029" d="M0,0H1689.169V1667.754H0Z" transform="matrix(0.723, -0.691, 0.691, 0.723, -426.934, 407.913)" fill="url(#linear-gradient)"/>
          </g>
        </g>
        <g id="Grupo_1102209" data-name="Grupo 1102209" transform="translate(-13145.65 -13117.293)">
          <g id="Grupo_1102208" data-name="Grupo 1102208" transform="translate(0 0)" clip-path="url(#clip-path-4)">
            <path id="Trazado_876030" data-name="Trazado 876030" d="M4.419,55.447a2.21,2.21,0,1,1-2.21-2.21,2.213,2.213,0,0,1,2.21,2.21" transform="translate(0 7.241)" fill="#f8fafc"/>
            <path id="Trazado_876031" data-name="Trazado 876031" d="M4.419,12.857a2.21,2.21,0,1,1-2.21-2.21,2.213,2.213,0,0,1,2.21,2.21" transform="translate(0 1.448)" fill="#f8fafc"/>
            <path id="Trazado_876032" data-name="Trazado 876032" d="M4.419,76.741a2.21,2.21,0,1,1-2.21-2.21,2.213,2.213,0,0,1,2.21,2.21" transform="translate(0 10.137)" fill="#f8fafc"/>
            <path id="Trazado_876033" data-name="Trazado 876033" d="M4.419,34.152a2.21,2.21,0,1,1-2.21-2.21,2.213,2.213,0,0,1,2.21,2.21" transform="translate(0 4.345)" fill="#f8fafc"/>
            <path id="Trazado_876034" data-name="Trazado 876034" d="M4.419,98.036a2.21,2.21,0,1,1-2.21-2.21,2.213,2.213,0,0,1,2.21,2.21" transform="translate(0 13.034)" fill="#f8fafc"/>
            <path id="Trazado_876035" data-name="Trazado 876035" d="M20.39,87.389a2.21,2.21,0,1,1-2.21-2.21,2.213,2.213,0,0,1,2.21,2.21" transform="translate(2.172 11.586)" fill="#f8fafc"/>
            <path id="Trazado_876036" data-name="Trazado 876036" d="M20.39,66.094a2.21,2.21,0,1,1-2.21-2.21,2.213,2.213,0,0,1,2.21,2.21" transform="translate(2.172 8.689)" fill="#f8fafc"/>
            <path id="Trazado_876037" data-name="Trazado 876037" d="M20.39,44.8a2.21,2.21,0,1,1-2.21-2.21,2.213,2.213,0,0,1,2.21,2.21" transform="translate(2.172 5.793)" fill="#f8fafc"/>
            <path id="Trazado_876038" data-name="Trazado 876038" d="M20.39,23.5a2.21,2.21,0,1,1-2.21-2.21,2.213,2.213,0,0,1,2.21,2.21" transform="translate(2.172 2.897)" fill="#f8fafc"/>
            <path id="Trazado_876039" data-name="Trazado 876039" d="M20.39,2.21A2.21,2.21,0,1,1,18.181,0a2.213,2.213,0,0,1,2.21,2.21" transform="translate(2.172 0)" fill="#f8fafc"/>
            <path id="Trazado_876040" data-name="Trazado 876040" d="M36.361,98.036a2.21,2.21,0,1,1-2.21-2.21,2.213,2.213,0,0,1,2.21,2.21" transform="translate(4.345 13.034)" fill="#f8fafc"/>
            <path id="Trazado_876041" data-name="Trazado 876041" d="M36.361,12.857a2.21,2.21,0,1,1-2.21-2.21,2.213,2.213,0,0,1,2.21,2.21" transform="translate(4.345 1.448)" fill="#f8fafc"/>
            <path id="Trazado_876042" data-name="Trazado 876042" d="M36.361,34.152a2.21,2.21,0,1,1-2.21-2.21,2.213,2.213,0,0,1,2.21,2.21" transform="translate(4.345 4.345)" fill="#f8fafc"/>
            <path id="Trazado_876043" data-name="Trazado 876043" d="M36.361,76.741a2.21,2.21,0,1,1-2.21-2.21,2.213,2.213,0,0,1,2.21,2.21" transform="translate(4.345 10.137)" fill="#f8fafc"/>
            <path id="Trazado_876044" data-name="Trazado 876044" d="M36.361,55.447a2.21,2.21,0,1,1-2.21-2.21,2.213,2.213,0,0,1,2.21,2.21" transform="translate(4.345 7.241)" fill="#f8fafc"/>
            <path id="Trazado_876045" data-name="Trazado 876045" d="M52.332,87.389a2.21,2.21,0,1,1-2.21-2.21,2.213,2.213,0,0,1,2.21,2.21" transform="translate(6.517 11.586)" fill="#f8fafc"/>
            <path id="Trazado_876046" data-name="Trazado 876046" d="M52.332,23.5a2.21,2.21,0,1,1-2.21-2.21,2.213,2.213,0,0,1,2.21,2.21" transform="translate(6.517 2.897)" fill="#f8fafc"/>
            <path id="Trazado_876047" data-name="Trazado 876047" d="M52.332,66.094a2.21,2.21,0,1,1-2.21-2.21,2.213,2.213,0,0,1,2.21,2.21" transform="translate(6.517 8.689)" fill="#f8fafc"/>
            <path id="Trazado_876048" data-name="Trazado 876048" d="M52.332,44.8a2.21,2.21,0,1,1-2.21-2.21,2.213,2.213,0,0,1,2.21,2.21" transform="translate(6.517 5.793)" fill="#f8fafc"/>
            <path id="Trazado_876049" data-name="Trazado 876049" d="M68.3,12.857a2.21,2.21,0,1,1-2.21-2.21,2.213,2.213,0,0,1,2.21,2.21" transform="translate(8.689 1.448)" fill="#f8fafc"/>
            <path id="Trazado_876050" data-name="Trazado 876050" d="M68.3,76.741a2.21,2.21,0,1,1-2.21-2.21,2.213,2.213,0,0,1,2.21,2.21" transform="translate(8.689 10.137)" fill="#f8fafc"/>
            <path id="Trazado_876051" data-name="Trazado 876051" d="M52.332,2.21A2.21,2.21,0,1,1,50.123,0a2.213,2.213,0,0,1,2.21,2.21" transform="translate(6.517 0)" fill="#f8fafc"/>
            <path id="Trazado_876052" data-name="Trazado 876052" d="M68.3,98.036a2.21,2.21,0,1,1-2.21-2.21,2.213,2.213,0,0,1,2.21,2.21" transform="translate(8.689 13.034)" fill="#f8fafc"/>
            <path id="Trazado_876053" data-name="Trazado 876053" d="M68.3,55.447a2.21,2.21,0,1,1-2.21-2.21,2.213,2.213,0,0,1,2.21,2.21" transform="translate(8.689 7.241)" fill="#f8fafc"/>
            <path id="Trazado_876054" data-name="Trazado 876054" d="M68.3,34.152a2.21,2.21,0,1,1-2.21-2.21,2.213,2.213,0,0,1,2.21,2.21" transform="translate(8.689 4.345)" fill="#f8fafc"/>
            <path id="Trazado_876055" data-name="Trazado 876055" d="M84.274,87.389a2.21,2.21,0,1,1-2.21-2.21,2.213,2.213,0,0,1,2.21,2.21" transform="translate(10.862 11.586)" fill="#f8fafc"/>
            <path id="Trazado_876056" data-name="Trazado 876056" d="M84.274,66.094a2.21,2.21,0,1,1-2.21-2.21,2.213,2.213,0,0,1,2.21,2.21" transform="translate(10.862 8.689)" fill="#f8fafc"/>
            <path id="Trazado_876057" data-name="Trazado 876057" d="M84.274,44.8a2.21,2.21,0,1,1-2.21-2.21,2.213,2.213,0,0,1,2.21,2.21" transform="translate(10.862 5.793)" fill="#f8fafc"/>
            <path id="Trazado_876058" data-name="Trazado 876058" d="M84.274,23.5a2.21,2.21,0,1,1-2.21-2.21,2.213,2.213,0,0,1,2.21,2.21" transform="translate(10.862 2.897)" fill="#f8fafc"/>
            <path id="Trazado_876059" data-name="Trazado 876059" d="M84.274,2.21A2.21,2.21,0,1,1,82.065,0a2.213,2.213,0,0,1,2.21,2.21" transform="translate(10.862 0)" fill="#f8fafc"/>
            <path id="Trazado_876060" data-name="Trazado 876060" d="M100.245,34.152a2.21,2.21,0,1,1-2.21-2.21,2.213,2.213,0,0,1,2.21,2.21" transform="translate(13.034 4.345)" fill="#f8fafc"/>
            <path id="Trazado_876061" data-name="Trazado 876061" d="M100.245,76.741a2.21,2.21,0,1,1-2.21-2.21,2.213,2.213,0,0,1,2.21,2.21" transform="translate(13.034 10.137)" fill="#f8fafc"/>
            <path id="Trazado_876062" data-name="Trazado 876062" d="M100.245,12.857a2.21,2.21,0,1,1-2.21-2.21,2.213,2.213,0,0,1,2.21,2.21" transform="translate(13.034 1.448)" fill="#f8fafc"/>
            <path id="Trazado_876063" data-name="Trazado 876063" d="M100.245,98.036a2.21,2.21,0,1,1-2.21-2.21,2.213,2.213,0,0,1,2.21,2.21" transform="translate(13.034 13.034)" fill="#f8fafc"/>
            <path id="Trazado_876064" data-name="Trazado 876064" d="M100.245,55.447a2.21,2.21,0,1,1-2.21-2.21,2.213,2.213,0,0,1,2.21,2.21" transform="translate(13.034 7.241)" fill="#f8fafc"/>
          </g>
        </g>
        <g id="Grupo_1102211" data-name="Grupo 1102211" transform="translate(-13248.651 -12494.557)">
          <g id="Grupo_1102210" data-name="Grupo 1102210" transform="translate(103 1)" clip-path="url(#clip-path-5)">
            <path id="Trazado_876065" data-name="Trazado 876065" d="M4.419,55.447a2.21,2.21,0,1,1-2.21-2.21,2.213,2.213,0,0,1,2.21,2.21" transform="translate(0 7.241)" fill="#ffcf64"/>
            <path id="Trazado_876066" data-name="Trazado 876066" d="M4.419,12.857a2.21,2.21,0,1,1-2.21-2.21,2.213,2.213,0,0,1,2.21,2.21" transform="translate(0 1.448)" fill="#ffcf64"/>
            <path id="Trazado_876067" data-name="Trazado 876067" d="M4.419,76.741a2.21,2.21,0,1,1-2.21-2.21,2.213,2.213,0,0,1,2.21,2.21" transform="translate(0 10.137)" fill="#ffcf64"/>
            <path id="Trazado_876068" data-name="Trazado 876068" d="M4.419,34.152a2.21,2.21,0,1,1-2.21-2.21,2.213,2.213,0,0,1,2.21,2.21" transform="translate(0 4.345)" fill="#ffcf64"/>
            <path id="Trazado_876069" data-name="Trazado 876069" d="M4.419,98.036a2.21,2.21,0,1,1-2.21-2.21,2.213,2.213,0,0,1,2.21,2.21" transform="translate(0 13.034)" fill="#ffcf64"/>
            <path id="Trazado_876070" data-name="Trazado 876070" d="M20.39,87.389a2.21,2.21,0,1,1-2.21-2.21,2.213,2.213,0,0,1,2.21,2.21" transform="translate(2.172 11.586)" fill="#ffcf64"/>
            <path id="Trazado_876071" data-name="Trazado 876071" d="M20.39,66.094a2.21,2.21,0,1,1-2.21-2.21,2.213,2.213,0,0,1,2.21,2.21" transform="translate(2.172 8.689)" fill="#ffcf64"/>
            <path id="Trazado_876072" data-name="Trazado 876072" d="M20.39,44.8a2.21,2.21,0,1,1-2.21-2.21,2.213,2.213,0,0,1,2.21,2.21" transform="translate(2.172 5.793)" fill="#ffcf64"/>
            <path id="Trazado_876073" data-name="Trazado 876073" d="M20.39,23.5a2.21,2.21,0,1,1-2.21-2.21,2.213,2.213,0,0,1,2.21,2.21" transform="translate(2.172 2.897)" fill="#ffcf64"/>
            <path id="Trazado_876074" data-name="Trazado 876074" d="M20.39,2.21A2.21,2.21,0,1,1,18.181,0a2.213,2.213,0,0,1,2.21,2.21" transform="translate(2.172 0)" fill="#ffcf64"/>
            <path id="Trazado_876075" data-name="Trazado 876075" d="M36.361,98.036a2.21,2.21,0,1,1-2.21-2.21,2.213,2.213,0,0,1,2.21,2.21" transform="translate(4.345 13.034)" fill="#ffcf64"/>
            <path id="Trazado_876076" data-name="Trazado 876076" d="M36.361,12.857a2.21,2.21,0,1,1-2.21-2.21,2.213,2.213,0,0,1,2.21,2.21" transform="translate(4.345 1.448)" fill="#ffcf64"/>
            <path id="Trazado_876077" data-name="Trazado 876077" d="M36.361,34.152a2.21,2.21,0,1,1-2.21-2.21,2.213,2.213,0,0,1,2.21,2.21" transform="translate(4.345 4.345)" fill="#ffcf64"/>
            <path id="Trazado_876078" data-name="Trazado 876078" d="M36.361,76.741a2.21,2.21,0,1,1-2.21-2.21,2.213,2.213,0,0,1,2.21,2.21" transform="translate(4.345 10.137)" fill="#ffcf64"/>
            <path id="Trazado_876079" data-name="Trazado 876079" d="M36.361,55.447a2.21,2.21,0,1,1-2.21-2.21,2.213,2.213,0,0,1,2.21,2.21" transform="translate(4.345 7.241)" fill="#ffcf64"/>
            <path id="Trazado_876080" data-name="Trazado 876080" d="M52.332,87.389a2.21,2.21,0,1,1-2.21-2.21,2.213,2.213,0,0,1,2.21,2.21" transform="translate(6.517 11.586)" fill="#ffcf64"/>
            <path id="Trazado_876081" data-name="Trazado 876081" d="M52.332,23.5a2.21,2.21,0,1,1-2.21-2.21,2.213,2.213,0,0,1,2.21,2.21" transform="translate(6.517 2.897)" fill="#ffcf64"/>
            <path id="Trazado_876082" data-name="Trazado 876082" d="M52.332,66.094a2.21,2.21,0,1,1-2.21-2.21,2.213,2.213,0,0,1,2.21,2.21" transform="translate(6.517 8.689)" fill="#ffcf64"/>
            <path id="Trazado_876083" data-name="Trazado 876083" d="M52.332,44.8a2.21,2.21,0,1,1-2.21-2.21,2.213,2.213,0,0,1,2.21,2.21" transform="translate(6.517 5.793)" fill="#ffcf64"/>
            <path id="Trazado_876084" data-name="Trazado 876084" d="M68.3,12.857a2.21,2.21,0,1,1-2.21-2.21,2.213,2.213,0,0,1,2.21,2.21" transform="translate(8.689 1.448)" fill="#ffcf64"/>
            <path id="Trazado_876085" data-name="Trazado 876085" d="M68.3,76.741a2.21,2.21,0,1,1-2.21-2.21,2.213,2.213,0,0,1,2.21,2.21" transform="translate(8.689 10.137)" fill="#ffcf64"/>
            <path id="Trazado_876086" data-name="Trazado 876086" d="M52.332,2.21A2.21,2.21,0,1,1,50.123,0a2.213,2.213,0,0,1,2.21,2.21" transform="translate(6.517 0)" fill="#ffcf64"/>
            <path id="Trazado_876087" data-name="Trazado 876087" d="M68.3,98.036a2.21,2.21,0,1,1-2.21-2.21,2.213,2.213,0,0,1,2.21,2.21" transform="translate(8.689 13.034)" fill="#ffcf64"/>
            <path id="Trazado_876088" data-name="Trazado 876088" d="M68.3,55.447a2.21,2.21,0,1,1-2.21-2.21,2.213,2.213,0,0,1,2.21,2.21" transform="translate(8.689 7.241)" fill="#ffcf64"/>
            <path id="Trazado_876089" data-name="Trazado 876089" d="M68.3,34.152a2.21,2.21,0,1,1-2.21-2.21,2.213,2.213,0,0,1,2.21,2.21" transform="translate(8.689 4.345)" fill="#ffcf64"/>
            <path id="Trazado_876090" data-name="Trazado 876090" d="M84.274,87.389a2.21,2.21,0,1,1-2.21-2.21,2.213,2.213,0,0,1,2.21,2.21" transform="translate(10.862 11.586)" fill="#ffcf64"/>
            <path id="Trazado_876091" data-name="Trazado 876091" d="M84.274,66.094a2.21,2.21,0,1,1-2.21-2.21,2.213,2.213,0,0,1,2.21,2.21" transform="translate(10.862 8.689)" fill="#ffcf64"/>
            <path id="Trazado_876092" data-name="Trazado 876092" d="M84.274,44.8a2.21,2.21,0,1,1-2.21-2.21,2.213,2.213,0,0,1,2.21,2.21" transform="translate(10.862 5.793)" fill="#ffcf64"/>
            <path id="Trazado_876093" data-name="Trazado 876093" d="M84.274,23.5a2.21,2.21,0,1,1-2.21-2.21,2.213,2.213,0,0,1,2.21,2.21" transform="translate(10.862 2.897)" fill="#ffcf64"/>
            <path id="Trazado_876094" data-name="Trazado 876094" d="M84.274,2.21A2.21,2.21,0,1,1,82.065,0a2.213,2.213,0,0,1,2.21,2.21" transform="translate(10.862 0)" fill="#ffcf64"/>
            <path id="Trazado_876095" data-name="Trazado 876095" d="M100.245,34.152a2.21,2.21,0,1,1-2.21-2.21,2.213,2.213,0,0,1,2.21,2.21" transform="translate(13.034 4.345)" fill="#ffcf64"/>
            <path id="Trazado_876096" data-name="Trazado 876096" d="M100.245,76.741a2.21,2.21,0,1,1-2.21-2.21,2.213,2.213,0,0,1,2.21,2.21" transform="translate(13.034 10.137)" fill="#ffcf64"/>
            <path id="Trazado_876097" data-name="Trazado 876097" d="M100.245,12.857a2.21,2.21,0,1,1-2.21-2.21,2.213,2.213,0,0,1,2.21,2.21" transform="translate(13.034 1.448)" fill="#ffcf64"/>
            <path id="Trazado_876098" data-name="Trazado 876098" d="M100.245,98.036a2.21,2.21,0,1,1-2.21-2.21,2.213,2.213,0,0,1,2.21,2.21" transform="translate(13.034 13.034)" fill="#ffcf64"/>
            <path id="Trazado_876099" data-name="Trazado 876099" d="M100.245,55.447a2.21,2.21,0,1,1-2.21-2.21,2.213,2.213,0,0,1,2.21,2.21" transform="translate(13.034 7.241)" fill="#ffcf64"/>
          </g>
        </g>
      </g>
    </g>
    <g id="Grupo_1102212" data-name="Grupo 1102212" transform="translate(-13005.099 -11079.078)">
      <g id="Grupo_1101607" data-name="Grupo 1101607" transform="translate(0 0)" clip-path="url(#clip-path-6)">
        <path id="Trazado_874481" data-name="Trazado 874481" d="M56.781,20.043a9.755,9.755,0,0,1-2.227-.254.346.346,0,0,1-.258-.412l.292-1.287a8.207,8.207,0,0,1-2.2-.956l-.748,1.1a.345.345,0,0,1-.222.145.351.351,0,0,1-.26-.056,10.12,10.12,0,0,1-3.426-3.975.345.345,0,0,1,.162-.458l1.185-.576a8.3,8.3,0,0,1-.628-2.328l-1.312.1a.345.345,0,0,1-.371-.318,9.913,9.913,0,0,1,.968-5.173.345.345,0,0,1,.46-.157l1.184.57A8.4,8.4,0,0,1,50.8,4.07L49.9,3.1a.346.346,0,0,1,.011-.483,9.709,9.709,0,0,1,2.156-1.543l.222-.111A7.4,7.4,0,0,1,53.3.524l.2-.072c.14-.051.279-.1.42-.142l.631-.16a.352.352,0,0,1,.265.041A.346.346,0,0,1,54.97.41L55.261,1.7a8.572,8.572,0,0,1,2.411-.1L57.866.3A.344.344,0,0,1,58.249,0,9.766,9.766,0,0,1,60.8.722l.268.128A7.992,7.992,0,0,1,62,1.344a9.563,9.563,0,0,1,1.073.744.346.346,0,0,1,.061.49l-.824,1.035A8.372,8.372,0,0,1,63.89,5.435l1.135-.664a.346.346,0,0,1,.47.119l.368.687c.08.164.162.332.236.5.047.132.088.241.129.35a7.047,7.047,0,0,1,.3.929,10.319,10.319,0,0,1,.348,2.6.345.345,0,0,1-.345.356H65.209a8.282,8.282,0,0,1-.446,2.372l1.23.475a.346.346,0,0,1,.2.442l-.031.086c-.028.081-.057.16-.091.237l-.222.463c-.07.143-.14.284-.215.423l-.146.245a7.683,7.683,0,0,1-.577.883,9.986,9.986,0,0,1-1.826,1.9.335.335,0,0,1-.255.076.342.342,0,0,1-.234-.128l-.824-1.031a8.465,8.465,0,0,1-2.13,1.132l.4,1.267a.346.346,0,0,1-.231.435,10.6,10.6,0,0,1-3.029.448m-1.734-.855a9.572,9.572,0,0,0,4.228-.161l-.395-1.25a.345.345,0,0,1,.227-.433,7.788,7.788,0,0,0,2.509-1.333.346.346,0,0,1,.484.055l.813,1.017a8.985,8.985,0,0,0,1.445-1.558,7.189,7.189,0,0,0,.534-.818l.141-.237c.063-.117.129-.251.2-.385l.194-.4L64.2,13.208a.345.345,0,0,1-.2-.449,7.6,7.6,0,0,0,.526-2.791.345.345,0,0,1,.345-.345h1.3a8.93,8.93,0,0,0-.311-2.09,6.632,6.632,0,0,0-.279-.861c-.043-.114-.085-.227-.125-.341-.061-.14-.139-.3-.214-.453l-.164-.339L63.946,6.2a.349.349,0,0,1-.263.036.342.342,0,0,1-.21-.161,7.7,7.7,0,0,0-1.858-2.147.345.345,0,0,1-.054-.485l.814-1.022a7.1,7.1,0,0,0-.73-.489,7.491,7.491,0,0,0-.87-.462l-.254-.121A9.691,9.691,0,0,0,58.5.738l-.193,1.3a.345.345,0,0,1-.39.292,7.738,7.738,0,0,0-2.836.117.336.336,0,0,1-.263-.042.345.345,0,0,1-.155-.217L54.374.908,54.1.977c-.115.034-.239.079-.364.124l-.218.078a6.7,6.7,0,0,0-.917.406l-.212.106a9.66,9.66,0,0,0-1.745,1.195l.9.96a.346.346,0,0,1-.017.489,7.708,7.708,0,0,0-1.682,2.281.344.344,0,0,1-.461.16L48.2,6.21a9.223,9.223,0,0,0-.772,4.159l1.3-.1a.345.345,0,0,1,.371.319,7.637,7.637,0,0,0,.738,2.739.345.345,0,0,1-.161.46l-1.175.57a9.445,9.445,0,0,0,2.761,3.193L52,16.465a.346.346,0,0,1,.48-.091A7.531,7.531,0,0,0,55.076,17.5a.346.346,0,0,1,.261.413Z" transform="translate(-22.993 0)" fill="#fff"/>
        <path id="Trazado_874482" data-name="Trazado 874482" d="M89.1,49.008c0-.139,0-.274-.008-.409,1-.176,1.987-.391,2.975-.65a12.749,12.749,0,0,0-2.679-6.829c-.894.477-1.773,1-2.629,1.548a9.629,9.629,0,0,0-1.66-1.54q.727-1.341,1.352-2.742a12.716,12.716,0,0,0-7.013-2.16c-.184,1-.327,2.014-.428,3.024a9.577,9.577,0,0,0-2.243.334c-.394-.935-.83-1.859-1.3-2.764a12.8,12.8,0,0,0-6.055,4.135q1.008,1.155,2.092,2.216a9.995,9.995,0,0,0-1.134,1.968c-.976-.274-1.968-.511-2.964-.7a12.849,12.849,0,0,0-.552,7.31c1.022-.041,2.04-.128,3.043-.251a9.515,9.515,0,0,0,.826,2.111q-1.239.891-2.4,1.882a12.36,12.36,0,0,0,2.321,2.881,12.148,12.148,0,0,0,3.05,2.1q.907-1.24,1.694-2.528a9.443,9.443,0,0,0,2.171.665c-.049,1.007-.056,2.021-.022,3.05l.462.064c.154.015.308.023.462.03.308.015.616.038.924.042a13.754,13.754,0,0,0,1.848-.154,12.52,12.52,0,0,0,1.818-.4c.3-.09.586-.2.879-.308a7.1,7.1,0,0,0,.853-.368c-.27-.988-.579-1.953-.924-2.9v0a9.36,9.36,0,0,0,1.874-1.277c.758.669,1.544,1.308,2.366,1.92a12.683,12.683,0,0,0,3.666-6.348q-1.4-.6-2.847-1.089a9.371,9.371,0,0,0,.18-1.852m-4.458.034a5.262,5.262,0,0,1-.1,1.007c.526.176,1.04.375,1.547.593A6.886,6.886,0,0,1,84.1,54.1c-.447-.334-.875-.684-1.288-1.044a5.241,5.241,0,0,1-1.018.695c.187.519.353,1.044.5,1.581a4.575,4.575,0,0,1-.465.2c-.158.056-.316.12-.477.169a6.851,6.851,0,0,1-.992.214A7.449,7.449,0,0,1,79.352,56c-.166,0-.334-.015-.5-.022-.086,0-.169-.008-.251-.019l-.252-.034c-.019-.56-.015-1.112.012-1.661a5.055,5.055,0,0,1-1.184-.361c-.285.47-.593.924-.92,1.375a6.959,6.959,0,0,1-2.922-2.709q.626-.54,1.3-1.025a5.263,5.263,0,0,1-.451-1.15c-.545.068-1.1.113-1.657.135a7.016,7.016,0,0,1,.3-3.977c.541.105,1.082.233,1.615.383a5.408,5.408,0,0,1,.616-1.071c-.394-.383-.774-.789-1.138-1.205a6.9,6.9,0,0,1,3.294-2.25c.259.492.5,1,.71,1.5a5.231,5.231,0,0,1,1.221-.18c.056-.552.132-1.1.233-1.645A6.874,6.874,0,0,1,83.2,43.261c-.225.507-.473,1-.736,1.491a5.325,5.325,0,0,1,.905.837c.466-.3.943-.582,1.431-.841a6.963,6.963,0,0,1,1.457,3.715c-.537.143-1.078.259-1.619.353,0,.075,0,.15,0,.226" transform="translate(-32.75 -17.824)" fill="#868c90"/>
        <path id="Trazado_874483" data-name="Trazado 874483" d="M91.754,58.7a2.78,2.78,0,1,1-2.78-2.782,2.783,2.783,0,0,1,2.78,2.782" transform="translate(-42.409 -27.512)" fill="#868c90"/>
        <path id="Trazado_874484" data-name="Trazado 874484" d="M28.494,42.594h2.665a16.054,16.054,0,0,0-.552-4.062,16.575,16.575,0,0,0-.656-1.953c-.134-.313-.288-.622-.437-.93l-.224-.462-.263-.442-2.292,1.337a12.882,12.882,0,0,0-3.107-3.589l1.661-2.078A15,15,0,0,0,23.6,29.247a15.848,15.848,0,0,0-1.824-.949,15.627,15.627,0,0,0-3.952-1.113l-.383,2.625a12.817,12.817,0,0,0-1.869-.135A12.469,12.469,0,0,0,12.7,30l-.591-2.595-.994.253c-.333.089-.651.224-.974.338a14.966,14.966,0,0,0-1.879.835,15.672,15.672,0,0,0-3.331,2.391l1.814,1.938a12.97,12.97,0,0,0-2.814,3.817L1.542,35.833a15.465,15.465,0,0,0-1.5,7.988l2.645-.2A12.92,12.92,0,0,0,3.928,48.2L1.542,49.354a15.755,15.755,0,0,0,5.3,6.154l1.5-2.207A12.645,12.645,0,0,0,12.7,55.185l-.591,2.595a15.874,15.874,0,0,0,8.127-.308l-.8-2.545a12.91,12.91,0,0,0,4.2-2.232l1.661,2.078a15.663,15.663,0,0,0,2.833-2.958,16.918,16.918,0,0,0,1.113-1.725c.164-.3.308-.616.458-.925l.218-.462c.07-.159.124-.323.184-.482l-2.475-.96a12.765,12.765,0,0,0,.875-4.667M15.58,53.485A10.854,10.854,0,1,1,26.436,42.633,10.862,10.862,0,0,1,15.58,53.485" transform="translate(0 -13.375)" fill="#ffcf64"/>
        <path id="Trazado_874485" data-name="Trazado 874485" d="M21.6,39.162a9.363,9.363,0,1,0,9.365,9.365A9.374,9.374,0,0,0,21.6,39.162m0,14.331a4.968,4.968,0,1,1,4.971-4.966A4.968,4.968,0,0,1,21.6,53.493" transform="translate(-6.024 -19.269)" fill="#ffcf64"/>
      </g>
    </g>
    <g id="Grupo_1102213" data-name="Grupo 1102213" transform="translate(-13255.203 -11407.598) rotate(-90)">
      <g id="Grupo_1101601" data-name="Grupo 1101601" transform="translate(0 0)" clip-path="url(#clip-path-7)">
        <path id="Trazado_874406" data-name="Trazado 874406" d="M.56,16.765a.559.559,0,0,1-.56-.56V.56A.558.558,0,0,1,.28.076a.554.554,0,0,1,.56,0L14.389,7.9a.559.559,0,0,1,0,.969L.839,16.69a.555.555,0,0,1-.28.075m.56-15.236V15.236L12.99,8.383Z" transform="translate(0 0)" fill="#fff"/>
        <path id="Trazado_874407" data-name="Trazado 874407" d="M26.6,16.765a.559.559,0,0,1-.56-.56V.56a.558.558,0,0,1,.28-.484.554.554,0,0,1,.56,0L40.425,7.9a.559.559,0,0,1,0,.969L26.875,16.69a.555.555,0,0,1-.28.075m.56-15.236V15.236L39.026,8.383Z" transform="translate(-4.61 0)" fill="#fff"/>
        <path id="Trazado_874408" data-name="Trazado 874408" d="M52.631,16.765a.559.559,0,0,1-.56-.56V.56a.558.558,0,0,1,.28-.484.554.554,0,0,1,.56,0L66.46,7.9a.559.559,0,0,1,0,.969L52.91,16.69a.555.555,0,0,1-.28.075m.56-15.236V15.236L65.061,8.383Z" transform="translate(-9.221 0)" fill="#fff"/>
        <path id="Trazado_874409" data-name="Trazado 874409" d="M78.667,16.765a.559.559,0,0,1-.56-.56V.56a.558.558,0,0,1,.28-.484.554.554,0,0,1,.56,0L92.5,7.9a.559.559,0,0,1,0,.969L78.946,16.69a.555.555,0,0,1-.28.075m.56-15.236V15.236L91.1,8.383Z" transform="translate(-13.831 0)" fill="#fff"/>
        <path id="Trazado_874410" data-name="Trazado 874410" d="M104.7,16.765a.559.559,0,0,1-.56-.56V.56a.558.558,0,0,1,.28-.484.554.554,0,0,1,.56,0L118.531,7.9a.559.559,0,0,1,0,.969L104.981,16.69a.555.555,0,0,1-.28.075m.56-15.236V15.236l11.871-6.853Z" transform="translate(-18.441 0)" fill="#fff"/>
      </g>
    </g>
  </g>
</svg>
