<svg xmlns="http://www.w3.org/2000/svg" xmlns:xlink="http://www.w3.org/1999/xlink" width="757" height="439" viewBox="0 0 757 439">
  <defs>
    <clipPath id="clip-path">
      <rect id="Rectángulo_402280" data-name="Rectángulo 402280" width="757" height="439" rx="22" transform="translate(-15388.43 -9770.922)" fill="#dffaff"/>
    </clipPath>
    <clipPath id="clip-path-2">
      <rect id="Rectángulo_402700" data-name="Rectángulo 402700" width="1323" height="522" rx="24" transform="translate(-13594 -13041)" fill="#fff"/>
    </clipPath>
    <clipPath id="clip-path-3">
      <rect id="Rectángulo_402697" data-name="Rectángulo 402697" width="1337.627" height="752.415" fill="none"/>
    </clipPath>
    <linearGradient id="linear-gradient" x1="0.349" y1="0.44" x2="0.74" y2="0.849" gradientUnits="objectBoundingBox">
      <stop offset="0" stop-color="#0f1f33"/>
      <stop offset="1" stop-color="#6b8ba8"/>
    </linearGradient>
    <clipPath id="clip-path-4">
      <rect id="Rectángulo_402698" data-name="Rectángulo 402698" width="99.716" height="99.716" transform="translate(0 0)" fill="#f8fafc"/>
    </clipPath>
    <clipPath id="clip-path-5">
      <rect id="Rectángulo_402699" data-name="Rectángulo 402699" width="99.716" height="99.716" transform="translate(0 0)" fill="#ffcf64"/>
    </clipPath>
    <clipPath id="clip-path-6">
      <rect id="Rectángulo_402501" data-name="Rectángulo 402501" width="69.785" height="52.699" fill="none"/>
    </clipPath>
    <clipPath id="clip-path-7">
      <rect id="Rectángulo_402498" data-name="Rectángulo 402498" width="121.967" height="20.373" transform="translate(0 0)" fill="#fff"/>
    </clipPath>
  </defs>
  <g id="Grupo_1111255" data-name="Grupo 1111255" transform="translate(14199.999 11566)">
    <g id="Grupo_1111254" data-name="Grupo 1111254">
      <g id="Grupo_1111253" data-name="Grupo 1111253">
        <g id="Grupo_1111252" data-name="Grupo 1111252">
          <g id="Componente_1" data-name="Componente 1" transform="translate(-14156 -11249.414)">
            <path id="Trazado_243" data-name="Trazado 243" d="M54.832,0h94.476c3.221,0,5.832,2.341,5.832,5.228V36.6c0,2.888-2.611,5.228-5.832,5.228H54.832C51.611,41.827,49,39.486,49,36.6V5.228C49,2.341,51.611,0,54.832,0Z" transform="translate(-49)" fill="#ffcf64"/>
            <g id="Grupo_873" data-name="Grupo 873" transform="translate(20.995 12.457)">
              <g id="Grupo_5" data-name="Grupo 5" transform="translate(0)">
                <text id="Iniciar" transform="translate(0 14)" fill="#fff" font-size="16" font-family="Roboto-Regular, Roboto"><tspan x="0" y="0">Iniciar</tspan></text>
              </g>
              <path id="Icon_ionic-ios-arrow-forward" data-name="Icon ionic-ios-arrow-forward" d="M17.952,13.719,11.6,8.028a1,1,0,0,1,0-1.519,1.311,1.311,0,0,1,1.7,0l7.2,6.448a1,1,0,0,1,.035,1.483L13.3,20.934a1.308,1.308,0,0,1-1.7,0,1,1,0,0,1,0-1.519Z" transform="translate(43.437 -5.059)" fill="#fff"/>
            </g>
          </g>
          <g id="Enmascarar_grupo_1098670" data-name="Enmascarar grupo 1098670" transform="translate(1188.431 -1795.078)" clip-path="url(#clip-path)">
            <g id="Enmascarar_grupo_1101623" data-name="Enmascarar grupo 1101623" transform="translate(-1891.431 3229.078)" clip-path="url(#clip-path-2)">
              <g id="Grupo_1102215" data-name="Grupo 1102215" transform="translate(-13600.529 -13147)">
                <g id="Grupo_1102214" data-name="Grupo 1102214" clip-path="url(#clip-path-3)">
                  <path id="Trazado_876100" data-name="Trazado 876100" d="M0,0H1486.925V1468.074H0Z" transform="matrix(0.723, -0.691, 0.691, 0.723, -375.817, 359.073)" fill="url(#linear-gradient)"/>
                </g>
              </g>
              <g id="Grupo_1102217" data-name="Grupo 1102217" transform="translate(-13113 -13084.391)">
                <g id="Grupo_1102216" data-name="Grupo 1102216" clip-path="url(#clip-path-4)">
                  <path id="Trazado_876101" data-name="Trazado 876101" d="M3.89,55.182a1.945,1.945,0,1,1-1.945-1.945A1.948,1.948,0,0,1,3.89,55.182" fill="#f8fafc"/>
                  <path id="Trazado_876102" data-name="Trazado 876102" d="M3.89,12.592a1.945,1.945,0,1,1-1.945-1.945A1.948,1.948,0,0,1,3.89,12.592" fill="#f8fafc"/>
                  <path id="Trazado_876103" data-name="Trazado 876103" d="M3.89,76.476a1.945,1.945,0,1,1-1.945-1.945A1.948,1.948,0,0,1,3.89,76.476" fill="#f8fafc"/>
                  <path id="Trazado_876104" data-name="Trazado 876104" d="M3.89,33.887a1.945,1.945,0,1,1-1.945-1.945A1.948,1.948,0,0,1,3.89,33.887" fill="#f8fafc"/>
                  <path id="Trazado_876105" data-name="Trazado 876105" d="M3.89,97.771a1.945,1.945,0,1,1-1.945-1.945A1.948,1.948,0,0,1,3.89,97.771" fill="#f8fafc"/>
                  <path id="Trazado_876106" data-name="Trazado 876106" d="M19.861,87.124a1.945,1.945,0,1,1-1.945-1.945,1.948,1.948,0,0,1,1.945,1.945" fill="#f8fafc"/>
                  <path id="Trazado_876107" data-name="Trazado 876107" d="M19.861,65.829a1.945,1.945,0,1,1-1.945-1.945,1.948,1.948,0,0,1,1.945,1.945" fill="#f8fafc"/>
                  <path id="Trazado_876108" data-name="Trazado 876108" d="M19.861,44.534a1.945,1.945,0,1,1-1.945-1.945,1.948,1.948,0,0,1,1.945,1.945" fill="#f8fafc"/>
                  <path id="Trazado_876109" data-name="Trazado 876109" d="M19.861,23.24A1.945,1.945,0,1,1,17.916,21.3a1.948,1.948,0,0,1,1.945,1.945" fill="#f8fafc"/>
                  <path id="Trazado_876110" data-name="Trazado 876110" d="M19.861,1.945A1.945,1.945,0,1,1,17.916,0a1.948,1.948,0,0,1,1.945,1.945" fill="#f8fafc"/>
                  <path id="Trazado_876111" data-name="Trazado 876111" d="M35.832,97.771a1.945,1.945,0,1,1-1.945-1.945,1.948,1.948,0,0,1,1.945,1.945" fill="#f8fafc"/>
                  <path id="Trazado_876112" data-name="Trazado 876112" d="M35.832,12.592a1.945,1.945,0,1,1-1.945-1.945,1.948,1.948,0,0,1,1.945,1.945" fill="#f8fafc"/>
                  <path id="Trazado_876113" data-name="Trazado 876113" d="M35.832,33.887a1.945,1.945,0,1,1-1.945-1.945,1.948,1.948,0,0,1,1.945,1.945" fill="#f8fafc"/>
                  <path id="Trazado_876114" data-name="Trazado 876114" d="M35.832,76.476a1.945,1.945,0,1,1-1.945-1.945,1.948,1.948,0,0,1,1.945,1.945" fill="#f8fafc"/>
                  <path id="Trazado_876115" data-name="Trazado 876115" d="M35.832,55.182a1.945,1.945,0,1,1-1.945-1.945,1.948,1.948,0,0,1,1.945,1.945" fill="#f8fafc"/>
                  <path id="Trazado_876116" data-name="Trazado 876116" d="M51.8,87.124a1.945,1.945,0,1,1-1.945-1.945A1.948,1.948,0,0,1,51.8,87.124" fill="#f8fafc"/>
                  <path id="Trazado_876117" data-name="Trazado 876117" d="M51.8,23.24A1.945,1.945,0,1,1,49.858,21.3,1.948,1.948,0,0,1,51.8,23.24" fill="#f8fafc"/>
                  <path id="Trazado_876118" data-name="Trazado 876118" d="M51.8,65.829a1.945,1.945,0,1,1-1.945-1.945A1.948,1.948,0,0,1,51.8,65.829" fill="#f8fafc"/>
                  <path id="Trazado_876119" data-name="Trazado 876119" d="M51.8,44.534a1.945,1.945,0,1,1-1.945-1.945A1.948,1.948,0,0,1,51.8,44.534" fill="#f8fafc"/>
                  <path id="Trazado_876120" data-name="Trazado 876120" d="M67.774,12.592a1.945,1.945,0,1,1-1.945-1.945,1.948,1.948,0,0,1,1.945,1.945" fill="#f8fafc"/>
                  <path id="Trazado_876121" data-name="Trazado 876121" d="M67.774,76.476a1.945,1.945,0,1,1-1.945-1.945,1.948,1.948,0,0,1,1.945,1.945" fill="#f8fafc"/>
                  <path id="Trazado_876122" data-name="Trazado 876122" d="M51.8,1.945A1.945,1.945,0,1,1,49.858,0,1.948,1.948,0,0,1,51.8,1.945" fill="#f8fafc"/>
                  <path id="Trazado_876123" data-name="Trazado 876123" d="M67.774,97.771a1.945,1.945,0,1,1-1.945-1.945,1.948,1.948,0,0,1,1.945,1.945" fill="#f8fafc"/>
                  <path id="Trazado_876124" data-name="Trazado 876124" d="M67.774,55.182a1.945,1.945,0,1,1-1.945-1.945,1.948,1.948,0,0,1,1.945,1.945" fill="#f8fafc"/>
                  <path id="Trazado_876125" data-name="Trazado 876125" d="M67.774,33.887a1.945,1.945,0,1,1-1.945-1.945,1.948,1.948,0,0,1,1.945,1.945" fill="#f8fafc"/>
                  <path id="Trazado_876126" data-name="Trazado 876126" d="M83.745,87.124A1.945,1.945,0,1,1,81.8,85.179a1.948,1.948,0,0,1,1.945,1.945" fill="#f8fafc"/>
                  <path id="Trazado_876127" data-name="Trazado 876127" d="M83.745,65.829A1.945,1.945,0,1,1,81.8,63.884a1.948,1.948,0,0,1,1.945,1.945" fill="#f8fafc"/>
                  <path id="Trazado_876128" data-name="Trazado 876128" d="M83.745,44.534A1.945,1.945,0,1,1,81.8,42.589a1.948,1.948,0,0,1,1.945,1.945" fill="#f8fafc"/>
                  <path id="Trazado_876129" data-name="Trazado 876129" d="M83.745,23.24A1.945,1.945,0,1,1,81.8,21.3a1.948,1.948,0,0,1,1.945,1.945" fill="#f8fafc"/>
                  <path id="Trazado_876130" data-name="Trazado 876130" d="M83.745,1.945A1.945,1.945,0,1,1,81.8,0a1.948,1.948,0,0,1,1.945,1.945" fill="#f8fafc"/>
                  <path id="Trazado_876131" data-name="Trazado 876131" d="M99.716,33.887a1.945,1.945,0,1,1-1.945-1.945,1.948,1.948,0,0,1,1.945,1.945" fill="#f8fafc"/>
                  <path id="Trazado_876132" data-name="Trazado 876132" d="M99.716,76.476a1.945,1.945,0,1,1-1.945-1.945,1.948,1.948,0,0,1,1.945,1.945" fill="#f8fafc"/>
                  <path id="Trazado_876133" data-name="Trazado 876133" d="M99.716,12.592a1.945,1.945,0,1,1-1.945-1.945,1.948,1.948,0,0,1,1.945,1.945" fill="#f8fafc"/>
                  <path id="Trazado_876134" data-name="Trazado 876134" d="M99.716,97.771a1.945,1.945,0,1,1-1.945-1.945,1.948,1.948,0,0,1,1.945,1.945" fill="#f8fafc"/>
                  <path id="Trazado_876135" data-name="Trazado 876135" d="M99.716,55.182a1.945,1.945,0,1,1-1.945-1.945,1.948,1.948,0,0,1,1.945,1.945" fill="#f8fafc"/>
                </g>
              </g>
              <g id="Grupo_1102219" data-name="Grupo 1102219" transform="translate(-13290 -12586.391)">
                <g id="Grupo_1102218" data-name="Grupo 1102218" clip-path="url(#clip-path-5)">
                  <path id="Trazado_876136" data-name="Trazado 876136" d="M3.89,55.182a1.945,1.945,0,1,1-1.945-1.945A1.948,1.948,0,0,1,3.89,55.182" fill="#ffcf64"/>
                  <path id="Trazado_876137" data-name="Trazado 876137" d="M3.89,12.592a1.945,1.945,0,1,1-1.945-1.945A1.948,1.948,0,0,1,3.89,12.592" fill="#ffcf64"/>
                  <path id="Trazado_876138" data-name="Trazado 876138" d="M3.89,76.476a1.945,1.945,0,1,1-1.945-1.945A1.948,1.948,0,0,1,3.89,76.476" fill="#ffcf64"/>
                  <path id="Trazado_876139" data-name="Trazado 876139" d="M3.89,33.887a1.945,1.945,0,1,1-1.945-1.945A1.948,1.948,0,0,1,3.89,33.887" fill="#ffcf64"/>
                  <path id="Trazado_876140" data-name="Trazado 876140" d="M3.89,97.771a1.945,1.945,0,1,1-1.945-1.945A1.948,1.948,0,0,1,3.89,97.771" fill="#ffcf64"/>
                  <path id="Trazado_876141" data-name="Trazado 876141" d="M19.861,87.124a1.945,1.945,0,1,1-1.945-1.945,1.948,1.948,0,0,1,1.945,1.945" fill="#ffcf64"/>
                  <path id="Trazado_876142" data-name="Trazado 876142" d="M19.861,65.829a1.945,1.945,0,1,1-1.945-1.945,1.948,1.948,0,0,1,1.945,1.945" fill="#ffcf64"/>
                  <path id="Trazado_876143" data-name="Trazado 876143" d="M19.861,44.534a1.945,1.945,0,1,1-1.945-1.945,1.948,1.948,0,0,1,1.945,1.945" fill="#ffcf64"/>
                  <path id="Trazado_876144" data-name="Trazado 876144" d="M19.861,23.24A1.945,1.945,0,1,1,17.916,21.3a1.948,1.948,0,0,1,1.945,1.945" fill="#ffcf64"/>
                  <path id="Trazado_876145" data-name="Trazado 876145" d="M19.861,1.945A1.945,1.945,0,1,1,17.916,0a1.948,1.948,0,0,1,1.945,1.945" fill="#ffcf64"/>
                  <path id="Trazado_876146" data-name="Trazado 876146" d="M35.832,97.771a1.945,1.945,0,1,1-1.945-1.945,1.948,1.948,0,0,1,1.945,1.945" fill="#ffcf64"/>
                  <path id="Trazado_876147" data-name="Trazado 876147" d="M35.832,12.592a1.945,1.945,0,1,1-1.945-1.945,1.948,1.948,0,0,1,1.945,1.945" fill="#ffcf64"/>
                  <path id="Trazado_876148" data-name="Trazado 876148" d="M35.832,33.887a1.945,1.945,0,1,1-1.945-1.945,1.948,1.948,0,0,1,1.945,1.945" fill="#ffcf64"/>
                  <path id="Trazado_876149" data-name="Trazado 876149" d="M35.832,76.476a1.945,1.945,0,1,1-1.945-1.945,1.948,1.948,0,0,1,1.945,1.945" fill="#ffcf64"/>
                  <path id="Trazado_876150" data-name="Trazado 876150" d="M35.832,55.182a1.945,1.945,0,1,1-1.945-1.945,1.948,1.948,0,0,1,1.945,1.945" fill="#ffcf64"/>
                  <path id="Trazado_876151" data-name="Trazado 876151" d="M51.8,87.124a1.945,1.945,0,1,1-1.945-1.945A1.948,1.948,0,0,1,51.8,87.124" fill="#ffcf64"/>
                  <path id="Trazado_876152" data-name="Trazado 876152" d="M51.8,23.24A1.945,1.945,0,1,1,49.858,21.3,1.948,1.948,0,0,1,51.8,23.24" fill="#ffcf64"/>
                  <path id="Trazado_876153" data-name="Trazado 876153" d="M51.8,65.829a1.945,1.945,0,1,1-1.945-1.945A1.948,1.948,0,0,1,51.8,65.829" fill="#ffcf64"/>
                  <path id="Trazado_876154" data-name="Trazado 876154" d="M51.8,44.534a1.945,1.945,0,1,1-1.945-1.945A1.948,1.948,0,0,1,51.8,44.534" fill="#ffcf64"/>
                  <path id="Trazado_876155" data-name="Trazado 876155" d="M67.774,12.592a1.945,1.945,0,1,1-1.945-1.945,1.948,1.948,0,0,1,1.945,1.945" fill="#ffcf64"/>
                  <path id="Trazado_876156" data-name="Trazado 876156" d="M67.774,76.476a1.945,1.945,0,1,1-1.945-1.945,1.948,1.948,0,0,1,1.945,1.945" fill="#ffcf64"/>
                  <path id="Trazado_876157" data-name="Trazado 876157" d="M51.8,1.945A1.945,1.945,0,1,1,49.858,0,1.948,1.948,0,0,1,51.8,1.945" fill="#ffcf64"/>
                  <path id="Trazado_876158" data-name="Trazado 876158" d="M67.774,97.771a1.945,1.945,0,1,1-1.945-1.945,1.948,1.948,0,0,1,1.945,1.945" fill="#ffcf64"/>
                  <path id="Trazado_876159" data-name="Trazado 876159" d="M67.774,55.182a1.945,1.945,0,1,1-1.945-1.945,1.948,1.948,0,0,1,1.945,1.945" fill="#ffcf64"/>
                  <path id="Trazado_876160" data-name="Trazado 876160" d="M67.774,33.887a1.945,1.945,0,1,1-1.945-1.945,1.948,1.948,0,0,1,1.945,1.945" fill="#ffcf64"/>
                  <path id="Trazado_876161" data-name="Trazado 876161" d="M83.745,87.124A1.945,1.945,0,1,1,81.8,85.179a1.948,1.948,0,0,1,1.945,1.945" fill="#ffcf64"/>
                  <path id="Trazado_876162" data-name="Trazado 876162" d="M83.745,65.829A1.945,1.945,0,1,1,81.8,63.884a1.948,1.948,0,0,1,1.945,1.945" fill="#ffcf64"/>
                  <path id="Trazado_876163" data-name="Trazado 876163" d="M83.745,44.534A1.945,1.945,0,1,1,81.8,42.589a1.948,1.948,0,0,1,1.945,1.945" fill="#ffcf64"/>
                  <path id="Trazado_876164" data-name="Trazado 876164" d="M83.745,23.24A1.945,1.945,0,1,1,81.8,21.3a1.948,1.948,0,0,1,1.945,1.945" fill="#ffcf64"/>
                  <path id="Trazado_876165" data-name="Trazado 876165" d="M83.745,1.945A1.945,1.945,0,1,1,81.8,0a1.948,1.948,0,0,1,1.945,1.945" fill="#ffcf64"/>
                  <path id="Trazado_876166" data-name="Trazado 876166" d="M99.716,33.887a1.945,1.945,0,1,1-1.945-1.945,1.948,1.948,0,0,1,1.945,1.945" fill="#ffcf64"/>
                  <path id="Trazado_876167" data-name="Trazado 876167" d="M99.716,76.476a1.945,1.945,0,1,1-1.945-1.945,1.948,1.948,0,0,1,1.945,1.945" fill="#ffcf64"/>
                  <path id="Trazado_876168" data-name="Trazado 876168" d="M99.716,12.592a1.945,1.945,0,1,1-1.945-1.945,1.948,1.948,0,0,1,1.945,1.945" fill="#ffcf64"/>
                  <path id="Trazado_876169" data-name="Trazado 876169" d="M99.716,97.771a1.945,1.945,0,1,1-1.945-1.945,1.948,1.948,0,0,1,1.945,1.945" fill="#ffcf64"/>
                  <path id="Trazado_876170" data-name="Trazado 876170" d="M99.716,55.182a1.945,1.945,0,1,1-1.945-1.945,1.948,1.948,0,0,1,1.945,1.945" fill="#ffcf64"/>
                </g>
              </g>
            </g>
          </g>
          <g id="Grupo_1102220" data-name="Grupo 1102220" transform="translate(-14182.111 -11551.666)">
            <g id="Grupo_1101607" data-name="Grupo 1101607" transform="translate(0 0)" clip-path="url(#clip-path-6)">
              <path id="Trazado_874481" data-name="Trazado 874481" d="M58.555,23.581a11.477,11.477,0,0,1-2.621-.3.407.407,0,0,1-.3-.485l.343-1.514a9.655,9.655,0,0,1-2.594-1.125l-.88,1.289a.406.406,0,0,1-.262.171.413.413,0,0,1-.305-.066A11.906,11.906,0,0,1,47.9,16.875a.406.406,0,0,1,.19-.538l1.394-.677a9.765,9.765,0,0,1-.739-2.739l-1.543.121a.406.406,0,0,1-.437-.374,11.662,11.662,0,0,1,1.138-6.086.406.406,0,0,1,.541-.185l1.392.671A9.887,9.887,0,0,1,51.52,4.788L50.459,3.653a.407.407,0,0,1,.013-.568,11.422,11.422,0,0,1,2.536-1.816l.261-.131A8.7,8.7,0,0,1,54.455.617l.237-.084c.164-.06.328-.119.494-.167l.743-.188a.414.414,0,0,1,.312.048.407.407,0,0,1,.184.257L56.766,2A10.085,10.085,0,0,1,59.6,1.884L59.831.347A.4.4,0,0,1,60.282,0a11.49,11.49,0,0,1,3,.846L63.6,1a9.4,9.4,0,0,1,1.1.582,11.251,11.251,0,0,1,1.262.875.407.407,0,0,1,.072.576l-.97,1.217a9.849,9.849,0,0,1,1.857,2.144l1.336-.782a.407.407,0,0,1,.553.14l.433.808c.094.193.19.391.278.593.056.155.1.283.152.412a8.29,8.29,0,0,1,.353,1.092,12.139,12.139,0,0,1,.41,3.059.406.406,0,0,1-.406.419H68.47a9.744,9.744,0,0,1-.525,2.791l1.447.559a.407.407,0,0,1,.235.52l-.036.1c-.033.1-.067.188-.107.278l-.262.545c-.082.168-.164.335-.253.5l-.172.289a9.039,9.039,0,0,1-.679,1.039,11.748,11.748,0,0,1-2.148,2.238.394.394,0,0,1-.3.09.4.4,0,0,1-.275-.15l-.97-1.213a9.96,9.96,0,0,1-2.506,1.332l.47,1.49a.407.407,0,0,1-.271.512,12.471,12.471,0,0,1-3.564.527m-2.04-1.006a11.262,11.262,0,0,0,4.974-.189l-.464-1.471a.406.406,0,0,1,.267-.51,9.163,9.163,0,0,0,2.952-1.568.407.407,0,0,1,.57.065l.957,1.2a10.571,10.571,0,0,0,1.7-1.833A8.457,8.457,0,0,0,68.1,17.3l.166-.279c.074-.138.152-.3.229-.453l.228-.475-1.441-.558a.406.406,0,0,1-.232-.528,8.939,8.939,0,0,0,.619-3.283.406.406,0,0,1,.406-.406H69.6a10.506,10.506,0,0,0-.366-2.459,7.8,7.8,0,0,0-.329-1.013c-.05-.134-.1-.267-.148-.4-.072-.164-.163-.351-.252-.532l-.193-.4L66.984,7.3a.41.41,0,0,1-.309.042.4.4,0,0,1-.247-.189,9.056,9.056,0,0,0-2.186-2.526.406.406,0,0,1-.064-.571l.958-1.2a8.35,8.35,0,0,0-.859-.576,8.814,8.814,0,0,0-1.024-.543l-.3-.143A11.4,11.4,0,0,0,60.576.868l-.227,1.527a.406.406,0,0,1-.459.343,9.1,9.1,0,0,0-3.336.138.4.4,0,0,1-.31-.05.406.406,0,0,1-.182-.255l-.339-1.5L55.4,1.15c-.136.039-.281.093-.429.146l-.256.091a7.886,7.886,0,0,0-1.079.478l-.249.124A11.364,11.364,0,0,0,51.331,3.4l1.055,1.13a.407.407,0,0,1-.02.575,9.068,9.068,0,0,0-1.979,2.684.4.4,0,0,1-.542.188l-1.382-.666a10.85,10.85,0,0,0-.908,4.893l1.528-.12a.406.406,0,0,1,.437.375,8.985,8.985,0,0,0,.868,3.222.406.406,0,0,1-.189.541l-1.382.671a11.112,11.112,0,0,0,3.248,3.757l.869-1.274a.407.407,0,0,1,.565-.108,8.86,8.86,0,0,0,3.051,1.323.407.407,0,0,1,.307.486Z" transform="translate(-18.803 0)" fill="#fff"/>
              <path id="Trazado_874482" data-name="Trazado 874482" d="M93.076,51.264c0-.163,0-.322-.009-.482,1.171-.207,2.338-.46,3.5-.764a15,15,0,0,0-3.151-8.034c-1.051.561-2.086,1.171-3.093,1.821a11.328,11.328,0,0,0-1.953-1.812q.855-1.578,1.591-3.226a14.961,14.961,0,0,0-8.25-2.541c-.217,1.18-.385,2.369-.5,3.558a11.267,11.267,0,0,0-2.639.393c-.464-1.1-.977-2.187-1.533-3.252a15.058,15.058,0,0,0-7.124,4.865Q71.1,43.149,72.373,44.4a11.758,11.758,0,0,0-1.335,2.315c-1.149-.323-2.315-.6-3.487-.827a15.116,15.116,0,0,0-.65,8.6c1.2-.048,2.4-.15,3.58-.3a11.194,11.194,0,0,0,.972,2.483Q70,57.721,68.635,58.887a14.542,14.542,0,0,0,2.731,3.389,14.291,14.291,0,0,0,3.588,2.471q1.067-1.459,1.993-2.974a11.109,11.109,0,0,0,2.554.782c-.057,1.185-.066,2.377-.026,3.588l.544.075c.181.018.362.027.543.035.363.018.725.044,1.087.049a16.183,16.183,0,0,0,2.174-.182,14.73,14.73,0,0,0,2.139-.468c.349-.106.69-.239,1.034-.363a8.351,8.351,0,0,0,1-.433c-.318-1.162-.681-2.3-1.087-3.416v0a11.012,11.012,0,0,0,2.205-1.5c.892.787,1.816,1.538,2.784,2.258a14.921,14.921,0,0,0,4.313-7.469q-1.644-.709-3.35-1.281a11.024,11.024,0,0,0,.212-2.179m-5.245.04a6.19,6.19,0,0,1-.115,1.184c.619.207,1.224.442,1.82.7a8.1,8.1,0,0,1-2.346,4.066c-.526-.393-1.03-.8-1.516-1.229a6.166,6.166,0,0,1-1.2.818c.221.61.415,1.229.592,1.86a5.381,5.381,0,0,1-.547.234c-.186.066-.372.142-.562.2a8.06,8.06,0,0,1-1.167.252,8.764,8.764,0,0,1-1.184.1c-.195,0-.393-.017-.588-.026-.1,0-.2-.009-.3-.022l-.3-.039c-.022-.659-.017-1.308.014-1.954a5.947,5.947,0,0,1-1.392-.424c-.336.553-.7,1.087-1.082,1.618a8.187,8.187,0,0,1-3.438-3.187q.736-.636,1.534-1.206a6.193,6.193,0,0,1-.531-1.352c-.641.079-1.294.133-1.949.159a8.254,8.254,0,0,1,.354-4.679c.636.124,1.273.274,1.9.451a6.363,6.363,0,0,1,.724-1.26c-.464-.451-.91-.928-1.339-1.418A8.121,8.121,0,0,1,79.1,43.5c.3.579.583,1.171.835,1.768a6.155,6.155,0,0,1,1.436-.212c.066-.65.155-1.294.274-1.935A8.087,8.087,0,0,1,86.134,44.5c-.265.6-.556,1.18-.866,1.755a6.265,6.265,0,0,1,1.065.985c.548-.353,1.109-.685,1.684-.99a8.192,8.192,0,0,1,1.715,4.37c-.632.168-1.269.3-1.9.415,0,.088,0,.177,0,.265" transform="translate(-26.782 -14.576)" fill="#868c90"/>
              <path id="Trazado_874483" data-name="Trazado 874483" d="M92.735,59.188a3.271,3.271,0,1,1-3.27-3.273,3.274,3.274,0,0,1,3.27,3.273" transform="translate(-34.682 -22.499)" fill="#868c90"/>
              <path id="Trazado_874484" data-name="Trazado 874484" d="M33.523,45.314h3.135a18.888,18.888,0,0,0-.65-4.779,19.5,19.5,0,0,0-.772-2.3c-.158-.369-.339-.731-.514-1.094l-.264-.544-.31-.521-2.7,1.573A15.156,15.156,0,0,0,27.8,33.43l1.954-2.445a17.65,17.65,0,0,0-1.989-1.374,18.645,18.645,0,0,0-2.146-1.117,18.385,18.385,0,0,0-4.65-1.31l-.45,3.088a15.079,15.079,0,0,0-2.2-.158,14.67,14.67,0,0,0-3.38.386l-.7-3.053-1.17.3c-.392.105-.766.264-1.146.4a17.607,17.607,0,0,0-2.211.982A18.438,18.438,0,0,0,5.8,31.939l2.135,2.281a15.259,15.259,0,0,0-3.31,4.491L1.814,37.36a18.194,18.194,0,0,0-1.76,9.4l3.111-.24A15.2,15.2,0,0,0,4.621,51.91L1.814,53.267a18.536,18.536,0,0,0,6.24,7.24l1.761-2.6a14.877,14.877,0,0,0,5.123,2.217l-.7,3.053a18.675,18.675,0,0,0,9.561-.363l-.941-2.994A15.188,15.188,0,0,0,27.8,57.2l1.954,2.445a18.427,18.427,0,0,0,3.333-3.48,19.9,19.9,0,0,0,1.31-2.03c.193-.357.363-.725.538-1.088l.257-.544c.082-.187.146-.38.216-.567L32.494,50.8a15.018,15.018,0,0,0,1.029-5.491M18.329,58.127A12.769,12.769,0,1,1,31.1,45.36,12.779,12.779,0,0,1,18.329,58.127" transform="translate(0 -10.938)" fill="#ffcf64"/>
              <path id="Trazado_874485" data-name="Trazado 874485" d="M23.255,39.162A11.015,11.015,0,1,0,34.273,50.18,11.028,11.028,0,0,0,23.255,39.162m0,16.86A5.845,5.845,0,1,1,29.1,50.18a5.845,5.845,0,0,1-5.848,5.842" transform="translate(-4.926 -15.758)" fill="#ffcf64"/>
            </g>
          </g>
          <g id="Grupo_1102221" data-name="Grupo 1102221" transform="translate(-14104.292 -11191.216)">
            <g id="Grupo_1101601" data-name="Grupo 1101601" clip-path="url(#clip-path-7)">
              <path id="Trazado_874406" data-name="Trazado 874406" d="M.68,20.373a.68.68,0,0,1-.68-.68V.68A.678.678,0,0,1,.34.092a.673.673,0,0,1,.68,0L17.485,9.6a.679.679,0,0,1,0,1.177L1.02,20.282a.675.675,0,0,1-.34.091M1.36,1.858V18.515l14.425-8.328Z" fill="#fff"/>
              <path id="Trazado_874407" data-name="Trazado 874407" d="M26.716,20.373a.68.68,0,0,1-.68-.68V.68a.678.678,0,0,1,.34-.588.673.673,0,0,1,.68,0L43.521,9.6a.679.679,0,0,1,0,1.177L27.056,20.282a.675.675,0,0,1-.34.091M27.4,1.858V18.515l14.425-8.328Z" fill="#fff"/>
              <path id="Trazado_874408" data-name="Trazado 874408" d="M52.751,20.373a.68.68,0,0,1-.68-.68V.68a.678.678,0,0,1,.34-.588.673.673,0,0,1,.68,0L69.556,9.6a.679.679,0,0,1,0,1.177L53.091,20.282a.675.675,0,0,1-.34.091m.68-18.515V18.515l14.425-8.328Z" fill="#fff"/>
              <path id="Trazado_874409" data-name="Trazado 874409" d="M78.787,20.373a.68.68,0,0,1-.68-.68V.68a.678.678,0,0,1,.34-.588.673.673,0,0,1,.68,0L95.592,9.6a.679.679,0,0,1,0,1.177L79.127,20.282a.675.675,0,0,1-.34.091m.68-18.515V18.515l14.425-8.328Z" fill="#fff"/>
              <path id="Trazado_874410" data-name="Trazado 874410" d="M104.822,20.373a.68.68,0,0,1-.68-.68V.68a.678.678,0,0,1,.34-.588.673.673,0,0,1,.68,0L121.627,9.6a.679.679,0,0,1,0,1.177l-16.465,9.507a.675.675,0,0,1-.34.091m.68-18.515V18.515l14.425-8.328Z" fill="#fff"/>
            </g>
          </g>
          <g id="Grupo_1102222" data-name="Grupo 1102222" transform="translate(-2044 993.551)">
            <path id="Trazado_874772" data-name="Trazado 874772" d="M274.36,79.027,281.087,61.4h7.884l-6.726,17.631Z" transform="translate(-11912.752 -12285.564)" fill="#ffcf64"/>
            <path id="Trazado_874773" data-name="Trazado 874773" d="M295.54,79.027,302.267,61.4h7.884l-6.726,17.631Z" transform="translate(-11916.498 -12285.564)" fill="#ffcf64"/>
            <path id="Trazado_874774" data-name="Trazado 874774" d="M316.72,79.027,323.447,61.4h7.884L324.6,79.027Z" transform="translate(-11920.243 -12285.564)" fill="#ffcf64"/>
            <path id="Trazado_874775" data-name="Trazado 874775" d="M337.9,79.027,344.626,61.4h7.884l-6.726,17.631Z" transform="translate(-11923.989 -12285.564)" fill="#ffcf64"/>
            <path id="Trazado_874776" data-name="Trazado 874776" d="M359.08,79.027,365.806,61.4h7.884l-6.726,17.631Z" transform="translate(-11927.735 -12285.564)" fill="#ffcf64"/>
            <path id="Trazado_874777" data-name="Trazado 874777" d="M380.259,79.027,386.986,61.4h7.884l-6.726,17.631Z" transform="translate(-11931.481 -12285.564)" fill="#ffcf64"/>
            <path id="Trazado_874778" data-name="Trazado 874778" d="M401.439,79.027,408.166,61.4h7.884l-6.726,17.631Z" transform="translate(-11935.227 -12285.564)" fill="#ffcf64"/>
            <path id="Trazado_874779" data-name="Trazado 874779" d="M422.619,79.027,429.346,61.4h7.884L430.5,79.027Z" transform="translate(-11938.973 -12285.564)" fill="#ffcf64"/>
          </g>
        </g>
      </g>
    </g>
  </g>
</svg>
