<svg xmlns="http://www.w3.org/2000/svg" xmlns:xlink="http://www.w3.org/1999/xlink" width="1244" height="546.454" viewBox="0 0 1244 546.454">
  <defs>
    <clipPath id="clip-path">
      <rect width="1244" height="546.454" fill="none"/>
    </clipPath>
    <clipPath id="clip-path-2">
      <rect id="Rectángulo_403548" data-name="Rectángulo 403548" width="116" height="310" transform="translate(158.684 4.065)" fill="#fff"/>
    </clipPath>
    <filter id="Trazado_874371" x="-160.684" y="264.389" width="304.369" height="304.576" filterUnits="userSpaceOnUse">
      <feOffset dx="3" dy="3" input="SourceAlpha"/>
      <feGaussianBlur stdDeviation="3" result="blur"/>
      <feFlood flood-opacity="0.161"/>
      <feComposite operator="in" in2="blur"/>
      <feComposite in="SourceGraphic"/>
    </filter>
    <filter id="Trazado_874371-2" x="363.49" y="-164.684" width="304.576" height="304.369" filterUnits="userSpaceOnUse">
      <feOffset dx="3" dy="3" input="SourceAlpha"/>
      <feGaussianBlur stdDeviation="3" result="blur-2"/>
      <feFlood flood-opacity="0.161"/>
      <feComposite operator="in" in2="blur-2"/>
      <feComposite in="SourceGraphic"/>
    </filter>
    <filter id="Trazado_874371-3" x="1110.315" y="152.398" width="304.369" height="304.576" filterUnits="userSpaceOnUse">
      <feOffset dx="3" dy="3" input="SourceAlpha"/>
      <feGaussianBlur stdDeviation="3" result="blur-3"/>
      <feFlood flood-opacity="0.161"/>
      <feComposite operator="in" in2="blur-3"/>
      <feComposite in="SourceGraphic"/>
    </filter>
    <clipPath id="clip-path-5">
      <rect id="Rectángulo_403752" data-name="Rectángulo 403752" width="167" height="102" transform="translate(-6418.666 -10051.041)" fill="#c10000" stroke="#707070" stroke-width="1"/>
    </clipPath>
    <clipPath id="clip-path-6">
      <rect id="Rectángulo_403751" data-name="Rectángulo 403751" width="123.346" height="75.417" transform="translate(-6419 -10051)" fill="#c10000" stroke="#707070" stroke-width="1"/>
    </clipPath>
  </defs>
  <g id="Grupo_de_desplazamiento_1" data-name="Grupo de desplazamiento 1" clip-path="url(#clip-path)" style="isolation: isolate">
    <g id="Grupo_1111243" data-name="Grupo 1111243" transform="translate(3881.644 9898.104)">
      <g id="Grupo_1111242" data-name="Grupo 1111242">
        <g id="Grupo_1111241" data-name="Grupo 1111241">
          <g id="Grupo_1111240" data-name="Grupo 1111240">
            <g id="Grupo_1111239" data-name="Grupo 1111239">
              <g id="Grupo_1111238" data-name="Grupo 1111238">
                <g id="Grupo_1111237" data-name="Grupo 1111237">
                  <g id="Grupo_1108915" data-name="Grupo 1108915" transform="translate(-3877.644 -9898.104)">
                    <path id="Trazado_730055" data-name="Trazado 730055" d="M23,0H1217c12.7,0,23,10.821,23,24.17V521.235c0,13.349-10.3,24.17-23,24.17H23c-12.7,0-23-10.821-23-24.17V24.17C0,10.821,10.3,0,23,0Z" transform="translate(0 0)" fill="#e69999"/>
                  </g>
                  <g id="Componente_3_24" data-name="Componente 3 – 24" transform="translate(-3877.644 -9623.65)">
                    <g id="Enmascarar_grupo_1101641" data-name="Enmascarar grupo 1101641" transform="translate(-158.684 -4.065)" clip-path="url(#clip-path-2)">
                      <g transform="matrix(1, 0, 0, 1, 154.68, -270.39)" filter="url(#Trazado_874371)">
                        <path id="Trazado_874371-4" data-name="Trazado 874371" d="M164.77,483.141a99.262,99.262,0,0,1-22.651-2.584,1.206,1.206,0,0,1-.9-1.439l3.556-15.689a83.114,83.114,0,0,1-26.494-11.485l-9.1,13.351a1.205,1.205,0,0,1-1.681.31A102.961,102.961,0,0,1,72.608,425.12a1.2,1.2,0,0,1,.564-1.595l14.423-7a84.734,84.734,0,0,1-7.535-27.969l-15.981,1.254a1.257,1.257,0,0,1-.878-.286,1.2,1.2,0,0,1-.418-.824,100.778,100.778,0,0,1,9.836-52.643,1.2,1.2,0,0,1,1.6-.547l14.418,6.947a85.133,85.133,0,0,1,17.174-23.27l-10.985-11.76a1.2,1.2,0,0,1,.036-1.681c5.676-5.577,12.651-10.566,21.951-15.7l1.968-.987a77.772,77.772,0,0,1,10.422-4.608c.759-.258,1.519-.535,2.277-.81,1.332-.486,2.71-.988,4.11-1.389l6.507-1.647a1.2,1.2,0,0,1,1.469.9l3.554,15.725a81.845,81.845,0,0,1,17.8-1.893,88.95,88.95,0,0,1,11.167.7l2.347-15.907a1.206,1.206,0,0,1,1.337-1.02c7.8.95,16.3,3.35,25.981,7.339.909.437,1.753.835,2.6,1.233a80.585,80.585,0,0,1,9.513,5.033,100.474,100.474,0,0,1,11.027,7.648,1.206,1.206,0,0,1,.211,1.707l-10.029,12.6a84.79,84.79,0,0,1,18.953,21.9l13.849-8.1a1.2,1.2,0,0,1,1.635.411l1.75,2.857,2.188,4.529c.742,1.53,1.508,3.113,2.207,4.724.439,1.242.874,2.4,1.309,3.561a72.4,72.4,0,0,1,3.03,9.35c2.7,9.122,3.314,18.582,3.562,26.623a1.2,1.2,0,0,1-1.2,1.242H250.255a83.973,83.973,0,0,1-5.373,28.5l15,5.81a1.2,1.2,0,0,1,.7,1.535l-.317.9c-.277.79-.553,1.576-.887,2.329l-2.282,4.733c-.7,1.428-1.425,2.905-2.209,4.332-.486.81-.942,1.585-1.4,2.36a78.416,78.416,0,0,1-5.906,9.046,101.791,101.791,0,0,1-18.658,19.448,1.179,1.179,0,0,1-.891.267,1.2,1.2,0,0,1-.814-.447l-10.029-12.557a85.925,85.925,0,0,1-25.6,13.6l4.871,15.425a1.2,1.2,0,0,1-.8,1.516,108.056,108.056,0,0,1-30.883,4.576m-20.936-4.663a101.93,101.93,0,0,0,49.954-1.878l-4.862-15.4a1.2,1.2,0,0,1,.789-1.511A83.557,83.557,0,0,0,216.637,445.4a1.2,1.2,0,0,1,1.687.193l10.009,12.528a98.262,98.262,0,0,0,17.321-18.255,76.879,76.879,0,0,0,5.755-8.82c.459-.781.918-1.562,1.386-2.338.733-1.337,1.414-2.725,2.134-4.192l2.256-4.68c.271-.607.5-1.265.737-1.928l-15.029-5.823a1.2,1.2,0,0,1-.687-1.564,81.582,81.582,0,0,0,5.648-29.951,1.2,1.2,0,0,1,1.2-1.2H265.1c-.269-7.61-.942-16.379-3.443-24.848a71.057,71.057,0,0,0-2.955-9.112c-.442-1.177-.883-2.351-1.3-3.527-.647-1.486-1.4-3.045-2.132-4.555l-2.134-4.426-1.074-1.746L238.2,339.259a1.2,1.2,0,0,1-1.649-.434A82.462,82.462,0,0,0,216.631,315.8a1.2,1.2,0,0,1-.191-1.691l10.007-12.572a88.978,88.978,0,0,0-9.838-6.759,77.647,77.647,0,0,0-9.293-4.913c-.848-.4-1.7-.8-2.549-1.213a100.351,100.351,0,0,0-24.127-6.994l-2.347,15.909a1.215,1.215,0,0,1-1.36,1.017,86.428,86.428,0,0,0-12.017-.839,78.828,78.828,0,0,0-18.421,2.1,1.189,1.189,0,0,1-.917-.147,1.2,1.2,0,0,1-.539-.758l-3.548-15.7-5.274,1.335c-1.281.367-2.559.833-3.911,1.325-.775.283-1.552.566-2.338.832a76.011,76.011,0,0,0-10.1,4.476l-1.933.967c-8.6,4.751-15.172,9.379-20.536,14.473l10.993,11.771a1.2,1.2,0,0,1-.058,1.7A82.777,82.777,0,0,0,90.272,344.59a1.205,1.205,0,0,1-1.606.558L74.253,338.2A98.387,98.387,0,0,0,65.1,387.319l15.968-1.254a1.25,1.25,0,0,1,.878.287,1.206,1.206,0,0,1,.417.825,82.336,82.336,0,0,0,7.913,29.4,1.2,1.2,0,0,1-.562,1.6L75.3,425.17a100.59,100.59,0,0,0,32.576,37.76l9.089-13.331a1.2,1.2,0,0,1,1.673-.317,80.758,80.758,0,0,0,27.841,12.07,1.2,1.2,0,0,1,.911,1.441Zm21.179-34.429a62.916,62.916,0,1,1,62.917-62.916,62.986,62.986,0,0,1-62.917,62.916m0-123.425a60.508,60.508,0,1,0,60.509,60.509,60.577,60.577,0,0,0-60.509-60.509" transform="matrix(0.6, 0.8, -0.8, 0.6, 193.57, 52.53)" fill="#fff"/>
                      </g>
                    </g>
                  </g>
                  <g id="Componente_3_25" data-name="Componente 3 – 25" transform="translate(-3229.644 -9898.104) rotate(90)">
                    <g id="Enmascarar_grupo_1101641-2" data-name="Enmascarar grupo 1101641" transform="translate(-158.684 -4.065)" clip-path="url(#clip-path-2)">
                      <g transform="matrix(0, -1, 1, 0, 158.68, 656.07)" filter="url(#Trazado_874371-2)">
                        <path id="Trazado_874371-5" data-name="Trazado 874371" d="M164.77,483.141a99.262,99.262,0,0,1-22.651-2.584,1.206,1.206,0,0,1-.9-1.439l3.556-15.689a83.114,83.114,0,0,1-26.494-11.485l-9.1,13.351a1.205,1.205,0,0,1-1.681.31A102.961,102.961,0,0,1,72.608,425.12a1.2,1.2,0,0,1,.564-1.595l14.423-7a84.734,84.734,0,0,1-7.535-27.969l-15.981,1.254a1.257,1.257,0,0,1-.878-.286,1.2,1.2,0,0,1-.418-.824,100.778,100.778,0,0,1,9.836-52.643,1.2,1.2,0,0,1,1.6-.547l14.418,6.947a85.133,85.133,0,0,1,17.174-23.27l-10.985-11.76a1.2,1.2,0,0,1,.036-1.681c5.676-5.577,12.651-10.566,21.951-15.7l1.968-.987a77.772,77.772,0,0,1,10.422-4.608c.759-.258,1.519-.535,2.277-.81,1.332-.486,2.71-.988,4.11-1.389l6.507-1.647a1.2,1.2,0,0,1,1.469.9l3.554,15.725a81.845,81.845,0,0,1,17.8-1.893,88.95,88.95,0,0,1,11.167.7l2.347-15.907a1.206,1.206,0,0,1,1.337-1.02c7.8.95,16.3,3.35,25.981,7.339.909.437,1.753.835,2.6,1.233a80.585,80.585,0,0,1,9.513,5.033,100.474,100.474,0,0,1,11.027,7.648,1.206,1.206,0,0,1,.211,1.707l-10.029,12.6a84.79,84.79,0,0,1,18.953,21.9l13.849-8.1a1.2,1.2,0,0,1,1.635.411l1.75,2.857,2.188,4.529c.742,1.53,1.508,3.113,2.207,4.724.439,1.242.874,2.4,1.309,3.561a72.4,72.4,0,0,1,3.03,9.35c2.7,9.122,3.314,18.582,3.562,26.623a1.2,1.2,0,0,1-1.2,1.242H250.255a83.973,83.973,0,0,1-5.373,28.5l15,5.81a1.2,1.2,0,0,1,.7,1.535l-.317.9c-.277.79-.553,1.576-.887,2.329l-2.282,4.733c-.7,1.428-1.425,2.905-2.209,4.332-.486.81-.942,1.585-1.4,2.36a78.416,78.416,0,0,1-5.906,9.046,101.791,101.791,0,0,1-18.658,19.448,1.179,1.179,0,0,1-.891.267,1.2,1.2,0,0,1-.814-.447l-10.029-12.557a85.925,85.925,0,0,1-25.6,13.6l4.871,15.425a1.2,1.2,0,0,1-.8,1.516,108.056,108.056,0,0,1-30.883,4.576m-20.936-4.663a101.93,101.93,0,0,0,49.954-1.878l-4.862-15.4a1.2,1.2,0,0,1,.789-1.511A83.557,83.557,0,0,0,216.637,445.4a1.2,1.2,0,0,1,1.687.193l10.009,12.528a98.262,98.262,0,0,0,17.321-18.255,76.879,76.879,0,0,0,5.755-8.82c.459-.781.918-1.562,1.386-2.338.733-1.337,1.414-2.725,2.134-4.192l2.256-4.68c.271-.607.5-1.265.737-1.928l-15.029-5.823a1.2,1.2,0,0,1-.687-1.564,81.582,81.582,0,0,0,5.648-29.951,1.2,1.2,0,0,1,1.2-1.2H265.1c-.269-7.61-.942-16.379-3.443-24.848a71.057,71.057,0,0,0-2.955-9.112c-.442-1.177-.883-2.351-1.3-3.527-.647-1.486-1.4-3.045-2.132-4.555l-2.134-4.426-1.074-1.746L238.2,339.259a1.2,1.2,0,0,1-1.649-.434A82.462,82.462,0,0,0,216.631,315.8a1.2,1.2,0,0,1-.191-1.691l10.007-12.572a88.978,88.978,0,0,0-9.838-6.759,77.647,77.647,0,0,0-9.293-4.913c-.848-.4-1.7-.8-2.549-1.213a100.351,100.351,0,0,0-24.127-6.994l-2.347,15.909a1.215,1.215,0,0,1-1.36,1.017,86.428,86.428,0,0,0-12.017-.839,78.828,78.828,0,0,0-18.421,2.1,1.189,1.189,0,0,1-.917-.147,1.2,1.2,0,0,1-.539-.758l-3.548-15.7-5.274,1.335c-1.281.367-2.559.833-3.911,1.325-.775.283-1.552.566-2.338.832a76.011,76.011,0,0,0-10.1,4.476l-1.933.967c-8.6,4.751-15.172,9.379-20.536,14.473l10.993,11.771a1.2,1.2,0,0,1-.058,1.7A82.777,82.777,0,0,0,90.272,344.59a1.205,1.205,0,0,1-1.606.558L74.253,338.2A98.387,98.387,0,0,0,65.1,387.319l15.968-1.254a1.25,1.25,0,0,1,.878.287,1.206,1.206,0,0,1,.417.825,82.336,82.336,0,0,0,7.913,29.4,1.2,1.2,0,0,1-.562,1.6L75.3,425.17a100.59,100.59,0,0,0,32.576,37.76l9.089-13.331a1.2,1.2,0,0,1,1.673-.317,80.758,80.758,0,0,0,27.841,12.07,1.2,1.2,0,0,1,.911,1.441Zm21.179-34.429a62.916,62.916,0,1,1,62.917-62.916,62.986,62.986,0,0,1-62.917,62.916m0-123.425a60.508,60.508,0,1,0,60.509,60.509,60.577,60.577,0,0,0-60.509-60.509" transform="matrix(-0.8, 0.6, -0.6, -0.8, 873.93, 189.57)" fill="#fff"/>
                      </g>
                    </g>
                  </g>
                  <g id="Componente_3_26" data-name="Componente 3 – 26" transform="translate(-2637.644 -9457.195) rotate(180)">
                    <g id="Enmascarar_grupo_1101641-3" data-name="Enmascarar grupo 1101641" transform="translate(-158.684 -4.065)" clip-path="url(#clip-path-2)">
                      <g transform="matrix(-1, 0, 0, -1, 1402.68, 444.97)" filter="url(#Trazado_874371-3)">
                        <path id="Trazado_874371-6" data-name="Trazado 874371" d="M164.77,483.141a99.262,99.262,0,0,1-22.651-2.584,1.206,1.206,0,0,1-.9-1.439l3.556-15.689a83.114,83.114,0,0,1-26.494-11.485l-9.1,13.351a1.205,1.205,0,0,1-1.681.31A102.961,102.961,0,0,1,72.608,425.12a1.2,1.2,0,0,1,.564-1.595l14.423-7a84.734,84.734,0,0,1-7.535-27.969l-15.981,1.254a1.257,1.257,0,0,1-.878-.286,1.2,1.2,0,0,1-.418-.824,100.778,100.778,0,0,1,9.836-52.643,1.2,1.2,0,0,1,1.6-.547l14.418,6.947a85.133,85.133,0,0,1,17.174-23.27l-10.985-11.76a1.2,1.2,0,0,1,.036-1.681c5.676-5.577,12.651-10.566,21.951-15.7l1.968-.987a77.772,77.772,0,0,1,10.422-4.608c.759-.258,1.519-.535,2.277-.81,1.332-.486,2.71-.988,4.11-1.389l6.507-1.647a1.2,1.2,0,0,1,1.469.9l3.554,15.725a81.845,81.845,0,0,1,17.8-1.893,88.95,88.95,0,0,1,11.167.7l2.347-15.907a1.206,1.206,0,0,1,1.337-1.02c7.8.95,16.3,3.35,25.981,7.339.909.437,1.753.835,2.6,1.233a80.585,80.585,0,0,1,9.513,5.033,100.474,100.474,0,0,1,11.027,7.648,1.206,1.206,0,0,1,.211,1.707l-10.029,12.6a84.79,84.79,0,0,1,18.953,21.9l13.849-8.1a1.2,1.2,0,0,1,1.635.411l1.75,2.857,2.188,4.529c.742,1.53,1.508,3.113,2.207,4.724.439,1.242.874,2.4,1.309,3.561a72.4,72.4,0,0,1,3.03,9.35c2.7,9.122,3.314,18.582,3.562,26.623a1.2,1.2,0,0,1-1.2,1.242H250.255a83.973,83.973,0,0,1-5.373,28.5l15,5.81a1.2,1.2,0,0,1,.7,1.535l-.317.9c-.277.79-.553,1.576-.887,2.329l-2.282,4.733c-.7,1.428-1.425,2.905-2.209,4.332-.486.81-.942,1.585-1.4,2.36a78.416,78.416,0,0,1-5.906,9.046,101.791,101.791,0,0,1-18.658,19.448,1.179,1.179,0,0,1-.891.267,1.2,1.2,0,0,1-.814-.447l-10.029-12.557a85.925,85.925,0,0,1-25.6,13.6l4.871,15.425a1.2,1.2,0,0,1-.8,1.516,108.056,108.056,0,0,1-30.883,4.576m-20.936-4.663a101.93,101.93,0,0,0,49.954-1.878l-4.862-15.4a1.2,1.2,0,0,1,.789-1.511A83.557,83.557,0,0,0,216.637,445.4a1.2,1.2,0,0,1,1.687.193l10.009,12.528a98.262,98.262,0,0,0,17.321-18.255,76.879,76.879,0,0,0,5.755-8.82c.459-.781.918-1.562,1.386-2.338.733-1.337,1.414-2.725,2.134-4.192l2.256-4.68c.271-.607.5-1.265.737-1.928l-15.029-5.823a1.2,1.2,0,0,1-.687-1.564,81.582,81.582,0,0,0,5.648-29.951,1.2,1.2,0,0,1,1.2-1.2H265.1c-.269-7.61-.942-16.379-3.443-24.848a71.057,71.057,0,0,0-2.955-9.112c-.442-1.177-.883-2.351-1.3-3.527-.647-1.486-1.4-3.045-2.132-4.555l-2.134-4.426-1.074-1.746L238.2,339.259a1.2,1.2,0,0,1-1.649-.434A82.462,82.462,0,0,0,216.631,315.8a1.2,1.2,0,0,1-.191-1.691l10.007-12.572a88.978,88.978,0,0,0-9.838-6.759,77.647,77.647,0,0,0-9.293-4.913c-.848-.4-1.7-.8-2.549-1.213a100.351,100.351,0,0,0-24.127-6.994l-2.347,15.909a1.215,1.215,0,0,1-1.36,1.017,86.428,86.428,0,0,0-12.017-.839,78.828,78.828,0,0,0-18.421,2.1,1.189,1.189,0,0,1-.917-.147,1.2,1.2,0,0,1-.539-.758l-3.548-15.7-5.274,1.335c-1.281.367-2.559.833-3.911,1.325-.775.283-1.552.566-2.338.832a76.011,76.011,0,0,0-10.1,4.476l-1.933.967c-8.6,4.751-15.172,9.379-20.536,14.473l10.993,11.771a1.2,1.2,0,0,1-.058,1.7A82.777,82.777,0,0,0,90.272,344.59a1.205,1.205,0,0,1-1.606.558L74.253,338.2A98.387,98.387,0,0,0,65.1,387.319l15.968-1.254a1.25,1.25,0,0,1,.878.287,1.206,1.206,0,0,1,.417.825,82.336,82.336,0,0,0,7.913,29.4,1.2,1.2,0,0,1-.562,1.6L75.3,425.17a100.59,100.59,0,0,0,32.576,37.76l9.089-13.331a1.2,1.2,0,0,1,1.673-.317,80.758,80.758,0,0,0,27.841,12.07,1.2,1.2,0,0,1,.911,1.441Zm21.179-34.429a62.916,62.916,0,1,1,62.917-62.916,62.986,62.986,0,0,1-62.917,62.916m0-123.425a60.508,60.508,0,1,0,60.509,60.509,60.577,60.577,0,0,0-60.509-60.509" transform="matrix(-0.6, -0.8, 0.8, -0.6, 1054.43, 662.84)" fill="#fff"/>
                      </g>
                    </g>
                  </g>
                  <g id="Enmascarar_grupo_1101664" data-name="Enmascarar grupo 1101664" transform="translate(-10133.31 -19846.676) rotate(180)" clip-path="url(#clip-path-5)">
                    <path id="Trazado_879081" data-name="Trazado 879081" d="M131.514,131.753l-5.825,3.822a42,42,0,0,0,7.005,8.128,43.628,43.628,0,0,0,4.224,3.349c.741.5,1.518.951,2.284,1.414l1.149.7,1.208.593,3.1-6.224a33.54,33.54,0,0,0,11.917,3.425l-.662,6.945a39.115,39.115,0,0,0,5.363.141,41.174,41.174,0,0,0,5.344-.532,40.7,40.7,0,0,0,10.229-3.224l-2.911-6.313a33.656,33.656,0,0,0,4.278-2.386,32.522,32.522,0,0,0,5.812-4.842l5,4.85,1.811-1.983c.6-.674,1.1-1.425,1.647-2.139a39.7,39.7,0,0,0,2.916-4.53,41.264,41.264,0,0,0,3.867-10.029l-6.735-1.654a34.179,34.179,0,0,0,.7-12.421l6.856-.9a40.678,40.678,0,0,0-8.136-19.691l-5.49,4.242a33.8,33.8,0,0,0-9.25-8.29l3.569-5.956A40.993,40.993,0,0,0,160.4,72.335l-.119,6.993a32.883,32.883,0,0,0-12.21,2.109l-2.411-6.548a41.452,41.452,0,0,0-17.328,12.336l5.383,4.442a33.917,33.917,0,0,0-5.984,10.92l-6.6-2.181a41.227,41.227,0,0,0-1.971,10.56,44.6,44.6,0,0,0,.029,5.386c.075.9.206,1.8.32,2.687l.182,1.329c.076.449.19.888.287,1.323l6.782-1.444a33.586,33.586,0,0,0,4.753,11.506m18.835-32.981a16.9,16.9,0,0,1,23.47,4.956,16.982,16.982,0,1,1-23.47-4.956" transform="translate(-6475.386 -10049.889)" fill="#740000"/>
                  </g>
                  <g id="Enmascarar_grupo_1101663" data-name="Enmascarar grupo 1101663" transform="translate(3615.011 622.884)" clip-path="url(#clip-path-6)">
                    <path id="Trazado_879080" data-name="Trazado 879080" d="M128.372,116.529l-4.352,2.843a31.276,31.276,0,0,0,5.234,6.045,32.573,32.573,0,0,0,3.156,2.491c.553.368,1.134.708,1.707,1.052l.858.517.9.441,2.316-4.629a25.149,25.149,0,0,0,8.9,2.548L146.6,133a29.363,29.363,0,0,0,4.007.1,30.9,30.9,0,0,0,3.993-.4,30.516,30.516,0,0,0,7.644-2.4l-2.175-4.7a25.182,25.182,0,0,0,3.2-1.774,24.275,24.275,0,0,0,4.343-3.6l3.735,3.608,1.353-1.475c.449-.5.825-1.06,1.231-1.591a29.517,29.517,0,0,0,2.179-3.37A30.607,30.607,0,0,0,179,109.954l-5.032-1.23a25.308,25.308,0,0,0,.523-9.239l5.123-.67a30.181,30.181,0,0,0-6.08-14.646l-4.1,3.155a25.217,25.217,0,0,0-6.912-6.166l2.667-4.43a30.734,30.734,0,0,0-15.231-4.393l-.089,5.2a24.672,24.672,0,0,0-9.124,1.569l-1.8-4.87a30.971,30.971,0,0,0-12.948,9.175l4.022,3.3a25.193,25.193,0,0,0-4.472,8.122l-4.929-1.622a30.539,30.539,0,0,0-1.472,7.854,33.022,33.022,0,0,0,.021,4.006c.056.671.154,1.336.239,2l.136.988c.056.334.142.661.214.984l5.068-1.074a24.918,24.918,0,0,0,3.551,8.558M142.446,92a12.676,12.676,0,1,1-3.681,17.545A12.666,12.666,0,0,1,142.446,92" transform="translate(-6487.396 -10073.126)" fill="#c10000"/>
                  </g>
                </g>
              </g>
            </g>
          </g>
        </g>
      </g>
    </g>
  </g>
</svg>
