<svg xmlns="http://www.w3.org/2000/svg" width="1030" height="199" viewBox="0 0 1030 199">
  <g id="Grupo_1107714" data-name="Grupo 1107714" transform="translate(-285.051 -11059.28)">
    <g id="Grupo_1107709" data-name="Grupo 1107709" transform="translate(0 -25)">
      <g id="Rectángulo_403528" data-name="Rectángulo 403528" transform="translate(285.051 11084.28)" fill="#fff" stroke="#e1e1e1" stroke-width="1">
        <rect width="1030" height="199" stroke="none"/>
        <rect x="0.5" y="0.5" width="1029" height="198" fill="none"/>
      </g>
      <path id="Trazado_878155" data-name="Trazado 878155" d="M0,0H1030V61H0Z" transform="translate(285.051 11084.28)" fill="#e69999"/>
      <line id="Línea_3977" data-name="Línea 3977" x1="1029" transform="translate(286.051 11193.703)" fill="none" stroke="#e1e1e1" stroke-width="1"/>
      <line id="Línea_3978" data-name="Línea 3978" y2="136.602" transform="translate(838.051 11145.41)" fill="none" stroke="#e1e1e1" stroke-width="1"/>
      <path id="Trazado_883588" data-name="Trazado 883588" d="M3.258,3.625l3.719,9.281L10.7,3.625h1.945V15h-1.5V10.57l.141-4.781L7.547,15H6.4L2.672,5.813,2.82,10.57V15H1.32V3.625Zm18.453,8.4H16.945L15.875,15H14.328L18.672,3.625h1.313L24.336,15H22.8ZM17.4,10.8h3.867l-1.937-5.32Zm12.641-.4H27.367V15H25.859V3.625h3.766a4.457,4.457,0,0,1,2.957.875,3.148,3.148,0,0,1,1.035,2.547A3.062,3.062,0,0,1,33.043,8.9a3.428,3.428,0,0,1-1.6,1.18l2.672,4.828V15H32.508ZM27.367,9.172h2.3a2.6,2.6,0,0,0,1.777-.579,1.959,1.959,0,0,0,.66-1.55,2.062,2.062,0,0,0-.629-1.62,2.663,2.663,0,0,0-1.816-.571h-2.3Zm16.719,2.219a4.185,4.185,0,0,1-1.332,2.785,4.365,4.365,0,0,1-2.98.98,4.008,4.008,0,0,1-3.23-1.445,5.815,5.815,0,0,1-1.215-3.867V8.75a6.481,6.481,0,0,1,.566-2.789A4.231,4.231,0,0,1,37.5,4.113a4.47,4.47,0,0,1,2.406-.645A4.11,4.11,0,0,1,42.813,4.48a4.235,4.235,0,0,1,1.273,2.8H42.578a3.268,3.268,0,0,0-.848-1.975A2.565,2.565,0,0,0,39.906,4.7a2.684,2.684,0,0,0-2.254,1.063,4.882,4.882,0,0,0-.816,3.026v1.1a5.018,5.018,0,0,0,.773,2.948,2.5,2.5,0,0,0,2.164,1.095,2.887,2.887,0,0,0,1.918-.566,3.143,3.143,0,0,0,.887-1.973Zm8.328.633H47.648L46.578,15H45.031L49.375,3.625h1.313L55.039,15H53.5ZM48.1,10.8h3.867l-1.937-5.32Z" transform="translate(913.248 11161.28)" fill="#12263f"/>
      <path id="Trazado_883587" data-name="Trazado 883587" d="M9.18-10.148H5.523V0H4.031V-10.148H.383v-1.227h8.8ZM12.477,0h-1.5V-11.375h1.5Zm4.242-4.453V0h-1.5V-11.375h4.2a4.215,4.215,0,0,1,2.926.953A3.231,3.231,0,0,1,23.4-7.9a3.189,3.189,0,0,1-1.035,2.551,4.4,4.4,0,0,1-2.965.895Zm0-1.227h2.7a2.7,2.7,0,0,0,1.844-.567,2.075,2.075,0,0,0,.641-1.64,2.143,2.143,0,0,0-.641-1.628,2.525,2.525,0,0,0-1.758-.634H16.719Zm17.344.359A7.037,7.037,0,0,1,33.5-2.4,4.261,4.261,0,0,1,31.906-.5,4.385,4.385,0,0,1,29.5.156,4.347,4.347,0,0,1,27.117-.5,4.363,4.363,0,0,1,25.5-2.387a6.752,6.752,0,0,1-.59-2.832v-.82a6.953,6.953,0,0,1,.57-2.9A4.347,4.347,0,0,1,27.1-10.863a4.329,4.329,0,0,1,2.387-.668,4.41,4.41,0,0,1,2.41.66A4.253,4.253,0,0,1,33.5-8.957a7.071,7.071,0,0,1,.563,2.918ZM32.57-6.055a5.1,5.1,0,0,0-.812-3.105,2.68,2.68,0,0,0-2.273-1.082A2.651,2.651,0,0,0,27.246-9.16a5,5,0,0,0-.84,3v.836a5.107,5.107,0,0,0,.824,3.082A2.662,2.662,0,0,0,29.5-1.117a2.652,2.652,0,0,0,2.25-1.059,5.079,5.079,0,0,0,.82-3.035Z" transform="translate(652.551 11179.703)" fill="#12263f"/>
      <path id="Trazado_883584" data-name="Trazado 883584" d="M-38.439-3.48-35.89-12.8h3.445L-36.751,0h-3.375L-44.4-12.8h3.419ZM-24.9-2.391h-4.228L-29.87,0h-3.3l4.693-12.8h2.9L-20.843,0h-3.313Zm-3.489-2.382h2.751l-1.38-4.438Zm1.775-11.452h3.129l-2.443,2.76-2.417,0Zm9.791,13.852h5.37V0h-8.455V-12.8h3.085ZM-7-3.48-4.452-12.8h3.445L-5.313,0H-8.688l-4.271-12.8h3.419ZM9.962-12.8v8.376a4.814,4.814,0,0,1-.606,2.465A3.929,3.929,0,0,1,7.616-.369,6.131,6.131,0,0,1,4.935.176,5.3,5.3,0,0,1,1.252-1.037,4.326,4.326,0,0,1-.119-4.359V-12.8h3.1v8.5q.053,2.1,1.951,2.1a1.889,1.889,0,0,0,1.45-.527,2.465,2.465,0,0,0,.492-1.714V-12.8Zm5.01,10.424h5.37V0H11.887V-12.8h3.085Zm14.106-.018H24.851L24.113,0h-3.3L25.51-12.8h2.9L33.139,0H29.826ZM25.589-4.772H28.34L26.96-9.211ZM40.671-3.4a1.268,1.268,0,0,0-.479-1.055,5.954,5.954,0,0,0-1.683-.782,16.147,16.147,0,0,1-1.969-.782q-2.487-1.222-2.487-3.357a3.011,3.011,0,0,1,.62-1.876,4.008,4.008,0,0,1,1.753-1.266,6.823,6.823,0,0,1,2.549-.453,5.969,5.969,0,0,1,2.474.492,3.917,3.917,0,0,1,1.7,1.4A3.661,3.661,0,0,1,43.756-9H40.68a1.547,1.547,0,0,0-.479-1.213,1.867,1.867,0,0,0-1.3-.431,2.106,2.106,0,0,0-1.305.365,1.119,1.119,0,0,0-.479.927,1.127,1.127,0,0,0,.527.892,6.65,6.65,0,0,0,1.854.826,11.36,11.36,0,0,1,2.18.918,3.663,3.663,0,0,1,2.074,3.3A3.125,3.125,0,0,1,42.491-.782a5.629,5.629,0,0,1-3.472.958A6.888,6.888,0,0,1,36.2-.382a4.247,4.247,0,0,1-1.9-1.529,3.985,3.985,0,0,1-.637-2.237H36.76a1.963,1.963,0,0,0,.532,1.516,2.513,2.513,0,0,0,1.727.488,1.985,1.985,0,0,0,1.208-.33A1.088,1.088,0,0,0,40.671-3.4Z" transform="translate(822.051 11121.28)" fill="#12263f"/>
      <line id="Línea_3980" data-name="Línea 3980" y2="137.605" transform="translate(569.745 11145.675)" fill="none" stroke="#e1e1e1" stroke-width="1"/>
      <path id="Trazado_883585" data-name="Trazado 883585" d="M7.594,9.977H2.82V15H1.32V3.625H8.367V4.852H2.82v3.9H7.594ZM18.172,3.625v7.734a3.628,3.628,0,0,1-1.012,2.633,4.077,4.077,0,0,1-2.723,1.148l-.4.016a4.258,4.258,0,0,1-2.977-1.008,3.6,3.6,0,0,1-1.125-2.773V3.625h1.484v7.7a2.6,2.6,0,0,0,.68,1.918,2.612,2.612,0,0,0,1.938.684,2.63,2.63,0,0,0,1.949-.68,2.6,2.6,0,0,0,.676-1.914V3.625ZM29.281,15H27.773L22.047,6.234V15H20.539V3.625h1.508l5.742,8.8v-8.8h1.492Zm11.031-3.609a4.185,4.185,0,0,1-1.332,2.785,4.365,4.365,0,0,1-2.98.98,4.008,4.008,0,0,1-3.23-1.445,5.815,5.815,0,0,1-1.215-3.867V8.75a6.481,6.481,0,0,1,.566-2.789,4.231,4.231,0,0,1,1.605-1.848,4.47,4.47,0,0,1,2.406-.645A4.11,4.11,0,0,1,39.039,4.48a4.235,4.235,0,0,1,1.273,2.8H38.8a3.268,3.268,0,0,0-.848-1.975A2.565,2.565,0,0,0,36.133,4.7a2.684,2.684,0,0,0-2.254,1.063,4.882,4.882,0,0,0-.816,3.026v1.1a5.018,5.018,0,0,0,.773,2.948A2.5,2.5,0,0,0,36,13.93a2.887,2.887,0,0,0,1.918-.566,3.143,3.143,0,0,0,.887-1.973ZM43.969,15h-1.5V3.625h1.5ZM55.461,9.68A7.037,7.037,0,0,1,54.9,12.6,4.261,4.261,0,0,1,53.3,14.5a4.4,4.4,0,0,1-6.4-1.887,6.752,6.752,0,0,1-.59-2.832v-.82a6.953,6.953,0,0,1,.57-2.9,4.218,4.218,0,0,1,4-2.594,4.41,4.41,0,0,1,2.41.66A4.253,4.253,0,0,1,54.9,6.043a7.071,7.071,0,0,1,.563,2.918Zm-1.492-.734a5.1,5.1,0,0,0-.812-3.105,2.68,2.68,0,0,0-2.273-1.082A2.651,2.651,0,0,0,48.645,5.84a5,5,0,0,0-.84,3V9.68a5.107,5.107,0,0,0,.824,3.082,2.888,2.888,0,0,0,4.52.063,5.079,5.079,0,0,0,.82-3.035ZM51.617.563h1.75l-2.094,2.3-1.164,0ZM66.453,15H64.945L59.219,6.234V15H57.711V3.625h1.508l5.742,8.8v-8.8h1.492Z" transform="translate(393.051 11158.76)" fill="#12263f"/>
      <line id="Línea_3981" data-name="Línea 3981" x1="1029" transform="translate(285.051 11238.28)" fill="none" stroke="#e1e1e1" stroke-width="1"/>
      <path id="Trazado_883591" data-name="Trazado 883591" d="M9.328,3.625v7.734a3.628,3.628,0,0,1-1.012,2.633,4.077,4.077,0,0,1-2.723,1.148l-.4.016a4.258,4.258,0,0,1-2.977-1.008,3.6,3.6,0,0,1-1.125-2.773V3.625H2.578v7.7a2.6,2.6,0,0,0,.68,1.918A2.612,2.612,0,0,0,5.2,13.93a2.63,2.63,0,0,0,1.949-.68,2.6,2.6,0,0,0,.676-1.914V3.625ZM11.7,15V3.625h3.719a4.317,4.317,0,0,1,2.785.766,2.759,2.759,0,0,1,.934,2.266,2.31,2.31,0,0,1-.453,1.41,2.937,2.937,0,0,1-1.234.949A2.638,2.638,0,0,1,18.9,10a2.814,2.814,0,0,1,.535,1.723,3.042,3.042,0,0,1-.992,2.406,4.1,4.1,0,0,1-2.8.875Zm1.5-5.32v4.094h2.477a2.385,2.385,0,0,0,1.652-.543,1.907,1.907,0,0,0,.605-1.5q0-2.055-2.234-2.055Zm0-1.2h2.266a2.375,2.375,0,0,0,1.574-.493,1.654,1.654,0,0,0,.59-1.339,1.626,1.626,0,0,0-.547-1.366,2.686,2.686,0,0,0-1.664-.427H13.2ZM23.266,15h-1.5V3.625h1.5Zm11.109-3.609a4.185,4.185,0,0,1-1.332,2.785,4.365,4.365,0,0,1-2.98.98,4.008,4.008,0,0,1-3.23-1.445,5.815,5.815,0,0,1-1.215-3.867V8.75a6.481,6.481,0,0,1,.566-2.789,4.231,4.231,0,0,1,1.605-1.848A4.47,4.47,0,0,1,30.2,3.469,4.11,4.11,0,0,1,33.1,4.48a4.235,4.235,0,0,1,1.273,2.8H32.867a3.268,3.268,0,0,0-.848-1.975A2.565,2.565,0,0,0,30.2,4.7a2.684,2.684,0,0,0-2.254,1.063,4.882,4.882,0,0,0-.816,3.026v1.1a5.018,5.018,0,0,0,.773,2.948,2.5,2.5,0,0,0,2.164,1.095,2.886,2.886,0,0,0,1.918-.566,3.143,3.143,0,0,0,.887-1.973Zm8.328.633H37.938L36.867,15H35.32L39.664,3.625h1.313L45.328,15H43.789ZM38.391,10.8h3.867L40.32,5.477Zm16.75.594a4.185,4.185,0,0,1-1.332,2.785,4.365,4.365,0,0,1-2.98.98,4.008,4.008,0,0,1-3.23-1.445,5.815,5.815,0,0,1-1.215-3.867V8.75a6.481,6.481,0,0,1,.566-2.789,4.231,4.231,0,0,1,1.605-1.848,4.47,4.47,0,0,1,2.406-.645A4.11,4.11,0,0,1,53.867,4.48a4.235,4.235,0,0,1,1.273,2.8H53.633a3.268,3.268,0,0,0-.848-1.975A2.565,2.565,0,0,0,50.961,4.7a2.684,2.684,0,0,0-2.254,1.063,4.882,4.882,0,0,0-.816,3.026v1.1a5.018,5.018,0,0,0,.773,2.948,2.5,2.5,0,0,0,2.164,1.095,2.887,2.887,0,0,0,1.918-.566,3.143,3.143,0,0,0,.887-1.973ZM58.8,15H57.3V3.625h1.5ZM70.289,9.68a7.037,7.037,0,0,1-.562,2.918,4.261,4.261,0,0,1-1.594,1.9,4.4,4.4,0,0,1-6.4-1.887,6.752,6.752,0,0,1-.59-2.832v-.82a6.953,6.953,0,0,1,.57-2.9,4.218,4.218,0,0,1,4-2.594,4.41,4.41,0,0,1,2.41.66,4.253,4.253,0,0,1,1.605,1.914,7.071,7.071,0,0,1,.563,2.918ZM68.8,8.945a5.1,5.1,0,0,0-.812-3.105,2.68,2.68,0,0,0-2.273-1.082A2.651,2.651,0,0,0,63.473,5.84a5,5,0,0,0-.84,3V9.68a5.107,5.107,0,0,0,.824,3.082,2.888,2.888,0,0,0,4.52.063,5.079,5.079,0,0,0,.82-3.035ZM66.445.563H68.2L66.1,2.859l-1.164,0ZM81.281,15H79.773L74.047,6.234V15H72.539V3.625h1.508l5.742,8.8v-8.8h1.492Z" transform="translate(1196.209 11163.175)" fill="#12263f"/>
      <line id="Línea_3982" data-name="Línea 3982" y2="137.756" transform="translate(1172.015 11145.13)" fill="none" stroke="#e1e1e1" stroke-width="1"/>
      <line id="Línea_3993" data-name="Línea 3993" y2="93.37" transform="translate(1051.65 11145.41)" fill="none" stroke="#e1e1e1" stroke-width="1"/>
      <path id="Trazado_883590" data-name="Trazado 883590" d="M3.258,3.625l3.719,9.281L10.7,3.625h1.945V15h-1.5V10.57l.141-4.781L7.547,15H6.4L2.672,5.813,2.82,10.57V15H1.32V3.625ZM24.039,9.68a7.037,7.037,0,0,1-.562,2.918,4.261,4.261,0,0,1-1.594,1.9,4.4,4.4,0,0,1-6.4-1.887,6.752,6.752,0,0,1-.59-2.832v-.82a6.953,6.953,0,0,1,.57-2.9,4.218,4.218,0,0,1,4-2.594,4.41,4.41,0,0,1,2.41.66,4.253,4.253,0,0,1,1.605,1.914,7.071,7.071,0,0,1,.563,2.918Zm-1.492-.734a5.1,5.1,0,0,0-.812-3.105,2.68,2.68,0,0,0-2.273-1.082A2.651,2.651,0,0,0,17.223,5.84a5,5,0,0,0-.84,3V9.68a5.107,5.107,0,0,0,.824,3.082,2.662,2.662,0,0,0,2.27,1.121,2.652,2.652,0,0,0,2.25-1.059,5.079,5.079,0,0,0,.82-3.035ZM26.289,15V3.625H29.5a5.169,5.169,0,0,1,2.625.656,4.438,4.438,0,0,1,1.762,1.867,6.078,6.078,0,0,1,.629,2.781v.727a6.1,6.1,0,0,1-.621,2.82,4.369,4.369,0,0,1-1.773,1.859A5.5,5.5,0,0,1,29.438,15Zm1.5-10.148v8.922h1.578a3.434,3.434,0,0,0,2.7-1.079,4.458,4.458,0,0,0,.965-3.073V8.957a4.529,4.529,0,0,0-.91-3.014,3.239,3.239,0,0,0-2.582-1.091ZM43.211,9.742h-4.93v4.031h5.727V15H36.781V3.625H43.93V4.852H38.281V8.516h4.93Zm4.172,4.031h5.391V15h-6.9V3.625h1.508ZM62.727,9.68a7.037,7.037,0,0,1-.562,2.918,4.261,4.261,0,0,1-1.594,1.9,4.4,4.4,0,0,1-6.4-1.887,6.752,6.752,0,0,1-.59-2.832v-.82a6.953,6.953,0,0,1,.57-2.9,4.218,4.218,0,0,1,4-2.594,4.41,4.41,0,0,1,2.41.66,4.253,4.253,0,0,1,1.605,1.914,7.071,7.071,0,0,1,.563,2.918Zm-1.492-.734a5.1,5.1,0,0,0-.812-3.105,2.68,2.68,0,0,0-2.273-1.082A2.651,2.651,0,0,0,55.91,5.84a5,5,0,0,0-.84,3V9.68a5.107,5.107,0,0,0,.824,3.082,2.888,2.888,0,0,0,4.52.063,5.079,5.079,0,0,0,.82-3.035Z" transform="translate(1075.844 11158.76)" fill="#12263f"/>
      <path id="Trazado_883586" data-name="Trazado 883586" d="M2.82,10.547V15H1.32V3.625h4.2a4.215,4.215,0,0,1,2.926.953A3.231,3.231,0,0,1,9.5,7.1,3.189,3.189,0,0,1,8.465,9.652a4.4,4.4,0,0,1-2.965.895Zm0-1.227h2.7a2.7,2.7,0,0,0,1.844-.567A2.075,2.075,0,0,0,8,7.113a2.143,2.143,0,0,0-.641-1.628A2.525,2.525,0,0,0,5.6,4.852H2.82ZM15.586,10.4H12.914V15H11.406V3.625h3.766a4.457,4.457,0,0,1,2.957.875,3.148,3.148,0,0,1,1.035,2.547A3.062,3.062,0,0,1,18.59,8.9a3.428,3.428,0,0,1-1.6,1.18l2.672,4.828V15H18.055ZM12.914,9.172h2.3A2.6,2.6,0,0,0,17,8.593a1.959,1.959,0,0,0,.66-1.55,2.062,2.062,0,0,0-.629-1.62,2.663,2.663,0,0,0-1.816-.571h-2.3Zm14.781.57h-4.93v4.031h5.727V15H21.266V3.625h7.148V4.852H22.766V8.516H27.7Zm6.016.188A7.053,7.053,0,0,1,30.9,8.566a2.6,2.6,0,0,1-.879-2A2.751,2.751,0,0,1,31.1,4.348a4.269,4.269,0,0,1,2.793-.879,4.66,4.66,0,0,1,2.09.453A3.436,3.436,0,0,1,37.4,5.172a3.2,3.2,0,0,1,.5,1.742H36.4a2.08,2.08,0,0,0-.656-1.627A2.669,2.669,0,0,0,33.891,4.7a2.732,2.732,0,0,0-1.73.489,1.632,1.632,0,0,0-.621,1.358,1.468,1.468,0,0,0,.59,1.178,5.785,5.785,0,0,0,2.008.88,9.316,9.316,0,0,1,2.219.88A3.367,3.367,0,0,1,37.543,10.6a2.861,2.861,0,0,1,.387,1.508,2.658,2.658,0,0,1-1.078,2.215,4.6,4.6,0,0,1-2.883.832,5.347,5.347,0,0,1-2.187-.449,3.681,3.681,0,0,1-1.566-1.23,3,3,0,0,1-.551-1.773h1.508a1.959,1.959,0,0,0,.762,1.629,3.207,3.207,0,0,0,2.035.6,2.948,2.948,0,0,0,1.82-.484,1.573,1.573,0,0,0,.633-1.32,1.545,1.545,0,0,0-.586-1.293A6.755,6.755,0,0,0,33.711,9.93ZM41.461,15h-1.5V3.625h1.5ZM52.953,9.68a7.037,7.037,0,0,1-.562,2.918A4.261,4.261,0,0,1,50.8,14.5a4.4,4.4,0,0,1-6.4-1.887,6.752,6.752,0,0,1-.59-2.832v-.82a6.953,6.953,0,0,1,.57-2.9,4.218,4.218,0,0,1,4-2.594,4.41,4.41,0,0,1,2.41.66,4.253,4.253,0,0,1,1.605,1.914,7.071,7.071,0,0,1,.563,2.918Zm-1.492-.734a5.1,5.1,0,0,0-.812-3.105,2.68,2.68,0,0,0-2.273-1.082A2.651,2.651,0,0,0,46.137,5.84a5,5,0,0,0-.84,3V9.68a5.107,5.107,0,0,0,.824,3.082,2.888,2.888,0,0,0,4.52.063,5.079,5.079,0,0,0,.82-3.035ZM49.109.563h1.75l-2.094,2.3-1.164,0ZM63.945,15H62.438L56.711,6.234V15H55.2V3.625h1.508l5.742,8.8v-8.8h1.492Z" transform="translate(393.051 11251.76)" fill="#12263f"/>
      <path id="Trazado_883589" data-name="Trazado 883589" d="M5.086,13.008l3.25-9.383H9.977L5.758,15H4.43L.219,3.625H1.852ZM20.148,9.68a7.037,7.037,0,0,1-.562,2.918,4.261,4.261,0,0,1-1.594,1.9,4.385,4.385,0,0,1-2.406.656,4.244,4.244,0,0,1-4-2.543A6.752,6.752,0,0,1,11,9.781v-.82a6.953,6.953,0,0,1,.57-2.9,4.218,4.218,0,0,1,4-2.594,4.41,4.41,0,0,1,2.41.66,4.253,4.253,0,0,1,1.605,1.914,7.071,7.071,0,0,1,.563,2.918Zm-1.492-.734a5.1,5.1,0,0,0-.812-3.105A2.68,2.68,0,0,0,15.57,4.758,2.651,2.651,0,0,0,13.332,5.84a5,5,0,0,0-.84,3V9.68a5.107,5.107,0,0,0,.824,3.082,2.662,2.662,0,0,0,2.27,1.121,2.652,2.652,0,0,0,2.25-1.059,5.079,5.079,0,0,0,.82-3.035Zm5.25,4.828H29.3V15H22.4V3.625h1.508ZM36.719,4.852H33.063V15H31.57V4.852H27.922V3.625h8.8Zm7.352,7.172H39.3L38.234,15H36.688L41.031,3.625h1.313L46.7,15H45.156ZM39.758,10.8h3.867l-1.937-5.32ZM52.992,3.625H54.5V11.68a3.336,3.336,0,0,1-.98,2.555,3.66,3.66,0,0,1-2.613.922,3.762,3.762,0,0,1-2.641-.867,3.132,3.132,0,0,1-.945-2.43h1.5a2.086,2.086,0,0,0,.535,1.523,2.073,2.073,0,0,0,1.551.547,2.012,2.012,0,0,0,1.5-.586,2.27,2.27,0,0,0,.582-1.641ZM63.484,9.742h-4.93v4.031h5.727V15H57.055V3.625H64.2V4.852H58.555V8.516h4.93Z" transform="translate(971.765 11248.329)" fill="#12263f"/>
    </g>
  </g>
</svg>
