<svg id="Grupo_1107717" data-name="Grupo 1107717" xmlns="http://www.w3.org/2000/svg" width="1029" height="154.5" viewBox="0 0 1029 154.5">
  <g id="Grupo_1107704" data-name="Grupo 1107704" transform="translate(0)">
    <text id="Fuente:_SENA_LP_Risaralda_2014_." data-name="Fuente: (SENA – LP Risaralda, 2014)." transform="translate(49 66.269)" fill="#12263f" font-size="16" font-family="Roboto-Regular, Roboto"><tspan x="0" y="15">Fuente: (SENA – LP Risaralda, 2014).</tspan></text>
    <g id="Rectángulo_403529" data-name="Rectángulo 403529" fill="#fff" stroke="#e1e1e1" stroke-width="1">
      <rect width="1029" height="154" stroke="none"/>
      <rect x="0.5" y="0.5" width="1028" height="153" fill="none"/>
    </g>
    <path id="Trazado_878156" data-name="Trazado 878156" d="M0,0H1029V61H0Z" fill="#e69999"/>
    <line id="Línea_3983" data-name="Línea 3983" x1="1028" transform="translate(1 109.423)" fill="none" stroke="#e1e1e1" stroke-width="1"/>
    <line id="Línea_3984" data-name="Línea 3984" y2="91.602" transform="translate(417.207 61.13)" fill="none" stroke="#e1e1e1" stroke-width="1"/>
    <line id="Línea_3985" data-name="Línea 3985" y2="92.756" transform="translate(600.581 60.85)" fill="none" stroke="#e1e1e1" stroke-width="1"/>
    <path id="Trazado_883582" data-name="Trazado 883582" d="M5.492,10.4H2.82V15H1.313V3.625H5.078A4.457,4.457,0,0,1,8.035,4.5,3.148,3.148,0,0,1,9.07,7.047,3.062,3.062,0,0,1,8.5,8.9a3.428,3.428,0,0,1-1.6,1.18L9.57,14.906V15H7.961ZM2.82,9.172h2.3A2.6,2.6,0,0,0,6.9,8.593a1.959,1.959,0,0,0,.66-1.55,2.062,2.062,0,0,0-.629-1.62,2.663,2.663,0,0,0-1.816-.571H2.82Zm9.852,1.375V15h-1.5V3.625h4.2a4.215,4.215,0,0,1,2.926.953A3.231,3.231,0,0,1,19.352,7.1a3.189,3.189,0,0,1-1.035,2.551,4.4,4.4,0,0,1-2.965.895Zm0-1.227h2.7a2.7,2.7,0,0,0,1.844-.567,2.075,2.075,0,0,0,.641-1.64,2.143,2.143,0,0,0-.641-1.628,2.525,2.525,0,0,0-1.758-.634H12.672ZM23.2,3.625l3.719,9.281,3.719-9.281h1.945V15h-1.5V10.57l.141-4.781L27.492,15H26.344L22.617,5.813l.148,4.758V15h-1.5V3.625Zm11.75,6.758a12.079,12.079,0,0,1,.473-3.391,9.85,9.85,0,0,1,1.41-2.953,6,6,0,0,1,1.945-1.875l.3.953a6.222,6.222,0,0,0-1.871,2.672,11.583,11.583,0,0,0-.8,4.023l-.008.664a11.643,11.643,0,0,0,1.1,5.234,6.252,6.252,0,0,0,1.578,2.078l-.3.883A6.192,6.192,0,0,1,36.8,16.734,10.859,10.859,0,0,1,34.953,10.383ZM42.313,15h-1.5V3.625h1.5ZM53.8,15H52.289L46.563,6.234V15H45.055V3.625h1.508l5.742,8.8v-8.8H53.8Zm5.773-4.539a12.084,12.084,0,0,1-.457,3.34,9.876,9.876,0,0,1-1.4,2.949,6.127,6.127,0,0,1-1.973,1.922l-.3-.883a6.281,6.281,0,0,0,1.934-2.863,12.387,12.387,0,0,0,.746-4.309v-.25a12.861,12.861,0,0,0-.344-3.051,10.3,10.3,0,0,0-.957-2.527,5.838,5.838,0,0,0-1.379-1.742l.3-.883A6.1,6.1,0,0,1,57.707,4.07a9.9,9.9,0,0,1,1.4,2.945A12.363,12.363,0,0,1,59.57,10.461Z" transform="translate(662.075 78.423)" fill="#12263f"/>
    <path id="Trazado_883579" data-name="Trazado 883579" d="M3.258-11.375,6.977-2.094,10.7-11.375h1.945V0h-1.5V-4.43l.141-4.781L7.547,0H6.4L2.672-9.187,2.82-4.43V0H1.32V-11.375ZM24.039-5.32A7.037,7.037,0,0,1,23.477-2.4,4.261,4.261,0,0,1,21.883-.5a4.385,4.385,0,0,1-2.406.656A4.347,4.347,0,0,1,17.094-.5,4.363,4.363,0,0,1,15.48-2.387a6.752,6.752,0,0,1-.59-2.832v-.82a6.953,6.953,0,0,1,.57-2.9,4.347,4.347,0,0,1,1.613-1.926,4.329,4.329,0,0,1,2.387-.668,4.41,4.41,0,0,1,2.41.66,4.253,4.253,0,0,1,1.605,1.914,7.071,7.071,0,0,1,.563,2.918Zm-1.492-.734a5.1,5.1,0,0,0-.812-3.105,2.68,2.68,0,0,0-2.273-1.082A2.651,2.651,0,0,0,17.223-9.16a5,5,0,0,0-.84,3v.836a5.107,5.107,0,0,0,.824,3.082,2.662,2.662,0,0,0,2.27,1.121,2.652,2.652,0,0,0,2.25-1.059,5.079,5.079,0,0,0,.82-3.035ZM26.289,0V-11.375H29.5a5.169,5.169,0,0,1,2.625.656,4.438,4.438,0,0,1,1.762,1.867,6.078,6.078,0,0,1,.629,2.781v.727a6.1,6.1,0,0,1-.621,2.82A4.369,4.369,0,0,1,32.121-.664,5.5,5.5,0,0,1,29.438,0Zm1.5-10.148v8.922h1.578a3.434,3.434,0,0,0,2.7-1.079,4.458,4.458,0,0,0,.965-3.073v-.665a4.529,4.529,0,0,0-.91-3.014,3.239,3.239,0,0,0-2.582-1.091ZM43.211-5.258h-4.93v4.031h5.727V0H36.781V-11.375H43.93v1.227H38.281v3.664h4.93Zm4.172,4.031h5.391V0h-6.9V-11.375h1.508ZM62.727-5.32A7.037,7.037,0,0,1,62.164-2.4,4.261,4.261,0,0,1,60.57-.5a4.385,4.385,0,0,1-2.406.656A4.347,4.347,0,0,1,55.781-.5a4.363,4.363,0,0,1-1.613-1.883,6.752,6.752,0,0,1-.59-2.832v-.82a6.953,6.953,0,0,1,.57-2.9,4.347,4.347,0,0,1,1.613-1.926,4.329,4.329,0,0,1,2.387-.668,4.41,4.41,0,0,1,2.41.66,4.253,4.253,0,0,1,1.605,1.914,7.071,7.071,0,0,1,.563,2.918Zm-1.492-.734a5.1,5.1,0,0,0-.812-3.105,2.68,2.68,0,0,0-2.273-1.082A2.651,2.651,0,0,0,55.91-9.16a5,5,0,0,0-.84,3v.836a5.107,5.107,0,0,0,.824,3.082,2.662,2.662,0,0,0,2.27,1.121,2.652,2.652,0,0,0,2.25-1.059,5.079,5.079,0,0,0,.82-3.035Z" transform="translate(311.677 95.423)" fill="#12263f"/>
    <path id="Trazado_883581" data-name="Trazado 883581" d="M-51.069-4.526h-1.67V0h-3.085V-12.8h5.036a5.621,5.621,0,0,1,3.56,1.01,3.421,3.421,0,0,1,1.283,2.853,4.155,4.155,0,0,1-.541,2.213A3.837,3.837,0,0,1-48.177-5.3l2.672,5.167V0h-3.3ZM-52.739-6.9h1.951a1.751,1.751,0,0,0,1.323-.463,1.788,1.788,0,0,0,.444-1.291,1.809,1.809,0,0,0-.448-1.3,1.735,1.735,0,0,0-1.318-.471h-1.951Zm16.594,1.468H-41v3.059h5.73V0h-8.815V-12.8h8.833v2.382H-41v2.7h4.852ZM-34.009,0V-12.8h4.122a6.064,6.064,0,0,1,3.05.769,5.406,5.406,0,0,1,2.114,2.171,6.554,6.554,0,0,1,.769,3.142v.589A6.592,6.592,0,0,1-24.7-2.975,5.429,5.429,0,0,1-26.789-.8,5.93,5.93,0,0,1-29.8,0Zm3.085-10.415v8.042h1.072a2.4,2.4,0,0,0,2.039-.945A4.63,4.63,0,0,0-27.1-6.126V-6.68a4.592,4.592,0,0,0-.712-2.795,2.442,2.442,0,0,0-2.074-.94ZM-12.335-12.8v8.376a4.814,4.814,0,0,1-.606,2.465,3.929,3.929,0,0,1-1.74,1.586,6.131,6.131,0,0,1-2.681.545,5.3,5.3,0,0,1-3.683-1.213,4.326,4.326,0,0,1-1.371-3.322V-12.8h3.1v8.5q.053,2.1,1.951,2.1a1.889,1.889,0,0,0,1.45-.527,2.465,2.465,0,0,0,.492-1.714V-12.8ZM-.057-4.333a4.673,4.673,0,0,1-.721,2.36A4.35,4.35,0,0,1-2.628-.387a6.3,6.3,0,0,1-2.72.563A5.025,5.025,0,0,1-9.321-1.468a6.786,6.786,0,0,1-1.45-4.641v-.633a7.746,7.746,0,0,1,.655-3.292,4.961,4.961,0,0,1,1.885-2.18,5.26,5.26,0,0,1,2.848-.769,5.516,5.516,0,0,1,3.744,1.226A4.844,4.844,0,0,1-.031-8.376H-3.107A2.292,2.292,0,0,0-3.7-10.055a2.422,2.422,0,0,0-1.687-.51A1.843,1.843,0,0,0-7.071-9.7a5.536,5.536,0,0,0-.562,2.751v.905A6.125,6.125,0,0,0-7.119-3.12a1.882,1.882,0,0,0,1.771.879,2.369,2.369,0,0,0,1.626-.5,2.126,2.126,0,0,0,.6-1.591Zm11.25-6.082H7.352V0H4.267V-10.415H.5V-12.8h10.7Zm11.892,4.28a7.546,7.546,0,0,1-.694,3.313A5.132,5.132,0,0,1,20.417-.6,5.494,5.494,0,0,1,17.5.176a5.572,5.572,0,0,1-2.9-.751A5.123,5.123,0,0,1,12.63-2.725a7.329,7.329,0,0,1-.743-3.208v-.721a7.58,7.58,0,0,1,.69-3.318,5.119,5.119,0,0,1,1.978-2.219,5.533,5.533,0,0,1,2.931-.782,5.479,5.479,0,0,1,2.9.773A5.211,5.211,0,0,1,22.368-10a7.362,7.362,0,0,1,.716,3.274Zm-3.138-.536a5.381,5.381,0,0,0-.637-2.9,2.044,2.044,0,0,0-1.824-.989q-2.32,0-2.452,3.48l-.009.94a5.535,5.535,0,0,0,.624,2.892A2.041,2.041,0,0,0,17.5-2.232a2.016,2.016,0,0,0,1.8-.993,5.383,5.383,0,0,0,.642-2.856ZM29.43-4.526H27.76V0H24.675V-12.8h5.036a5.621,5.621,0,0,1,3.56,1.01,3.421,3.421,0,0,1,1.283,2.853,4.155,4.155,0,0,1-.541,2.213A3.837,3.837,0,0,1,32.322-5.3L34.994-.132V0h-3.3ZM27.76-6.9h1.951a1.751,1.751,0,0,0,1.323-.463,1.788,1.788,0,0,0,.444-1.291,1.809,1.809,0,0,0-.448-1.3,1.735,1.735,0,0,0-1.318-.471H27.76ZM44.354-5.432H39.5v3.059h5.73V0H36.417V-12.8H45.25v2.382H39.5v2.7h4.852ZM53.09-3.4a1.268,1.268,0,0,0-.479-1.055,5.954,5.954,0,0,0-1.683-.782,16.147,16.147,0,0,1-1.969-.782q-2.487-1.222-2.487-3.357a3.011,3.011,0,0,1,.62-1.876,4.008,4.008,0,0,1,1.753-1.266,6.823,6.823,0,0,1,2.549-.453,5.969,5.969,0,0,1,2.474.492,3.917,3.917,0,0,1,1.7,1.4A3.661,3.661,0,0,1,56.175-9H53.1a1.547,1.547,0,0,0-.479-1.213,1.867,1.867,0,0,0-1.3-.431,2.106,2.106,0,0,0-1.305.365,1.119,1.119,0,0,0-.479.927,1.127,1.127,0,0,0,.527.892,6.65,6.65,0,0,0,1.854.826,11.36,11.36,0,0,1,2.18.918,3.663,3.663,0,0,1,2.074,3.3A3.125,3.125,0,0,1,54.91-.782a5.629,5.629,0,0,1-3.472.958,6.888,6.888,0,0,1-2.817-.558,4.247,4.247,0,0,1-1.9-1.529,3.985,3.985,0,0,1-.637-2.237h3.094a1.963,1.963,0,0,0,.532,1.516,2.513,2.513,0,0,0,1.727.488,1.985,1.985,0,0,0,1.208-.33A1.088,1.088,0,0,0,53.09-3.4Z" transform="translate(491.525 37)" fill="#12263f"/>
    <line id="Línea_3986" data-name="Línea 3986" y2="92.605" transform="translate(261.44 61.395)" fill="none" stroke="#e1e1e1" stroke-width="1"/>
    <path id="Trazado_883578" data-name="Trazado 883578" d="M3.258,3.625l3.719,9.281L10.7,3.625h1.945V15h-1.5V10.57l.141-4.781L7.547,15H6.4L2.672,5.813,2.82,10.57V15H1.32V3.625Zm18.453,8.4H16.945L15.875,15H14.328L18.672,3.625h1.313L24.336,15H22.8ZM17.4,10.8h3.867l-1.937-5.32Zm12.641-.4H27.367V15H25.859V3.625h3.766a4.457,4.457,0,0,1,2.957.875,3.148,3.148,0,0,1,1.035,2.547A3.062,3.062,0,0,1,33.043,8.9a3.428,3.428,0,0,1-1.6,1.18l2.672,4.828V15H32.508ZM27.367,9.172h2.3a2.6,2.6,0,0,0,1.777-.579,1.959,1.959,0,0,0,.66-1.55,2.062,2.062,0,0,0-.629-1.62,2.663,2.663,0,0,0-1.816-.571h-2.3Zm16.719,2.219a4.185,4.185,0,0,1-1.332,2.785,4.365,4.365,0,0,1-2.98.98,4.008,4.008,0,0,1-3.23-1.445,5.815,5.815,0,0,1-1.215-3.867V8.75a6.481,6.481,0,0,1,.566-2.789A4.231,4.231,0,0,1,37.5,4.113a4.47,4.47,0,0,1,2.406-.645A4.11,4.11,0,0,1,42.813,4.48a4.235,4.235,0,0,1,1.273,2.8H42.578a3.268,3.268,0,0,0-.848-1.975A2.565,2.565,0,0,0,39.906,4.7a2.684,2.684,0,0,0-2.254,1.063,4.882,4.882,0,0,0-.816,3.026v1.1a5.018,5.018,0,0,0,.773,2.948,2.5,2.5,0,0,0,2.164,1.095,2.887,2.887,0,0,0,1.918-.566,3.143,3.143,0,0,0,.887-1.973Zm8.328.633H47.648L46.578,15H45.031L49.375,3.625h1.313L55.039,15H53.5ZM48.1,10.8h3.867l-1.937-5.32Z" transform="translate(108 74.479)" fill="#12263f"/>
    <line id="Línea_3987" data-name="Línea 3987" x1="1028" transform="translate(0 154)" fill="none" stroke="#e1e1e1" stroke-width="1"/>
    <path id="Trazado_883580" data-name="Trazado 883580" d="M2.82-4.453V0H1.32V-11.375h4.2a4.215,4.215,0,0,1,2.926.953A3.231,3.231,0,0,1,9.5-7.9,3.189,3.189,0,0,1,8.465-5.348,4.4,4.4,0,0,1,5.5-4.453Zm0-1.227h2.7a2.7,2.7,0,0,0,1.844-.567A2.075,2.075,0,0,0,8-7.887a2.143,2.143,0,0,0-.641-1.628A2.525,2.525,0,0,0,5.6-10.148H2.82Zm17.344.359A7.037,7.037,0,0,1,19.6-2.4,4.261,4.261,0,0,1,18.008-.5,4.385,4.385,0,0,1,15.6.156,4.347,4.347,0,0,1,13.219-.5a4.363,4.363,0,0,1-1.613-1.883,6.752,6.752,0,0,1-.59-2.832v-.82a6.953,6.953,0,0,1,.57-2.9A4.347,4.347,0,0,1,13.2-10.863a4.329,4.329,0,0,1,2.387-.668,4.41,4.41,0,0,1,2.41.66A4.253,4.253,0,0,1,19.6-8.957a7.071,7.071,0,0,1,.563,2.918Zm-1.492-.734a5.1,5.1,0,0,0-.812-3.105,2.68,2.68,0,0,0-2.273-1.082A2.651,2.651,0,0,0,13.348-9.16a5,5,0,0,0-.84,3v.836a5.107,5.107,0,0,0,.824,3.082A2.662,2.662,0,0,0,15.6-1.117a2.652,2.652,0,0,0,2.25-1.059,5.079,5.079,0,0,0,.82-3.035Zm11.391-4.094H26.406V0H24.914V-10.148H21.266v-1.227h8.8ZM38.18-5.258H33.25v4.031h5.727V0H31.75V-11.375H38.9v1.227H33.25v3.664h4.93ZM49.586,0H48.078L42.352-8.766V0H40.844V-11.375h1.508l5.742,8.8v-8.8h1.492ZM60.617-3.609A4.185,4.185,0,0,1,59.285-.824a4.365,4.365,0,0,1-2.98.98,4.008,4.008,0,0,1-3.23-1.445,5.815,5.815,0,0,1-1.215-3.867V-6.25a6.481,6.481,0,0,1,.566-2.789,4.231,4.231,0,0,1,1.605-1.848,4.47,4.47,0,0,1,2.406-.645,4.11,4.11,0,0,1,2.906,1.012,4.235,4.235,0,0,1,1.273,2.8H59.109a3.268,3.268,0,0,0-.848-1.975,2.565,2.565,0,0,0-1.824-.611,2.684,2.684,0,0,0-2.254,1.063,4.882,4.882,0,0,0-.816,3.026v1.1a5.018,5.018,0,0,0,.773,2.948A2.5,2.5,0,0,0,56.3-1.07a2.887,2.887,0,0,0,1.918-.566,3.143,3.143,0,0,0,.887-1.973ZM64.273,0h-1.5V-11.375h1.5Zm9.164-2.977H68.672L67.6,0H66.055L70.4-11.375h1.313L76.063,0H74.523ZM69.125-4.2h3.867l-1.937-5.32Z" transform="translate(479.497 95.423)" fill="#12263f"/>
    <path id="Trazado_883583" data-name="Trazado 883583" d="M5.492,10.4H2.82V15H1.313V3.625H5.078A4.457,4.457,0,0,1,8.035,4.5,3.148,3.148,0,0,1,9.07,7.047,3.062,3.062,0,0,1,8.5,8.9a3.428,3.428,0,0,1-1.6,1.18L9.57,14.906V15H7.961ZM2.82,9.172h2.3A2.6,2.6,0,0,0,6.9,8.593a1.959,1.959,0,0,0,.66-1.55,2.062,2.062,0,0,0-.629-1.62,2.663,2.663,0,0,0-1.816-.571H2.82Zm9.852,1.375V15h-1.5V3.625h4.2a4.215,4.215,0,0,1,2.926.953A3.231,3.231,0,0,1,19.352,7.1a3.189,3.189,0,0,1-1.035,2.551,4.4,4.4,0,0,1-2.965.895Zm0-1.227h2.7a2.7,2.7,0,0,0,1.844-.567,2.075,2.075,0,0,0,.641-1.64,2.143,2.143,0,0,0-.641-1.628,2.525,2.525,0,0,0-1.758-.634H12.672ZM23.2,3.625l3.719,9.281,3.719-9.281h1.945V15h-1.5V10.57l.141-4.781L27.492,15H26.344L22.617,5.813l.148,4.758V15h-1.5V3.625Zm15.711,6.758a12.079,12.079,0,0,1,.473-3.391A9.85,9.85,0,0,1,40.8,4.039a6,6,0,0,1,1.945-1.875l.3.953a6.222,6.222,0,0,0-1.871,2.672,11.583,11.583,0,0,0-.8,4.023l-.008.664a11.643,11.643,0,0,0,1.1,5.234,6.252,6.252,0,0,0,1.578,2.078l-.3.883a6.192,6.192,0,0,1-1.984-1.937A10.859,10.859,0,0,1,38.914,10.383Zm14.5-.7a7.037,7.037,0,0,1-.562,2.918,4.261,4.261,0,0,1-1.594,1.9,4.4,4.4,0,0,1-6.4-1.887,6.752,6.752,0,0,1-.59-2.832v-.82a6.953,6.953,0,0,1,.57-2.9,4.218,4.218,0,0,1,4-2.594,4.41,4.41,0,0,1,2.41.66,4.253,4.253,0,0,1,1.605,1.914,7.071,7.071,0,0,1,.563,2.918Zm-1.492-.734a5.1,5.1,0,0,0-.812-3.105,2.68,2.68,0,0,0-2.273-1.082A2.651,2.651,0,0,0,46.6,5.84a5,5,0,0,0-.84,3V9.68a5.107,5.107,0,0,0,.824,3.082,2.888,2.888,0,0,0,4.52.063,5.079,5.079,0,0,0,.82-3.035Zm11.75-5.32v7.734a3.628,3.628,0,0,1-1.012,2.633,4.077,4.077,0,0,1-2.723,1.148l-.4.016a4.258,4.258,0,0,1-2.977-1.008,3.6,3.6,0,0,1-1.125-2.773V3.625h1.484v7.7a2.6,2.6,0,0,0,.68,1.918,3.111,3.111,0,0,0,3.887,0,2.6,2.6,0,0,0,.676-1.914V3.625ZM73.9,4.852H70.242V15H68.75V4.852H65.1V3.625h8.8Zm4.8,5.609a12.084,12.084,0,0,1-.457,3.34,9.876,9.876,0,0,1-1.4,2.949,6.127,6.127,0,0,1-1.973,1.922l-.3-.883A6.281,6.281,0,0,0,76.5,14.926a12.387,12.387,0,0,0,.746-4.309v-.25A12.861,12.861,0,0,0,76.9,7.316a10.3,10.3,0,0,0-.957-2.527,5.838,5.838,0,0,0-1.379-1.742l.3-.883A6.1,6.1,0,0,1,76.832,4.07a9.9,9.9,0,0,1,1.4,2.945A12.363,12.363,0,0,1,78.7,10.461Z" transform="translate(863.858 78.423)" fill="#12263f"/>
    <line id="Línea_3988" data-name="Línea 3988" y2="92.756" transform="translate(785.401 60.85)" fill="none" stroke="#e1e1e1" stroke-width="1"/>
  </g>
</svg>
