<svg xmlns="http://www.w3.org/2000/svg" width="1030" height="430.105" viewBox="0 0 1030 430.105">
  <g id="Grupo_1111242" data-name="Grupo 1111242" transform="translate(-283.449 -5326.241)">
    <g id="Grupo_1107716" data-name="Grupo 1107716" transform="translate(-24.602 -4802.039)">
      <rect id="Rectángulo_673" data-name="Rectángulo 673" width="1030" height="49" transform="translate(308.051 10128.28)" fill="#c10000"/>
      <g id="Trazado_877956" data-name="Trazado 877956" transform="translate(308.051 10128.28)" fill="none">
        <path d="M0,0H1030V430.105H0Z" stroke="none"/>
        <path d="M 1 0.999969482421875 L 1 429.1054992675781 L 1029 429.1054992675781 L 1029 0.999969482421875 L 1 0.999969482421875 M 0 -3.0517578125e-05 L 1030 -3.0517578125e-05 L 1030 430.1054992675781 L 0 430.1054992675781 L 0 -3.0517578125e-05 Z" stroke="none" fill="#e9e9e9"/>
      </g>
      <path id="Trazado_883537" data-name="Trazado 883537" d="M14.684-13.887H9.563V0H5.449V-13.887H.422v-3.176H14.684ZM24.7-3.187H19.066L18.082,0H13.688l6.258-17.062h3.867L30.117,0H25.7ZM20.051-6.363h3.668l-1.84-5.918ZM37.7-6.035H35.473V0H31.359V-17.062h6.715a7.5,7.5,0,0,1,4.746,1.346,4.561,4.561,0,0,1,1.711,3.8,5.54,5.54,0,0,1-.721,2.95,5.115,5.115,0,0,1-2.256,1.9L45.117-.176V0H40.711ZM35.473-9.2h2.6a2.335,2.335,0,0,0,1.764-.617,2.384,2.384,0,0,0,.592-1.721,2.412,2.412,0,0,0-.6-1.733,2.313,2.313,0,0,0-1.758-.629h-2.6Zm18.34-7.863h4.1V-5.355a5.6,5.6,0,0,1-.756,2.906,5.16,5.16,0,0,1-2.109,1.98,6.447,6.447,0,0,1-3.018.7A6.214,6.214,0,0,1,47.7-1.172a5.111,5.111,0,0,1-1.547-3.984h4.125a2.817,2.817,0,0,0,.4,1.7,1.6,1.6,0,0,0,1.354.527,1.531,1.531,0,0,0,1.318-.639,3,3,0,0,0,.463-1.787Zm17.273,9.82H64.617v4.078h7.641V0H60.5V-17.062H72.281v3.176H64.617v3.6h6.469Zm16.477-6.645H82.441V0H78.328V-13.887H73.3v-3.176H87.563Zm10.02,10.7H91.945L90.961,0H86.566l6.258-17.062h3.867L103,0H98.578ZM92.93-6.363H96.6l-1.84-5.918Zm22.688-10.7,3.809,11.871,3.8-11.871h5.414V0h-4.125V-3.984l.4-8.156L120.785,0h-2.719L113.93-12.152l.4,8.168V0h-4.113V-17.062ZM141.152-3.187h-5.637L134.531,0h-4.395l6.258-17.062h3.867L146.566,0h-4.418ZM136.5-6.363h3.668l-1.84-5.918Zm21.891-.879h-6.469v4.078h7.641V0H147.809V-17.062h11.777v3.176h-7.664v3.6h6.469Zm11.648,2.707a1.69,1.69,0,0,0-.639-1.406,7.938,7.938,0,0,0-2.244-1.043,21.53,21.53,0,0,1-2.625-1.043q-3.316-1.629-3.316-4.477a4.014,4.014,0,0,1,.826-2.5,5.344,5.344,0,0,1,2.338-1.687,9.1,9.1,0,0,1,3.4-.6,7.958,7.958,0,0,1,3.3.656,5.223,5.223,0,0,1,2.268,1.869A4.881,4.881,0,0,1,174.152-12h-4.1a2.063,2.063,0,0,0-.639-1.617,2.489,2.489,0,0,0-1.729-.574,2.807,2.807,0,0,0-1.74.486,1.492,1.492,0,0,0-.639,1.236,1.5,1.5,0,0,0,.7,1.189,8.867,8.867,0,0,0,2.473,1.1,15.147,15.147,0,0,1,2.906,1.225,4.884,4.884,0,0,1,2.766,4.395,4.166,4.166,0,0,1-1.687,3.516A7.506,7.506,0,0,1,167.836.234,9.184,9.184,0,0,1,164.08-.51a5.663,5.663,0,0,1-2.531-2.039,5.313,5.313,0,0,1-.85-2.982h4.125a2.617,2.617,0,0,0,.709,2.021,3.351,3.351,0,0,0,2.3.65,2.647,2.647,0,0,0,1.611-.439A1.45,1.45,0,0,0,170.039-4.535Zm19.617-9.352h-5.121V0h-4.113V-13.887h-5.027v-3.176h14.262Zm8.074,7.852H195.5V0h-4.113V-17.062h6.715a7.5,7.5,0,0,1,4.746,1.346,4.561,4.561,0,0,1,1.711,3.8,5.54,5.54,0,0,1-.721,2.95,5.115,5.115,0,0,1-2.256,1.9l3.563,6.889V0h-4.406ZM195.5-9.2h2.6a2.335,2.335,0,0,0,1.764-.617,2.384,2.384,0,0,0,.592-1.721,2.412,2.412,0,0,0-.6-1.733,2.313,2.313,0,0,0-1.758-.629h-2.6Zm21.234,6.012H211.1L210.117,0h-4.395l6.258-17.062h3.867L222.152,0h-4.418Zm-4.652-3.176h3.668l-1.84-5.918Z" transform="translate(721.051 10163.28)" fill="#fbfbf9"/>
      <path id="Trazado_878151" data-name="Trazado 878151" d="M0,111.532" transform="translate(708.364 10238.28)" fill="rgba(0,0,0,0)" stroke="#e1e1e1" stroke-width="1"/>
      <path id="Trazado_878150" data-name="Trazado 878150" d="M0,112.15" transform="translate(874.363 10238.13)" fill="rgba(0,0,0,0)" stroke="#e1e1e1" stroke-width="1"/>
      <path id="Trazado_883535" data-name="Trazado 883535" d="M3.258,3.625l3.719,9.281L10.7,3.625h1.945V15h-1.5V10.57l.141-4.781L7.547,15H6.4L2.672,5.813,2.82,10.57V15H1.32V3.625Zm18.453,8.4H16.945L15.875,15H14.328L18.672,3.625h1.313L24.336,15H22.8ZM17.4,10.8h3.867l-1.937-5.32ZM34.469,9.68a7.026,7.026,0,0,1-.523,2.84,4.388,4.388,0,0,1-1.469,1.863l2.031,1.594-1.023.945-2.4-1.906a4.88,4.88,0,0,1-1.187.141,4.244,4.244,0,0,1-4-2.543,6.752,6.752,0,0,1-.59-2.832v-.82a6.953,6.953,0,0,1,.57-2.9,4.218,4.218,0,0,1,4-2.594,4.4,4.4,0,0,1,2.418.664,4.284,4.284,0,0,1,1.605,1.91,7.016,7.016,0,0,1,.563,2.91Zm-1.5-.734a5.162,5.162,0,0,0-.8-3.1,2.89,2.89,0,0,0-4.516-.008,5,5,0,0,0-.84,3V9.68a5.147,5.147,0,0,0,.816,3.078,2.885,2.885,0,0,0,4.52.066,5.079,5.079,0,0,0,.82-3.035Zm11.82-5.32v7.734a3.628,3.628,0,0,1-1.012,2.633,4.077,4.077,0,0,1-2.723,1.148l-.4.016a4.258,4.258,0,0,1-2.977-1.008,3.6,3.6,0,0,1-1.125-2.773V3.625h1.484v7.7a2.6,2.6,0,0,0,.68,1.918,3.111,3.111,0,0,0,3.887,0,2.6,2.6,0,0,0,.676-1.914V3.625ZM48.766,15h-1.5V3.625h1.5ZM60.25,15H58.742L53.016,6.234V15H51.508V3.625h1.508l5.742,8.8v-8.8H60.25Zm9.086-2.977H64.57L63.5,15H61.953L66.3,3.625h1.313L71.961,15H70.422ZM65.023,10.8h3.867l-1.937-5.32Zm18.3,5.383H76.164V15H83.32Zm7.219,0H83.383V15h7.156Zm7.219,0H90.6V15h7.156Zm7.219,0H97.82V15h7.156Zm7.219,0h-7.156V15H112.2Zm7.219,0h-7.156V15h7.156Zm7.219,0h-7.156V15h7.156Zm7.219,0H126.7V15h7.156Zm7.219,0h-7.156V15h7.156Zm7.219,0h-7.156V15h7.156Zm7.219,0h-7.156V15h7.156Zm7.219,0H155.57V15h7.156Zm7.219,0h-7.156V15h7.156Zm7.219,0h-7.156V15h7.156Zm7.219,0h-7.156V15h7.156Zm7.219,0h-7.156V15H191.6Zm7.219,0h-7.156V15h7.156Zm7.219,0h-7.156V15h7.156Zm7.219,0H206.1V15h7.156Zm7.219,0H213.32V15h7.156Zm7.219,0h-7.156V15H227.7Zm7.219,0h-7.156V15h7.156Zm7.219,0h-7.156V15h7.156Zm7.219,0H242.2V15h7.156Zm7.219,0h-7.156V15h7.156Zm7.219,0h-7.156V15h7.156Zm7.219,0h-7.156V15h7.156Zm7.219,0H271.07V15h7.156Zm7.219,0h-7.156V15h7.156Zm7.219,0h-7.156V15h7.156Zm7.219,0h-7.156V15h7.156Zm7.219,0h-7.156V15H307.1Zm7.219,0h-7.156V15h7.156Zm7.219,0h-7.156V15h7.156Zm7.219,0H321.6V15h7.156Zm7.219,0H328.82V15h7.156Zm7.219,0h-7.156V15H343.2Zm7.219,0h-7.156V15h7.156Zm7.219,0h-7.156V15h7.156Zm7.219,0H357.7V15h7.156Zm7.219,0h-7.156V15h7.156Zm7.219,0h-7.156V15h7.156Zm7.219,0h-7.156V15h7.156Zm7.219,0H386.57V15h7.156Zm7.219,0h-7.156V15h7.156Zm7.219,0h-7.156V15h7.156Zm7.219,0h-7.156V15h7.156Zm7.219,0h-7.156V15H422.6Zm7.219,0h-7.156V15h7.156Zm7.219,0h-7.156V15h7.156Zm7.219,0H437.1V15h7.156Zm7.219,0H444.32V15h7.156Zm7.219,0h-7.156V15H458.7Zm7.219,0h-7.156V15h7.156Zm7.219,0h-7.156V15h7.156Zm7.219,0H473.2V15h7.156Zm7.219,0h-7.156V15h7.156Zm7.219,0h-7.156V15h7.156Zm7.219,0h-7.156V15h7.156Zm7.219,0H502.07V15h7.156Zm7.219,0h-7.156V15h7.156ZM3.258,33.625l3.719,9.281L10.7,33.625h1.945V45h-1.5V40.57l.141-4.781L7.547,45H6.4L2.672,35.813,2.82,40.57V45H1.32V33.625Zm18.453,8.4H16.945L15.875,45H14.328l4.344-11.375h1.313L24.336,45H22.8ZM17.4,40.8h3.867l-1.937-5.32Zm12.641-.4H27.367V45H25.859V33.625h3.766a4.457,4.457,0,0,1,2.957.875,3.148,3.148,0,0,1,1.035,2.547,3.062,3.062,0,0,1-.574,1.852,3.428,3.428,0,0,1-1.6,1.18l2.672,4.828V45H32.508Zm-2.672-1.227h2.3a2.6,2.6,0,0,0,1.777-.579,1.959,1.959,0,0,0,.66-1.55,2.062,2.062,0,0,0-.629-1.62,2.663,2.663,0,0,0-1.816-.571h-2.3Zm16.719,2.219a4.185,4.185,0,0,1-1.332,2.785,4.365,4.365,0,0,1-2.98.98,4.008,4.008,0,0,1-3.23-1.445,5.815,5.815,0,0,1-1.215-3.867V38.75a6.481,6.481,0,0,1,.566-2.789A4.231,4.231,0,0,1,37.5,34.113a4.47,4.47,0,0,1,2.406-.645,4.11,4.11,0,0,1,2.906,1.012,4.235,4.235,0,0,1,1.273,2.8H42.578a3.268,3.268,0,0,0-.848-1.975,2.565,2.565,0,0,0-1.824-.611,2.684,2.684,0,0,0-2.254,1.063,4.882,4.882,0,0,0-.816,3.026v1.1a5.018,5.018,0,0,0,.773,2.948,2.5,2.5,0,0,0,2.164,1.095,2.886,2.886,0,0,0,1.918-.566,3.143,3.143,0,0,0,.887-1.973Zm8.328.633H47.648L46.578,45H45.031l4.344-11.375h1.313L55.039,45H53.5ZM48.1,40.8h3.867l-1.937-5.32ZM66.4,46.18H59.242V45H66.4Zm7.219,0H66.461V45h7.156Zm7.219,0H73.68V45h7.156Zm7.219,0H80.9V45h7.156Zm7.219,0H88.117V45h7.156Zm7.219,0H95.336V45h7.156Zm7.219,0h-7.156V45h7.156Zm7.219,0h-7.156V45h7.156Zm7.219,0h-7.156V45h7.156Zm7.219,0h-7.156V45h7.156Zm7.219,0H131.43V45h7.156Zm7.219,0h-7.156V45H145.8Zm7.219,0h-7.156V45h7.156Zm7.219,0h-7.156V45h7.156Zm7.219,0H160.3V45h7.156Zm7.219,0h-7.156V45h7.156Zm7.219,0h-7.156V45H181.9Zm7.219,0h-7.156V45h7.156Zm7.219,0H189.18V45h7.156Zm7.219,0H196.4V45h7.156Zm7.219,0h-7.156V45h7.156Zm7.219,0h-7.156V45h7.156Zm7.219,0h-7.156V45h7.156Zm7.219,0h-7.156V45h7.156Zm7.219,0h-7.156V45h7.156Zm7.219,0h-7.156V45h7.156Zm7.219,0H246.93V45h7.156Zm7.219,0h-7.156V45H261.3Zm7.219,0h-7.156V45h7.156Zm7.219,0h-7.156V45h7.156Zm7.219,0H275.8V45h7.156Zm7.219,0h-7.156V45h7.156Zm7.219,0h-7.156V45H297.4Zm7.219,0h-7.156V45h7.156Zm7.219,0H304.68V45h7.156Zm7.219,0H311.9V45h7.156Zm7.219,0h-7.156V45h7.156Zm7.219,0h-7.156V45h7.156Zm7.219,0h-7.156V45h7.156Zm7.219,0h-7.156V45h7.156Zm7.219,0h-7.156V45h7.156Zm7.219,0h-7.156V45h7.156Zm7.219,0H362.43V45h7.156Zm7.219,0h-7.156V45H376.8Zm7.219,0h-7.156V45h7.156Zm7.219,0h-7.156V45h7.156Zm7.219,0H391.3V45h7.156Zm7.219,0h-7.156V45h7.156Zm7.219,0h-7.156V45H412.9Zm7.219,0h-7.156V45h7.156Zm7.219,0H420.18V45h7.156Zm7.219,0H427.4V45h7.156Zm7.219,0h-7.156V45h7.156Zm7.219,0h-7.156V45h7.156Zm7.219,0h-7.156V45h7.156Zm7.219,0h-7.156V45h7.156Zm7.219,0h-7.156V45h7.156Zm7.219,0h-7.156V45h7.156Zm7.219,0H477.93V45h7.156Zm7.219,0h-7.156V45H492.3Zm7.219,0h-7.156V45h7.156Zm7.219,0h-7.156V45h7.156Zm7.219,0H506.8V45h7.156Zm7.219,0h-7.156V45h7.156ZM3.258,63.625l3.719,9.281L10.7,63.625h1.945V75h-1.5V70.57l.141-4.781L7.547,75H6.4L2.672,65.813,2.82,70.57V75H1.32V63.625ZM24.039,69.68a7.037,7.037,0,0,1-.562,2.918,4.261,4.261,0,0,1-1.594,1.9,4.4,4.4,0,0,1-6.4-1.887,6.752,6.752,0,0,1-.59-2.832v-.82a6.953,6.953,0,0,1,.57-2.9,4.218,4.218,0,0,1,4-2.594,4.41,4.41,0,0,1,2.41.66,4.253,4.253,0,0,1,1.605,1.914,7.071,7.071,0,0,1,.563,2.918Zm-1.492-.734a5.1,5.1,0,0,0-.812-3.105,2.68,2.68,0,0,0-2.273-1.082,2.651,2.651,0,0,0-2.238,1.082,5,5,0,0,0-.84,3v.836a5.107,5.107,0,0,0,.824,3.082,2.662,2.662,0,0,0,2.27,1.121,2.652,2.652,0,0,0,2.25-1.059,5.079,5.079,0,0,0,.82-3.035ZM26.289,75V63.625H29.5a5.169,5.169,0,0,1,2.625.656,4.438,4.438,0,0,1,1.762,1.867,6.078,6.078,0,0,1,.629,2.781v.727a6.1,6.1,0,0,1-.621,2.82,4.369,4.369,0,0,1-1.773,1.859A5.5,5.5,0,0,1,29.438,75Zm1.5-10.148v8.922h1.578a3.434,3.434,0,0,0,2.7-1.079,4.458,4.458,0,0,0,.965-3.073v-.665a4.529,4.529,0,0,0-.91-3.014,3.239,3.239,0,0,0-2.582-1.091Zm15.422,4.891h-4.93v4.031h5.727V75H36.781V63.625H43.93v1.227H38.281v3.664h4.93Zm4.172,4.031h5.391V75h-6.9V63.625h1.508ZM62.727,69.68a7.037,7.037,0,0,1-.562,2.918,4.261,4.261,0,0,1-1.594,1.9,4.4,4.4,0,0,1-6.4-1.887,6.752,6.752,0,0,1-.59-2.832v-.82a6.953,6.953,0,0,1,.57-2.9,4.218,4.218,0,0,1,4-2.594,4.41,4.41,0,0,1,2.41.66,4.253,4.253,0,0,1,1.605,1.914,7.071,7.071,0,0,1,.563,2.918Zm-1.492-.734a5.1,5.1,0,0,0-.812-3.105,2.68,2.68,0,0,0-2.273-1.082A2.651,2.651,0,0,0,55.91,65.84a5,5,0,0,0-.84,3v.836a5.107,5.107,0,0,0,.824,3.082,2.888,2.888,0,0,0,4.52.063,5.079,5.079,0,0,0,.82-3.035ZM74.8,76.18H67.648V75H74.8Zm7.219,0H74.867V75h7.156Zm7.219,0H82.086V75h7.156Zm7.219,0H89.3V75h7.156Zm7.219,0H96.523V75h7.156Zm7.219,0h-7.156V75H110.9Zm7.219,0h-7.156V75h7.156Zm7.219,0H118.18V75h7.156Zm7.219,0H125.4V75h7.156Zm7.219,0h-7.156V75h7.156Zm7.219,0h-7.156V75h7.156Zm7.219,0h-7.156V75h7.156Zm7.219,0h-7.156V75h7.156Zm7.219,0h-7.156V75h7.156Zm7.219,0h-7.156V75h7.156Zm7.219,0H175.93V75h7.156Zm7.219,0h-7.156V75H190.3Zm7.219,0h-7.156V75h7.156Zm7.219,0h-7.156V75h7.156Zm7.219,0H204.8V75h7.156Zm7.219,0h-7.156V75h7.156Zm7.219,0h-7.156V75H226.4Zm7.219,0h-7.156V75h7.156Zm7.219,0H233.68V75h7.156Zm7.219,0H240.9V75h7.156Zm7.219,0h-7.156V75h7.156Zm7.219,0h-7.156V75h7.156Zm7.219,0h-7.156V75h7.156Zm7.219,0h-7.156V75h7.156Zm7.219,0h-7.156V75h7.156Zm7.219,0h-7.156V75h7.156Zm7.219,0H291.43V75h7.156Zm7.219,0h-7.156V75H305.8Zm7.219,0h-7.156V75h7.156Zm7.219,0h-7.156V75h7.156Zm7.219,0H320.3V75h7.156Zm7.219,0h-7.156V75h7.156Zm7.219,0h-7.156V75H341.9Zm7.219,0h-7.156V75h7.156Zm7.219,0H349.18V75h7.156Zm7.219,0H356.4V75h7.156Zm7.219,0h-7.156V75h7.156Zm7.219,0h-7.156V75h7.156Zm7.219,0h-7.156V75h7.156Zm7.219,0h-7.156V75h7.156Zm7.219,0h-7.156V75h7.156Zm7.219,0h-7.156V75h7.156Zm7.219,0H406.93V75h7.156Zm7.219,0h-7.156V75H421.3Zm7.219,0h-7.156V75h7.156Zm7.219,0h-7.156V75h7.156Zm7.219,0H435.8V75h7.156Zm7.219,0h-7.156V75h7.156Zm7.219,0h-7.156V75H457.4Zm7.219,0h-7.156V75h7.156Zm7.219,0H464.68V75h7.156Zm7.219,0H471.9V75h7.156Zm7.219,0h-7.156V75h7.156Zm7.219,0h-7.156V75h7.156Zm7.219,0h-7.156V75h7.156Zm7.219,0h-7.156V75h7.156Zm7.219,0h-7.156V75h7.156Zm7.219,0h-7.156V75h7.156ZM7.594,99.977H2.82V105H1.32V93.625H8.367v1.227H2.82v3.9H7.594Zm7.523,2.047H10.352L9.281,105H7.734l4.344-11.375h1.313L17.742,105H16.2ZM10.8,100.8h3.867l-1.937-5.32Zm8.469,4.2V93.625h3.719a4.317,4.317,0,0,1,2.785.766,2.759,2.759,0,0,1,.934,2.266,2.31,2.31,0,0,1-.453,1.41,2.938,2.938,0,0,1-1.234.949,2.638,2.638,0,0,1,1.457.98,2.814,2.814,0,0,1,.535,1.723,3.042,3.042,0,0,1-.992,2.406,4.1,4.1,0,0,1-2.8.875Zm1.5-5.32v4.094H23.25a2.385,2.385,0,0,0,1.652-.543,1.907,1.907,0,0,0,.605-1.5q0-2.055-2.234-2.055Zm0-1.2h2.266a2.375,2.375,0,0,0,1.574-.493,1.654,1.654,0,0,0,.59-1.339,1.626,1.626,0,0,0-.547-1.366,2.686,2.686,0,0,0-1.664-.427H20.773ZM33.406,100.4H30.734V105H29.227V93.625h3.766a4.457,4.457,0,0,1,2.957.875,3.148,3.148,0,0,1,1.035,2.547A3.062,3.062,0,0,1,36.41,98.9a3.428,3.428,0,0,1-1.6,1.18l2.672,4.828V105H35.875Zm-2.672-1.227h2.3a2.6,2.6,0,0,0,1.777-.579,1.959,1.959,0,0,0,.66-1.55,2.062,2.062,0,0,0-.629-1.62,2.663,2.663,0,0,0-1.816-.571h-2.3ZM40.7,105H39.2V93.625h1.5ZM51.8,101.391a4.185,4.185,0,0,1-1.332,2.785,4.365,4.365,0,0,1-2.98.98,4.008,4.008,0,0,1-3.23-1.445,5.815,5.815,0,0,1-1.215-3.867V98.75a6.481,6.481,0,0,1,.566-2.789,4.231,4.231,0,0,1,1.605-1.848,4.47,4.47,0,0,1,2.406-.645,4.11,4.11,0,0,1,2.906,1.012,4.235,4.235,0,0,1,1.273,2.8H50.3a3.268,3.268,0,0,0-.848-1.975,2.565,2.565,0,0,0-1.824-.611,2.684,2.684,0,0,0-2.254,1.063,4.882,4.882,0,0,0-.816,3.026v1.1a5.018,5.018,0,0,0,.773,2.948,2.5,2.5,0,0,0,2.164,1.095,2.887,2.887,0,0,0,1.918-.566,3.143,3.143,0,0,0,.887-1.973Zm8.328.633H55.367L54.3,105H52.75l4.344-11.375h1.313L62.758,105H61.219ZM55.82,100.8h3.867l-1.937-5.32ZM73.031,105H71.523L65.8,96.234V105H64.289V93.625H65.8l5.742,8.8v-8.8h1.492Zm10.3-10.148H79.672V105H78.18V94.852H74.531V93.625h8.8Zm8.117,4.891h-4.93v4.031h5.727V105H85.016V93.625h7.148v1.227H86.516v3.664h4.93Zm12.492,6.438H96.781V105h7.156Zm7.219,0H104V105h7.156Zm7.219,0h-7.156V105h7.156Zm7.219,0h-7.156V105h7.156Zm7.219,0h-7.156V105h7.156Zm7.219,0h-7.156V105h7.156Zm7.219,0h-7.156V105h7.156Zm7.219,0h-7.156V105h7.156Zm7.219,0h-7.156V105h7.156Zm7.219,0H161.75V105h7.156Zm7.219,0h-7.156V105h7.156Zm7.219,0h-7.156V105h7.156Zm7.219,0h-7.156V105h7.156Zm7.219,0h-7.156V105h7.156Zm7.219,0h-7.156V105H205Zm7.219,0h-7.156V105h7.156Zm7.219,0h-7.156V105h7.156Zm7.219,0H219.5V105h7.156Zm7.219,0h-7.156V105h7.156Zm7.219,0h-7.156V105h7.156Zm7.219,0h-7.156V105h7.156Zm7.219,0h-7.156V105h7.156Zm7.219,0h-7.156V105h7.156Zm7.219,0h-7.156V105h7.156Zm7.219,0h-7.156V105h7.156Zm7.219,0H277.25V105h7.156Zm7.219,0h-7.156V105h7.156Zm7.219,0h-7.156V105h7.156Zm7.219,0h-7.156V105h7.156Zm7.219,0h-7.156V105h7.156Zm7.219,0h-7.156V105H320.5Zm7.219,0h-7.156V105h7.156Zm7.219,0h-7.156V105h7.156Zm7.219,0H335V105h7.156Zm7.219,0h-7.156V105h7.156Zm7.219,0h-7.156V105h7.156Zm7.219,0h-7.156V105h7.156Zm7.219,0h-7.156V105h7.156Zm7.219,0h-7.156V105h7.156Zm7.219,0h-7.156V105h7.156Zm7.219,0h-7.156V105h7.156Zm7.219,0H392.75V105h7.156Zm7.219,0h-7.156V105h7.156Zm7.219,0h-7.156V105h7.156Zm7.219,0h-7.156V105h7.156Zm7.219,0h-7.156V105h7.156Zm7.219,0h-7.156V105H436Zm7.219,0h-7.156V105h7.156Zm7.219,0h-7.156V105h7.156Zm7.219,0H450.5V105h7.156Zm7.219,0h-7.156V105h7.156Zm7.219,0h-7.156V105h7.156Zm7.219,0h-7.156V105h7.156Zm7.219,0h-7.156V105h7.156Zm7.219,0h-7.156V105h7.156Zm7.219,0h-7.156V105h7.156Zm7.219,0h-7.156V105h7.156Zm7.219,0H508.25V105h7.156Zm7.219,0h-7.156V105h7.156ZM1.32,135V123.625H4.531a5.169,5.169,0,0,1,2.625.656,4.438,4.438,0,0,1,1.762,1.867,6.078,6.078,0,0,1,.629,2.781v.727a6.1,6.1,0,0,1-.621,2.82,4.369,4.369,0,0,1-1.773,1.859A5.5,5.5,0,0,1,4.469,135Zm1.5-10.148v8.922H4.4a3.434,3.434,0,0,0,2.7-1.079,4.458,4.458,0,0,0,.965-3.073v-.665a4.529,4.529,0,0,0-.91-3.014,3.239,3.239,0,0,0-2.582-1.091ZM13.422,135h-1.5V123.625h1.5Zm4.68-11.375,3.719,9.281,3.719-9.281h1.945V135h-1.5v-4.43l.141-4.781L22.391,135H21.242l-3.727-9.187.148,4.758V135h-1.5V123.625Zm18.461,6.117h-4.93v4.031h5.727V135H30.133V123.625h7.148v1.227H31.633v3.664h4.93ZM47.969,135H46.461l-5.727-8.766V135H39.227V123.625h1.508l5.742,8.8v-8.8h1.492Zm6.016-5.07a7.053,7.053,0,0,1-2.809-1.363,2.6,2.6,0,0,1-.879-2,2.751,2.751,0,0,1,1.074-2.223,4.269,4.269,0,0,1,2.793-.879,4.66,4.66,0,0,1,2.09.453,3.436,3.436,0,0,1,1.422,1.25,3.2,3.2,0,0,1,.5,1.742H56.672a2.08,2.08,0,0,0-.656-1.627,2.669,2.669,0,0,0-1.852-.592,2.732,2.732,0,0,0-1.73.489,1.632,1.632,0,0,0-.621,1.358,1.468,1.468,0,0,0,.59,1.178,5.786,5.786,0,0,0,2.008.88,9.316,9.316,0,0,1,2.219.88,3.367,3.367,0,0,1,1.188,1.121,2.861,2.861,0,0,1,.387,1.508,2.658,2.658,0,0,1-1.078,2.215,4.6,4.6,0,0,1-2.883.832,5.347,5.347,0,0,1-2.187-.449,3.681,3.681,0,0,1-1.566-1.23,3,3,0,0,1-.551-1.773h1.508a1.959,1.959,0,0,0,.762,1.629,3.207,3.207,0,0,0,2.035.6,2.948,2.948,0,0,0,1.82-.484,1.573,1.573,0,0,0,.633-1.32,1.545,1.545,0,0,0-.586-1.293A6.755,6.755,0,0,0,53.984,129.93Zm7.75,5.07h-1.5V123.625h1.5Zm11.492-5.32a7.037,7.037,0,0,1-.562,2.918,4.261,4.261,0,0,1-1.594,1.9,4.4,4.4,0,0,1-6.4-1.887,6.752,6.752,0,0,1-.59-2.832v-.82a6.953,6.953,0,0,1,.57-2.9,4.218,4.218,0,0,1,4-2.594,4.41,4.41,0,0,1,2.41.66,4.253,4.253,0,0,1,1.605,1.914,7.071,7.071,0,0,1,.563,2.918Zm-1.492-.734a5.1,5.1,0,0,0-.812-3.105,2.68,2.68,0,0,0-2.273-1.082,2.651,2.651,0,0,0-2.238,1.082,5,5,0,0,0-.84,3v.836a5.107,5.107,0,0,0,.824,3.082,2.888,2.888,0,0,0,4.52.063,5.079,5.079,0,0,0,.82-3.035ZM84.219,135H82.711l-5.727-8.766V135H75.477V123.625h1.508l5.742,8.8v-8.8h1.492Zm9.094-5.258h-4.93v4.031h5.727V135H86.883V123.625h7.148v1.227H88.383v3.664h4.93Zm6.016.188a7.053,7.053,0,0,1-2.809-1.363,2.6,2.6,0,0,1-.879-2,2.751,2.751,0,0,1,1.074-2.223,4.269,4.269,0,0,1,2.793-.879,4.66,4.66,0,0,1,2.09.453,3.436,3.436,0,0,1,1.422,1.25,3.2,3.2,0,0,1,.5,1.742h-1.508a2.08,2.08,0,0,0-.656-1.627,2.669,2.669,0,0,0-1.852-.592,2.732,2.732,0,0,0-1.73.489,1.632,1.632,0,0,0-.621,1.358,1.468,1.468,0,0,0,.59,1.178,5.786,5.786,0,0,0,2.008.88,9.316,9.316,0,0,1,2.219.88,3.367,3.367,0,0,1,1.188,1.121,2.861,2.861,0,0,1,.387,1.508,2.658,2.658,0,0,1-1.078,2.215,4.6,4.6,0,0,1-2.883.832,5.347,5.347,0,0,1-2.187-.449,3.681,3.681,0,0,1-1.566-1.23,3,3,0,0,1-.551-1.773h1.508a1.959,1.959,0,0,0,.762,1.629,3.207,3.207,0,0,0,2.035.6,2.948,2.948,0,0,0,1.82-.484,1.573,1.573,0,0,0,.633-1.32,1.545,1.545,0,0,0-.586-1.293A6.755,6.755,0,0,0,99.328,129.93Zm5.867,4.313a.905.905,0,0,1,.223-.625.848.848,0,0,1,.668-.25.874.874,0,0,1,.676.25.887.887,0,0,1,.23.625.839.839,0,0,1-.23.6.89.89,0,0,1-.676.242.8.8,0,0,1-.891-.844Zm.008-6.9a.905.905,0,0,1,.223-.625.848.848,0,0,1,.668-.25.874.874,0,0,1,.676.25.887.887,0,0,1,.23.625.839.839,0,0,1-.23.6.89.89,0,0,1-.676.242.8.8,0,0,1-.891-.844Zm14.383,4.68H114.82L113.75,135H112.2l4.344-11.375h1.313L122.211,135h-1.539Zm-4.312-1.227h3.867l-1.937-5.32Zm9.977,2.977h5.391V135h-6.9V123.625h1.508Zm12.813-8.922h-3.656V135h-1.492V124.852h-3.648v-1.227h8.8Zm10.219,4.828a7.037,7.037,0,0,1-.562,2.918,4.261,4.261,0,0,1-1.594,1.9,4.4,4.4,0,0,1-6.4-1.887,6.752,6.752,0,0,1-.59-2.832v-.82a6.953,6.953,0,0,1,.57-2.9,4.218,4.218,0,0,1,4-2.594,4.41,4.41,0,0,1,2.41.66,4.253,4.253,0,0,1,1.605,1.914,7.071,7.071,0,0,1,.563,2.918Zm-1.492-.734a5.1,5.1,0,0,0-.812-3.105,2.68,2.68,0,0,0-2.273-1.082,2.651,2.651,0,0,0-2.238,1.082,5,5,0,0,0-.84,3v.836a5.107,5.107,0,0,0,.824,3.082,2.888,2.888,0,0,0,4.52.063,5.079,5.079,0,0,0,.82-3.035Zm9.609,7.234h-7.156V135H156.4Zm7.219,0h-7.156V135h7.156Zm7.219,0H163.68V135h7.156Zm7.219,0H170.9V135h7.156Zm7.219,0h-7.156V135h7.156Zm7.219,0h-7.156V135h7.156Zm7.219,0h-7.156V135h7.156Zm7.219,0h-7.156V135h7.156Zm7.219,0h-7.156V135h7.156Zm7.219,0h-7.156V135h7.156Zm7.219,0H221.43V135h7.156Zm11.594-4.156h-4.766L234.344,135H232.8l4.344-11.375h1.313L242.8,135h-1.539Zm-4.312-1.227h3.867l-1.937-5.32Zm17.211,4.2H251.57l-5.727-8.766V135h-1.508V123.625h1.508l5.742,8.8v-8.8h1.492Zm11.031-3.609a4.185,4.185,0,0,1-1.332,2.785,4.365,4.365,0,0,1-2.98.98,4.008,4.008,0,0,1-3.23-1.445,5.815,5.815,0,0,1-1.215-3.867V128.75a6.481,6.481,0,0,1,.566-2.789,4.231,4.231,0,0,1,1.605-1.848,4.47,4.47,0,0,1,2.406-.645,4.11,4.11,0,0,1,2.906,1.012,4.235,4.235,0,0,1,1.273,2.8H262.6a3.268,3.268,0,0,0-.848-1.975,2.565,2.565,0,0,0-1.824-.611,2.684,2.684,0,0,0-2.254,1.063,4.882,4.882,0,0,0-.816,3.026v1.1a5.018,5.018,0,0,0,.773,2.948,2.5,2.5,0,0,0,2.164,1.095,2.886,2.886,0,0,0,1.918-.566,3.143,3.143,0,0,0,.887-1.973ZM274.9,135h-1.508v-5.258h-5.734V135h-1.5V123.625h1.5v4.891h5.734v-4.891H274.9Zm11.414-5.32a7.037,7.037,0,0,1-.562,2.918,4.261,4.261,0,0,1-1.594,1.9,4.4,4.4,0,0,1-6.4-1.887,6.751,6.751,0,0,1-.59-2.832v-.82a6.953,6.953,0,0,1,.57-2.9,4.218,4.218,0,0,1,4-2.594,4.41,4.41,0,0,1,2.41.66,4.253,4.253,0,0,1,1.605,1.914,7.071,7.071,0,0,1,.563,2.918Zm-1.492-.734a5.1,5.1,0,0,0-.812-3.105,2.68,2.68,0,0,0-2.273-1.082,2.651,2.651,0,0,0-2.238,1.082,5,5,0,0,0-.84,3v.836a5.107,5.107,0,0,0,.824,3.082,2.888,2.888,0,0,0,4.52.063,5.079,5.079,0,0,0,.82-3.035Zm9.609,7.234h-7.156V135h7.156Zm7.219,0h-7.156V135h7.156Zm7.219,0h-7.156V135h7.156Zm7.219,0H308.93V135h7.156Zm7.219,0h-7.156V135H323.3Zm7.219,0h-7.156V135h7.156Zm7.219,0h-7.156V135h7.156Zm7.219,0H337.8V135h7.156Zm7.219,0h-7.156V135h7.156Zm7.219,0h-7.156V135H359.4Zm7.219,0h-7.156V135h7.156Zm7.219,0H366.68V135h7.156Zm7.219,0H373.9V135h7.156Zm6.82-2.406h5.391V135h-6.9V123.625h1.508Zm13.531-1.75h-4.766L395.57,135h-1.547l4.344-11.375h1.313L404.031,135h-1.539Zm-4.312-1.227h3.867l-1.937-5.32Zm12.641-.4h-2.672V135h-1.508V123.625h3.766a4.457,4.457,0,0,1,2.957.875,3.148,3.148,0,0,1,1.035,2.547,3.062,3.062,0,0,1-.574,1.852,3.428,3.428,0,0,1-1.6,1.18l2.672,4.828V135H412.2Zm-2.672-1.227h2.3a2.6,2.6,0,0,0,1.777-.579,1.959,1.959,0,0,0,.66-1.55,2.062,2.062,0,0,0-.629-1.62,2.663,2.663,0,0,0-1.816-.571h-2.3Zm16.75,4.336a3.465,3.465,0,0,1-1.613,1.238,6.517,6.517,0,0,1-2.41.41,4.674,4.674,0,0,1-2.469-.652,4.346,4.346,0,0,1-1.668-1.855,6.408,6.408,0,0,1-.605-2.789v-.992a5.982,5.982,0,0,1,1.2-3.984,4.179,4.179,0,0,1,3.371-1.414,4.316,4.316,0,0,1,2.867.91,3.965,3.965,0,0,1,1.328,2.582h-1.5a2.48,2.48,0,0,0-2.687-2.266,2.655,2.655,0,0,0-2.285,1.06,5.173,5.173,0,0,0-.785,3.069v.93a4.848,4.848,0,0,0,.875,3.046,2.836,2.836,0,0,0,2.367,1.13,5.229,5.229,0,0,0,1.477-.187,2.283,2.283,0,0,0,1.047-.631v-2.549h-2.633v-1.227h4.125Zm11.25-3.828a7.037,7.037,0,0,1-.562,2.918,4.261,4.261,0,0,1-1.594,1.9,4.4,4.4,0,0,1-6.4-1.887,6.751,6.751,0,0,1-.59-2.832v-.82a6.953,6.953,0,0,1,.57-2.9,4.218,4.218,0,0,1,4-2.594,4.41,4.41,0,0,1,2.41.66,4.253,4.253,0,0,1,1.605,1.914,7.071,7.071,0,0,1,.563,2.918Zm-1.492-.734a5.1,5.1,0,0,0-.812-3.105,2.68,2.68,0,0,0-2.273-1.082,2.651,2.651,0,0,0-2.238,1.082,5,5,0,0,0-.84,3v.836a5.107,5.107,0,0,0,.824,3.082,2.888,2.888,0,0,0,4.52.063,5.079,5.079,0,0,0,.82-3.035Zm9.609,7.234h-7.156V135h7.156Zm7.219,0h-7.156V135H450.4Zm7.219,0h-7.156V135h7.156Zm7.219,0H457.68V135h7.156Zm7.219,0H464.9V135h7.156Zm7.219,0h-7.156V135h7.156Zm7.219,0h-7.156V135h7.156Zm7.219,0h-7.156V135h7.156Zm7.219,0h-7.156V135h7.156Zm7.219,0h-7.156V135h7.156Zm7.219,0h-7.156V135h7.156Zm7.219,0H515.43V135h7.156ZM1.32,165V153.625H4.531a5.169,5.169,0,0,1,2.625.656,4.438,4.438,0,0,1,1.762,1.867,6.078,6.078,0,0,1,.629,2.781v.727a6.1,6.1,0,0,1-.621,2.82,4.369,4.369,0,0,1-1.773,1.859A5.5,5.5,0,0,1,4.469,165Zm1.5-10.148v8.922H4.4a3.434,3.434,0,0,0,2.7-1.079,4.458,4.458,0,0,0,.965-3.073v-.665a4.529,4.529,0,0,0-.91-3.014,3.239,3.239,0,0,0-2.582-1.091ZM13.422,165h-1.5V153.625h1.5Zm9.164-2.977H17.82L16.75,165H15.2l4.344-11.375h1.313L25.211,165H23.672ZM18.273,160.8h3.867l-1.937-5.32Zm10.406-7.172,3.719,9.281,3.719-9.281h1.945V165h-1.5v-4.43l.141-4.781L32.969,165H31.82l-3.727-9.187.148,4.758V165h-1.5V153.625Zm18.461,6.117h-4.93v4.031h5.727V165H40.711V153.625h7.148v1.227H42.211v3.664h4.93Zm10.68-4.891H54.164V165H52.672V154.852H49.023v-1.227h8.8ZM63.68,160.4H61.008V165H59.5V153.625h3.766a4.457,4.457,0,0,1,2.957.875,3.148,3.148,0,0,1,1.035,2.547,3.062,3.062,0,0,1-.574,1.852,3.428,3.428,0,0,1-1.6,1.18l2.672,4.828V165H66.148Zm-2.672-1.227h2.3a2.6,2.6,0,0,0,1.777-.579,1.959,1.959,0,0,0,.66-1.55,2.062,2.062,0,0,0-.629-1.62,2.663,2.663,0,0,0-1.816-.571h-2.3Zm17.1.508a7.037,7.037,0,0,1-.562,2.918,4.261,4.261,0,0,1-1.594,1.9,4.4,4.4,0,0,1-6.4-1.887,6.752,6.752,0,0,1-.59-2.832v-.82a6.953,6.953,0,0,1,.57-2.9,4.218,4.218,0,0,1,4-2.594,4.41,4.41,0,0,1,2.41.66,4.253,4.253,0,0,1,1.605,1.914,7.071,7.071,0,0,1,.563,2.918Zm-1.492-.734a5.1,5.1,0,0,0-.812-3.105,2.68,2.68,0,0,0-2.273-1.082,2.651,2.651,0,0,0-2.238,1.082,5,5,0,0,0-.84,3v.836a5.107,5.107,0,0,0,.824,3.082,2.888,2.888,0,0,0,4.52.063,5.079,5.079,0,0,0,.82-3.035Zm13.57,7.234H83.031V165h7.156Zm7.219,0H90.25V165h7.156Zm7.219,0H97.469V165h7.156Zm7.219,0h-7.156V165h7.156Zm7.219,0h-7.156V165h7.156Zm7.219,0h-7.156V165h7.156Zm7.219,0h-7.156V165H133.5Zm7.219,0h-7.156V165h7.156Zm7.219,0h-7.156V165h7.156Zm7.219,0H148V165h7.156Zm7.219,0h-7.156V165h7.156Zm7.219,0h-7.156V165h7.156Zm7.219,0h-7.156V165h7.156Zm7.219,0h-7.156V165h7.156Zm7.219,0h-7.156V165h7.156Zm7.219,0h-7.156V165h7.156Zm7.219,0h-7.156V165h7.156Zm7.219,0H205.75V165h7.156Zm7.219,0h-7.156V165h7.156Zm7.219,0h-7.156V165h7.156Zm7.219,0h-7.156V165h7.156Zm9.719-4.789a4.185,4.185,0,0,1-1.332,2.785,4.365,4.365,0,0,1-2.98.98,4.008,4.008,0,0,1-3.23-1.445,5.815,5.815,0,0,1-1.215-3.867V158.75a6.481,6.481,0,0,1,.566-2.789,4.231,4.231,0,0,1,1.605-1.848,4.47,4.47,0,0,1,2.406-.645,4.11,4.11,0,0,1,2.906,1.012,4.235,4.235,0,0,1,1.273,2.8h-1.508a3.268,3.268,0,0,0-.848-1.975,2.565,2.565,0,0,0-1.824-.611,2.684,2.684,0,0,0-2.254,1.063,4.882,4.882,0,0,0-.816,3.026v1.1a5.018,5.018,0,0,0,.773,2.948,2.5,2.5,0,0,0,2.164,1.095,2.886,2.886,0,0,0,1.918-.566,3.143,3.143,0,0,0,.887-1.973Zm10.8-1.711a7.037,7.037,0,0,1-.562,2.918,4.261,4.261,0,0,1-1.594,1.9,4.4,4.4,0,0,1-6.4-1.887,6.752,6.752,0,0,1-.59-2.832v-.82a6.953,6.953,0,0,1,.57-2.9,4.218,4.218,0,0,1,4-2.594,4.41,4.41,0,0,1,2.41.66,4.253,4.253,0,0,1,1.605,1.914,7.071,7.071,0,0,1,.563,2.918Zm-1.492-.734a5.1,5.1,0,0,0-.812-3.105,2.68,2.68,0,0,0-2.273-1.082,2.651,2.651,0,0,0-2.238,1.082,5,5,0,0,0-.84,3v.836a5.107,5.107,0,0,0,.824,3.082,2.888,2.888,0,0,0,4.52.063,5.079,5.079,0,0,0,.82-3.035Zm5.25,4.828h5.391V165h-6.9V153.625h1.508Zm15.344-4.094a7.037,7.037,0,0,1-.562,2.918,4.261,4.261,0,0,1-1.594,1.9,4.4,4.4,0,0,1-6.4-1.887,6.751,6.751,0,0,1-.59-2.832v-.82a6.953,6.953,0,0,1,.57-2.9,4.218,4.218,0,0,1,4-2.594,4.409,4.409,0,0,1,2.41.66,4.253,4.253,0,0,1,1.605,1.914,7.071,7.071,0,0,1,.563,2.918Zm-1.492-.734a5.1,5.1,0,0,0-.812-3.105,2.68,2.68,0,0,0-2.273-1.082,2.651,2.651,0,0,0-2.238,1.082,5,5,0,0,0-.84,3v.836a5.107,5.107,0,0,0,.824,3.082,2.888,2.888,0,0,0,4.52.063,5.079,5.079,0,0,0,.82-3.035ZM280.6,160.4H277.93V165h-1.508V153.625h3.766a4.457,4.457,0,0,1,2.957.875,3.148,3.148,0,0,1,1.035,2.547,3.062,3.062,0,0,1-.574,1.852,3.428,3.428,0,0,1-1.6,1.18l2.672,4.828V165H283.07Zm-2.672-1.227h2.3a2.6,2.6,0,0,0,1.777-.579,1.959,1.959,0,0,0,.66-1.55,2.062,2.062,0,0,0-.629-1.62,2.663,2.663,0,0,0-1.816-.571h-2.3Zm18.18,7.008h-7.156V165h7.156Zm7.219,0h-7.156V165h7.156Zm7.219,0h-7.156V165h7.156Zm7.219,0h-7.156V165h7.156Zm7.219,0h-7.156V165h7.156Zm7.219,0h-7.156V165H332.2Zm7.219,0h-7.156V165h7.156Zm7.219,0h-7.156V165h7.156Zm7.219,0H346.7V165h7.156Zm7.219,0h-7.156V165h7.156Zm7.219,0h-7.156V165H368.3Zm7.219,0h-7.156V165h7.156Zm7.219,0h-7.156V165h7.156Zm7.219,0H382.8V165h7.156Zm7.219,0h-7.156V165h7.156Zm7.219,0h-7.156V165h7.156Zm7.219,0h-7.156V165h7.156Zm18.7-5.633V165h-1.5V153.625H433a4.215,4.215,0,0,1,2.926.953,3.231,3.231,0,0,1,1.059,2.523,3.189,3.189,0,0,1-1.035,2.551,4.4,4.4,0,0,1-2.965.895Zm0-1.227H433a2.7,2.7,0,0,0,1.844-.567,2.075,2.075,0,0,0,.641-1.64,2.143,2.143,0,0,0-.641-1.628,2.525,2.525,0,0,0-1.758-.634H430.3Zm15.023.422H440.4v4.031h5.727V165H438.9V153.625h7.148v1.227H440.4v3.664h4.93Zm6.016.188a7.053,7.053,0,0,1-2.809-1.363,2.6,2.6,0,0,1-.879-2,2.751,2.751,0,0,1,1.074-2.223,4.269,4.269,0,0,1,2.793-.879,4.66,4.66,0,0,1,2.09.453,3.436,3.436,0,0,1,1.422,1.25,3.2,3.2,0,0,1,.5,1.742h-1.508a2.08,2.08,0,0,0-.656-1.627,2.669,2.669,0,0,0-1.852-.592,2.732,2.732,0,0,0-1.73.489,1.632,1.632,0,0,0-.621,1.358,1.468,1.468,0,0,0,.59,1.178,5.786,5.786,0,0,0,2.008.88,9.316,9.316,0,0,1,2.219.88,3.367,3.367,0,0,1,1.188,1.121,2.861,2.861,0,0,1,.387,1.508,2.658,2.658,0,0,1-1.078,2.215,4.6,4.6,0,0,1-2.883.832,5.347,5.347,0,0,1-2.187-.449,3.681,3.681,0,0,1-1.566-1.23,3,3,0,0,1-.551-1.773H448.8a1.959,1.959,0,0,0,.762,1.629,3.207,3.207,0,0,0,2.035.6,2.948,2.948,0,0,0,1.82-.484,1.573,1.573,0,0,0,.633-1.32,1.545,1.545,0,0,0-.586-1.293A6.755,6.755,0,0,0,451.344,159.93Zm14.891-.25a7.037,7.037,0,0,1-.562,2.918,4.261,4.261,0,0,1-1.594,1.9,4.4,4.4,0,0,1-6.4-1.887,6.751,6.751,0,0,1-.59-2.832v-.82a6.953,6.953,0,0,1,.57-2.9,4.218,4.218,0,0,1,4-2.594,4.409,4.409,0,0,1,2.41.66,4.253,4.253,0,0,1,1.605,1.914,7.071,7.071,0,0,1,.563,2.918Zm-1.492-.734a5.1,5.1,0,0,0-.812-3.105,2.68,2.68,0,0,0-2.273-1.082,2.651,2.651,0,0,0-2.238,1.082,5,5,0,0,0-.84,3v.836a5.107,5.107,0,0,0,.824,3.082,2.888,2.888,0,0,0,4.52.063,5.079,5.079,0,0,0,.82-3.035Zm13.57,7.234h-7.156V165h7.156Zm7.219,0h-7.156V165h7.156Zm7.219,0h-7.156V165h7.156Zm7.219,0h-7.156V165h7.156Zm7.219,0h-7.156V165h7.156Zm7.219,0H507.25V165h7.156Zm7.219,0h-7.156V165h7.156Zm7.219,0h-7.156V165h7.156Zm7.219,0h-7.156V165h7.156Zm7.219,0h-7.156V165h7.156Zm7.219,0h-7.156V165H550.5Zm7.219,0h-7.156V165h7.156Zm7.219,0h-7.156V165h7.156Zm7.219,0H565V165h7.156ZM10.07,219.68a7.037,7.037,0,0,1-.562,2.918,4.261,4.261,0,0,1-1.594,1.9,4.385,4.385,0,0,1-2.406.656,4.347,4.347,0,0,1-2.383-.66,4.363,4.363,0,0,1-1.613-1.883,6.752,6.752,0,0,1-.59-2.832v-.82a6.953,6.953,0,0,1,.57-2.9,4.347,4.347,0,0,1,1.613-1.926,4.329,4.329,0,0,1,2.387-.668,4.41,4.41,0,0,1,2.41.66,4.253,4.253,0,0,1,1.605,1.914,7.071,7.071,0,0,1,.563,2.918Zm-1.492-.734a5.1,5.1,0,0,0-.812-3.105,2.68,2.68,0,0,0-2.273-1.082,2.651,2.651,0,0,0-2.238,1.082,5,5,0,0,0-.84,3v.836a5.107,5.107,0,0,0,.824,3.082,2.662,2.662,0,0,0,2.27,1.121,2.652,2.652,0,0,0,2.25-1.059,5.079,5.079,0,0,0,.82-3.035Zm11.391-4.094H16.313V225H14.82V214.852H11.172v-1.227h8.8Zm5.859,5.547H23.156V225H21.648V213.625h3.766a4.457,4.457,0,0,1,2.957.875,3.148,3.148,0,0,1,1.035,2.547,3.062,3.062,0,0,1-.574,1.852,3.428,3.428,0,0,1-1.6,1.18l2.672,4.828V225H28.3Zm-2.672-1.227h2.3a2.6,2.6,0,0,0,1.777-.579,1.959,1.959,0,0,0,.66-1.55,2.062,2.062,0,0,0-.629-1.62,2.663,2.663,0,0,0-1.816-.571h-2.3Zm17.1.508A7.037,7.037,0,0,1,39.7,222.6a4.261,4.261,0,0,1-1.594,1.9,4.4,4.4,0,0,1-6.4-1.887,6.752,6.752,0,0,1-.59-2.832v-.82a6.953,6.953,0,0,1,.57-2.9,4.218,4.218,0,0,1,4-2.594,4.41,4.41,0,0,1,2.41.66,4.253,4.253,0,0,1,1.605,1.914,7.071,7.071,0,0,1,.563,2.918Zm-1.492-.734a5.1,5.1,0,0,0-.812-3.105,2.68,2.68,0,0,0-2.273-1.082,2.651,2.651,0,0,0-2.238,1.082,5,5,0,0,0-.84,3v.836a5.107,5.107,0,0,0,.824,3.082,2.888,2.888,0,0,0,4.52.063,5.079,5.079,0,0,0,.82-3.035Zm7.094.984a7.053,7.053,0,0,1-2.809-1.363,2.6,2.6,0,0,1-.879-2,2.752,2.752,0,0,1,1.074-2.223,4.269,4.269,0,0,1,2.793-.879,4.66,4.66,0,0,1,2.09.453,3.436,3.436,0,0,1,1.422,1.25,3.2,3.2,0,0,1,.5,1.742H48.547a2.08,2.08,0,0,0-.656-1.627,2.669,2.669,0,0,0-1.852-.592,2.732,2.732,0,0,0-1.73.489,1.632,1.632,0,0,0-.621,1.358,1.468,1.468,0,0,0,.59,1.178,5.786,5.786,0,0,0,2.008.88,9.316,9.316,0,0,1,2.219.88,3.367,3.367,0,0,1,1.188,1.121,2.861,2.861,0,0,1,.387,1.508A2.658,2.658,0,0,1,49,224.324a4.6,4.6,0,0,1-2.883.832,5.347,5.347,0,0,1-2.187-.449,3.681,3.681,0,0,1-1.566-1.23,3,3,0,0,1-.551-1.773H43.32a1.959,1.959,0,0,0,.762,1.629,3.207,3.207,0,0,0,2.035.6,2.948,2.948,0,0,0,1.82-.484,1.573,1.573,0,0,0,.633-1.32,1.545,1.545,0,0,0-.586-1.293A6.755,6.755,0,0,0,45.859,219.93Zm10.1,5.07V213.625h3.211a5.169,5.169,0,0,1,2.625.656,4.438,4.438,0,0,1,1.762,1.867,6.078,6.078,0,0,1,.629,2.781v.727a6.1,6.1,0,0,1-.621,2.82,4.369,4.369,0,0,1-1.773,1.859,5.5,5.5,0,0,1-2.684.664Zm1.5-10.148v8.922h1.578a3.434,3.434,0,0,0,2.7-1.079,4.458,4.458,0,0,0,.965-3.073v-.665a4.529,4.529,0,0,0-.91-3.014,3.239,3.239,0,0,0-2.582-1.091Zm15.109,7.172H67.8L66.734,225H65.188l4.344-11.375h1.313L75.2,225H73.656ZM68.258,220.8h3.867l-1.937-5.32Zm15.32-5.945H79.922V225H78.43V214.852H74.781v-1.227h8.8ZM93.8,219.68a7.037,7.037,0,0,1-.562,2.918,4.261,4.261,0,0,1-1.594,1.9,4.4,4.4,0,0,1-6.4-1.887,6.752,6.752,0,0,1-.59-2.832v-.82a6.953,6.953,0,0,1,.57-2.9,4.218,4.218,0,0,1,4-2.594,4.41,4.41,0,0,1,2.41.66,4.253,4.253,0,0,1,1.605,1.914,7.071,7.071,0,0,1,.563,2.918Zm-1.492-.734a5.1,5.1,0,0,0-.812-3.105,2.68,2.68,0,0,0-2.273-1.082,2.651,2.651,0,0,0-2.238,1.082,5,5,0,0,0-.84,3v.836a5.107,5.107,0,0,0,.824,3.082,2.888,2.888,0,0,0,4.52.063,5.079,5.079,0,0,0,.82-3.035Zm7.094.984a7.053,7.053,0,0,1-2.809-1.363,2.6,2.6,0,0,1-.879-2,2.751,2.751,0,0,1,1.074-2.223,4.269,4.269,0,0,1,2.793-.879,4.66,4.66,0,0,1,2.09.453,3.436,3.436,0,0,1,1.422,1.25,3.2,3.2,0,0,1,.5,1.742h-1.508a2.08,2.08,0,0,0-.656-1.627,2.669,2.669,0,0,0-1.852-.592,2.732,2.732,0,0,0-1.73.489,1.632,1.632,0,0,0-.621,1.358,1.468,1.468,0,0,0,.59,1.178,5.786,5.786,0,0,0,2.008.88,9.316,9.316,0,0,1,2.219.88,3.367,3.367,0,0,1,1.188,1.121,2.861,2.861,0,0,1,.387,1.508,2.658,2.658,0,0,1-1.078,2.215,4.6,4.6,0,0,1-2.883.832,5.347,5.347,0,0,1-2.187-.449,3.681,3.681,0,0,1-1.566-1.23,3,3,0,0,1-.551-1.773h1.508a1.959,1.959,0,0,0,.762,1.629,3.207,3.207,0,0,0,2.035.6,2.948,2.948,0,0,0,1.82-.484,1.573,1.573,0,0,0,.633-1.32,1.545,1.545,0,0,0-.586-1.293A6.755,6.755,0,0,0,99.4,219.93Zm15.969,6.25h-7.156V225h7.156Zm7.219,0H115.43V225h7.156Zm7.219,0h-7.156V225H129.8Zm7.219,0h-7.156V225h7.156Zm7.219,0h-7.156V225h7.156Zm7.219,0H144.3V225h7.156Zm7.219,0h-7.156V225h7.156Zm7.219,0h-7.156V225H165.9Zm7.219,0h-7.156V225h7.156Zm7.219,0H173.18V225h7.156Zm7.219,0H180.4V225h7.156Zm7.219,0h-7.156V225h7.156Zm7.219,0h-7.156V225h7.156Zm7.219,0h-7.156V225h7.156Zm7.219,0h-7.156V225h7.156Zm7.219,0h-7.156V225h7.156Zm7.219,0h-7.156V225h7.156Zm7.219,0H230.93V225h7.156Zm7.219,0h-7.156V225H245.3Zm7.219,0h-7.156V225h7.156Zm7.219,0h-7.156V225h7.156Zm7.219,0H259.8V225h7.156Zm7.219,0h-7.156V225h7.156Zm7.219,0h-7.156V225H281.4Zm7.219,0h-7.156V225h7.156Zm7.219,0H288.68V225h7.156Zm7.219,0H295.9V225h7.156Zm7.219,0h-7.156V225h7.156Zm7.219,0h-7.156V225h7.156Zm7.219,0h-7.156V225h7.156Zm7.219,0h-7.156V225h7.156Zm7.219,0h-7.156V225h7.156Zm7.219,0h-7.156V225h7.156Zm7.219,0H346.43V225h7.156Zm7.219,0h-7.156V225H360.8Zm7.219,0h-7.156V225h7.156Zm7.219,0h-7.156V225h7.156Zm7.219,0H375.3V225h7.156Zm7.219,0h-7.156V225h7.156Zm7.219,0h-7.156V225H396.9Zm7.219,0h-7.156V225h7.156Zm7.219,0H404.18V225h7.156Zm7.219,0H411.4V225h7.156Zm7.219,0h-7.156V225h7.156Zm7.219,0h-7.156V225h7.156Zm7.219,0h-7.156V225h7.156Zm7.219,0h-7.156V225h7.156Zm7.219,0h-7.156V225h7.156Zm7.219,0h-7.156V225h7.156Zm7.219,0H461.93V225h7.156Zm7.219,0h-7.156V225H476.3Zm7.219,0h-7.156V225h7.156Zm7.219,0h-7.156V225h7.156Zm7.219,0H490.8V225h7.156Zm7.219,0h-7.156V225h7.156Zm7.219,0h-7.156V225H512.4Zm7.219,0h-7.156V225h7.156Zm7.219,0H519.68V225h7.156Zm7.219,0H526.9V225h7.156Zm7.219,0h-7.156V225h7.156Zm7.219,0h-7.156V225h7.156Zm7.219,0h-7.156V225h7.156Zm7.219,0h-7.156V225h7.156Zm7.219,0h-7.156V225h7.156Zm7.219,0h-7.156V225h7.156Zm7.219,0H577.43V225h7.156Zm7.219,0h-7.156V225H591.8Zm7.219,0h-7.156V225h7.156Zm7.219,0h-7.156V225h7.156Zm7.219,0H606.3V225h7.156Zm7.219,0h-7.156V225h7.156Zm7.219,0h-7.156V225H627.9Zm7.219,0h-7.156V225h7.156Zm7.219,0H635.18V225h7.156Zm7.219,0H642.4V225h7.156Zm7.219,0h-7.156V225h7.156Zm7.219,0h-7.156V225h7.156Zm7.219,0h-7.156V225h7.156Zm7.219,0h-7.156V225h7.156Zm7.219,0h-7.156V225h7.156Zm7.219,0h-7.156V225h7.156Zm7.219,0H692.93V225h7.156Zm7.219,0h-7.156V225H707.3Zm7.219,0h-7.156V225h7.156Zm7.219,0h-7.156V225h7.156Zm7.219,0H721.8V225h7.156Zm7.219,0h-7.156V225h7.156Zm7.219,0h-7.156V225H743.4Zm7.219,0h-7.156V225h7.156Zm7.219,0H750.68V225h7.156Zm7.219,0H757.9V225h7.156Zm7.219,0h-7.156V225h7.156Zm7.219,0h-7.156V225h7.156Zm7.219,0h-7.156V225h7.156Zm7.219,0h-7.156V225h7.156Zm7.219,0h-7.156V225h7.156Zm7.219,0h-7.156V225h7.156Zm7.219,0H808.43V225h7.156Zm7.219,0h-7.156V225H822.8Zm7.219,0h-7.156V225h7.156Zm7.219,0h-7.156V225h7.156Zm-830.055,30H.031V255H7.188Zm7.219,0H7.25V255h7.156Zm7.219,0H14.469V255h7.156Zm7.219,0H21.688V255h7.156Zm7.219,0H28.906V255h7.156Zm7.219,0H36.125V255h7.156Zm7.219,0H43.344V255H50.5Zm7.219,0H50.563V255h7.156Zm7.219,0H57.781V255h7.156Zm7.219,0H65V255h7.156Zm7.219,0H72.219V255h7.156Zm7.219,0H79.438V255h7.156Zm7.219,0H86.656V255h7.156Zm7.219,0H93.875V255h7.156Zm7.219,0h-7.156V255h7.156Zm7.219,0h-7.156V255h7.156Zm7.219,0h-7.156V255h7.156Zm7.219,0H122.75V255h7.156Zm7.219,0h-7.156V255h7.156Zm7.219,0h-7.156V255h7.156Zm7.219,0h-7.156V255h7.156Zm7.219,0h-7.156V255h7.156Zm7.219,0h-7.156V255H166Zm7.219,0h-7.156V255h7.156Zm7.219,0h-7.156V255h7.156Zm7.219,0H180.5V255h7.156Zm7.219,0h-7.156V255h7.156Zm7.219,0h-7.156V255h7.156Zm7.219,0h-7.156V255h7.156Zm7.219,0h-7.156V255h7.156Zm7.219,0h-7.156V255h7.156Zm7.219,0h-7.156V255h7.156Zm7.219,0h-7.156V255h7.156Zm7.219,0H238.25V255h7.156Zm7.219,0h-7.156V255h7.156Zm7.219,0h-7.156V255h7.156Zm7.219,0h-7.156V255h7.156Zm7.219,0h-7.156V255h7.156Zm7.219,0h-7.156V255H281.5Zm7.219,0h-7.156V255h7.156Zm7.219,0h-7.156V255h7.156Zm7.219,0H296V255h7.156Zm7.219,0h-7.156V255h7.156Zm7.219,0h-7.156V255h7.156Zm7.219,0h-7.156V255h7.156Zm7.219,0h-7.156V255h7.156Zm7.219,0h-7.156V255h7.156Zm7.219,0h-7.156V255h7.156Zm7.219,0h-7.156V255h7.156Zm7.219,0H353.75V255h7.156Zm7.219,0h-7.156V255h7.156Zm7.219,0h-7.156V255h7.156Zm7.219,0h-7.156V255h7.156Zm7.219,0h-7.156V255h7.156Zm7.219,0h-7.156V255H397Zm7.219,0h-7.156V255h7.156Zm7.219,0h-7.156V255h7.156Zm7.219,0H411.5V255h7.156Zm7.219,0h-7.156V255h7.156Zm7.219,0h-7.156V255h7.156Zm7.219,0h-7.156V255h7.156Zm7.219,0h-7.156V255h7.156Zm7.219,0h-7.156V255h7.156Zm7.219,0h-7.156V255h7.156Zm7.219,0h-7.156V255h7.156Zm7.219,0H469.25V255h7.156Zm7.219,0h-7.156V255h7.156Zm7.219,0h-7.156V255h7.156Zm7.219,0h-7.156V255h7.156Zm7.219,0h-7.156V255h7.156Zm7.219,0h-7.156V255H512.5Zm7.219,0h-7.156V255h7.156Zm7.219,0h-7.156V255h7.156Zm7.219,0H527V255h7.156Zm7.219,0h-7.156V255h7.156Zm7.219,0h-7.156V255h7.156Zm7.219,0h-7.156V255h7.156Zm7.219,0h-7.156V255h7.156Zm7.219,0h-7.156V255h7.156Zm7.219,0h-7.156V255h7.156Zm7.219,0h-7.156V255h7.156Zm7.219,0H584.75V255h7.156Zm7.219,0h-7.156V255h7.156Zm7.219,0h-7.156V255h7.156Zm7.219,0h-7.156V255h7.156Zm7.219,0h-7.156V255h7.156Zm7.219,0h-7.156V255H628Zm7.219,0h-7.156V255h7.156Zm7.219,0h-7.156V255h7.156Zm7.219,0H642.5V255h7.156Zm7.219,0h-7.156V255h7.156Zm7.219,0h-7.156V255h7.156Zm7.219,0h-7.156V255h7.156Zm7.219,0h-7.156V255h7.156Zm7.219,0h-7.156V255h7.156Zm7.219,0h-7.156V255h7.156Zm7.219,0h-7.156V255h7.156Zm7.219,0H700.25V255h7.156Zm7.219,0h-7.156V255h7.156Zm7.219,0h-7.156V255h7.156Zm7.219,0h-7.156V255h7.156Zm7.219,0h-7.156V255h7.156Zm7.219,0h-7.156V255H743.5Zm7.219,0h-7.156V255h7.156Zm7.219,0h-7.156V255h7.156Zm7.219,0H758V255h7.156Zm7.219,0h-7.156V255h7.156Zm7.219,0h-7.156V255h7.156Zm7.219,0h-7.156V255h7.156Zm7.219,0h-7.156V255h7.156Zm7.219,0h-7.156V255h7.156Zm7.219,0h-7.156V255h7.156Zm7.219,0h-7.156V255h7.156Zm7.219,0H815.75V255h7.156Zm7.219,0h-7.156V255h7.156Zm7.219,0h-7.156V255h7.156Z" transform="translate(344.051 10268.28)"/>
      <path id="Trazado_883536" data-name="Trazado 883536" d="M4.672,9.93A7.053,7.053,0,0,1,1.863,8.566a2.6,2.6,0,0,1-.879-2A2.751,2.751,0,0,1,2.059,4.348a4.269,4.269,0,0,1,2.793-.879,4.66,4.66,0,0,1,2.09.453,3.436,3.436,0,0,1,1.422,1.25,3.2,3.2,0,0,1,.5,1.742H7.359A2.08,2.08,0,0,0,6.7,5.287,2.669,2.669,0,0,0,4.852,4.7a2.732,2.732,0,0,0-1.73.489A1.632,1.632,0,0,0,2.5,6.542,1.468,1.468,0,0,0,3.09,7.72,5.785,5.785,0,0,0,5.1,8.6a9.316,9.316,0,0,1,2.219.88A3.367,3.367,0,0,1,8.5,10.6a2.861,2.861,0,0,1,.387,1.508,2.658,2.658,0,0,1-1.078,2.215,4.6,4.6,0,0,1-2.883.832,5.347,5.347,0,0,1-2.187-.449,3.681,3.681,0,0,1-1.566-1.23A3,3,0,0,1,.625,11.7H2.133a1.959,1.959,0,0,0,.762,1.629,3.207,3.207,0,0,0,2.035.6,2.948,2.948,0,0,0,1.82-.484,1.573,1.573,0,0,0,.633-1.32A1.545,1.545,0,0,0,6.8,10.832,6.755,6.755,0,0,0,4.672,9.93Zm12.57-.187h-4.93v4.031h5.727V15H10.813V3.625h7.148V4.852H12.313V8.516h4.93Zm11.031,1.648a4.185,4.185,0,0,1-1.332,2.785,4.365,4.365,0,0,1-2.98.98,4.008,4.008,0,0,1-3.23-1.445,5.815,5.815,0,0,1-1.215-3.867V8.75a6.481,6.481,0,0,1,.566-2.789,4.231,4.231,0,0,1,1.605-1.848,4.47,4.47,0,0,1,2.406-.645A4.11,4.11,0,0,1,27,4.48a4.235,4.235,0,0,1,1.273,2.8H26.766a3.268,3.268,0,0,0-.848-1.975A2.565,2.565,0,0,0,24.094,4.7,2.684,2.684,0,0,0,21.84,5.759a4.882,4.882,0,0,0-.816,3.026v1.1a5.018,5.018,0,0,0,.773,2.948,2.5,2.5,0,0,0,2.164,1.095,2.886,2.886,0,0,0,1.918-.566,3.143,3.143,0,0,0,.887-1.973Zm10.414,0a4.185,4.185,0,0,1-1.332,2.785,4.365,4.365,0,0,1-2.98.98,4.008,4.008,0,0,1-3.23-1.445A5.815,5.815,0,0,1,29.93,9.844V8.75A6.481,6.481,0,0,1,30.5,5.961,4.231,4.231,0,0,1,32.1,4.113a4.47,4.47,0,0,1,2.406-.645A4.11,4.11,0,0,1,37.414,4.48a4.235,4.235,0,0,1,1.273,2.8H37.18a3.268,3.268,0,0,0-.848-1.975A2.565,2.565,0,0,0,34.508,4.7a2.684,2.684,0,0,0-2.254,1.063,4.882,4.882,0,0,0-.816,3.026v1.1a5.018,5.018,0,0,0,.773,2.948,2.5,2.5,0,0,0,2.164,1.095,2.887,2.887,0,0,0,1.918-.566,3.143,3.143,0,0,0,.887-1.973ZM42.344,15h-1.5V3.625h1.5ZM53.836,9.68a7.037,7.037,0,0,1-.562,2.918,4.261,4.261,0,0,1-1.594,1.9,4.4,4.4,0,0,1-6.4-1.887,6.752,6.752,0,0,1-.59-2.832v-.82a6.953,6.953,0,0,1,.57-2.9,4.218,4.218,0,0,1,4-2.594,4.41,4.41,0,0,1,2.41.66,4.253,4.253,0,0,1,1.605,1.914,7.071,7.071,0,0,1,.563,2.918Zm-1.492-.734a5.1,5.1,0,0,0-.812-3.105,2.68,2.68,0,0,0-2.273-1.082A2.651,2.651,0,0,0,47.02,5.84a5,5,0,0,0-.84,3V9.68A5.107,5.107,0,0,0,47,12.762a2.888,2.888,0,0,0,4.52.063,5.079,5.079,0,0,0,.82-3.035ZM49.992.563h1.75l-2.094,2.3-1.164,0ZM64.828,15H63.32L57.594,6.234V15H56.086V3.625h1.508l5.742,8.8v-8.8h1.492Zm8.531,1.18H66.2V15h7.156Zm7.219,0H73.422V15h7.156Zm7.219,0H80.641V15H87.8Zm7.219,0H87.859V15h7.156Zm7.219,0H95.078V15h7.156Zm7.219,0H102.3V15h7.156Zm7.219,0h-7.156V15h7.156Zm7.219,0h-7.156V15h7.156Zm7.219,0h-7.156V15h7.156Zm7.219,0h-7.156V15h7.156Zm7.219,0h-7.156V15h7.156Zm7.219,0h-7.156V15h7.156Zm7.219,0h-7.156V15h7.156Zm7.219,0h-7.156V15H167.2Zm7.219,0h-7.156V15h7.156Zm7.219,0h-7.156V15h7.156Zm7.219,0H181.7V15h7.156Zm7.219,0h-7.156V15h7.156Zm7.219,0h-7.156V15H203.3Zm7.219,0h-7.156V15h7.156Zm7.219,0h-7.156V15h7.156Zm7.219,0H217.8V15h7.156Zm7.219,0h-7.156V15h7.156Zm7.219,0h-7.156V15h7.156Zm7.219,0h-7.156V15h7.156Zm7.219,0h-7.156V15h7.156Zm7.219,0h-7.156V15h7.156Zm7.219,0h-7.156V15h7.156Zm7.219,0h-7.156V15h7.156Zm7.219,0h-7.156V15H282.7Zm7.219,0h-7.156V15h7.156Zm7.219,0h-7.156V15h7.156Zm7.219,0H297.2V15h7.156Zm7.219,0h-7.156V15h7.156Zm7.219,0h-7.156V15H318.8Zm7.219,0h-7.156V15h7.156Zm7.219,0h-7.156V15h7.156Zm7.219,0H333.3V15h7.156Zm7.219,0h-7.156V15h7.156Zm7.219,0h-7.156V15h7.156ZM2.461,36.547l.047,1.063a3.08,3.08,0,0,1,2.531-1.219q2.68,0,2.7,3.023V45H6.3V39.406a1.946,1.946,0,0,0-.418-1.352A1.675,1.675,0,0,0,4.6,37.617a2.086,2.086,0,0,0-1.234.375,2.546,2.546,0,0,0-.828.984V45H1.094V36.547ZM9.539,40.7a4.993,4.993,0,0,1,.488-2.234,3.643,3.643,0,0,1,1.359-1.531,3.7,3.7,0,0,1,1.988-.539,3.565,3.565,0,0,1,2.793,1.2,4.6,4.6,0,0,1,1.066,3.18v.1a5.036,5.036,0,0,1-.473,2.215,3.589,3.589,0,0,1-1.352,1.527,3.743,3.743,0,0,1-2.02.547,3.556,3.556,0,0,1-2.785-1.2A4.575,4.575,0,0,1,9.539,40.8Zm1.453.172a3.616,3.616,0,0,0,.652,2.258,2.211,2.211,0,0,0,3.5-.012,3.955,3.955,0,0,0,.648-2.418,3.61,3.61,0,0,0-.66-2.254,2.1,2.1,0,0,0-1.754-.863,2.075,2.075,0,0,0-1.727.852A3.925,3.925,0,0,0,10.992,40.867Zm8.086,3.375a.905.905,0,0,1,.223-.625.848.848,0,0,1,.668-.25.874.874,0,0,1,.676.25.887.887,0,0,1,.23.625.839.839,0,0,1-.23.6.89.89,0,0,1-.676.242.8.8,0,0,1-.891-.844ZM29.055,45h-1.5V33.625h1.5Zm11.484,0H39.031L33.3,36.234V45H31.8V33.625H33.3l5.742,8.8v-8.8h1.492Zm10.3-10.148H47.18V45H45.688V34.852H42.039V33.625h8.8Zm8.117,4.891h-4.93v4.031H59.75V45H52.523V33.625h7.148v1.227H54.023v3.664h4.93Zm6.836.656H63.117V45H61.609V33.625h3.766a4.457,4.457,0,0,1,2.957.875,3.148,3.148,0,0,1,1.035,2.547,3.062,3.062,0,0,1-.574,1.852,3.428,3.428,0,0,1-1.6,1.18l2.672,4.828V45H68.258Zm-2.672-1.227h2.3a2.6,2.6,0,0,0,1.777-.579,1.959,1.959,0,0,0,.66-1.55,2.062,2.062,0,0,0-.629-1.62,2.663,2.663,0,0,0-1.816-.571h-2.3ZM80.211,45H78.7l-5.727-8.766V45H71.469V33.625h1.508l5.742,8.8v-8.8h1.492Zm11.414-5.32a7.037,7.037,0,0,1-.562,2.918,4.261,4.261,0,0,1-1.594,1.9,4.4,4.4,0,0,1-6.4-1.887,6.752,6.752,0,0,1-.59-2.832v-.82a6.953,6.953,0,0,1,.57-2.9,4.218,4.218,0,0,1,4-2.594,4.41,4.41,0,0,1,2.41.66,4.253,4.253,0,0,1,1.605,1.914,7.071,7.071,0,0,1,.563,2.918Zm-1.492-.734a5.1,5.1,0,0,0-.812-3.105,2.68,2.68,0,0,0-2.273-1.082,2.651,2.651,0,0,0-2.238,1.082,5,5,0,0,0-.84,3v.836a5.107,5.107,0,0,0,.824,3.082,2.888,2.888,0,0,0,4.52.063,5.079,5.079,0,0,0,.82-3.035Zm9.609,7.234H92.586V45h7.156Zm7.219,0H99.8V45h7.156Zm7.219,0h-7.156V45h7.156Zm7.219,0h-7.156V45H121.4Zm7.219,0h-7.156V45h7.156Zm7.219,0H128.68V45h7.156Zm7.219,0H135.9V45h7.156Zm7.219,0h-7.156V45h7.156Zm7.219,0h-7.156V45h7.156Zm7.219,0h-7.156V45h7.156Zm7.219,0h-7.156V45h7.156Zm7.219,0h-7.156V45h7.156Zm7.219,0h-7.156V45h7.156Zm7.219,0H186.43V45h7.156Zm7.219,0h-7.156V45H200.8Zm7.219,0h-7.156V45h7.156Zm7.219,0h-7.156V45h7.156Zm7.219,0H215.3V45h7.156Zm7.219,0h-7.156V45h7.156Zm7.219,0h-7.156V45H236.9Zm7.219,0h-7.156V45h7.156Zm7.219,0H244.18V45h7.156Zm7.219,0H251.4V45h7.156Zm7.219,0h-7.156V45h7.156Zm7.219,0h-7.156V45h7.156Zm7.219,0h-7.156V45h7.156Zm7.219,0h-7.156V45h7.156Zm7.219,0h-7.156V45h7.156Zm7.219,0h-7.156V45h7.156Zm7.219,0H301.93V45h7.156Zm7.219,0h-7.156V45H316.3Zm7.219,0h-7.156V45h7.156Zm7.219,0h-7.156V45h7.156Zm7.219,0H330.8V45h7.156Zm7.219,0h-7.156V45h7.156Zm7.219,0h-7.156V45H352.4ZM9.18,64.852H5.523V75H4.031V64.852H.383V63.625h8.8ZM12.477,75h-1.5V63.625h1.5Zm4.242-4.453V75h-1.5V63.625h4.2a4.215,4.215,0,0,1,2.926.953A3.231,3.231,0,0,1,23.4,67.1a3.189,3.189,0,0,1-1.035,2.551,4.4,4.4,0,0,1-2.965.895Zm0-1.227h2.7a2.7,2.7,0,0,0,1.844-.567,2.075,2.075,0,0,0,.641-1.64,2.143,2.143,0,0,0-.641-1.628,2.525,2.525,0,0,0-1.758-.634H16.719Zm17.344.359A7.037,7.037,0,0,1,33.5,72.6a4.261,4.261,0,0,1-1.594,1.9,4.4,4.4,0,0,1-6.4-1.887,6.752,6.752,0,0,1-.59-2.832v-.82a6.953,6.953,0,0,1,.57-2.9,4.218,4.218,0,0,1,4-2.594,4.41,4.41,0,0,1,2.41.66A4.253,4.253,0,0,1,33.5,66.043a7.071,7.071,0,0,1,.563,2.918Zm-1.492-.734a5.1,5.1,0,0,0-.812-3.105,2.68,2.68,0,0,0-2.273-1.082,2.651,2.651,0,0,0-2.238,1.082,5,5,0,0,0-.84,3v.836a5.107,5.107,0,0,0,.824,3.082,2.888,2.888,0,0,0,4.52.063,5.079,5.079,0,0,0,.82-3.035Zm13.57,7.234H38.984V75h7.156Zm7.219,0H46.2V75h7.156Zm7.219,0H53.422V75h7.156Zm7.219,0H60.641V75H67.8Zm7.219,0H67.859V75h7.156Zm7.219,0H75.078V75h7.156Zm7.219,0H82.3V75h7.156Zm7.219,0H89.516V75h7.156Zm7.219,0H96.734V75h7.156Zm7.219,0h-7.156V75h7.156Zm7.219,0h-7.156V75h7.156Zm7.219,0h-7.156V75h7.156Zm7.219,0h-7.156V75h7.156Zm7.219,0h-7.156V75h7.156Zm7.219,0h-7.156V75H147.2Zm7.219,0h-7.156V75h7.156Zm7.219,0h-7.156V75h7.156Zm7.219,0H161.7V75h7.156Zm7.219,0h-7.156V75h7.156Zm7.219,0h-7.156V75H183.3Zm7.219,0h-7.156V75h7.156Zm7.219,0h-7.156V75h7.156Zm7.219,0H197.8V75h7.156Zm7.219,0h-7.156V75h7.156Zm7.219,0h-7.156V75h7.156Zm7.219,0h-7.156V75h7.156Zm7.219,0h-7.156V75h7.156Zm7.219,0h-7.156V75h7.156Zm7.219,0h-7.156V75h7.156Zm7.219,0h-7.156V75h7.156Zm7.219,0h-7.156V75H262.7Zm7.219,0h-7.156V75h7.156Zm7.219,0h-7.156V75h7.156Zm7.219,0H277.2V75h7.156Zm7.219,0h-7.156V75h7.156Zm7.219,0h-7.156V75H298.8Zm7.219,0h-7.156V75h7.156Zm7.219,0h-7.156V75h7.156Zm7.219,0H313.3V75h7.156Zm7.219,0h-7.156V75h7.156Zm7.219,0h-7.156V75h7.156Zm7.219,0h-7.156V75h7.156Zm7.219,0h-7.156V75h7.156Zm7.219,0h-7.156V75h7.156ZM2.461,96.547l.047,1.063a3.08,3.08,0,0,1,2.531-1.219q2.68,0,2.7,3.023V105H6.3V99.406a1.946,1.946,0,0,0-.418-1.352A1.675,1.675,0,0,0,4.6,97.617a2.086,2.086,0,0,0-1.234.375,2.546,2.546,0,0,0-.828.984V105H1.094V96.547ZM9.539,100.7a4.993,4.993,0,0,1,.488-2.234,3.643,3.643,0,0,1,1.359-1.531,3.7,3.7,0,0,1,1.988-.539,3.565,3.565,0,0,1,2.793,1.2,4.6,4.6,0,0,1,1.066,3.18v.1a5.036,5.036,0,0,1-.473,2.215,3.589,3.589,0,0,1-1.352,1.527,3.743,3.743,0,0,1-2.02.547,3.556,3.556,0,0,1-2.785-1.2A4.575,4.575,0,0,1,9.539,100.8Zm1.453.172a3.616,3.616,0,0,0,.652,2.258,2.211,2.211,0,0,0,3.5-.012,3.955,3.955,0,0,0,.648-2.418,3.61,3.61,0,0,0-.66-2.254,2.1,2.1,0,0,0-1.754-.863,2.075,2.075,0,0,0-1.727.852A3.925,3.925,0,0,0,10.992,100.867Zm8.086,3.375a.905.905,0,0,1,.223-.625.848.848,0,0,1,.668-.25.874.874,0,0,1,.676.25.887.887,0,0,1,.23.625.839.839,0,0,1-.23.6.89.89,0,0,1-.676.242.8.8,0,0,1-.891-.844Zm8.367.758V93.625h3.211a5.169,5.169,0,0,1,2.625.656,4.438,4.438,0,0,1,1.762,1.867,6.078,6.078,0,0,1,.629,2.781v.727a6.1,6.1,0,0,1-.621,2.82,4.369,4.369,0,0,1-1.773,1.859,5.5,5.5,0,0,1-2.684.664Zm1.5-10.148v8.922h1.578a3.434,3.434,0,0,0,2.7-1.079,4.458,4.458,0,0,0,.965-3.073v-.665a4.529,4.529,0,0,0-.91-3.014A3.239,3.239,0,0,0,30.7,94.852Zm15.422,4.891h-4.93v4.031h5.727V105H37.938V93.625h7.148v1.227H39.438v3.664h4.93Zm9.977.188a7.053,7.053,0,0,1-2.809-1.363,2.6,2.6,0,0,1-.879-2,2.751,2.751,0,0,1,1.074-2.223,4.269,4.269,0,0,1,2.793-.879,4.66,4.66,0,0,1,2.09.453,3.436,3.436,0,0,1,1.422,1.25,3.2,3.2,0,0,1,.5,1.742H57.031a2.08,2.08,0,0,0-.656-1.627,2.669,2.669,0,0,0-1.852-.592,2.732,2.732,0,0,0-1.73.489,1.632,1.632,0,0,0-.621,1.358,1.468,1.468,0,0,0,.59,1.178,5.785,5.785,0,0,0,2.008.88,9.316,9.316,0,0,1,2.219.88,3.367,3.367,0,0,1,1.188,1.121,2.861,2.861,0,0,1,.387,1.508,2.658,2.658,0,0,1-1.078,2.215,4.6,4.6,0,0,1-2.883.832,5.347,5.347,0,0,1-2.187-.449,3.681,3.681,0,0,1-1.566-1.23A3,3,0,0,1,50.3,101.7H51.8a1.959,1.959,0,0,0,.762,1.629,3.207,3.207,0,0,0,2.035.6,2.948,2.948,0,0,0,1.82-.484,1.573,1.573,0,0,0,.633-1.32,1.545,1.545,0,0,0-.586-1.293A6.755,6.755,0,0,0,54.344,99.93Zm12.57-.187h-4.93v4.031h5.727V105H60.484V93.625h7.148v1.227H61.984v3.664h4.93Zm6.836.656H71.078V105H69.57V93.625h3.766a4.457,4.457,0,0,1,2.957.875,3.148,3.148,0,0,1,1.035,2.547,3.062,3.062,0,0,1-.574,1.852,3.428,3.428,0,0,1-1.6,1.18l2.672,4.828V105H76.219Zm-2.672-1.227h2.3a2.6,2.6,0,0,0,1.777-.579,1.959,1.959,0,0,0,.66-1.55,2.062,2.062,0,0,0-.629-1.62,2.663,2.663,0,0,0-1.816-.571h-2.3ZM81.039,105h-1.5V93.625h1.5Zm9.172-5.258h-4.93v4.031h5.727V105H83.781V93.625H90.93v1.227H85.281v3.664h4.93Zm8.531,6.438H91.586V105h7.156Zm7.219,0H98.8V105h7.156Zm7.219,0h-7.156V105h7.156Zm7.219,0h-7.156V105H120.4Zm7.219,0h-7.156V105h7.156Zm7.219,0H127.68V105h7.156Zm7.219,0H134.9V105h7.156Zm7.219,0h-7.156V105h7.156Zm7.219,0h-7.156V105h7.156Zm7.219,0h-7.156V105h7.156Zm7.219,0h-7.156V105h7.156Zm7.219,0h-7.156V105h7.156Zm7.219,0h-7.156V105h7.156Zm7.219,0H185.43V105h7.156Zm7.219,0h-7.156V105H199.8Zm7.219,0h-7.156V105h7.156Zm7.219,0h-7.156V105h7.156Zm7.219,0H214.3V105h7.156Zm7.219,0h-7.156V105h7.156Zm7.219,0h-7.156V105H235.9Zm7.219,0h-7.156V105h7.156Zm7.219,0H243.18V105h7.156Zm7.219,0H250.4V105h7.156Zm7.219,0h-7.156V105h7.156Zm7.219,0h-7.156V105h7.156Zm7.219,0h-7.156V105h7.156Zm7.219,0h-7.156V105h7.156Zm7.219,0h-7.156V105h7.156Zm7.219,0h-7.156V105h7.156Zm7.219,0H300.93V105h7.156Zm7.219,0h-7.156V105H315.3Zm7.219,0h-7.156V105h7.156Zm7.219,0h-7.156V105h7.156Zm7.219,0H329.8V105h7.156Zm7.219,0h-7.156V105h7.156Zm7.219,0h-7.156V105H351.4Zm7.219,0h-7.156V105h7.156ZM1.32,135V123.625H4.531a5.169,5.169,0,0,1,2.625.656,4.438,4.438,0,0,1,1.762,1.867,6.078,6.078,0,0,1,.629,2.781v.727a6.1,6.1,0,0,1-.621,2.82,4.369,4.369,0,0,1-1.773,1.859A5.5,5.5,0,0,1,4.469,135Zm1.5-10.148v8.922H4.4a3.434,3.434,0,0,0,2.7-1.079,4.458,4.458,0,0,0,.965-3.073v-.665a4.529,4.529,0,0,0-.91-3.014,3.239,3.239,0,0,0-2.582-1.091ZM13.422,135h-1.5V123.625h1.5Zm6.094-5.07a7.053,7.053,0,0,1-2.809-1.363,2.6,2.6,0,0,1-.879-2,2.751,2.751,0,0,1,1.074-2.223,4.269,4.269,0,0,1,2.793-.879,4.66,4.66,0,0,1,2.09.453,3.436,3.436,0,0,1,1.422,1.25,3.2,3.2,0,0,1,.5,1.742H22.2a2.08,2.08,0,0,0-.656-1.627A2.669,2.669,0,0,0,19.7,124.7a2.732,2.732,0,0,0-1.73.489,1.632,1.632,0,0,0-.621,1.358,1.468,1.468,0,0,0,.59,1.178,5.786,5.786,0,0,0,2.008.88,9.316,9.316,0,0,1,2.219.88,3.367,3.367,0,0,1,1.188,1.121,2.861,2.861,0,0,1,.387,1.508,2.658,2.658,0,0,1-1.078,2.215,4.6,4.6,0,0,1-2.883.832,5.347,5.347,0,0,1-2.187-.449,3.681,3.681,0,0,1-1.566-1.23,3,3,0,0,1-.551-1.773h1.508a1.959,1.959,0,0,0,.762,1.629,3.207,3.207,0,0,0,2.035.6,2.948,2.948,0,0,0,1.82-.484,1.573,1.573,0,0,0,.633-1.32,1.545,1.545,0,0,0-.586-1.293A6.755,6.755,0,0,0,19.516,129.93Zm14-5.078H29.859V135H28.367V124.852H24.719v-1.227h8.8Zm5.859,5.547H36.7V135H35.2V123.625h3.766a4.457,4.457,0,0,1,2.957.875,3.148,3.148,0,0,1,1.035,2.547,3.062,3.062,0,0,1-.574,1.852,3.428,3.428,0,0,1-1.6,1.18l2.672,4.828V135H41.844ZM36.7,129.172h2.3a2.6,2.6,0,0,0,1.777-.579,1.959,1.959,0,0,0,.66-1.55,2.062,2.062,0,0,0-.629-1.62A2.663,2.663,0,0,0,39,124.852H36.7ZM46.664,135h-1.5V123.625h1.5Zm2.742,0V123.625h3.719a4.317,4.317,0,0,1,2.785.766,2.759,2.759,0,0,1,.934,2.266,2.31,2.31,0,0,1-.453,1.41,2.937,2.937,0,0,1-1.234.949,2.638,2.638,0,0,1,1.457.98,2.814,2.814,0,0,1,.535,1.723,3.042,3.042,0,0,1-.992,2.406,4.1,4.1,0,0,1-2.8.875Zm1.5-5.32v4.094h2.477a2.385,2.385,0,0,0,1.652-.543,1.907,1.907,0,0,0,.605-1.5q0-2.055-2.234-2.055Zm0-1.2h2.266a2.375,2.375,0,0,0,1.574-.493,1.654,1.654,0,0,0,.59-1.339,1.626,1.626,0,0,0-.547-1.366,2.686,2.686,0,0,0-1.664-.427H50.906Zm16.469-4.852v7.734a3.628,3.628,0,0,1-1.012,2.633,4.077,4.077,0,0,1-2.723,1.148l-.4.016a4.258,4.258,0,0,1-2.977-1.008,3.6,3.6,0,0,1-1.125-2.773v-7.75h1.484v7.7a2.372,2.372,0,0,0,2.617,2.6,2.63,2.63,0,0,0,1.949-.68,2.6,2.6,0,0,0,.676-1.914v-7.711Zm8.234,12.555H68.453V135h7.156Zm7.219,0H75.672V135h7.156Zm7.219,0H82.891V135h7.156Zm7.219,0H90.109V135h7.156Zm7.219,0H97.328V135h7.156Zm7.219,0h-7.156V135H111.7Zm7.219,0h-7.156V135h7.156Zm7.219,0h-7.156V135h7.156Zm7.219,0H126.2V135h7.156Zm7.219,0h-7.156V135h7.156Zm7.219,0h-7.156V135H147.8Zm7.219,0h-7.156V135h7.156Zm7.219,0h-7.156V135h7.156Zm7.219,0H162.3V135h7.156Zm7.219,0h-7.156V135h7.156Zm7.219,0h-7.156V135h7.156Zm7.219,0h-7.156V135h7.156Zm7.219,0h-7.156V135h7.156Zm7.219,0h-7.156V135h7.156Zm7.219,0h-7.156V135h7.156Zm7.219,0h-7.156V135h7.156Zm7.219,0h-7.156V135H227.2Zm7.219,0h-7.156V135h7.156Zm7.219,0h-7.156V135h7.156Zm7.219,0H241.7V135h7.156Zm7.219,0h-7.156V135h7.156Zm7.219,0h-7.156V135H263.3Zm7.219,0h-7.156V135h7.156Zm7.219,0h-7.156V135h7.156Zm7.219,0H277.8V135h7.156Zm7.219,0h-7.156V135h7.156Zm7.219,0h-7.156V135h7.156Zm7.219,0h-7.156V135h7.156Zm7.219,0h-7.156V135h7.156Zm7.219,0h-7.156V135h7.156Zm7.219,0h-7.156V135h7.156Zm7.219,0h-7.156V135h7.156Zm7.219,0h-7.156V135H342.7Zm7.219,0h-7.156V135h7.156Zm7.219,0h-7.156V135h7.156Z" transform="translate(898.28 10273.367)"/>
      <text id="Troque" transform="translate(442.051 10283.28)" fill="#12263f" font-size="16" font-family="Roboto-Regular, Roboto"><tspan x="0" y="0">Troque</tspan></text>
      <text id="Troquelado" transform="translate(994.051 10288.28)" fill="#12263f" font-size="16" font-family="Roboto-Regular, Roboto"><tspan x="0" y="0">Troquelado</tspan></text>
      <text id="PRT-01" transform="translate(1005.051 10317.28)" fill="#12263f" font-size="16" font-family="Roboto-Regular, Roboto"><tspan x="0" y="0">PRT-01</tspan></text>
      <text id="vertical" transform="translate(952.051 10348.28)" fill="#12263f" font-size="16" font-family="Roboto-Regular, Roboto"><tspan x="0" y="0">vertical</tspan></text>
      <text id="_08002" data-name="08002" transform="translate(1004.051 10379.28)" fill="#12263f" font-size="16" font-family="Roboto-Regular, Roboto"><tspan x="0" y="0">08002</tspan></text>
      <text id="Verde_Amarillo" data-name="Verde/Amarillo" transform="translate(640.051 10433.28)" fill="#12263f" font-size="16" font-family="Roboto-Regular, Roboto"><tspan x="0" y="0">Verde/Amarillo</tspan></text>
      <text id="_1270_mm" data-name="1270 mm" transform="translate(789.051 10404.28)" fill="#12263f" font-size="16" font-family="Roboto-Regular, Roboto"><tspan x="0" y="0">1270 mm</tspan></text>
      <text id="_2750_mm" data-name="2750 mm" transform="translate(500.051 10404.28)" fill="#12263f" font-size="16" font-family="Roboto-Regular, Roboto"><tspan x="0" y="0">2750 mm</tspan></text>
      <text id="_1280_mm" data-name="1280 mm" transform="translate(640.051 10404.28)" fill="#12263f" font-size="16" font-family="Roboto-Regular, Roboto"><tspan x="0" y="0">1280 mm</tspan></text>
      <text id="National" transform="translate(408.051 10313.28)" fill="#12263f" font-size="16" font-family="Roboto-Regular, Roboto"><tspan x="0" y="0">National</tspan></text>
      <text id="RILLER" transform="translate(420.051 10343.28)" fill="#12263f" font-size="16" font-family="Roboto-Regular, Roboto"><tspan x="0" y="0">RILLER</tspan></text>
      <text id="Taiwan" transform="translate(455.051 10373.28)" fill="#12263f" font-size="16" font-family="Roboto-Regular, Roboto"><tspan x="0" y="0">Taiwan</tspan></text>
      <text id="Capacidad_80_Toneladas" data-name="Capacidad 80 Toneladas" transform="translate(466.051 10492.28)" fill="#12263f" font-size="16" font-family="Roboto-Regular, Roboto"><tspan x="0" y="0">Capacidad 80 Toneladas</tspan></text>
    </g>
  </g>
</svg>
