<svg xmlns="http://www.w3.org/2000/svg" width="93" height="94" viewBox="0 0 93 94">
  <g id="Grupo_1111244" data-name="Grupo 1111244" transform="translate(-647.915 -3826.75)">
    <ellipse id="Elipse_11696" data-name="Elipse 11696" cx="46.5" cy="47" rx="46.5" ry="47" transform="translate(647.915 3826.75)" fill="#e69999"/>
    <g id="Grupo_1110118" data-name="Grupo 1110118" transform="translate(4639.051 12000.781)">
      <g id="postcard_8005837" transform="translate(-3971 -8145.644)">
        <g id="Grupo_1110111" data-name="Grupo 1110111" transform="translate(0 0)">
          <g id="Grupo_1110109" data-name="Grupo 1110109">
            <path id="Trazado_881877" data-name="Trazado 881877" d="M51.583,94.14H8.4a.9.9,0,0,1-.9-.9V65.6a.9.9,0,0,1,.9-.9H51.583a.9.9,0,0,1,.9.9V93.236A.9.9,0,0,1,51.583,94.14Z" transform="translate(-7.5 -64.693)" fill="#fee45a"/>
            <path id="Trazado_881878" data-name="Trazado 881878" d="M397.48,64.693h-4.141a.9.9,0,0,1,.9.9V93.236a.9.9,0,0,1-.9.9h4.141a.9.9,0,0,0,.9-.9V65.6A.9.9,0,0,0,397.48,64.693Z" transform="translate(-353.397 -64.693)" fill="#ffd15b"/>
            <rect id="Rectángulo_404193" data-name="Rectángulo 404193" width="23.674" height="39.206" transform="translate(42.097 2.886) rotate(90)" fill="#9be69d"/>
          </g>
          <g id="Grupo_1110110" data-name="Grupo 1110110" transform="translate(6.462 10.161)">
            <path id="Trazado_881879" data-name="Trazado 881879" d="M114.007,192.3H70.828a.9.9,0,0,1-.9-.9V163.752a.9.9,0,0,1,.9-.9h43.178a.9.9,0,0,1,.9.9v27.638A.9.9,0,0,1,114.007,192.3Z" transform="translate(-69.924 -162.848)" fill="#faf7f7"/>
            <path id="Trazado_881880" data-name="Trazado 881880" d="M459.9,162.848h-4.141a.9.9,0,0,1,.9.9v27.638a.9.9,0,0,1-.9.9H459.9a.9.9,0,0,0,.9-.9V163.752A.9.9,0,0,0,459.9,162.848Z" transform="translate(-415.821 -162.848)" fill="#dedbee"/>
            <path id="Trazado_881881" data-name="Trazado 881881" d="M406.648,205.86H412.4a.518.518,0,0,0,.518-.518v-8a.518.518,0,0,0-.518-.518h-5.754a.518.518,0,0,0-.518.518v8A.518.518,0,0,0,406.648,205.86Z" transform="translate(-371.326 -193.305)" fill="#fee45a"/>
          </g>
        </g>
        <g id="Grupo_1110117" data-name="Grupo 1110117" transform="translate(0 0)">
          <g id="Grupo_1110112" data-name="Grupo 1110112">
            <path id="Trazado_881882" data-name="Trazado 881882" d="M7.5,70.66V65.6a.9.9,0,0,1,.9-.9H51.583a.9.9,0,0,1,.9.9v9.256" transform="translate(-7.5 -64.693)" fill="none" stroke="#000" stroke-linecap="round" stroke-linejoin="round" stroke-miterlimit="10" stroke-width="2"/>
            <path id="Trazado_881883" data-name="Trazado 881883" d="M13.962,171.513H8.4a.9.9,0,0,1-.9-.9V151" transform="translate(-7.5 -142.066)" fill="none" stroke="#000" stroke-linecap="round" stroke-linejoin="round" stroke-miterlimit="10" stroke-width="2"/>
            <path id="Trazado_881884" data-name="Trazado 881884" d="M38.994,116.249H35.422V92.575H74.628V99.85" transform="translate(-32.532 -89.689)" fill="none" stroke="#000" stroke-linecap="round" stroke-linejoin="round" stroke-miterlimit="10" stroke-width="2"/>
          </g>
          <g id="Grupo_1110116" data-name="Grupo 1110116" transform="translate(6.462 10.161)">
            <path id="Trazado_881885" data-name="Trazado 881885" d="M114.911,180.848v-17.1a.9.9,0,0,0-.9-.9H70.828a.9.9,0,0,0-.9.9v27.638a.9.9,0,0,0,.9.9h43.178a.9.9,0,0,0,.9-.9v-7.45" transform="translate(-69.924 -162.848)" fill="none" stroke="#000" stroke-linecap="round" stroke-linejoin="round" stroke-miterlimit="10" stroke-width="2"/>
            <line id="Línea_4149" data-name="Línea 4149" y2="17.654" transform="translate(25.481 6.319)" fill="none" stroke="#000" stroke-linecap="round" stroke-linejoin="round" stroke-miterlimit="10" stroke-width="2"/>
            <g id="Grupo_1110113" data-name="Grupo 1110113" transform="translate(30.861 17.826)">
              <line id="Línea_4150" data-name="Línea 4150" x2="8.748" fill="none" stroke="#000" stroke-linecap="round" stroke-linejoin="round" stroke-miterlimit="10" stroke-width="2"/>
              <line id="Línea_4151" data-name="Línea 4151" x2="8.748" transform="translate(0 3.613)" fill="none" stroke="#000" stroke-linecap="round" stroke-linejoin="round" stroke-miterlimit="10" stroke-width="2"/>
            </g>
            <path id="Trazado_881886" data-name="Trazado 881886" d="M406.648,205.86H412.4a.518.518,0,0,0,.518-.518v-8a.518.518,0,0,0-.518-.518h-5.754a.518.518,0,0,0-.518.518v8A.518.518,0,0,0,406.648,205.86Z" transform="translate(-371.326 -193.305)" fill="none" stroke="#000" stroke-linecap="round" stroke-linejoin="round" stroke-miterlimit="10" stroke-width="2"/>
            <g id="Grupo_1110114" data-name="Grupo 1110114" transform="translate(30.67 6.081)">
              <path id="Trazado_881887" data-name="Trazado 881887" d="M366.2,222.315a7.247,7.247,0,0,1,2.216-.708c.82-.078,1.337.354,2.074.6,1.234.414,2.314-.254,3.237-.616" transform="translate(-366.199 -221.592)" fill="none" stroke="#000" stroke-linecap="round" stroke-linejoin="round" stroke-miterlimit="10" stroke-width="2"/>
              <path id="Trazado_881888" data-name="Trazado 881888" d="M366.2,248.534a7.247,7.247,0,0,1,2.216-.708c.82-.078,1.337.354,2.074.6,1.234.414,2.314-.254,3.237-.616" transform="translate(-366.199 -245.097)" fill="none" stroke="#000" stroke-linecap="round" stroke-linejoin="round" stroke-miterlimit="10" stroke-width="2"/>
            </g>
            <g id="Grupo_1110115" data-name="Grupo 1110115" transform="translate(5.144 6.831)">
              <line id="Línea_4152" data-name="Línea 4152" x2="14.483" fill="none" stroke="#000" stroke-linecap="round" stroke-linejoin="round" stroke-miterlimit="10" stroke-width="2"/>
              <line id="Línea_4153" data-name="Línea 4153" x2="14.483" transform="translate(0 3.946)" fill="none" stroke="#000" stroke-linecap="round" stroke-linejoin="round" stroke-miterlimit="10" stroke-width="2"/>
              <line id="Línea_4154" data-name="Línea 4154" x2="10.922" transform="translate(0 7.893)" fill="none" stroke="#000" stroke-linecap="round" stroke-linejoin="round" stroke-miterlimit="10" stroke-width="2"/>
              <line id="Línea_4155" data-name="Línea 4155" x2="14.483" transform="translate(0 11.839)" fill="none" stroke="#000" stroke-linecap="round" stroke-linejoin="round" stroke-miterlimit="10" stroke-width="2"/>
              <line id="Línea_4156" data-name="Línea 4156" x2="6.336" transform="translate(0 15.786)" fill="none" stroke="#000" stroke-linecap="round" stroke-linejoin="round" stroke-miterlimit="10" stroke-width="2"/>
            </g>
          </g>
        </g>
      </g>
    </g>
  </g>
</svg>
