<svg xmlns="http://www.w3.org/2000/svg" width="93" height="94" viewBox="0 0 93 94">
  <g id="Grupo_1111247" data-name="Grupo 1111247" transform="translate(-1271.854 -3826.75)">
    <ellipse id="Elipse_11701" data-name="Elipse 11701" cx="46.5" cy="47" rx="46.5" ry="47" transform="translate(1271.854 3826.75)" fill="#c10000"/>
    <g id="professional_15939154" transform="translate(1280.888 3843.494)">
      <path id="Trazado_881889" data-name="Trazado 881889" d="M29.1,33.7a6.153,6.153,0,0,1,6.146,6.146v1.891a6.145,6.145,0,0,1-.666,2.775A7.715,7.715,0,0,1,37.3,46a6.11,6.11,0,0,1-.169-1.421V42.687a6.146,6.146,0,0,1,12.292,0v1.891A6.111,6.111,0,0,1,49.257,46a7.715,7.715,0,0,1,2.726-1.482,6.145,6.145,0,0,1-.666-2.775V39.851a6.136,6.136,0,0,1,10.316-4.5V9.121L53.378,1.159,28.86,1.207S24.7.517,24.7,4.393V35.565a6.125,6.125,0,0,1,4.4-1.86Z" transform="translate(-5.114 -0.611)" fill="#e1ebf4"/>
      <path id="Trazado_881890" data-name="Trazado 881890" d="M93.728,80.364v1.891a2.364,2.364,0,0,1-4.728,0V80.364a2.364,2.364,0,0,1,4.728,0Z" transform="translate(-39.016 -41.125)" fill="#e1ebf4"/>
      <path id="Trazado_881891" data-name="Trazado 881891" d="M93.837,95.47v1.139l-1.418,1.513L91,96.609V95.47a4.139,4.139,0,0,0,2.837,0Z" transform="translate(-40.07 -50.335)" fill="#e1ebf4"/>
      <path id="Trazado_881892" data-name="Trazado 881892" d="M93.91,108.165l-.78.633-.78-.633.747-2.175c.009,0,.019,0,.033,0s.024,0,.033,0Z" transform="translate(-40.782 -55.882)" fill="#ffdb80"/>
      <path id="Trazado_881893" data-name="Trazado 881893" d="M33.728,80.364v1.891a2.364,2.364,0,1,1-4.728,0V80.364a2.364,2.364,0,1,1,4.728,0Z" transform="translate(-7.381 -41.125)" fill="#e1ebf4"/>
      <path id="Trazado_881894" data-name="Trazado 881894" d="M33.837,95.47v1.139l-1.418,1.513L31,96.609V95.47a4.139,4.139,0,0,0,2.837,0Z" transform="translate(-8.436 -50.335)" fill="#e1ebf4"/>
      <path id="Trazado_881895" data-name="Trazado 881895" d="M33.91,108.165l-.78.633-.78-.633.747-2.175c.009,0,.019,0,.033,0s.024,0,.033,0Z" transform="translate(-9.148 -55.882)" fill="#ffdb80"/>
      <path id="Trazado_881896" data-name="Trazado 881896" d="M70.356,42H51.446a.946.946,0,0,0,0,1.891H70.356a.946.946,0,1,0,0-1.891Z" transform="translate(-18.717 -22.144)" fill="#2d4356"/>
      <path id="Trazado_881897" data-name="Trazado 881897" d="M70.356,50H51.446a.946.946,0,0,0,0,1.891H70.356a.946.946,0,1,0,0-1.891Z" transform="translate(-18.717 -26.362)" fill="#2d4356"/>
      <path id="Trazado_881898" data-name="Trazado 881898" d="M70.356,60H51.446a.946.946,0,0,0,0,1.891H70.356a.946.946,0,0,0,0-1.891Z" transform="translate(-18.717 -31.634)" fill="#2d4356"/>
      <path id="Trazado_881899" data-name="Trazado 881899" d="M36.809,41a3.309,3.309,0,1,0,3.309,3.309A3.309,3.309,0,0,0,36.809,41Zm0,4.728a1.418,1.418,0,1,1,1.418-1.418,1.418,1.418,0,0,1-1.418,1.418Z" transform="translate(-9.754 -21.617)" fill="#2d4356"/>
      <circle id="Elipse_11739" data-name="Elipse 11739" cx="1.418" cy="1.418" r="1.418" transform="translate(25.637 21.274)" fill="#81d9e3"/>
      <path id="Trazado_881900" data-name="Trazado 881900" d="M70.356,24H51.446a.946.946,0,1,0,0,1.891H70.356a.946.946,0,0,0,0-1.891Z" transform="translate(-18.717 -12.654)" fill="#2d4356"/>
      <path id="Trazado_881901" data-name="Trazado 881901" d="M70.356,32H51.446a.946.946,0,0,0,0,1.891H70.356a.946.946,0,1,0,0-1.891Z" transform="translate(-18.717 -16.872)" fill="#2d4356"/>
      <path id="Trazado_881902" data-name="Trazado 881902" d="M36.809,23a3.309,3.309,0,1,0,3.309,3.309A3.309,3.309,0,0,0,36.809,23Zm0,4.728a1.418,1.418,0,1,1,1.418-1.418A1.418,1.418,0,0,1,36.809,27.728Z" transform="translate(-9.754 -12.126)" fill="#2d4356"/>
      <circle id="Elipse_11740" data-name="Elipse 11740" cx="1.418" cy="1.418" r="1.418" transform="translate(25.637 12.765)" fill="#81d9e3"/>
      <path id="Trazado_881903" data-name="Trazado 881903" d="M36.946,9.891H51.128a.946.946,0,1,0,0-1.891H36.946a.946.946,0,1,0,0,1.891Z" transform="translate(-11.072 -4.218)" fill="#2d4356"/>
      <path id="Trazado_881904" data-name="Trazado 881904" d="M52.074,16.946A.946.946,0,0,0,51.128,16H36.946a.946.946,0,1,0,0,1.891H51.128a.946.946,0,0,0,.946-.945Z" transform="translate(-11.072 -8.436)" fill="#2d4356"/>
      <path id="Trazado_881905" data-name="Trazado 881905" d="M36.809,59a3.306,3.306,0,0,0-2.7,5.219,6.1,6.1,0,0,1,3.437,1.314A3.308,3.308,0,0,0,36.809,59Zm0,4.728a1.418,1.418,0,1,1,1.418-1.418A1.418,1.418,0,0,1,36.809,63.728Z" transform="translate(-9.754 -31.107)" fill="#2d4356"/>
      <circle id="Elipse_11741" data-name="Elipse 11741" cx="1.418" cy="1.418" r="1.418" transform="translate(25.637 29.784)" fill="#81d9e3"/>
      <path id="Trazado_881906" data-name="Trazado 881906" d="M51.446,69.891H67.8a6.1,6.1,0,0,1,3.26-.946c.079,0,.157.009.235.012,0,0,0-.008,0-.012A.946.946,0,0,0,70.356,68H51.446a.946.946,0,0,0,0,1.891Z" transform="translate(-18.717 -35.852)" fill="#2d4356"/>
      <path id="Trazado_881907" data-name="Trazado 881907" d="M61.748,8.325a.947.947,0,0,0-.26-.482L53.923.279A.949.949,0,0,0,53.257,0H25.837A2.839,2.839,0,0,0,23,2.837V35.977a6.23,6.23,0,0,1,1.891-1.91V2.837a.948.948,0,0,1,.946-.946H52.311v5.2a2.365,2.365,0,0,0,2.364,2.364h5.2V34.067a6.23,6.23,0,0,1,1.891,1.91V8.51a.815.815,0,0,0-.019-.184Zm-7.073-.761a.474.474,0,0,1-.473-.473V3.229l4.335,4.335Z" transform="translate(-4.218)" fill="#2d4356"/>
      <path id="Trazado_881908" data-name="Trazado 881908" d="M93.335,11.165H89.473A.474.474,0,0,1,89,10.692V6.83Z" transform="translate(-39.016 -3.601)" fill="#81d9e3"/>
      <path id="Trazado_881909" data-name="Trazado 881909" d="M16.492,96.693h10.8V94.8h-10.4V90.46A3.939,3.939,0,0,1,20.926,86.3l0,0,1.454,1.551L21.2,91.308a.946.946,0,0,0,.3,1.042l1.891,1.532a.946.946,0,0,0,1.19,0l1.891-1.532a.946.946,0,0,0,.3-1.042l-1.186-3.449,1.454-1.551,0,0a4.627,4.627,0,0,1,2.79,1.059,7.538,7.538,0,0,1,1.6-1.085,6.188,6.188,0,0,0-4.133-1.852V82.814a4.233,4.233,0,0,0,.946-2.668V78.255a4.255,4.255,0,1,0-8.51,0v1.891a4.233,4.233,0,0,0,.946,2.668v1.613A5.789,5.789,0,0,0,15,90.46v4.708a1.51,1.51,0,0,0,1.492,1.524Zm7.49-4.762L23.2,91.3l.746-2.172c.012,0,.023,0,.035,0s.023,0,.035,0l.746,2.172ZM25.4,85.287,23.983,86.8l-1.418-1.513V84.153a4.176,4.176,0,0,0,2.837,0Zm-3.782-7.033a2.364,2.364,0,0,1,4.728,0v1.891a2.364,2.364,0,1,1-4.728,0Z" transform="translate(0 -39.016)" fill="#2d4356"/>
      <path id="Trazado_881910" data-name="Trazado 881910" d="M89.009,82.814a4.233,4.233,0,0,0,.946-2.668V78.255a4.255,4.255,0,0,0-8.51,0v1.891a4.233,4.233,0,0,0,.946,2.668v1.613a6.188,6.188,0,0,0-4.133,1.852,7.538,7.538,0,0,1,1.6,1.085,4.627,4.627,0,0,1,2.79-1.059l0,0L84.1,87.859l-1.185,3.449a.946.946,0,0,0,.3,1.042L85.1,93.882a.946.946,0,0,0,1.19,0l1.891-1.532a.946.946,0,0,0,.3-1.042L87.3,87.859l1.454-1.551,0,0a3.939,3.939,0,0,1,4.035,4.156V94.8h-10.4v1.891h10.8a1.51,1.51,0,0,0,1.492-1.524V90.46a5.789,5.789,0,0,0-5.673-6.033ZM85.7,91.93l-.782-.633.746-2.172c.012,0,.023,0,.035,0s.023,0,.035,0l.746,2.172Zm1.418-6.643L85.7,86.8l-1.418-1.513V84.153a4.176,4.176,0,0,0,2.837,0Zm.946-5.142a2.364,2.364,0,1,1-4.728,0V78.255a2.364,2.364,0,0,1,4.728,0Z" transform="translate(-33.352 -39.016)" fill="#2d4356"/>
      <path id="Trazado_881911" data-name="Trazado 881911" d="M29.4,107.022a7.757,7.757,0,0,1,2.526-5.941l-.006-.006a4.618,4.618,0,0,0-2.775-1.045l-1.456,1.551,1.187,3.451a.946.946,0,0,1-.3,1.04L26.687,107.6a.94.94,0,0,1-1.191,0L23.6,106.072a.946.946,0,0,1-.3-1.04l1.187-3.451-1.456-1.551A3.938,3.938,0,0,0,19,104.186v4.34H29.4Z" transform="translate(-2.109 -52.74)" fill="#fc785e"/>
      <path id="Trazado_881912" data-name="Trazado 881912" d="M93.32,101.075a4.618,4.618,0,0,0-2.775-1.045l-1.456,1.551,1.187,3.451a.946.946,0,0,1-.3,1.04L88.086,107.6a.94.94,0,0,1-1.191,0L85,106.072a.946.946,0,0,1-.3-1.04l1.187-3.451-1.456-1.551a4.634,4.634,0,0,0-2.783,1.049,7.757,7.757,0,0,1,2.528,5.943v1.5h10.4v-4.34a3.925,3.925,0,0,0-1.262-3.111Z" transform="translate(-35.142 -52.74)" fill="#fc785e"/>
      <path id="Trazado_881913" data-name="Trazado 881913" d="M57.292,90.429V88.812a4.214,4.214,0,0,0,.946-2.666V84.255a4.255,4.255,0,1,0-8.51,0v1.891a4.214,4.214,0,0,0,.946,2.666v1.617A5.787,5.787,0,0,0,45,96.462v4.709a1.512,1.512,0,0,0,1.494,1.522H61.471a1.512,1.512,0,0,0,1.494-1.522V96.462A5.787,5.787,0,0,0,57.292,90.429Zm-5.673-6.174a2.364,2.364,0,1,1,4.728,0v1.891a2.364,2.364,0,1,1-4.728,0ZM53.982,92.8,52.564,91.29V90.15a4.139,4.139,0,0,0,2.837,0V91.29Zm.78,4.5-.78.634L53.2,97.3l.747-2.175c.009,0,.019,0,.033,0s.024,0,.033,0Zm6.311,3.5H46.891v-4.34a3.938,3.938,0,0,1,4.037-4.156l1.456,1.551L51.2,97.308a.946.946,0,0,0,.3,1.04l1.891,1.532a.94.94,0,0,0,1.191,0l1.891-1.532a.946.946,0,0,0,.3-1.04L55.58,93.857l1.456-1.551a4.618,4.618,0,0,1,2.775,1.045,3.925,3.925,0,0,1,1.262,3.111Z" transform="translate(-15.817 -42.179)" fill="#2d4356"/>
      <path id="Trazado_881914" data-name="Trazado 881914" d="M63.728,86.364v1.891a2.364,2.364,0,1,1-4.728,0V86.364a2.364,2.364,0,0,1,4.728,0Z" transform="translate(-23.198 -44.288)" fill="#e1ebf4"/>
      <path id="Trazado_881915" data-name="Trazado 881915" d="M63.837,101.47v1.139l-1.418,1.513L61,102.609V101.47a4.139,4.139,0,0,0,2.837,0Z" transform="translate(-24.253 -53.499)" fill="#e1ebf4"/>
      <path id="Trazado_881916" data-name="Trazado 881916" d="M63.91,114.165l-.78.633-.78-.633.747-2.175c.009,0,.019,0,.033,0s.024,0,.033,0Z" transform="translate(-24.965 -59.045)" fill="#ffdb80"/>
      <path id="Trazado_881917" data-name="Trazado 881917" d="M63.183,110.186v4.34H49v-4.34a3.938,3.938,0,0,1,4.037-4.156l1.456,1.551-1.187,3.451a.946.946,0,0,0,.3,1.04L55.5,113.6a.94.94,0,0,0,1.191,0l1.891-1.532a.946.946,0,0,0,.3-1.04l-1.187-3.451,1.456-1.551a4.618,4.618,0,0,1,2.775,1.045A3.925,3.925,0,0,1,63.183,110.186Z" transform="translate(-17.926 -55.903)" fill="#fc785e"/>
      <g id="Grupo_1110119" data-name="Grupo 1110119" transform="translate(16.891 47.29)">
        <path id="Trazado_881918" data-name="Trazado 881918" d="M24.494,101.581l-.236.69-1.22-1.3A3.938,3.938,0,0,0,19,105.131v-.946a3.938,3.938,0,0,1,4.037-4.156Z" transform="translate(-19 -100.03)" fill="#f9dbd7" opacity="0.3"/>
        <path id="Trazado_881919" data-name="Trazado 881919" d="M43.223,100.947a7.526,7.526,0,0,0-1.593,1.087,4.628,4.628,0,0,0-2.794-1.059l-1.22,1.3-.236-.69,1.456-1.551a4.628,4.628,0,0,1,2.794,1.059,7.283,7.283,0,0,1,.96-.723,5.7,5.7,0,0,1,.634.581Z" transform="translate(-28.691 -100.03)" fill="#f9dbd7" opacity="0.3"/>
        <path id="Trazado_881920" data-name="Trazado 881920" d="M84.1,101.581l-.236.69-1.22-1.3a4.628,4.628,0,0,0-2.794,1.059,7.526,7.526,0,0,0-1.593-1.087,5.7,5.7,0,0,1,.633-.581,7.284,7.284,0,0,1,.96.723,4.628,4.628,0,0,1,2.794-1.059Z" transform="translate(-50.244 -100.03)" fill="#f9dbd7" opacity="0.3"/>
        <path id="Trazado_881921" data-name="Trazado 881921" d="M102.874,104.186v.946a3.925,3.925,0,0,0-1.262-3.111,4.618,4.618,0,0,0-2.775-1.045l-1.22,1.3-.236-.69,1.456-1.551a4.618,4.618,0,0,1,2.775,1.045A3.925,3.925,0,0,1,102.874,104.186Z" transform="translate(-60.325 -100.03)" fill="#f9dbd7" opacity="0.3"/>
        <path id="Trazado_881922" data-name="Trazado 881922" d="M72.874,110.186v.946a3.925,3.925,0,0,0-1.262-3.111,4.618,4.618,0,0,0-2.775-1.045l-1.22,1.3-.236-.69,1.456-1.551a4.618,4.618,0,0,1,2.775,1.045A3.925,3.925,0,0,1,72.874,110.186Z" transform="translate(-44.508 -103.193)" fill="#f9dbd7" opacity="0.3"/>
      </g>
      <path id="Trazado_881923" data-name="Trazado 881923" d="M33.728,85v.946a2.364,2.364,0,1,1-4.728,0V85a2.364,2.364,0,1,0,4.728,0Z" transform="translate(-7.381 -44.815)" fill="#9fa5aa" opacity="0.5"/>
      <path id="Trazado_881924" data-name="Trazado 881924" d="M33.91,109.768l-.78.633-.78-.633.255-.738.525.425.525-.425Z" transform="translate(-9.148 -57.485)" fill="#ad9359" opacity="0.45"/>
      <path id="Trazado_881925" data-name="Trazado 881925" d="M29.4,116v.946H19V116h6.467l.028.024a.94.94,0,0,0,1.191,0l.028-.024Z" transform="translate(-2.109 -61.16)" fill="#a54b3f" opacity="0.5"/>
      <path id="Trazado_881926" data-name="Trazado 881926" d="M93.728,80.364v.946a2.364,2.364,0,0,0-4.728,0v-.946a2.364,2.364,0,0,1,4.728,0Z" transform="translate(-39.016 -41.125)" fill="#fff" opacity="0.5"/>
      <path id="Trazado_881927" data-name="Trazado 881927" d="M93.728,85v.946a2.364,2.364,0,0,1-4.728,0V85a2.364,2.364,0,0,0,4.728,0Z" transform="translate(-39.016 -44.815)" fill="#9fa5aa" opacity="0.5"/>
      <path id="Trazado_881928" data-name="Trazado 881928" d="M93.91,109.768l-.78.633-.78-.633.255-.738.525.425.525-.425Z" transform="translate(-40.782 -57.485)" fill="#ad9359" opacity="0.45"/>
      <path id="Trazado_881929" data-name="Trazado 881929" d="M97.4,116v.946H87V116h2.685l.028.024a.94.94,0,0,0,1.191,0l.028-.024Z" transform="translate(-37.961 -61.16)" fill="#a54b3f" opacity="0.5"/>
      <path id="Trazado_881930" data-name="Trazado 881930" d="M63.91,115.768l-.78.634-.78-.634.255-.738.525.425.525-.425Z" transform="translate(-24.965 -60.648)" fill="#ad9359" opacity="0.45"/>
      <path id="Trazado_881931" data-name="Trazado 881931" d="M54.494,107.581l-.236.69-1.22-1.3A3.938,3.938,0,0,0,49,111.131v-.946a3.938,3.938,0,0,1,4.037-4.156Z" transform="translate(-17.926 -55.903)" fill="#f9dbd7" opacity="0.3"/>
      <path id="Trazado_881932" data-name="Trazado 881932" d="M63.728,91v.946a2.364,2.364,0,1,1-4.728,0V91a2.364,2.364,0,1,0,4.728,0Z" transform="translate(-23.198 -47.979)" fill="#9fa5aa" opacity="0.5"/>
      <path id="Trazado_881933" data-name="Trazado 881933" d="M63.728,86.364v.946a2.364,2.364,0,1,0-4.728,0v-.946a2.364,2.364,0,0,1,4.728,0Z" transform="translate(-23.198 -44.288)" fill="#fff" opacity="0.5"/>
      <path id="Trazado_881934" data-name="Trazado 881934" d="M63.183,122v.946H49V122h6.467l.028.024a.94.94,0,0,0,1.191,0l.028-.024Z" transform="translate(-17.926 -64.323)" fill="#a54b3f" opacity="0.5"/>
      <path id="Trazado_881935" data-name="Trazado 881935" d="M54.42,4v.946H27.946A.948.948,0,0,0,27,5.891V4.946A.948.948,0,0,1,27.946,4Z" transform="translate(-6.327 -2.109)" fill="#fff" opacity="0.5"/>
      <path id="Trazado_881936" data-name="Trazado 881936" d="M40.337,29.473a1.418,1.418,0,0,1-2.837,0A1.311,1.311,0,0,1,37.585,29a1.413,1.413,0,0,0,2.666,0A1.31,1.31,0,0,1,40.337,29.473Z" transform="translate(-11.863 -15.29)" fill="#0f423c" opacity="0.3"/>
      <path id="Trazado_881937" data-name="Trazado 881937" d="M40.337,47.473a1.418,1.418,0,0,1-2.837,0A1.311,1.311,0,0,1,37.585,47a1.413,1.413,0,0,0,2.666,0,1.31,1.31,0,0,1,.085.473Z" transform="translate(-11.863 -24.78)" fill="#0f423c" opacity="0.3"/>
      <path id="Trazado_881938" data-name="Trazado 881938" d="M40.337,65.473a1.418,1.418,0,0,1-2.837,0A1.311,1.311,0,0,1,37.585,65a1.413,1.413,0,0,0,2.666,0A1.31,1.31,0,0,1,40.337,65.473Z" transform="translate(-11.863 -34.27)" fill="#0f423c" opacity="0.3"/>
    </g>
  </g>
</svg>
