<svg xmlns="http://www.w3.org/2000/svg" xmlns:xlink="http://www.w3.org/1999/xlink" width="1282.499" height="822" viewBox="0 0 1282.499 822">
  <defs>
    <clipPath id="clip-path">
      <rect y="54" width="270" height="795" fill="none"/>
    </clipPath>
    <clipPath id="clip-path-2">
      <rect id="Rect치ngulo_403903" data-name="Rect치ngulo 403903" width="270" height="956" transform="translate(-0.331 -0.241)" fill="#fff" stroke="#707070" stroke-width="1"/>
    </clipPath>
    <clipPath id="clip-path-3">
      <path id="Trazado_874501" data-name="Trazado 874501" d="M0,0H758.819V1099.468H0Z" fill="none"/>
    </clipPath>
  </defs>
  <g id="Grupo_1111240" data-name="Grupo 1111240" transform="translate(-180 -8516)">
    <g id="Grupo_de_desplazamiento_1" data-name="Grupo de desplazamiento 1" transform="translate(1192.499 8462.239)" clip-path="url(#clip-path)" style="isolation: isolate">
      <g id="Grupo_1108543" data-name="Grupo 1108543" transform="translate(129.28 567.617)">
        <g id="Enmascarar_grupo_1101651" data-name="Enmascarar grupo 1101651" transform="translate(-128.949 -567.376)" clip-path="url(#clip-path-2)">
          <g id="Enmascarar_grupo_1101601" data-name="Enmascarar grupo 1101601" transform="translate(161.738 -83.565)" clip-path="url(#clip-path-3)">
            <path id="Trazado_874364" data-name="Trazado 874364" d="M167.5,302.718l-22.688,14.819c7.955,11.35,16.617,22.48,27.286,31.514,5.033,4.929,10.914,8.755,16.453,12.984,2.885,1.921,5.911,3.689,8.9,5.483l4.474,2.7,4.705,2.3L218.7,348.381a131.1,131.1,0,0,0,46.419,13.282l-2.58,26.928a153.018,153.018,0,0,0,20.89.547c7.01.011,13.907-1.172,20.816-2.062,13.669-2.647,27.308-6.362,39.845-12.5L332.756,350.1a131.269,131.269,0,0,0,16.662-9.25,126.54,126.54,0,0,0,22.64-18.776l19.472,18.806,7.054-7.691c2.341-2.613,4.3-5.524,6.417-8.294,4.4-5.472,7.765-11.6,11.357-17.566,6.425-12.347,12.057-25.268,15.061-38.885l-26.232-6.414a131.935,131.935,0,0,0,2.725-48.161l26.7-3.492c-3.3-27.8-14.834-54.325-31.693-76.348l-21.385,16.446a131.454,131.454,0,0,0-36.03-32.143l13.9-23.094c-23.772-14.666-51.582-22.108-79.4-22.9l-.465,27.114a128.614,128.614,0,0,0-47.562,8.178L222.6,82.241c-26.3,9.57-49.471,26.515-67.5,47.83l20.969,17.224a131.331,131.331,0,0,0-23.31,42.339l-25.7-8.457c-4.136,13.267-7.125,27-7.676,40.943-.655,6.95-.078,13.941.112,20.883.29,3.5.8,6.965,1.247,10.419l.707,5.152c.294,1.742.741,3.443,1.117,5.13l26.418-5.6A129.9,129.9,0,0,0,167.5,302.718M240.868,174.84A66.082,66.082,0,1,1,221.678,266.3a66.028,66.028,0,0,1,19.189-91.461" transform="translate(-133.308 531.135)" fill="#ebf2f8"/>
            <path id="Trazado_874365" data-name="Trazado 874365" d="M194.217,447.1a194.851,194.851,0,0,1-46.527-5.606,7.875,7.875,0,0,1-5.975-8.264c.975-12.478,2.144-23.582,3.562-33.737q-4.406-1.457-8.863-3.235c-6.138,9.585-12.548,18.955-19.1,27.926a7.876,7.876,0,0,1-9.887,2.4,195.939,195.939,0,0,1-61.919-48.738,7.893,7.893,0,0,1,.022-10.177c7.709-9.09,15.147-17.361,22.61-25.13q-2.7-3.775-5.256-7.91c-10.311,4.061-20.991,7.88-31.853,11.391a7.868,7.868,0,0,1-9.407-3.845A195.559,195.559,0,0,1,.02,266.358a7.889,7.889,0,0,1,6-8.238c11.2-2.736,22.335-5.092,33.178-7.028.03-3.16.153-6.31.357-9.425-10.944-2.84-21.881-6.053-32.59-9.571a7.867,7.867,0,0,1-5.338-8.67A196.6,196.6,0,0,1,28.9,149.477a7.891,7.891,0,0,1,9.675-3.134c10.494,4.273,20.883,8.9,30.956,13.777,1.869-2.55,3.8-5.018,5.814-7.426-6.965-8.5-13.862-17.5-20.57-26.828a7.889,7.889,0,0,1,.793-10.14A196.249,196.249,0,0,1,120.9,71.942a7.89,7.89,0,0,1,9.652,3.142c5.844,9.384,11.551,19.193,17.034,29.24q4.517-1.435,9.016-2.572c-.637-11.1-.934-22.469-.882-33.893a7.9,7.9,0,0,1,6.574-7.743,194.848,194.848,0,0,1,78.726,2.956,7.9,7.9,0,0,1,5.967,8.268c-.986,12.507-2.159,23.615-3.574,33.733q4.405,1.457,8.859,3.235c6.142-9.589,12.548-18.955,19.1-27.926a7.892,7.892,0,0,1,9.879-2.4,195.322,195.322,0,0,1,61.927,48.753,7.883,7.883,0,0,1-.019,10.17c-7.549,8.9-15.128,17.332-22.614,25.123,1.787,2.505,3.533,5.118,5.26,7.869,10.925-4.277,21.613-8.115,31.853-11.428a7.882,7.882,0,0,1,9.414,3.841,195.56,195.56,0,0,1,21.594,75.9,7.887,7.887,0,0,1-5.986,8.238c-10.657,2.606-21.791,4.958-33.167,7.006-.03,3.164-.145,6.31-.368,9.463,11.253,2.944,22.167,6.127,32.538,9.5a7.9,7.9,0,0,1,5.36,8.666,196.245,196.245,0,0,1-27.252,74.01,7.9,7.9,0,0,1-9.671,3.131c-10.475-4.266-20.864-8.893-30.96-13.773q-2.786,3.78-5.792,7.4c7.341,8.99,14.264,18.009,20.63,26.884a7.883,7.883,0,0,1-.811,10.151,197.412,197.412,0,0,1-65.377,43.813,7.9,7.9,0,0,1-9.716-3.164c-6.016-9.783-11.7-19.6-16.93-29.27q-4.5,1.429-9.079,2.569c.625,10.911.945,22.257.934,33.819a7.891,7.891,0,0,1-6.57,7.772,193.366,193.366,0,0,1-32.233,2.684M158,427.656a180.144,180.144,0,0,0,59.217,2.193c-.123-11.227-.555-22.19-1.3-32.672a7.884,7.884,0,0,1,6.295-8.282,138.2,138.2,0,0,0,20.034-5.669,7.879,7.879,0,0,1,9.693,3.733c4.917,9.362,10.3,18.91,16.04,28.469a181.141,181.141,0,0,0,49.2-32.992c-6.272-8.5-13.058-17.116-20.206-25.678a7.875,7.875,0,0,1,.223-10.371,137.362,137.362,0,0,0,12.805-16.375,7.868,7.868,0,0,1,10.1-2.688c9.641,4.832,19.61,9.422,29.716,13.695a180.74,180.74,0,0,0,20.5-55.669c-10.1-3.138-20.682-6.09-31.537-8.807a7.878,7.878,0,0,1-5.922-8.521,142.762,142.762,0,0,0,.789-20.917,7.9,7.9,0,0,1,6.581-8.052c10.966-1.843,21.739-3.979,32.091-6.362a179.915,179.915,0,0,0-16.237-57.1c-9.9,3.361-20.176,7.188-30.651,11.42a7.9,7.9,0,0,1-9.794-3.387,143,143,0,0,0-9.7-14.871c-.625-.834-1.254-1.612-1.858-2.342a7.889,7.889,0,0,1,.473-10.568c7.289-7.374,14.722-15.426,22.156-23.995a179.713,179.713,0,0,0-46.564-36.663c-6.224,8.759-12.292,17.872-18.095,27.159a7.837,7.837,0,0,1-9.9,3.026,140.694,140.694,0,0,0-19.632-7.136,7.891,7.891,0,0,1-5.688-8.822c1.53-9.719,2.792-20.414,3.86-32.523a179.432,179.432,0,0,0-59.187-2.2c.082,11.074.514,22.041,1.262,32.7a7.881,7.881,0,0,1-6.295,8.282,138.894,138.894,0,0,0-19.941,5.684,7.873,7.873,0,0,1-9.671-3.7c-5.185-9.742-10.6-19.293-16.163-28.469a180.784,180.784,0,0,0-49.125,32.959c6.6,8.952,13.371,17.548,20.168,25.607a7.885,7.885,0,0,1-.227,10.423,132.28,132.28,0,0,0-12.824,16.39,7.893,7.893,0,0,1-10.1,2.68c-9.634-4.828-19.6-9.422-29.716-13.695a181.464,181.464,0,0,0-20.529,55.647c10.412,3.265,20.991,6.228,31.544,8.826a7.867,7.867,0,0,1,5.948,8.517,148.85,148.85,0,0,0-.793,20.957,7.9,7.9,0,0,1-6.611,8.026c-10.423,1.708-21.173,3.838-32.058,6.354a180.232,180.232,0,0,0,16.245,57.021c10.494-3.544,20.771-7.367,30.628-11.409a7.9,7.9,0,0,1,9.868,3.439A132.873,132.873,0,0,0,82.763,335.8a21.758,21.758,0,0,0,1.56,2.029,7.874,7.874,0,0,1-.182,10.892c-7.363,7.445-14.655,15.337-22.16,24a180.608,180.608,0,0,0,46.568,36.651c6.22-8.755,12.292-17.864,18.091-27.152a7.892,7.892,0,0,1,9.9-3.03,141.61,141.61,0,0,0,19.636,7.147,7.893,7.893,0,0,1,5.688,8.818c-1.53,9.757-2.8,20.447-3.86,32.5m36.648-54.694a122.238,122.238,0,0,1-25.078-2.617,120.1,120.1,0,1,1,25.078,2.617m-.607-225.626a105.486,105.486,0,1,0,21.84,2.278,106.24,106.24,0,0,0-21.84-2.278M132.636,157.8h0Z" transform="translate(-0.001 156.371)" fill="#12263f"/>
            <path id="Trazado_874368" data-name="Trazado 874368" d="M231.695,68.75,112.613,0V137.5Z" transform="translate(306.585 0.001)" fill="#12263f"/>
            <path id="Trazado_874369" data-name="Trazado 874369" d="M282.278,68.75,163.2,0V137.5Z" transform="translate(444.296 0.001)" fill="#12263f"/>
          </g>
        </g>
      </g>
    </g>
    <rect id="Rect치ngulo_405012" data-name="Rect치ngulo 405012" width="1282" height="822" transform="translate(180 8516)" fill="none"/>
  </g>
</svg>
