<svg xmlns="http://www.w3.org/2000/svg" xmlns:xlink="http://www.w3.org/1999/xlink" width="1334.228" height="1560" viewBox="0 0 1334.228 1560">
  <defs>
    <clipPath id="clip-path">
      <rect id="Rectángulo_403902" data-name="Rectángulo 403902" width="159.883" height="494.659" transform="translate(136.051 11962.28)" fill="#fff"/>
    </clipPath>
    <clipPath id="clip-path-2">
      <path id="Trazado_874501" data-name="Trazado 874501" d="M0,0H394.8V572.04H0Z" fill="none"/>
    </clipPath>
    <filter id="Trazado_874362" x="-159.634" y="702.343" width="280.587" height="281.337" filterUnits="userSpaceOnUse">
      <feOffset dx="5" dy="3" input="SourceAlpha"/>
      <feGaussianBlur stdDeviation="3" result="blur"/>
      <feFlood flood-opacity="0.161"/>
      <feComposite operator="in" in2="blur"/>
      <feComposite in="SourceGraphic"/>
    </filter>
    <clipPath id="clip-path-3">
      <rect id="Rectángulo_403903" data-name="Rectángulo 403903" width="187.234" height="662.948" transform="translate(0 0)" fill="#fff" stroke="#707070" stroke-width="1"/>
    </clipPath>
    <clipPath id="clip-path-4">
      <path id="Trazado_874501-2" data-name="Trazado 874501" d="M0,0H526.211V762.438H0Z" fill="none"/>
    </clipPath>
    <clipPath id="clip-path-5">
      <rect id="Rectángulo_404207" data-name="Rectángulo 404207" width="131.228" height="406.004" transform="translate(136.051 11962.28)" fill="#fff"/>
    </clipPath>
    <clipPath id="clip-path-6">
      <path id="Trazado_882144" data-name="Trazado 882144" d="M0,0H324.045V469.515H0Z" fill="none"/>
    </clipPath>
    <filter id="Trazado_882136" x="1262.238" y="109.999" width="233.524" height="234.14" filterUnits="userSpaceOnUse">
      <feOffset dx="5" dy="3" input="SourceAlpha"/>
      <feGaussianBlur stdDeviation="3" result="blur-2"/>
      <feFlood flood-opacity="0.161"/>
      <feComposite operator="in" in2="blur-2"/>
      <feComposite in="SourceGraphic"/>
    </filter>
  </defs>
  <g id="Grupo_1111240" data-name="Grupo 1111240" transform="translate(-130 -5279)">
    <g id="Grupo_1111239" data-name="Grupo 1111239">
      <g id="Grupo_1111238" data-name="Grupo 1111238">
        <g id="Grupo_1111237" data-name="Grupo 1111237">
          <g id="Enmascarar_grupo_1101650" data-name="Enmascarar grupo 1101650" transform="translate(-1.551 -6191.934)" clip-path="url(#clip-path)">
            <g id="Enmascarar_grupo_1101601" data-name="Enmascarar grupo 1101601" transform="translate(-125.016 11870.575)" clip-path="url(#clip-path-2)">
              <g transform="matrix(1, 0, 0, 1, 256.57, -399.64)" filter="url(#Trazado_874362)">
                <path id="Trazado_874362-2" data-name="Trazado 874362" d="M99.517,346.033c.782,1.2,1.577,2.344,2.371,3.488q-11.385,10.7-22,22.364a131.353,131.353,0,0,0,61.565,43.807c5.024-9.149,9.684-18.571,13.96-28.158a99.338,99.338,0,0,0,23,3.93q1.284,15.658,3.784,31.265a141.119,141.119,0,0,0,37.856-5.084,141,141,0,0,0,34.794-15.792q-6.095-14.531-13.34-28.492a98.9,98.9,0,0,0,17.456-15.515c8.671,5.845,17.634,11.359,26.814,16.5A131.924,131.924,0,0,0,314.7,304.569c-10.137-2.855-20.3-5.32-30.529-7.329a103.063,103.063,0,0,0-1.3-23.365c9.967-3.136,19.854-6.682,29.516-10.637-5.27-25.12-18.306-48.124-36.415-66.152-8.578,6.11-16.871,12.591-24.823,19.309a98.011,98.011,0,0,0-19.019-13.551q5.677-14.659,10.067-29.731a127.536,127.536,0,0,0-36.25-11.77,125.278,125.278,0,0,0-38.133-.928q-.84,15.8-.37,31.346a97.267,97.267,0,0,0-22.47,6.5q-7.873-13.436-16.987-26.433l-4.344,2.053c-1.414.738-2.783,1.54-4.154,2.344-2.74,1.606-5.524,3.145-8.2,4.848-5.156,3.785-10.478,7.307-15.07,11.741-4.945,4.106-9.165,8.9-13.437,13.673-2.051,2.45-3.91,5.051-5.845,7.609a73.458,73.458,0,0,0-5.282,7.978Q83.5,232.564,95.979,241.907l.019.033a96.771,96.771,0,0,0-8.971,21.573c-10.309-1.493-20.677-2.578-31.22-3.225a130.667,130.667,0,0,0,4.143,75.4q15.447-2.673,30.692-6.645a96.739,96.739,0,0,0,8.876,16.987m42.494-119.265a76.633,76.633,0,1,1-22.247,106.039,76.724,76.724,0,0,1,22.247-106.039" transform="translate(-207.75 548.95)" fill="#265e92"/>
              </g>
              <path id="Trazado_874363" data-name="Trazado 874363" d="M99.908,286.312a57.286,57.286,0,1,1,79.283,16.662,57.335,57.335,0,0,1-79.283-16.662" transform="translate(84.873 185.224)" fill="#fbfbf9"/>
              <path id="Trazado_874364" data-name="Trazado 874364" d="M144.275,192.2l-11.8,7.71c4.139,5.905,8.646,11.7,14.2,16.4a88.351,88.351,0,0,0,8.56,6.755c1.5,1,3.076,1.919,4.629,2.853l2.328,1.4,2.448,1.2,6.283-12.556a68.207,68.207,0,0,0,24.151,6.91l-1.342,14.01a79.614,79.614,0,0,0,10.869.285,83.8,83.8,0,0,0,10.83-1.073,82.761,82.761,0,0,0,20.731-6.5l-5.9-12.736a68.3,68.3,0,0,0,8.669-4.813,65.838,65.838,0,0,0,11.779-9.769l10.131,9.785,3.67-4c1.218-1.36,2.239-2.874,3.339-4.315a80.047,80.047,0,0,0,5.909-9.14,83.009,83.009,0,0,0,7.836-20.231L267.94,171.03a68.644,68.644,0,0,0,1.418-25.058l13.894-1.817a81.858,81.858,0,0,0-16.489-39.723l-11.127,8.557A68.394,68.394,0,0,0,236.89,96.265l7.234-12.016a83.359,83.359,0,0,0-41.309-11.915l-.242,14.107A66.916,66.916,0,0,0,177.827,90.7l-4.886-13.209a84,84,0,0,0-35.117,24.885l10.91,8.961a68.33,68.33,0,0,0-12.128,22.029l-13.369-4.4a82.832,82.832,0,0,0-3.994,21.3,89.574,89.574,0,0,0,.058,10.865c.151,1.819.418,3.624.649,5.421l.368,2.68c.153.906.385,1.792.581,2.669l13.745-2.913a67.584,67.584,0,0,0,9.632,23.212m38.171-66.533a34.381,34.381,0,1,1-9.984,47.586,34.353,34.353,0,0,1,9.984-47.586" transform="translate(111.552 67.76)" fill="#9ebdd2"/>
              <path id="Trazado_874365" data-name="Trazado 874365" d="M101.048,260.173a101.378,101.378,0,0,1-24.207-2.917,4.1,4.1,0,0,1-3.108-4.3c.507-6.492,1.116-12.269,1.853-17.553q-2.292-.758-4.611-1.683c-3.194,4.987-6.529,9.862-9.937,14.53a4.1,4.1,0,0,1-5.144,1.249,101.944,101.944,0,0,1-32.216-25.358,4.107,4.107,0,0,1,.012-5.3c4.011-4.729,7.881-9.033,11.764-13.075q-1.4-1.964-2.735-4.116c-5.365,2.113-10.921,4.1-16.573,5.926a4.094,4.094,0,0,1-4.894-2A101.747,101.747,0,0,1,.01,166.136a4.1,4.1,0,0,1,3.12-4.286c5.83-1.423,11.62-2.649,17.262-3.657.015-1.644.079-3.283.186-4.9-5.694-1.478-11.384-3.149-16.956-4.979A4.093,4.093,0,0,1,.845,143.8a102.29,102.29,0,0,1,14.189-38.475,4.106,4.106,0,0,1,5.034-1.631c5.46,2.223,10.865,4.629,16.106,7.168.972-1.327,1.977-2.611,3.025-3.864-3.624-4.422-7.212-9.1-10.7-13.958a4.1,4.1,0,0,1,.413-5.276A102.106,102.106,0,0,1,62.9,64.984a4.1,4.1,0,0,1,5.022,1.635c3.041,4.883,6.01,9.986,8.863,15.213q2.35-.747,4.691-1.338c-.331-5.773-.486-11.69-.459-17.634a4.11,4.11,0,0,1,3.42-4.028,101.377,101.377,0,0,1,40.96,1.538,4.109,4.109,0,0,1,3.1,4.3c-.513,6.507-1.123,12.287-1.859,17.551q2.292.758,4.609,1.683c3.2-4.989,6.529-9.862,9.937-14.529a4.106,4.106,0,0,1,5.14-1.251,101.623,101.623,0,0,1,32.22,25.366,4.1,4.1,0,0,1-.01,5.291c-3.928,4.633-7.871,9.017-11.766,13.071.93,1.3,1.838,2.663,2.737,4.094,5.684-2.225,11.245-4.222,16.573-5.946a4.1,4.1,0,0,1,4.9,2,101.747,101.747,0,0,1,11.235,39.49,4.1,4.1,0,0,1-3.114,4.286c-5.545,1.356-11.338,2.58-17.256,3.645-.016,1.646-.076,3.283-.192,4.923,5.855,1.532,11.533,3.188,16.929,4.943a4.111,4.111,0,0,1,2.789,4.509A102.1,102.1,0,0,1,187.195,212.3a4.111,4.111,0,0,1-5.032,1.629c-5.45-2.219-10.855-4.627-16.108-7.166q-1.45,1.967-3.014,3.848c3.819,4.677,7.422,9.37,10.733,13.987a4.1,4.1,0,0,1-.422,5.281,102.711,102.711,0,0,1-34.015,22.8,4.109,4.109,0,0,1-5.055-1.646c-3.13-5.09-6.089-10.2-8.808-15.229q-2.342.744-4.724,1.336c.325,5.677.492,11.58.486,17.6a4.105,4.105,0,0,1-3.418,4.044,100.6,100.6,0,0,1-16.77,1.4M82.206,250.058a93.727,93.727,0,0,0,30.81,1.141c-.064-5.841-.289-11.545-.674-17a4.1,4.1,0,0,1,3.275-4.309,71.9,71.9,0,0,0,10.424-2.95,4.1,4.1,0,0,1,5.043,1.942c2.558,4.871,5.359,9.839,8.345,14.812a94.245,94.245,0,0,0,25.6-17.165c-3.263-4.423-6.794-8.905-10.513-13.36a4.1,4.1,0,0,1,.116-5.4,71.466,71.466,0,0,0,6.662-8.52,4.094,4.094,0,0,1,5.252-1.4c5.016,2.514,10.2,4.9,15.461,7.125a94.037,94.037,0,0,0,10.664-28.964c-5.253-1.633-10.761-3.169-16.408-4.582A4.1,4.1,0,0,1,173.182,167a74.275,74.275,0,0,0,.411-10.883,4.109,4.109,0,0,1,3.424-4.189c5.706-.959,11.311-2.07,16.7-3.31a93.608,93.608,0,0,0-8.448-29.708c-5.15,1.749-10.5,3.74-15.947,5.942a4.108,4.108,0,0,1-5.1-1.762,74.4,74.4,0,0,0-5.049-7.737c-.325-.434-.653-.839-.966-1.218a4.1,4.1,0,0,1,.246-5.5c3.792-3.837,7.66-8.026,11.527-12.484a93.5,93.5,0,0,0-24.227-19.075c-3.238,4.557-6.4,9.3-9.415,14.131a4.077,4.077,0,0,1-5.15,1.575,73.2,73.2,0,0,0-10.214-3.713,4.106,4.106,0,0,1-2.959-4.59c.8-5.057,1.453-10.621,2.008-16.921A93.356,93.356,0,0,0,89.23,66.413c.043,5.762.267,11.467.657,17.012a4.1,4.1,0,0,1-3.275,4.309,72.265,72.265,0,0,0-10.375,2.957A4.1,4.1,0,0,1,71.2,88.765c-2.7-5.068-5.514-10.038-8.409-14.812A94.059,94.059,0,0,0,37.236,91.1c3.436,4.658,6.957,9.13,10.493,13.323a4.1,4.1,0,0,1-.118,5.423,68.823,68.823,0,0,0-6.672,8.527,4.107,4.107,0,0,1-5.256,1.394c-5.012-2.512-10.2-4.9-15.461-7.125A94.414,94.414,0,0,0,9.541,141.6c5.417,1.7,10.921,3.24,16.412,4.592a4.093,4.093,0,0,1,3.095,4.431,77.445,77.445,0,0,0-.413,10.9A4.111,4.111,0,0,1,25.2,165.7c-5.423.889-11.016,2-16.679,3.306a93.773,93.773,0,0,0,8.452,29.667c5.46-1.844,10.807-3.833,15.936-5.936a4.111,4.111,0,0,1,5.134,1.79,69.134,69.134,0,0,0,5.022,7.739,11.321,11.321,0,0,0,.812,1.056,4.1,4.1,0,0,1-.095,5.667c-3.831,3.874-7.625,7.979-11.529,12.486a93.967,93.967,0,0,0,24.229,19.069c3.236-4.555,6.4-9.294,9.413-14.127a4.106,4.106,0,0,1,5.15-1.577,73.679,73.679,0,0,0,10.216,3.719,4.106,4.106,0,0,1,2.959,4.588c-.8,5.076-1.458,10.639-2.008,16.912M101.273,221.6a63.6,63.6,0,0,1-13.048-1.362,62.489,62.489,0,1,1,13.048,1.362m-.316-117.39A54.883,54.883,0,1,0,112.32,105.4a55.276,55.276,0,0,0-11.363-1.185m-31.949,5.444h0Z" transform="translate(0 53.804)" fill="#12263f"/>
              <path id="Trazado_874366" data-name="Trazado 874366" d="M73.4,35.77,11.447,0V71.54Z" transform="translate(10.723 0)" fill="#12263f"/>
              <path id="Trazado_874367" data-name="Trazado 874367" d="M123.987,35.77,62.03,0V71.54Z" transform="translate(58.107 0)" fill="#12263f"/>
              <path id="Trazado_874368" data-name="Trazado 874368" d="M174.57,35.77,112.613,0V71.54Z" transform="translate(105.49 0)" fill="#12263f"/>
              <path id="Trazado_874369" data-name="Trazado 874369" d="M225.153,35.77,163.2,0V71.54Z" transform="translate(152.874 0)" fill="#12263f"/>
            </g>
          </g>
          <g id="Grupo_1108542" data-name="Grupo 1108542" transform="translate(1405.545 6109.669)">
            <g id="Enmascarar_grupo_1101651" data-name="Enmascarar grupo 1101651" transform="translate(-129.28 66.383)" clip-path="url(#clip-path-3)">
              <g id="Enmascarar_grupo_1101601-2" data-name="Enmascarar grupo 1101601" transform="translate(112.388 -57.782)" clip-path="url(#clip-path-4)">
                <path id="Trazado_874364-2" data-name="Trazado 874364" d="M152.66,232.1l-15.733,10.276c5.516,7.871,11.523,15.589,18.921,21.854,3.49,3.418,7.569,6.071,11.41,9,2,1.332,4.1,2.558,6.169,3.8l3.1,1.869,3.263,1.6,8.374-16.735a90.91,90.91,0,0,0,32.19,9.21l-1.789,18.674a106.116,106.116,0,0,0,14.487.379,111.689,111.689,0,0,0,14.435-1.43c9.479-1.835,18.937-4.412,27.631-8.668l-7.863-16.975a91.034,91.034,0,0,0,11.554-6.415,87.751,87.751,0,0,0,15.7-13.02l13.5,13.041,4.892-5.333c1.624-1.812,2.984-3.831,4.45-5.751a106.693,106.693,0,0,0,7.876-12.182c4.456-8.562,8.361-17.522,10.444-26.965l-18.191-4.448a91.492,91.492,0,0,0,1.89-33.4l18.519-2.421a109.1,109.1,0,0,0-21.978-52.944l-14.83,11.4A91.159,91.159,0,0,0,276.1,104.23l9.642-16.015c-16.485-10.171-35.77-15.331-55.058-15.881l-.323,18.8a89.189,89.189,0,0,0-32.982,5.671l-6.513-17.6a111.959,111.959,0,0,0-46.806,33.168L158.6,124.316a91.072,91.072,0,0,0-16.165,29.361l-17.819-5.865A110.4,110.4,0,0,0,119.3,176.2c-.454,4.819-.054,9.667.077,14.482.2,2.424.558,4.83.865,7.225l.49,3.573c.2,1.208.514,2.388.774,3.557l18.32-3.882A90.079,90.079,0,0,0,152.66,232.1m50.876-88.678a45.825,45.825,0,1,1-13.307,63.424,45.787,45.787,0,0,1,13.307-63.424" transform="translate(-128.948 346.147)" fill="#9ebdd2"/>
                <path id="Trazado_874365-2" data-name="Trazado 874365" d="M134.682,327.652a135.121,135.121,0,0,1-32.265-3.888,5.461,5.461,0,0,1-4.143-5.731c.676-8.653,1.487-16.353,2.47-23.395q-3.055-1.011-6.146-2.243c-4.257,6.647-8.7,13.144-13.245,19.366a5.462,5.462,0,0,1-6.856,1.665,135.876,135.876,0,0,1-42.939-33.8,5.473,5.473,0,0,1,.015-7.057c5.346-6.3,10.5-12.039,15.679-17.427q-1.87-2.617-3.645-5.485c-7.15,2.816-14.556,5.465-22.089,7.9A5.456,5.456,0,0,1,15,254.891,135.612,135.612,0,0,1,.014,202.316,5.471,5.471,0,0,1,4.172,196.6c7.77-1.9,15.488-3.531,23.008-4.874.021-2.192.106-4.376.248-6.536-7.589-1.97-15.173-4.2-22.6-6.637a5.456,5.456,0,0,1-3.7-6.012,136.336,136.336,0,0,1,18.911-51.282,5.472,5.472,0,0,1,6.709-2.173c7.277,2.963,14.482,6.169,21.467,9.554,1.3-1.768,2.636-3.48,4.032-5.15-4.83-5.893-9.613-12.135-14.265-18.6a5.471,5.471,0,0,1,.55-7.032A136.091,136.091,0,0,1,83.839,67.5a5.471,5.471,0,0,1,6.694,2.179c4.053,6.508,8.01,13.31,11.812,20.277q3.133-1,6.252-1.784c-.441-7.7-.648-15.581-.612-23.5a5.478,5.478,0,0,1,4.559-5.369,135.119,135.119,0,0,1,54.594,2.05,5.477,5.477,0,0,1,4.138,5.733c-.684,8.673-1.5,16.376-2.478,23.392q3.055,1.011,6.144,2.243c4.259-6.65,8.7-13.144,13.245-19.365a5.473,5.473,0,0,1,6.851-1.668,135.448,135.448,0,0,1,42.944,33.808,5.466,5.466,0,0,1-.013,7.052c-5.235,6.175-10.491,12.019-15.682,17.422,1.239,1.737,2.45,3.549,3.648,5.457,7.576-2.966,14.987-5.627,22.089-7.925a5.466,5.466,0,0,1,6.528,2.664,135.613,135.613,0,0,1,14.975,52.634,5.47,5.47,0,0,1-4.151,5.713c-7.391,1.807-15.111,3.438-23,4.858-.021,2.194-.1,4.375-.256,6.562,7.8,2.042,15.372,4.249,22.564,6.588a5.48,5.48,0,0,1,3.717,6.009,136.088,136.088,0,0,1-18.9,51.323,5.48,5.48,0,0,1-6.706,2.171c-7.264-2.958-14.469-6.167-21.469-9.551q-1.932,2.621-4.017,5.129c5.09,6.234,9.892,12.489,14.306,18.643a5.467,5.467,0,0,1-.563,7.039,136.9,136.9,0,0,1-45.337,30.383,5.476,5.476,0,0,1-6.737-2.194c-4.172-6.784-8.116-13.593-11.74-20.3q-3.121.991-6.3,1.781c.434,7.566.656,15.434.648,23.452a5.472,5.472,0,0,1-4.556,5.39,134.09,134.09,0,0,1-22.352,1.861m-25.114-13.483a124.923,124.923,0,0,0,41.065,1.52c-.085-7.785-.385-15.388-.9-22.657a5.467,5.467,0,0,1,4.365-5.744,95.835,95.835,0,0,0,13.893-3.931,5.464,5.464,0,0,1,6.722,2.589c3.41,6.492,7.143,13.113,11.123,19.742a125.614,125.614,0,0,0,34.121-22.879c-4.35-5.9-9.055-11.869-14.012-17.806a5.461,5.461,0,0,1,.155-7.192,95.251,95.251,0,0,0,8.88-11.356,5.457,5.457,0,0,1,7-1.864c6.686,3.351,13.6,6.534,20.607,9.5a125.337,125.337,0,0,0,14.213-38.6c-7-2.176-14.342-4.223-21.87-6.108a5.463,5.463,0,0,1-4.107-5.909,99,99,0,0,0,.547-14.5,5.476,5.476,0,0,1,4.564-5.583c7.6-1.278,15.075-2.759,22.254-4.412a124.764,124.764,0,0,0-11.26-39.6c-6.864,2.331-13.991,4.985-21.255,7.92a5.475,5.475,0,0,1-6.792-2.349,99.169,99.169,0,0,0-6.73-10.313c-.434-.578-.87-1.118-1.288-1.624a5.471,5.471,0,0,1,.328-7.328c5.054-5.114,10.209-10.7,15.364-16.639a124.624,124.624,0,0,0-32.29-25.424c-4.316,6.074-8.524,12.393-12.548,18.834a5.435,5.435,0,0,1-6.864,2.1A97.566,97.566,0,0,0,161.241,99.6a5.472,5.472,0,0,1-3.944-6.118c1.061-6.74,1.936-14.156,2.677-22.553A124.429,124.429,0,0,0,118.93,69.4c.057,7.68.356,15.284.875,22.675a5.465,5.465,0,0,1-4.365,5.744,96.314,96.314,0,0,0-13.828,3.942,5.459,5.459,0,0,1-6.706-2.569c-3.6-6.755-7.349-13.379-11.208-19.742A125.366,125.366,0,0,0,49.63,102.306c4.579,6.208,9.272,12.169,13.986,17.757a5.468,5.468,0,0,1-.157,7.228,91.732,91.732,0,0,0-8.893,11.366,5.474,5.474,0,0,1-7.006,1.859c-6.681-3.348-13.588-6.533-20.607-9.5a125.838,125.838,0,0,0-14.236,38.589c7.22,2.264,14.556,4.319,21.875,6.121a5.455,5.455,0,0,1,4.125,5.906,103.221,103.221,0,0,0-.55,14.533,5.479,5.479,0,0,1-4.585,5.566c-7.228,1.185-14.683,2.661-22.231,4.406A124.984,124.984,0,0,0,22.616,245.68c7.277-2.457,14.4-5.108,21.24-7.912a5.48,5.48,0,0,1,6.843,2.385,92.142,92.142,0,0,0,6.694,10.315,15.088,15.088,0,0,0,1.082,1.407,5.46,5.46,0,0,1-.126,7.553c-5.106,5.163-10.163,10.635-15.367,16.642a125.245,125.245,0,0,0,32.293,25.416c4.313-6.071,8.524-12.388,12.545-18.829a5.473,5.473,0,0,1,6.864-2.1,98.2,98.2,0,0,0,13.617,4.956,5.473,5.473,0,0,1,3.944,6.115c-1.061,6.766-1.944,14.179-2.677,22.541m25.414-37.928a84.766,84.766,0,0,1-17.391-1.815,83.288,83.288,0,1,1,17.391,1.815m-.421-156.462a73.151,73.151,0,1,0,15.145,1.58,73.674,73.674,0,0,0-15.145-1.58m-42.582,7.256h0Z" transform="translate(-0.001 90.83)" fill="#1d476d"/>
                <path id="Trazado_874368-2" data-name="Trazado 874368" d="M195.192,47.676,112.613,0V95.351Z" transform="translate(178.084 0.001)" fill="#12263f"/>
                <path id="Trazado_874369-2" data-name="Trazado 874369" d="M245.775,47.676,163.2,0V95.351Z" transform="translate(258.075 0.001)" fill="#12263f"/>
              </g>
            </g>
          </g>
          <g id="Enmascarar_grupo_1101756" data-name="Enmascarar grupo 1101756" transform="translate(1600.279 17758.525) rotate(180)" clip-path="url(#clip-path-5)">
            <g id="Enmascarar_grupo_1101755" data-name="Enmascarar grupo 1101755" transform="translate(15.774 11894.012)" clip-path="url(#clip-path-6)">
              <g transform="matrix(-1, 0, 0, -1, 1454.51, 585.51)" filter="url(#Trazado_882136)">
                <path id="Trazado_882136-2" data-name="Trazado 882136" d="M91.021,312.582c.642.984,1.294,1.924,1.946,2.863q-9.345,8.78-18.053,18.355a107.811,107.811,0,0,0,50.531,35.956c4.123-7.509,7.948-15.243,11.458-23.112a81.534,81.534,0,0,0,18.874,3.225q1.054,12.852,3.106,25.661a115.826,115.826,0,0,0,31.071-4.173A115.724,115.724,0,0,0,218.511,358.4q-5-11.927-10.949-23.385a81.172,81.172,0,0,0,14.327-12.735c7.117,4.8,14.474,9.323,22.008,13.544a108.28,108.28,0,0,0,23.741-57.271c-8.32-2.343-16.661-4.367-25.057-6.015a84.593,84.593,0,0,0-1.07-19.177c8.18-2.574,16.3-5.484,24.226-8.73a108.617,108.617,0,0,0-29.888-54.3c-7.04,5.015-13.847,10.334-20.374,15.849a80.445,80.445,0,0,0-15.61-11.123q4.659-12.032,8.263-24.4a104.679,104.679,0,0,0-29.753-9.66,102.824,102.824,0,0,0-31.3-.761q-.689,12.969-.3,25.728a79.835,79.835,0,0,0-18.443,5.332q-6.462-11.028-13.943-21.7l-3.566,1.685c-1.16.606-2.284,1.264-3.41,1.923-2.249,1.318-4.534,2.582-6.732,3.979-4.232,3.106-8.6,6-12.369,9.636a105.946,105.946,0,0,0-11.029,11.223c-1.683,2.011-3.209,4.146-4.8,6.246a60.291,60.291,0,0,0-4.335,6.548q9.724,8.613,19.967,16.281l.016.027a79.427,79.427,0,0,0-7.363,17.707c-8.462-1.226-16.971-2.116-25.625-2.647a107.248,107.248,0,0,0,3.4,61.888q12.678-2.194,25.191-5.454a79.4,79.4,0,0,0,7.285,13.943m34.878-97.89a62.9,62.9,0,1,1-18.26,87.034,62.973,62.973,0,0,1,18.26-87.034" transform="translate(1533.88 491.53) rotate(180)" fill="#265e92"/>
              </g>
              <path id="Trazado_882139" data-name="Trazado 882139" d="M82.938,223.838a83.208,83.208,0,0,1-19.869-2.394,3.363,3.363,0,0,1-2.551-3.529c.416-5.328.916-10.07,1.521-14.407q-1.881-.622-3.785-1.381c-2.621,4.093-5.359,8.094-8.156,11.925a3.363,3.363,0,0,1-4.222,1.025,83.673,83.673,0,0,1-26.442-20.813,3.37,3.37,0,0,1,.01-4.346c3.292-3.882,6.468-7.414,9.655-10.732q-1.152-1.612-2.245-3.378c-4.4,1.734-8.964,3.365-13.6,4.864a3.36,3.36,0,0,1-4.017-1.642A83.511,83.511,0,0,1,.008,146.655a3.369,3.369,0,0,1,2.561-3.518c4.785-1.168,9.538-2.175,14.168-3,.013-1.35.065-2.694.153-4.025-4.674-1.213-9.344-2.585-13.917-4.087a3.36,3.36,0,0,1-2.28-3.7,83.957,83.957,0,0,1,11.646-31.58A3.37,3.37,0,0,1,16.47,95.4c4.481,1.825,8.918,3.8,13.219,5.883.8-1.089,1.623-2.143,2.483-3.171-2.974-3.629-5.92-7.473-8.784-11.456a3.369,3.369,0,0,1,.339-4.33,83.806,83.806,0,0,1,27.9-18.7,3.369,3.369,0,0,1,4.122,1.342c2.5,4.007,4.933,8.2,7.274,12.487q1.929-.613,3.85-1.1c-.272-4.739-.4-9.6-.377-14.474a3.373,3.373,0,0,1,2.807-3.306,83.207,83.207,0,0,1,33.619,1.262,3.373,3.373,0,0,1,2.548,3.531c-.421,5.341-.922,10.085-1.526,14.405q1.881.622,3.783,1.381c2.623-4.095,5.359-8.094,8.156-11.925a3.37,3.37,0,0,1,4.219-1.027A83.41,83.41,0,0,1,146.55,87.028a3.366,3.366,0,0,1-.008,4.343c-3.224,3.8-6.46,7.4-9.657,10.728.763,1.07,1.509,2.186,2.246,3.361,4.666-1.827,9.229-3.465,13.6-4.88a3.366,3.366,0,0,1,4.02,1.64,83.511,83.511,0,0,1,9.221,32.413,3.368,3.368,0,0,1-2.556,3.518c-4.551,1.113-9.306,2.117-14.164,2.992-.013,1.351-.062,2.694-.157,4.041,4.805,1.257,9.466,2.617,13.895,4.057a3.375,3.375,0,0,1,2.289,3.7,83.8,83.8,0,0,1-11.638,31.605,3.374,3.374,0,0,1-4.13,1.337c-4.473-1.822-8.91-3.8-13.221-5.882q-1.19,1.614-2.473,3.159c3.135,3.839,6.091,7.691,8.81,11.48a3.366,3.366,0,0,1-.347,4.335,84.3,84.3,0,0,1-27.919,18.71,3.372,3.372,0,0,1-4.149-1.351c-2.569-4.178-5-8.371-7.23-12.5q-1.922.61-3.877,1.1c.267,4.659.4,9.5.4,14.442a3.37,3.37,0,0,1-2.806,3.319,82.574,82.574,0,0,1-13.765,1.146m-15.466-8.3a76.928,76.928,0,0,0,25.288.936c-.052-4.794-.237-9.476-.553-13.952a3.367,3.367,0,0,1,2.688-3.537,59.013,59.013,0,0,0,8.555-2.421,3.365,3.365,0,0,1,4.139,1.594c2.1,4,4.4,8.075,6.85,12.158a77.354,77.354,0,0,0,21.012-14.089c-2.679-3.631-5.576-7.309-8.629-10.965a3.363,3.363,0,0,1,.1-4.429,58.658,58.658,0,0,0,5.468-6.993,3.36,3.36,0,0,1,4.311-1.148c4.117,2.063,8.374,4.023,12.69,5.848a77.183,77.183,0,0,0,8.753-23.773c-4.311-1.34-8.832-2.6-13.467-3.761a3.364,3.364,0,0,1-2.529-3.639,60.965,60.965,0,0,0,.337-8.932,3.372,3.372,0,0,1,2.81-3.438c4.683-.787,9.283-1.7,13.7-2.717a76.831,76.831,0,0,0-6.934-24.383c-4.227,1.435-8.616,3.07-13.089,4.877a3.371,3.371,0,0,1-4.182-1.447,61.066,61.066,0,0,0-4.144-6.351c-.267-.356-.536-.688-.793-1a3.369,3.369,0,0,1,.2-4.513c3.113-3.149,6.287-6.587,9.461-10.247a76.744,76.744,0,0,0-19.885-15.656c-2.658,3.74-5.249,7.632-7.727,11.6a3.347,3.347,0,0,1-4.227,1.292A60.082,60.082,0,0,0,99.293,83.4a3.37,3.37,0,0,1-2.429-3.767c.653-4.15,1.192-8.718,1.648-13.889A76.624,76.624,0,0,0,73.238,64.8c.035,4.729.219,9.412.539,13.963A3.365,3.365,0,0,1,71.089,82.3a59.312,59.312,0,0,0-8.516,2.427,3.362,3.362,0,0,1-4.13-1.582c-2.214-4.16-4.526-8.239-6.9-12.158A77.2,77.2,0,0,0,30.563,85.068c2.82,3.823,5.71,7.493,8.613,10.935a3.367,3.367,0,0,1-.1,4.451,56.488,56.488,0,0,0-5.476,7,3.371,3.371,0,0,1-4.314,1.144c-4.114-2.062-8.368-4.023-12.69-5.848a77.492,77.492,0,0,0-8.767,23.763c4.446,1.394,8.964,2.659,13.471,3.769a3.359,3.359,0,0,1,2.54,3.637,63.565,63.565,0,0,0-.339,8.95A3.374,3.374,0,0,1,20.68,146.3c-4.451.73-9.042,1.639-13.69,2.713a76.966,76.966,0,0,0,6.937,24.35c4.481-1.513,8.87-3.146,13.079-4.872a3.374,3.374,0,0,1,4.214,1.469,56.745,56.745,0,0,0,4.122,6.352,9.292,9.292,0,0,0,.666.866,3.363,3.363,0,0,1-.078,4.651c-3.144,3.179-6.258,6.549-9.463,10.248a77.126,77.126,0,0,0,19.886,15.652c2.656-3.739,5.249-7.629,7.726-11.595a3.37,3.37,0,0,1,4.227-1.294,60.474,60.474,0,0,0,8.385,3.052,3.37,3.37,0,0,1,2.429,3.766c-.653,4.166-1.2,8.732-1.648,13.881m15.65-23.356a52.2,52.2,0,0,1-10.709-1.118,51.289,51.289,0,1,1,10.709,1.118m-.259-96.351a45.047,45.047,0,1,0,9.326.973,45.368,45.368,0,0,0-9.326-.973M56.64,100.3h0Z" transform="translate(0 33.867)" fill="#12263f"/>
              <path id="Trazado_882140" data-name="Trazado 882140" d="M62.3,29.359,11.447,0V58.718Z" transform="translate(6.749 0)" fill="#12263f"/>
              <path id="Trazado_882141" data-name="Trazado 882141" d="M112.882,29.359,62.03,0V58.718Z" transform="translate(36.575 0)" fill="#12263f"/>
              <path id="Trazado_882142" data-name="Trazado 882142" d="M163.466,29.359,112.613,0V58.718Z" transform="translate(66.4 0)" fill="#12263f"/>
              <path id="Trazado_882143" data-name="Trazado 882143" d="M214.049,29.359,163.2,0V58.718Z" transform="translate(96.226 0)" fill="#12263f"/>
            </g>
          </g>
          <rect id="Rectángulo_405011" data-name="Rectángulo 405011" width="1333" height="1473" transform="translate(130 5279)" fill="none"/>
        </g>
      </g>
    </g>
  </g>
</svg>
