<svg xmlns="http://www.w3.org/2000/svg" width="93" height="94" viewBox="0 0 93 94">
  <g id="Grupo_1111245" data-name="Grupo 1111245" transform="translate(-861.491 -3826.75)">
    <ellipse id="Elipse_11697" data-name="Elipse 11697" cx="46.5" cy="47" rx="46.5" ry="47" transform="translate(861.491 3826.75)" fill="#c10000"/>
    <g id="Layer_x0020_1" transform="translate(874.718 3845.364)">
      <path id="Trazado_881807" data-name="Trazado 881807" d="M11.259,10.711a.561.561,0,0,1,.562.561v.584a7.041,7.041,0,0,1,4.023,1.67l.415-.415A.562.562,0,0,1,17,13.066a8.166,8.166,0,0,0-5.744-2.355Zm5.838,2.45L17,13.066a.563.563,0,0,1,.05.044A.57.57,0,0,1,17.1,13.161ZM19.453,18.9a8.162,8.162,0,0,1-.506,2.841.563.563,0,0,1-.526.367H11.387a.535.535,0,0,1-.063,0,.586.586,0,0,1-.062,0H4.1a.563.563,0,0,1-.528-.367,8.194,8.194,0,0,1,1.847-8.582.557.557,0,0,1,.047-.053.6.6,0,0,1,.053-.047,8.167,8.167,0,0,1,5.741-2.353.561.561,0,0,0-.561.561v1.837a.562.562,0,0,0,1.123,0V11.856a7.041,7.041,0,0,1,4.023,1.67l-.884.884a.561.561,0,0,0,.794.794l.883-.884.415-.415a.562.562,0,0,0,.045-.744A8.167,8.167,0,0,1,19.453,18.9ZM3.178,8.357A2.42,2.42,0,0,0,.76,10.774v34.5a2.419,2.419,0,0,0,2.417,2.418H60.111a2.421,2.421,0,0,0,2.418-2.418v-34.5a2.421,2.421,0,0,0-2.419-2.417H3.178Zm28.467,2.354a.561.561,0,0,1,.561.561v.584a7.041,7.041,0,0,1,4.023,1.67l.415-.415a.562.562,0,0,1,.742-.046,8.166,8.166,0,0,0-5.741-2.353Zm5.84,2.452-.1-.1a.588.588,0,0,1,.052.046.572.572,0,0,1,.046.052Zm-5.9,8.949h-7.1a.561.561,0,0,1-.526-.367,8.2,8.2,0,0,1,1.849-8.584.571.571,0,0,1,.045-.05.564.564,0,0,1,.05-.044,8.166,8.166,0,0,1,5.743-2.355.561.561,0,0,0-.561.561v1.837a.562.562,0,0,0,1.123,0V11.856a7.041,7.041,0,0,1,4.023,1.67l-.885.884a.562.562,0,0,0,.8.794l.883-.884.415-.415a.562.562,0,0,0,.046-.742A8.167,8.167,0,0,1,39.838,18.9h0a8.155,8.155,0,0,1-.507,2.841.56.56,0,0,1-.526.367h-7.1a.585.585,0,0,1-.123,0Zm20.445-11.4a.561.561,0,0,1,.562.561v.584a7.04,7.04,0,0,1,4.023,1.67l.415-.415a.561.561,0,0,1,.744-.044A8.166,8.166,0,0,0,52.029,10.711Zm5.838,2.45-.094-.094a.581.581,0,0,1,.05.044A.57.57,0,0,1,57.867,13.161ZM44.343,21.745a8.188,8.188,0,0,1,1.845-8.581.581.581,0,0,1,.047-.053.558.558,0,0,1,.053-.047,8.166,8.166,0,0,1,5.74-2.353.561.561,0,0,0-.561.561v1.837a.562.562,0,0,0,1.123,0V11.856a7.04,7.04,0,0,1,4.023,1.67l-.883.884a.561.561,0,1,0,.794.794l.883-.884.415-.415a.562.562,0,0,0,.045-.744,8.2,8.2,0,0,1,1.849,8.584.561.561,0,0,1-.526.367h-7.1a.583.583,0,0,1-.123,0h-7.1a.56.56,0,0,1-.526-.367ZM33.772,27.682h5.709a.561.561,0,0,1,.561.562v5.709a.562.562,0,0,1-.562.562H33.772a.562.562,0,0,1-.561-.561V28.244a.561.561,0,0,1,.561-.562Zm14.542,5.159v-4.6a.562.562,0,0,1,1.123,0v4.6a3.412,3.412,0,0,1,0,6.731v4.6a.562.562,0,0,1-1.123,0v-4.6a3.412,3.412,0,0,1,0-6.731ZM53.4,36.207a3.417,3.417,0,0,1,2.85-3.366v-4.6a.561.561,0,1,1,1.123,0v4.6a3.412,3.412,0,0,1,0,6.731v4.6a.562.562,0,0,1-1.123,0v-4.6a3.417,3.417,0,0,1-2.85-3.365ZM24.651,33.953V28.244a.561.561,0,0,1,.561-.562h5.709a.561.561,0,0,1,.561.562v5.709a.562.562,0,0,1-.561.562H25.213a.562.562,0,0,1-.562-.561Zm-8-6.271h5.709a.562.562,0,0,1,.561.562v5.709a.562.562,0,0,1-.562.562H16.653a.562.562,0,0,1-.562-.561V28.244a.562.562,0,0,1,.561-.562ZM33.772,37.9h5.709a.561.561,0,0,1,.561.562v5.709a.562.562,0,0,1-.562.562H33.772a.562.562,0,0,1-.561-.561V38.46a.561.561,0,0,1,.561-.561Zm-9.121.561a.561.561,0,0,1,.561-.561h5.709a.561.561,0,0,1,.561.562v5.709a.562.562,0,0,1-.561.562H25.213a.562.562,0,0,1-.562-.561Zm-8-.561h5.709a.562.562,0,0,1,.561.562v5.709a.562.562,0,0,1-.562.562H16.653a.562.562,0,0,1-.562-.561V38.46a.561.561,0,0,1,.561-.561Zm-6.026-6.436a3.78,3.78,0,1,1-3.78-3.78A3.784,3.784,0,0,1,10.626,31.462Zm-3.78,5.71a3.78,3.78,0,1,1-3.78,3.78A3.784,3.784,0,0,1,6.846,37.172Z" transform="translate(0.363 0.363)" fill="#6dc6fa" fill-rule="evenodd"/>
      <g id="_494718864" transform="translate(0 7.596)">
        <path id="_494721096" d="M3.54,8.719a2.42,2.42,0,0,0-2.417,2.418v34.5A2.419,2.419,0,0,0,3.54,48.053H60.473a2.421,2.421,0,0,0,2.418-2.418v-34.5a2.421,2.421,0,0,0-2.419-2.418H3.54ZM60.473,49.176H3.54A3.544,3.544,0,0,1,0,45.636v-34.5A3.544,3.544,0,0,1,3.54,7.6H60.473a3.544,3.544,0,0,1,3.541,3.541v34.5a3.545,3.545,0,0,1-3.541,3.54Z" transform="translate(0 -7.596)" fill-rule="evenodd"/>
        <path id="_494720592" d="M3.758,20.229H17.274a7.071,7.071,0,1,0-13.516,0Zm13.918,1.123H3.356a.563.563,0,0,1-.528-.367,8.193,8.193,0,1,1,15.374,0,.563.563,0,0,1-.526.367Z" transform="translate(1.107 -6.474)" fill-rule="evenodd"/>
        <path id="_494721072" d="M8.052,12.911a.562.562,0,0,1-.562-.561V10.512a.561.561,0,1,1,1.123,0v1.837a.561.561,0,0,1-.561.561Z" transform="translate(3.571 -6.474)" fill-rule="evenodd"/>
        <path id="_494720496" d="M10.826,13.886a.561.561,0,0,1-.4-.958l1.3-1.3a.562.562,0,0,1,.794.794l-1.3,1.3A.559.559,0,0,1,10.826,13.886Z" transform="translate(4.894 -5.752)" fill-rule="evenodd"/>
        <path id="_494720712" d="M13.812,16.242H11.976a.561.561,0,1,1,0-1.123h1.837a.561.561,0,1,1,0,1.123Z" transform="translate(5.441 -4.01)" fill-rule="evenodd"/>
        <path id="_494720544" d="M4.72,16.242H2.884a.561.561,0,1,1,0-1.123H4.72a.561.561,0,0,1,0,1.123Z" transform="translate(1.107 -4.01)" fill-rule="evenodd"/>
        <path id="_494721144" d="M5.7,13.886a.563.563,0,0,1-.4-.164L4,12.423a.561.561,0,1,1,.794-.794l1.3,1.3a.562.562,0,0,1-.4.958Z" transform="translate(1.829 -5.752)" fill-rule="evenodd"/>
        <path id="_494720952" d="M31.366,20.229H44.882a7.071,7.071,0,1,0-13.516,0Zm13.918,1.123H30.964a.56.56,0,0,1-.526-.367,8.192,8.192,0,1,1,15.373,0,.561.561,0,0,1-.526.367Z" transform="translate(14.268 -6.474)" fill-rule="evenodd"/>
        <path id="_494721240" d="M35.659,12.911a.562.562,0,0,1-.562-.561V10.512a.561.561,0,1,1,1.123,0v1.837A.562.562,0,0,1,35.659,12.911Z" transform="translate(16.732 -6.474)" fill-rule="evenodd"/>
        <path id="_494720976" d="M33.3,13.886a.562.562,0,0,1-.4-.164l-1.3-1.3a.561.561,0,0,1,.794-.794l1.3,1.3a.562.562,0,0,1-.4.958Z" transform="translate(14.99 -5.752)" fill-rule="evenodd"/>
        <path id="_494720448" d="M32.328,16.242H30.492a.561.561,0,1,1,0-1.123h1.837a.561.561,0,0,1,0,1.123Z" transform="translate(14.268 -4.01)" fill-rule="evenodd"/>
        <path id="_494720400" d="M41.42,16.242H39.584a.561.561,0,1,1,0-1.123H41.42a.561.561,0,0,1,0,1.123Z" transform="translate(18.603 -4.01)" fill-rule="evenodd"/>
        <path id="_494720112" d="M38.435,13.886a.561.561,0,0,1-.4-.958l1.3-1.3a.562.562,0,0,1,.794.794l-1.3,1.3A.558.558,0,0,1,38.435,13.886Z" transform="translate(18.055 -5.752)" fill-rule="evenodd"/>
        <path id="_494719776" d="M17.561,20.229H31.077a7.069,7.069,0,1,0-13.515,0Zm13.918,1.123H17.159a.561.561,0,0,1-.526-.367,8.194,8.194,0,1,1,15.373,0,.56.56,0,0,1-.526.367Z" transform="translate(7.688 -6.474)" fill-rule="evenodd"/>
        <path id="_494720232" d="M21.856,12.911a.562.562,0,0,1-.562-.561V10.512a.561.561,0,0,1,1.123,0v1.837a.561.561,0,0,1-.561.561Z" transform="translate(10.151 -6.474)" fill-rule="evenodd"/>
        <path id="_494719752" d="M19.5,13.886a.559.559,0,0,1-.4-.164l-1.3-1.3a.561.561,0,1,1,.794-.794l1.3,1.3a.561.561,0,0,1-.4.958Z" transform="translate(8.409 -5.752)" fill-rule="evenodd"/>
        <path id="_494719872" d="M18.525,16.242H16.688a.561.561,0,1,1,0-1.123h1.837a.561.561,0,1,1,0,1.123Z" transform="translate(7.688 -4.01)" fill-rule="evenodd"/>
        <path id="_494720208" d="M27.617,16.242H25.78a.561.561,0,1,1,0-1.123h1.837a.561.561,0,0,1,0,1.123Z" transform="translate(12.022 -4.01)" fill-rule="evenodd"/>
        <path id="_494719848" d="M24.63,13.886a.561.561,0,0,1-.4-.958l1.3-1.3a.562.562,0,0,1,.794.794l-1.3,1.3a.561.561,0,0,1-.4.165Z" transform="translate(11.474 -5.752)" fill-rule="evenodd"/>
        <path id="_494719632" d="M12.265,27.153h4.586V22.566H12.265Zm5.147,1.123H11.7a.562.562,0,0,1-.562-.561v-5.71a.562.562,0,0,1,.561-.561h5.709a.562.562,0,0,1,.561.562v5.709a.562.562,0,0,1-.562.562Z" transform="translate(5.312 -0.995)" fill-rule="evenodd"/>
        <path id="_494719680" d="M12.265,34.071h4.586V29.485H12.265Zm5.147,1.123H11.7a.562.562,0,0,1-.562-.561v-5.71a.561.561,0,0,1,.561-.561h5.709a.562.562,0,0,1,.561.562v5.709a.562.562,0,0,1-.562.562Z" transform="translate(5.312 2.303)" fill-rule="evenodd"/>
        <path id="_494719344" d="M18.062,27.153h4.586V22.566H18.062Zm5.147,1.123H17.5a.562.562,0,0,1-.562-.561v-5.71a.561.561,0,0,1,.561-.561h5.709a.562.562,0,0,1,.561.562v5.709a.562.562,0,0,1-.561.562Z" transform="translate(8.075 -0.995)" fill-rule="evenodd"/>
        <path id="_494719656" d="M18.062,34.071h4.586V29.485H18.062Zm5.147,1.123H17.5a.562.562,0,0,1-.562-.561v-5.71a.561.561,0,0,1,.561-.561h5.709a.562.562,0,0,1,.561.562v5.709a.562.562,0,0,1-.561.562Z" transform="translate(8.075 2.303)" fill-rule="evenodd"/>
        <path id="_494719128" d="M23.858,27.153h4.586V22.566H23.858Zm5.147,1.123H23.3a.562.562,0,0,1-.561-.561v-5.71a.561.561,0,0,1,.561-.561h5.709a.561.561,0,0,1,.561.562v5.709a.562.562,0,0,1-.562.562Z" transform="translate(10.838 -0.995)" fill-rule="evenodd"/>
        <path id="_494718960" d="M23.858,34.071h4.586V29.485H23.858Zm5.147,1.123H23.3a.562.562,0,0,1-.561-.561v-5.71a.561.561,0,0,1,.561-.561h5.709a.561.561,0,0,1,.561.562v5.709a.562.562,0,0,1-.562.562Z" transform="translate(10.838 2.303)" fill-rule="evenodd"/>
        <path id="_494719488" d="M6.1,22.566a2.657,2.657,0,1,0,2.657,2.657A2.66,2.66,0,0,0,6.1,22.566ZM6.1,29a3.78,3.78,0,1,1,3.78-3.779A3.784,3.784,0,0,1,6.1,29Z" transform="translate(1.107 -0.995)" fill-rule="evenodd"/>
        <path id="_494719032" d="M6.1,28.993a2.657,2.657,0,1,0,2.657,2.657A2.66,2.66,0,0,0,6.1,28.993Zm0,6.436a3.78,3.78,0,1,1,3.78-3.78A3.784,3.784,0,0,1,6.1,35.429Z" transform="translate(1.107 2.069)" fill-rule="evenodd"/>
        <path id="_494719464" d="M38.9,35a.562.562,0,0,1-.562-.561V29.327a.561.561,0,1,1,1.123,0V34.44A.562.562,0,0,1,38.9,35Z" transform="translate(18.276 2.496)" fill-rule="evenodd"/>
        <path id="_494719248" d="M38.9,27.679a.562.562,0,0,1-.562-.561V22a.561.561,0,0,1,1.123,0v5.113a.562.562,0,0,1-.561.561Z" transform="translate(18.276 -0.995)" fill-rule="evenodd"/>
        <path id="_494718192" d="M39.818,26.029a2.289,2.289,0,1,0,2.288,2.289A2.291,2.291,0,0,0,39.818,26.029Zm0,5.7a3.412,3.412,0,1,1,3.411-3.412A3.415,3.415,0,0,1,39.818,31.729Z" transform="translate(17.356 0.656)" fill-rule="evenodd"/>
        <path id="_494718552" d="M33.525,35a.562.562,0,0,1-.562-.561V29.327a.561.561,0,1,1,1.123,0V34.44A.562.562,0,0,1,33.525,35Z" transform="translate(15.714 2.496)" fill-rule="evenodd"/>
        <path id="_494718696" d="M33.525,27.679a.562.562,0,0,1-.562-.561V22a.561.561,0,0,1,1.123,0v5.113A.562.562,0,0,1,33.525,27.679Z" transform="translate(15.714 -0.995)" fill-rule="evenodd"/>
        <path id="_494718408" d="M34.445,26.029a2.289,2.289,0,1,0,2.29,2.289A2.291,2.291,0,0,0,34.445,26.029Zm0,5.7a3.412,3.412,0,1,1,3.413-3.412,3.416,3.416,0,0,1-3.413,3.412Z" transform="translate(14.794 0.656)" fill-rule="evenodd"/>
        <path id="_494718288" d="M8.926,19.475a.562.562,0,0,1-.488-.282L5.866,14.742a.565.565,0,0,1,.978-.565l2.571,4.45a.566.566,0,0,1-.49.847Z" transform="translate(2.761 -4.593)" fill-rule="evenodd"/>
        <path id="_494718480" d="M21.858,19.7a.565.565,0,0,1-.566-.565V13.993a.565.565,0,0,1,1.13,0v5.139A.565.565,0,0,1,21.858,19.7Z" transform="translate(10.15 -4.816)" fill-rule="evenodd"/>
        <path id="_494718216" d="M35.66,19.211a.565.565,0,0,1-.4-.964l3.634-3.634a.565.565,0,0,1,.8.8L36.06,19.046A.562.562,0,0,1,35.66,19.211Z" transform="translate(16.731 -4.33)" fill-rule="evenodd"/>
      </g>
      <path id="Trazado_881808" data-name="Trazado 881808" d="M8.4,31.287a2.657,2.657,0,1,0-2.657,2.657A2.66,2.66,0,0,0,8.4,31.287Z" transform="translate(1.47 10.027)" fill="#fc6286" fill-rule="evenodd"/>
      <path id="Trazado_881809" data-name="Trazado 881809" d="M5.739,27.517a2.657,2.657,0,1,0-2.657-2.657A2.66,2.66,0,0,0,5.739,27.517Z" transform="translate(1.47 6.964)" fill="#7986cb" fill-rule="evenodd"/>
      <g id="Grupo_1110108" data-name="Grupo 1110108" transform="translate(17.576 29.168)">
        <path id="Trazado_881810" data-name="Trazado 881810" d="M11.9,22.2v4.587h4.586V22.2Z" transform="translate(-11.902 -22.204)" fill="#e0e0e0" fill-rule="evenodd"/>
        <path id="Trazado_881811" data-name="Trazado 881811" d="M16.488,29.122H11.9v4.587h4.586Z" transform="translate(-11.902 -18.906)" fill="#e0e0e0" fill-rule="evenodd"/>
        <path id="Trazado_881812" data-name="Trazado 881812" d="M17.7,29.122v4.587h4.586V29.122Z" transform="translate(-9.139 -18.906)" fill="#e0e0e0" fill-rule="evenodd"/>
        <path id="Trazado_881813" data-name="Trazado 881813" d="M17.7,26.791h4.586V22.2H17.7Z" transform="translate(-9.139 -22.204)" fill="#e0e0e0" fill-rule="evenodd"/>
        <path id="Trazado_881814" data-name="Trazado 881814" d="M23.5,22.2v4.587h4.586V22.2Z" transform="translate(-6.375 -22.204)" fill="#e0e0e0" fill-rule="evenodd"/>
        <path id="Trazado_881815" data-name="Trazado 881815" d="M28.081,29.122H23.5v4.587h4.586Z" transform="translate(-6.375 -18.906)" fill="#e0e0e0" fill-rule="evenodd"/>
      </g>
      <path id="Trazado_881816" data-name="Trazado 881816" d="M34.082,25.666a2.289,2.289,0,1,0,2.29,2.289A2.291,2.291,0,0,0,34.082,25.666Z" transform="translate(15.157 8.614)" fill="#f68f4d" fill-rule="evenodd"/>
      <path id="Trazado_881817" data-name="Trazado 881817" d="M39.455,25.666a2.289,2.289,0,1,0,2.288,2.289A2.291,2.291,0,0,0,39.455,25.666Z" transform="translate(17.718 8.614)" fill="#f68f4d" fill-rule="evenodd"/>
      <path id="Trazado_881818" data-name="Trazado 881818" d="M31,19.859h6.52l3.471-3.472a.565.565,0,0,1,.8.8l-2.673,2.673h5.4a6.987,6.987,0,0,0,.29-1.523H43.549a.561.561,0,1,1,0-1.123H44.8a7.041,7.041,0,0,0-1.67-4.023l-.883.884a.561.561,0,1,1-.794-.794l.883-.884a7.04,7.04,0,0,0-4.023-1.67v1.253a.562.562,0,0,1-1.123,0V10.726a7.04,7.04,0,0,0-4.023,1.67l.885.884a.562.562,0,0,1-.8.794l-.883-.884a7.04,7.04,0,0,0-1.67,4.023h1.253a.561.561,0,0,1,0,1.123H30.705A7.024,7.024,0,0,0,31,19.859Z" transform="translate(14.638 1.492)" fill="#fae76d" fill-rule="evenodd"/>
      <path id="Trazado_881819" data-name="Trazado 881819" d="M29.745,17.213H31a7.039,7.039,0,0,0-1.669-4.023l-.883.884a.562.562,0,1,1-.8-.794l.885-.884a7.041,7.041,0,0,0-4.023-1.67v1.253a.562.562,0,0,1-1.123,0V10.726a7.04,7.04,0,0,0-4.023,1.67l.884.884a.562.562,0,0,1-.794.794l-.883-.884a7.041,7.041,0,0,0-1.67,4.023h1.253a.561.561,0,1,1,0,1.123H16.9a6.987,6.987,0,0,0,.29,1.523h6.192V15.282a.565.565,0,0,1,1.13,0v4.577h6.193A7,7,0,0,0,31,18.336H29.745a.561.561,0,1,1,0-1.123Z" transform="translate(8.057 1.492)" fill="#62fc8b" fill-rule="evenodd"/>
      <path id="Trazado_881820" data-name="Trazado 881820" d="M17.193,17.213a7.04,7.04,0,0,0-1.669-4.023l-.883.884a.561.561,0,1,1-.794-.794l.884-.884a7.041,7.041,0,0,0-4.023-1.67v1.253a.562.562,0,0,1-1.123,0V10.726A7.04,7.04,0,0,0,5.561,12.4l.884.884a.562.562,0,0,1-.794.794l-.883-.884A7.041,7.041,0,0,0,3.1,17.213H4.351a.561.561,0,0,1,0,1.123H3.1a7.033,7.033,0,0,0,.291,1.523H9.234L7.151,16.253a.565.565,0,0,1,.978-.565l2.41,4.171H16.9a7.075,7.075,0,0,0,.289-1.523H15.94a.561.561,0,1,1,0-1.123Z" transform="translate(1.477 1.492)" fill="#e74c49" fill-rule="evenodd"/>
    </g>
  </g>
</svg>
