<svg id="Componente_1_4" data-name="Componente 1 – 4" xmlns="http://www.w3.org/2000/svg" width="1029.714" height="155.617" viewBox="0 0 1029.714 155.617">
  <g id="Rectángulo_403529" data-name="Rectángulo 403529" transform="translate(0 60.048)" fill="#fff" stroke="#e1e1e1" stroke-width="1">
    <rect width="1029.714" height="95.569" stroke="none"/>
    <rect x="0.5" y="0.5" width="1028.714" height="94.569" fill="none"/>
  </g>
  <path id="Trazado_878156" data-name="Trazado 878156" d="M0,0H1029.714V61H0Z" fill="#ffcf64"/>
  <line id="Línea_3985" data-name="Línea 3985" y2="95.617" transform="translate(396.828 59.503)" fill="none" stroke="#e1e1e1" stroke-width="1"/>
  <path id="Trazado_884794" data-name="Trazado 884794" d="M-92-12.8l2.856,8.9,2.848-8.9h4.061V0h-3.094V-2.988l.3-6.117L-88.124,0h-2.039l-3.1-9.114.3,6.126V0h-3.085V-12.8Zm22.562,6.662a7.546,7.546,0,0,1-.694,3.313A5.132,5.132,0,0,1-72.105-.6a5.494,5.494,0,0,1-2.914.778,5.572,5.572,0,0,1-2.9-.751,5.123,5.123,0,0,1-1.973-2.149,7.329,7.329,0,0,1-.743-3.208v-.721a7.58,7.58,0,0,1,.69-3.318,5.119,5.119,0,0,1,1.978-2.219,5.533,5.533,0,0,1,2.931-.782,5.479,5.479,0,0,1,2.9.773A5.211,5.211,0,0,1-70.154-10a7.362,7.362,0,0,1,.716,3.274Zm-3.138-.536a5.381,5.381,0,0,0-.637-2.9,2.044,2.044,0,0,0-1.824-.989q-2.32,0-2.452,3.48l-.009.94a5.535,5.535,0,0,0,.624,2.892,2.041,2.041,0,0,0,1.854,1.011,2.016,2.016,0,0,0,1.8-.993,5.383,5.383,0,0,0,.642-2.856Zm14.027-3.744h-3.841V0h-3.085V-10.415h-3.771V-12.8h10.7Zm11.892,4.28a7.546,7.546,0,0,1-.694,3.313A5.132,5.132,0,0,1-49.324-.6a5.494,5.494,0,0,1-2.914.778,5.572,5.572,0,0,1-2.9-.751,5.123,5.123,0,0,1-1.973-2.149,7.329,7.329,0,0,1-.743-3.208v-.721a7.58,7.58,0,0,1,.69-3.318,5.119,5.119,0,0,1,1.978-2.219,5.533,5.533,0,0,1,2.931-.782,5.479,5.479,0,0,1,2.9.773A5.211,5.211,0,0,1-47.373-10a7.362,7.362,0,0,1,.716,3.274Zm-3.138-.536a5.381,5.381,0,0,0-.637-2.9,2.044,2.044,0,0,0-1.824-.989q-2.32,0-2.452,3.48l-.009.94a5.535,5.535,0,0,0,.624,2.892,2.041,2.041,0,0,0,1.854,1.011,2.016,2.016,0,0,0,1.8-.993,5.383,5.383,0,0,0,.642-2.856Zm9.483,2.145h-1.67V0h-3.085V-12.8h5.036a5.621,5.621,0,0,1,3.56,1.01,3.421,3.421,0,0,1,1.283,2.853,4.155,4.155,0,0,1-.541,2.213A3.837,3.837,0,0,1-37.419-5.3l2.672,5.167V0h-3.3ZM-41.981-6.9h1.951a1.751,1.751,0,0,0,1.323-.463,1.788,1.788,0,0,0,.444-1.291,1.809,1.809,0,0,0-.448-1.3,1.735,1.735,0,0,0-1.318-.471h-1.951Zm16.594,1.468h-4.852v3.059h5.73V0h-8.815V-12.8h8.833v2.382h-5.748v2.7h4.852Zm8.736,2.03a1.268,1.268,0,0,0-.479-1.055,5.954,5.954,0,0,0-1.683-.782,16.147,16.147,0,0,1-1.969-.782q-2.487-1.222-2.487-3.357a3.011,3.011,0,0,1,.62-1.876A4.008,4.008,0,0,1-20.9-12.52a6.823,6.823,0,0,1,2.549-.453,5.969,5.969,0,0,1,2.474.492,3.917,3.917,0,0,1,1.7,1.4A3.661,3.661,0,0,1-13.566-9h-3.076a1.547,1.547,0,0,0-.479-1.213,1.867,1.867,0,0,0-1.3-.431,2.106,2.106,0,0,0-1.305.365,1.119,1.119,0,0,0-.479.927,1.127,1.127,0,0,0,.527.892,6.65,6.65,0,0,0,1.854.826,11.36,11.36,0,0,1,2.18.918,3.663,3.663,0,0,1,2.074,3.3A3.125,3.125,0,0,1-14.832-.782,5.629,5.629,0,0,1-18.3.176,6.888,6.888,0,0,1-21.12-.382a4.247,4.247,0,0,1-1.9-1.529,3.985,3.985,0,0,1-.637-2.237h3.094a1.963,1.963,0,0,0,.532,1.516,2.513,2.513,0,0,0,1.727.488,1.985,1.985,0,0,0,1.208-.33A1.088,1.088,0,0,0-16.651-3.4ZM.435-5.432H-4.417v3.059h5.73V0H-7.5V-12.8H1.332v2.382H-4.417v2.7H.435ZM5.656-2.373h5.37V0H2.571V-12.8H5.656ZM20.263-5.432H15.412v3.059h5.73V0H12.327V-12.8H21.16v2.382H15.412v2.7h4.852ZM17.389-16.225h3.129l-2.443,2.76-2.417,0ZM32.752-4.333a4.673,4.673,0,0,1-.721,2.36,4.35,4.35,0,0,1-1.85,1.586,6.3,6.3,0,0,1-2.72.563,5.025,5.025,0,0,1-3.973-1.644,6.786,6.786,0,0,1-1.45-4.641v-.633a7.746,7.746,0,0,1,.655-3.292,4.961,4.961,0,0,1,1.885-2.18,5.26,5.26,0,0,1,2.848-.769,5.516,5.516,0,0,1,3.744,1.226,4.844,4.844,0,0,1,1.608,3.379H29.7a2.292,2.292,0,0,0-.589-1.679,2.422,2.422,0,0,0-1.687-.51,1.843,1.843,0,0,0-1.687.861,5.536,5.536,0,0,0-.562,2.751v.905A6.126,6.126,0,0,0,25.69-3.12a1.882,1.882,0,0,0,1.771.879,2.369,2.369,0,0,0,1.626-.5,2.126,2.126,0,0,0,.6-1.591ZM44-10.415H40.162V0H37.077V-10.415H33.306V-12.8H44Zm6.056,5.889h-1.67V0H45.3V-12.8h5.036a5.621,5.621,0,0,1,3.56,1.01,3.421,3.421,0,0,1,1.283,2.853,4.155,4.155,0,0,1-.541,2.213A3.837,3.837,0,0,1,52.95-5.3L55.622-.132V0h-3.3ZM48.388-6.9h1.951a1.751,1.751,0,0,0,1.323-.463,1.788,1.788,0,0,0,.444-1.291,1.809,1.809,0,0,0-.448-1.3,1.735,1.735,0,0,0-1.318-.471H48.388ZM60.333,0H57.256V-12.8h3.076Zm12.5-4.333a4.673,4.673,0,0,1-.721,2.36A4.35,4.35,0,0,1,70.26-.387a6.3,6.3,0,0,1-2.72.563,5.025,5.025,0,0,1-3.973-1.644,6.786,6.786,0,0,1-1.45-4.641v-.633a7.746,7.746,0,0,1,.655-3.292,4.961,4.961,0,0,1,1.885-2.18,5.26,5.26,0,0,1,2.848-.769,5.516,5.516,0,0,1,3.744,1.226,4.844,4.844,0,0,1,1.608,3.379H69.781a2.292,2.292,0,0,0-.589-1.679,2.422,2.422,0,0,0-1.687-.51,1.843,1.843,0,0,0-1.687.861,5.536,5.536,0,0,0-.562,2.751v.905a6.126,6.126,0,0,0,.514,2.927,1.882,1.882,0,0,0,1.771.879,2.369,2.369,0,0,0,1.626-.5,2.126,2.126,0,0,0,.6-1.591Zm12.3-1.8a7.546,7.546,0,0,1-.694,3.313A5.132,5.132,0,0,1,82.459-.6a5.494,5.494,0,0,1-2.914.778,5.572,5.572,0,0,1-2.9-.751,5.123,5.123,0,0,1-1.973-2.149,7.329,7.329,0,0,1-.743-3.208v-.721a7.58,7.58,0,0,1,.69-3.318A5.119,5.119,0,0,1,76.6-12.19a5.533,5.533,0,0,1,2.931-.782,5.479,5.479,0,0,1,2.9.773A5.211,5.211,0,0,1,84.41-10a7.362,7.362,0,0,1,.716,3.274Zm-3.138-.536a5.381,5.381,0,0,0-.637-2.9,2.044,2.044,0,0,0-1.824-.989q-2.32,0-2.452,3.48l-.009.94a5.535,5.535,0,0,0,.624,2.892,2.041,2.041,0,0,0,1.854,1.011,2.016,2.016,0,0,0,1.8-.993,5.383,5.383,0,0,0,.642-2.856ZM93.318-3.4a1.268,1.268,0,0,0-.479-1.055,5.954,5.954,0,0,0-1.683-.782,16.147,16.147,0,0,1-1.969-.782Q86.7-7.242,86.7-9.378a3.011,3.011,0,0,1,.62-1.876,4.008,4.008,0,0,1,1.753-1.266,6.823,6.823,0,0,1,2.549-.453,5.969,5.969,0,0,1,2.474.492,3.917,3.917,0,0,1,1.7,1.4A3.661,3.661,0,0,1,96.4-9H93.327a1.547,1.547,0,0,0-.479-1.213,1.867,1.867,0,0,0-1.3-.431,2.106,2.106,0,0,0-1.305.365,1.119,1.119,0,0,0-.479.927,1.127,1.127,0,0,0,.527.892,6.65,6.65,0,0,0,1.854.826,11.36,11.36,0,0,1,2.18.918,3.663,3.663,0,0,1,2.074,3.3A3.125,3.125,0,0,1,95.137-.782a5.629,5.629,0,0,1-3.472.958,6.888,6.888,0,0,1-2.817-.558,4.247,4.247,0,0,1-1.9-1.529,3.985,3.985,0,0,1-.637-2.237h3.094a1.963,1.963,0,0,0,.532,1.516,2.513,2.513,0,0,0,1.727.488,1.985,1.985,0,0,0,1.208-.33A1.088,1.088,0,0,0,93.318-3.4Z" transform="translate(535.507 37)" fill="#12263f"/>
  <line id="Línea_3986" data-name="Línea 3986" y2="95.467" transform="translate(101.908 60.048)" fill="none" stroke="#e1e1e1" stroke-width="1"/>
  <line id="Línea_3987" data-name="Línea 3987" x1="395.408" transform="translate(1 83.771)" fill="none" stroke="#e1e1e1" stroke-width="1"/>
  <path id="Trazado_884798" data-name="Trazado 884798" d="M8.078-4.852a6.61,6.61,0,0,1-.867,3.773A3.084,3.084,0,0,1,4.5.156,3.107,3.107,0,0,1,1.8-1.051,6.274,6.274,0,0,1,.9-4.656v-1.93a6.463,6.463,0,0,1,.867-3.727,3.108,3.108,0,0,1,2.719-1.219,3.136,3.136,0,0,1,2.7,1.176,6.237,6.237,0,0,1,.891,3.629ZM6.633-6.828A5.3,5.3,0,0,0,6.117-9.5a1.775,1.775,0,0,0-1.633-.84,1.751,1.751,0,0,0-1.617.836,5.171,5.171,0,0,0-.523,2.57v2.313A5.381,5.381,0,0,0,2.879-1.9,1.771,1.771,0,0,0,4.5-1.023a1.747,1.747,0,0,0,1.59-.828,5.186,5.186,0,0,0,.543-2.609Zm10.43,1.977A6.61,6.61,0,0,1,16.2-1.078,3.084,3.084,0,0,1,13.484.156a3.107,3.107,0,0,1-2.7-1.207,6.274,6.274,0,0,1-.906-3.605v-1.93a6.463,6.463,0,0,1,.867-3.727,3.108,3.108,0,0,1,2.719-1.219,3.136,3.136,0,0,1,2.7,1.176,6.237,6.237,0,0,1,.891,3.629ZM15.617-6.828A5.3,5.3,0,0,0,15.1-9.5a1.775,1.775,0,0,0-1.633-.84,1.751,1.751,0,0,0-1.617.836,5.171,5.171,0,0,0-.523,2.57v2.313A5.381,5.381,0,0,0,11.863-1.9a1.771,1.771,0,0,0,1.621.879,1.747,1.747,0,0,0,1.59-.828,5.186,5.186,0,0,0,.543-2.609Zm3.4,6.07a.905.905,0,0,1,.223-.625.848.848,0,0,1,.668-.25.874.874,0,0,1,.676.25.887.887,0,0,1,.23.625.839.839,0,0,1-.23.6.89.89,0,0,1-.676.242.863.863,0,0,1-.668-.242A.855.855,0,0,1,19.016-.758Zm.008-6.9a.905.905,0,0,1,.223-.625.848.848,0,0,1,.668-.25.874.874,0,0,1,.676.25.887.887,0,0,1,.23.625.839.839,0,0,1-.23.6.89.89,0,0,1-.676.242.863.863,0,0,1-.668-.242A.855.855,0,0,1,19.023-7.656Zm10.9,2.8a6.61,6.61,0,0,1-.867,3.773A3.084,3.084,0,0,1,26.344.156a3.107,3.107,0,0,1-2.7-1.207,6.274,6.274,0,0,1-.906-3.605v-1.93a6.463,6.463,0,0,1,.867-3.727,3.108,3.108,0,0,1,2.719-1.219,3.136,3.136,0,0,1,2.7,1.176,6.237,6.237,0,0,1,.891,3.629ZM28.477-6.828A5.3,5.3,0,0,0,27.961-9.5a1.775,1.775,0,0,0-1.633-.84,1.751,1.751,0,0,0-1.617.836,5.171,5.171,0,0,0-.523,2.57v2.313A5.381,5.381,0,0,0,24.723-1.9a1.771,1.771,0,0,0,1.621.879,1.747,1.747,0,0,0,1.59-.828,5.186,5.186,0,0,0,.543-2.609Zm10.43,1.977a6.61,6.61,0,0,1-.867,3.773A3.084,3.084,0,0,1,35.328.156a3.107,3.107,0,0,1-2.7-1.207,6.274,6.274,0,0,1-.906-3.605v-1.93a6.463,6.463,0,0,1,.867-3.727,3.108,3.108,0,0,1,2.719-1.219,3.136,3.136,0,0,1,2.7,1.176,6.237,6.237,0,0,1,.891,3.629ZM37.461-6.828A5.3,5.3,0,0,0,36.945-9.5a1.775,1.775,0,0,0-1.633-.84,1.751,1.751,0,0,0-1.617.836,5.171,5.171,0,0,0-.523,2.57v2.313A5.381,5.381,0,0,0,33.707-1.9a1.771,1.771,0,0,0,1.621.879,1.747,1.747,0,0,0,1.59-.828,5.186,5.186,0,0,0,.543-2.609Z" transform="translate(413.89 78)" fill="#12263f"/>
  <line id="Línea_3989" data-name="Línea 3989" y2="94.395" transform="translate(905.308 61.223)" fill="none" stroke="#e1e1e1" stroke-width="1"/>
  <path id="Trazado_884795" data-name="Trazado 884795" d="M9.688,11.391a4.185,4.185,0,0,1-1.332,2.785,4.365,4.365,0,0,1-2.98.98,4.008,4.008,0,0,1-3.23-1.445A5.815,5.815,0,0,1,.93,9.844V8.75A6.481,6.481,0,0,1,1.5,5.961,4.231,4.231,0,0,1,3.1,4.113a4.47,4.47,0,0,1,2.406-.645A4.11,4.11,0,0,1,8.414,4.48a4.235,4.235,0,0,1,1.273,2.8H8.18a3.268,3.268,0,0,0-.848-1.975A2.565,2.565,0,0,0,5.508,4.7,2.684,2.684,0,0,0,3.254,5.759a4.882,4.882,0,0,0-.816,3.026v1.1a5.018,5.018,0,0,0,.773,2.948A2.5,2.5,0,0,0,5.375,13.93a2.887,2.887,0,0,0,1.918-.566,3.143,3.143,0,0,0,.887-1.973Zm10.8-1.711a7.037,7.037,0,0,1-.562,2.918,4.261,4.261,0,0,1-1.594,1.9,4.385,4.385,0,0,1-2.406.656,4.244,4.244,0,0,1-4-2.543,6.752,6.752,0,0,1-.59-2.832v-.82a6.953,6.953,0,0,1,.57-2.9,4.218,4.218,0,0,1,4-2.594,4.41,4.41,0,0,1,2.41.66,4.253,4.253,0,0,1,1.605,1.914,7.071,7.071,0,0,1,.563,2.918Zm-1.492-.734A5.1,5.1,0,0,0,18.18,5.84a2.68,2.68,0,0,0-2.273-1.082A2.651,2.651,0,0,0,13.668,5.84a5,5,0,0,0-.84,3V9.68a5.107,5.107,0,0,0,.824,3.082,2.662,2.662,0,0,0,2.27,1.121,2.652,2.652,0,0,0,2.25-1.059,5.079,5.079,0,0,0,.82-3.035ZM16.641.563h1.75L16.3,2.859l-1.164,0ZM22.734,15V3.625h3.211a5.169,5.169,0,0,1,2.625.656,4.438,4.438,0,0,1,1.762,1.867,6.078,6.078,0,0,1,.629,2.781v.727a6.1,6.1,0,0,1-.621,2.82,4.369,4.369,0,0,1-1.773,1.859A5.5,5.5,0,0,1,25.883,15Zm1.5-10.148v8.922h1.578a3.434,3.434,0,0,0,2.7-1.079,4.458,4.458,0,0,0,.965-3.073V8.957a4.529,4.529,0,0,0-.91-3.014,3.239,3.239,0,0,0-2.582-1.091ZM34.836,15h-1.5V3.625h1.5Zm11.141-1.492a3.465,3.465,0,0,1-1.613,1.238,6.517,6.517,0,0,1-2.41.41,4.674,4.674,0,0,1-2.469-.652,4.346,4.346,0,0,1-1.668-1.855,6.408,6.408,0,0,1-.605-2.789V8.867a5.982,5.982,0,0,1,1.2-3.984,4.179,4.179,0,0,1,3.371-1.414,4.316,4.316,0,0,1,2.867.91,3.965,3.965,0,0,1,1.328,2.582h-1.5A2.48,2.48,0,0,0,41.789,4.7,2.655,2.655,0,0,0,39.5,5.755a5.173,5.173,0,0,0-.785,3.069v.93a4.848,4.848,0,0,0,.875,3.046,2.836,2.836,0,0,0,2.367,1.13,5.228,5.228,0,0,0,1.477-.187,2.283,2.283,0,0,0,1.047-.631V10.563H41.852V9.336h4.125ZM57.227,9.68a7.037,7.037,0,0,1-.562,2.918,4.261,4.261,0,0,1-1.594,1.9,4.4,4.4,0,0,1-6.4-1.887,6.752,6.752,0,0,1-.59-2.832v-.82a6.953,6.953,0,0,1,.57-2.9,4.218,4.218,0,0,1,4-2.594,4.41,4.41,0,0,1,2.41.66,4.253,4.253,0,0,1,1.605,1.914,7.071,7.071,0,0,1,.563,2.918Zm-1.492-.734a5.1,5.1,0,0,0-.812-3.105,2.68,2.68,0,0,0-2.273-1.082A2.651,2.651,0,0,0,50.41,5.84a5,5,0,0,0-.84,3V9.68a5.107,5.107,0,0,0,.824,3.082,2.888,2.888,0,0,0,4.52.063,5.079,5.079,0,0,0,.82-3.035Z" transform="translate(20.908 62.643)" fill="#12263f"/>
  <line id="Línea_3990" data-name="Línea 3990" x1="1028.714" transform="translate(1 108.04)" fill="none" stroke="#e1e1e1" stroke-width="1"/>
  <path id="Trazado_884796" data-name="Trazado 884796" d="M10.063,0H8.555V-5.258H2.82V0H1.32V-11.375h1.5v4.891H8.555v-4.891h1.508ZM21.477-5.32A7.037,7.037,0,0,1,20.914-2.4,4.261,4.261,0,0,1,19.32-.5a4.385,4.385,0,0,1-2.406.656A4.347,4.347,0,0,1,14.531-.5a4.363,4.363,0,0,1-1.613-1.883,6.752,6.752,0,0,1-.59-2.832v-.82a6.953,6.953,0,0,1,.57-2.9,4.347,4.347,0,0,1,1.613-1.926,4.329,4.329,0,0,1,2.387-.668,4.41,4.41,0,0,1,2.41.66,4.253,4.253,0,0,1,1.605,1.914,7.071,7.071,0,0,1,.563,2.918Zm-1.492-.734a5.1,5.1,0,0,0-.812-3.105A2.68,2.68,0,0,0,16.9-10.242,2.651,2.651,0,0,0,14.66-9.16a5,5,0,0,0-.84,3v.836a5.107,5.107,0,0,0,.824,3.082,2.662,2.662,0,0,0,2.27,1.121,2.652,2.652,0,0,0,2.25-1.059,5.079,5.079,0,0,0,.82-3.035ZM27.9-4.6H25.227V0H23.719V-11.375h3.766a4.457,4.457,0,0,1,2.957.875,3.148,3.148,0,0,1,1.035,2.547A3.062,3.062,0,0,1,30.9-6.1a3.428,3.428,0,0,1-1.6,1.18L31.977-.094V0H30.367ZM25.227-5.828h2.3a2.6,2.6,0,0,0,1.777-.579,1.959,1.959,0,0,0,.66-1.55,2.062,2.062,0,0,0-.629-1.62,2.663,2.663,0,0,0-1.816-.571h-2.3ZM39.859-2.977H35.094L34.023,0H32.477L36.82-11.375h1.313L42.484,0H40.945ZM35.547-4.2h3.867l-1.937-5.32Zm11.82-.867a7.053,7.053,0,0,1-2.809-1.363,2.6,2.6,0,0,1-.879-2,2.752,2.752,0,0,1,1.074-2.223,4.269,4.269,0,0,1,2.793-.879,4.66,4.66,0,0,1,2.09.453,3.436,3.436,0,0,1,1.422,1.25,3.2,3.2,0,0,1,.5,1.742H50.055A2.08,2.08,0,0,0,49.4-9.713a2.669,2.669,0,0,0-1.852-.592,2.732,2.732,0,0,0-1.73.489A1.632,1.632,0,0,0,45.2-8.458a1.468,1.468,0,0,0,.59,1.178,5.785,5.785,0,0,0,2.008.88,9.316,9.316,0,0,1,2.219.88A3.367,3.367,0,0,1,51.2-4.4a2.861,2.861,0,0,1,.387,1.508A2.658,2.658,0,0,1,50.508-.676a4.6,4.6,0,0,1-2.883.832,5.347,5.347,0,0,1-2.187-.449,3.681,3.681,0,0,1-1.566-1.23A3,3,0,0,1,43.32-3.3h1.508a1.959,1.959,0,0,0,.762,1.629,3.207,3.207,0,0,0,2.035.6,2.948,2.948,0,0,0,1.82-.484,1.573,1.573,0,0,0,.633-1.32,1.545,1.545,0,0,0-.586-1.293A6.755,6.755,0,0,0,47.367-5.07ZM57.469,0V-11.375H60.68a5.169,5.169,0,0,1,2.625.656,4.438,4.438,0,0,1,1.762,1.867A6.078,6.078,0,0,1,65.7-6.07v.727a6.1,6.1,0,0,1-.621,2.82A4.369,4.369,0,0,1,63.3-.664,5.5,5.5,0,0,1,60.617,0Zm1.5-10.148v8.922h1.578a3.434,3.434,0,0,0,2.7-1.079,4.458,4.458,0,0,0,.965-3.073v-.665a4.529,4.529,0,0,0-.91-3.014,3.239,3.239,0,0,0-2.582-1.091ZM74.391-5.258h-4.93v4.031h5.727V0H67.961V-11.375h7.148v1.227H69.461v3.664h4.93Zm4.172,4.031h5.391V0h-6.9V-11.375h1.508ZM89.625,0V-11.375h3.211a5.169,5.169,0,0,1,2.625.656,4.438,4.438,0,0,1,1.762,1.867,6.078,6.078,0,0,1,.629,2.781v.727a6.1,6.1,0,0,1-.621,2.82A4.369,4.369,0,0,1,95.457-.664,5.5,5.5,0,0,1,92.773,0Zm1.5-10.148v8.922H92.7a3.434,3.434,0,0,0,2.7-1.079,4.458,4.458,0,0,0,.965-3.073v-.665a4.529,4.529,0,0,0-.91-3.014,3.239,3.239,0,0,0-2.582-1.091ZM101.727,0h-1.5V-11.375h1.5Zm-.047-14.516h1.75l-2.094,2.3-1.164,0Zm9.211,11.539h-4.766L105.055,0h-1.547l4.344-11.375h1.313L113.516,0h-1.539ZM106.578-4.2h3.867l-1.937-5.32Z" transform="translate(118.97 78)" fill="#12263f"/>
  <line id="Línea_4022" data-name="Línea 4022" x1="1028.714" transform="translate(1 131.349)" fill="none" stroke="#e1e1e1" stroke-width="1"/>
  <path id="Trazado_884797" data-name="Trazado 884797" d="M3.258-11.375,6.977-2.094,10.7-11.375h1.945V0h-1.5V-4.43l.141-4.781L7.547,0H6.4L2.672-9.187,2.82-4.43V0H1.32V-11.375Zm18.453,8.4H16.945L15.875,0H14.328l4.344-11.375h1.313L24.336,0H22.8ZM17.4-4.2h3.867l-1.937-5.32ZM20.07-14.422h1.75l-2.094,2.3-1.164,0Zm14.4,9.1a7.026,7.026,0,0,1-.523,2.84A4.388,4.388,0,0,1,32.477-.617L34.508.977l-1.023.945L31.086.016A4.88,4.88,0,0,1,29.9.156,4.347,4.347,0,0,1,27.516-.5,4.363,4.363,0,0,1,25.9-2.387a6.752,6.752,0,0,1-.59-2.832v-.82a6.953,6.953,0,0,1,.57-2.9A4.347,4.347,0,0,1,27.5-10.863a4.329,4.329,0,0,1,2.387-.668,4.4,4.4,0,0,1,2.418.664,4.284,4.284,0,0,1,1.605,1.91,7.016,7.016,0,0,1,.563,2.91Zm-1.5-.734a5.162,5.162,0,0,0-.8-3.1,2.666,2.666,0,0,0-2.285-1.09,2.643,2.643,0,0,0-2.23,1.082,5,5,0,0,0-.84,3v.836a5.147,5.147,0,0,0,.816,3.078A2.646,2.646,0,0,0,29.9-1.117a2.652,2.652,0,0,0,2.25-1.059,5.079,5.079,0,0,0,.82-3.035Zm11.82-5.32v7.734a3.628,3.628,0,0,1-1.012,2.633A4.077,4.077,0,0,1,41.055.141l-.4.016A4.258,4.258,0,0,1,37.68-.852a3.6,3.6,0,0,1-1.125-2.773v-7.75h1.484v7.7a2.6,2.6,0,0,0,.68,1.918,2.612,2.612,0,0,0,1.938.684,2.63,2.63,0,0,0,1.949-.68,2.6,2.6,0,0,0,.676-1.914v-7.711ZM48.766,0h-1.5V-11.375h1.5ZM60.25,0H58.742L53.016-8.766V0H51.508V-11.375h1.508l5.742,8.8v-8.8H60.25Zm9.086-2.977H64.57L63.5,0H61.953L66.3-11.375h1.313L71.961,0H70.422ZM65.023-4.2h3.867l-1.937-5.32Z" transform="translate(118.97 102.543)" fill="#12263f"/>
  <line id="Línea_4025" data-name="Línea 4025" y2="95.617" transform="translate(557.946 59.503)" fill="none" stroke="#e1e1e1" stroke-width="1"/>
  <line id="Línea_4026" data-name="Línea 4026" y2="95.617" transform="translate(652.946 59.503)" fill="none" stroke="#e1e1e1" stroke-width="1"/>
  <line id="Línea_4027" data-name="Línea 4027" y2="95.617" transform="translate(733.067 59.503)" fill="none" stroke="#e1e1e1" stroke-width="1"/>
  <line id="Línea_4028" data-name="Línea 4028" y2="95.617" transform="translate(812.187 59.503)" fill="none" stroke="#e1e1e1" stroke-width="1"/>
  <line id="Línea_4036" data-name="Línea 4036" y2="95.617" transform="translate(476.828 59.503)" fill="none" stroke="#e1e1e1" stroke-width="1"/>
  <path id="Trazado_884799" data-name="Trazado 884799" d="M8.078-4.852a6.61,6.61,0,0,1-.867,3.773A3.084,3.084,0,0,1,4.5.156,3.107,3.107,0,0,1,1.8-1.051,6.274,6.274,0,0,1,.9-4.656v-1.93a6.463,6.463,0,0,1,.867-3.727,3.108,3.108,0,0,1,2.719-1.219,3.136,3.136,0,0,1,2.7,1.176,6.237,6.237,0,0,1,.891,3.629ZM6.633-6.828A5.3,5.3,0,0,0,6.117-9.5a1.775,1.775,0,0,0-1.633-.84,1.751,1.751,0,0,0-1.617.836,5.171,5.171,0,0,0-.523,2.57v2.313A5.381,5.381,0,0,0,2.879-1.9,1.771,1.771,0,0,0,4.5-1.023a1.747,1.747,0,0,0,1.59-.828,5.186,5.186,0,0,0,.543-2.609ZM14.68,0H13.227V-9.633l-2.914,1.07V-9.875l4.141-1.555h.227Zm4.336-.758a.905.905,0,0,1,.223-.625.848.848,0,0,1,.668-.25.874.874,0,0,1,.676.25.887.887,0,0,1,.23.625.839.839,0,0,1-.23.6.89.89,0,0,1-.676.242.863.863,0,0,1-.668-.242A.855.855,0,0,1,19.016-.758Zm.008-6.9a.905.905,0,0,1,.223-.625.848.848,0,0,1,.668-.25.874.874,0,0,1,.676.25.887.887,0,0,1,.23.625.839.839,0,0,1-.23.6.89.89,0,0,1-.676.242.863.863,0,0,1-.668-.242A.855.855,0,0,1,19.023-7.656Zm10.9,2.8a6.61,6.61,0,0,1-.867,3.773A3.084,3.084,0,0,1,26.344.156a3.107,3.107,0,0,1-2.7-1.207,6.274,6.274,0,0,1-.906-3.605v-1.93a6.463,6.463,0,0,1,.867-3.727,3.108,3.108,0,0,1,2.719-1.219,3.136,3.136,0,0,1,2.7,1.176,6.237,6.237,0,0,1,.891,3.629ZM28.477-6.828A5.3,5.3,0,0,0,27.961-9.5a1.775,1.775,0,0,0-1.633-.84,1.751,1.751,0,0,0-1.617.836,5.171,5.171,0,0,0-.523,2.57v2.313A5.381,5.381,0,0,0,24.723-1.9a1.771,1.771,0,0,0,1.621.879,1.747,1.747,0,0,0,1.59-.828,5.186,5.186,0,0,0,.543-2.609Zm10.43,1.977a6.61,6.61,0,0,1-.867,3.773A3.084,3.084,0,0,1,35.328.156a3.107,3.107,0,0,1-2.7-1.207,6.274,6.274,0,0,1-.906-3.605v-1.93a6.463,6.463,0,0,1,.867-3.727,3.108,3.108,0,0,1,2.719-1.219,3.136,3.136,0,0,1,2.7,1.176,6.237,6.237,0,0,1,.891,3.629ZM37.461-6.828A5.3,5.3,0,0,0,36.945-9.5a1.775,1.775,0,0,0-1.633-.84,1.751,1.751,0,0,0-1.617.836,5.171,5.171,0,0,0-.523,2.57v2.313A5.381,5.381,0,0,0,33.707-1.9a1.771,1.771,0,0,0,1.621.879,1.747,1.747,0,0,0,1.59-.828,5.186,5.186,0,0,0,.543-2.609Z" transform="translate(493.89 78.001)" fill="#12263f"/>
  <text id="_02:00" data-name="02:00" transform="translate(582.001 78.001)" fill="#12263f" font-size="16" font-family="Roboto-Regular, Roboto"><tspan x="0" y="0">02:00</tspan></text>
  <path id="Trazado_884800" data-name="Trazado 884800" d="M8.078-4.852a6.61,6.61,0,0,1-.867,3.773A3.084,3.084,0,0,1,4.5.156,3.107,3.107,0,0,1,1.8-1.051,6.274,6.274,0,0,1,.9-4.656v-1.93a6.463,6.463,0,0,1,.867-3.727,3.108,3.108,0,0,1,2.719-1.219,3.136,3.136,0,0,1,2.7,1.176,6.237,6.237,0,0,1,.891,3.629ZM6.633-6.828A5.3,5.3,0,0,0,6.117-9.5a1.775,1.775,0,0,0-1.633-.84,1.751,1.751,0,0,0-1.617.836,5.171,5.171,0,0,0-.523,2.57v2.313A5.381,5.381,0,0,0,2.879-1.9,1.771,1.771,0,0,0,4.5-1.023a1.747,1.747,0,0,0,1.59-.828,5.186,5.186,0,0,0,.543-2.609Zm5.4.438h1.086a2.387,2.387,0,0,0,1.609-.539,1.8,1.8,0,0,0,.586-1.414,1.764,1.764,0,0,0-1.992-2,2.072,2.072,0,0,0-1.5.535,1.873,1.873,0,0,0-.559,1.418H9.82a2.9,2.9,0,0,1,.988-2.246,3.6,3.6,0,0,1,2.512-.895,3.558,3.558,0,0,1,2.523.852,3.076,3.076,0,0,1,.914,2.367,2.5,2.5,0,0,1-.48,1.438,2.9,2.9,0,0,1-1.309,1.039,2.8,2.8,0,0,1,1.449.984,2.734,2.734,0,0,1,.512,1.68,3.1,3.1,0,0,1-1,2.43,3.745,3.745,0,0,1-2.6.9,3.844,3.844,0,0,1-2.605-.867A2.877,2.877,0,0,1,9.719-3h1.453a1.859,1.859,0,0,0,.586,1.438,2.229,2.229,0,0,0,1.57.539,2.187,2.187,0,0,0,1.6-.547,2.108,2.108,0,0,0,.555-1.57,1.912,1.912,0,0,0-.609-1.523,2.655,2.655,0,0,0-1.758-.547H12.031ZM19.016-.758a.905.905,0,0,1,.223-.625.848.848,0,0,1,.668-.25.874.874,0,0,1,.676.25.887.887,0,0,1,.23.625.839.839,0,0,1-.23.6.89.89,0,0,1-.676.242.863.863,0,0,1-.668-.242A.855.855,0,0,1,19.016-.758Zm.008-6.9a.905.905,0,0,1,.223-.625.848.848,0,0,1,.668-.25.874.874,0,0,1,.676.25.887.887,0,0,1,.23.625.839.839,0,0,1-.23.6.89.89,0,0,1-.676.242.863.863,0,0,1-.668-.242A.855.855,0,0,1,19.023-7.656Zm10.9,2.8a6.61,6.61,0,0,1-.867,3.773A3.084,3.084,0,0,1,26.344.156a3.107,3.107,0,0,1-2.7-1.207,6.274,6.274,0,0,1-.906-3.605v-1.93a6.463,6.463,0,0,1,.867-3.727,3.108,3.108,0,0,1,2.719-1.219,3.136,3.136,0,0,1,2.7,1.176,6.237,6.237,0,0,1,.891,3.629ZM28.477-6.828A5.3,5.3,0,0,0,27.961-9.5a1.775,1.775,0,0,0-1.633-.84,1.751,1.751,0,0,0-1.617.836,5.171,5.171,0,0,0-.523,2.57v2.313A5.381,5.381,0,0,0,24.723-1.9a1.771,1.771,0,0,0,1.621.879,1.747,1.747,0,0,0,1.59-.828,5.186,5.186,0,0,0,.543-2.609Zm10.43,1.977a6.61,6.61,0,0,1-.867,3.773A3.084,3.084,0,0,1,35.328.156a3.107,3.107,0,0,1-2.7-1.207,6.274,6.274,0,0,1-.906-3.605v-1.93a6.463,6.463,0,0,1,.867-3.727,3.108,3.108,0,0,1,2.719-1.219,3.136,3.136,0,0,1,2.7,1.176,6.237,6.237,0,0,1,.891,3.629ZM37.461-6.828A5.3,5.3,0,0,0,36.945-9.5a1.775,1.775,0,0,0-1.633-.84,1.751,1.751,0,0,0-1.617.836,5.171,5.171,0,0,0-.523,2.57v2.313A5.381,5.381,0,0,0,33.707-1.9a1.771,1.771,0,0,0,1.621.879,1.747,1.747,0,0,0,1.59-.828,5.186,5.186,0,0,0,.543-2.609Z" transform="translate(670.008 78.001)" fill="#12263f"/>
  <path id="Trazado_884801" data-name="Trazado 884801" d="M1.125-.758a.905.905,0,0,1,.223-.625.848.848,0,0,1,.668-.25.874.874,0,0,1,.676.25.887.887,0,0,1,.23.625.839.839,0,0,1-.23.6.89.89,0,0,1-.676.242.863.863,0,0,1-.668-.242A.855.855,0,0,1,1.125-.758Zm4.211,0a.905.905,0,0,1,.223-.625.848.848,0,0,1,.668-.25.874.874,0,0,1,.676.25.887.887,0,0,1,.23.625.839.839,0,0,1-.23.6.89.89,0,0,1-.676.242.863.863,0,0,1-.668-.242A.855.855,0,0,1,5.336-.758Zm4.211,0a.905.905,0,0,1,.223-.625.848.848,0,0,1,.668-.25.874.874,0,0,1,.676.25.887.887,0,0,1,.23.625.839.839,0,0,1-.23.6.89.89,0,0,1-.676.242A.863.863,0,0,1,9.77-.156.855.855,0,0,1,9.547-.758Zm-8.422,24a.905.905,0,0,1,.223-.625.848.848,0,0,1,.668-.25.874.874,0,0,1,.676.25.887.887,0,0,1,.23.625.839.839,0,0,1-.23.6.89.89,0,0,1-.676.242.863.863,0,0,1-.668-.242A.855.855,0,0,1,1.125,23.242Zm4.211,0a.905.905,0,0,1,.223-.625.848.848,0,0,1,.668-.25.874.874,0,0,1,.676.25.887.887,0,0,1,.23.625.839.839,0,0,1-.23.6.89.89,0,0,1-.676.242.8.8,0,0,1-.891-.844Zm4.211,0a.905.905,0,0,1,.223-.625.848.848,0,0,1,.668-.25.874.874,0,0,1,.676.25.887.887,0,0,1,.23.625.839.839,0,0,1-.23.6.89.89,0,0,1-.676.242.8.8,0,0,1-.891-.844Zm4.211,0a.905.905,0,0,1,.223-.625.848.848,0,0,1,.668-.25.874.874,0,0,1,.676.25.887.887,0,0,1,.23.625.839.839,0,0,1-.23.6.89.89,0,0,1-.676.242.8.8,0,0,1-.891-.844Z" transform="translate(746.008 78.001)" fill="#12263f"/>
  <path id="Trazado_884802" data-name="Trazado 884802" d="M8.4,0H.945V-1.039L4.883-5.414A9.354,9.354,0,0,0,6.09-7.027a2.693,2.693,0,0,0,.332-1.285,2.041,2.041,0,0,0-.539-1.461,1.885,1.885,0,0,0-1.437-.57A2.232,2.232,0,0,0,2.77-9.73a2.343,2.343,0,0,0-.6,1.707H.727a3.355,3.355,0,0,1,1.012-2.539,3.751,3.751,0,0,1,2.707-.969,3.6,3.6,0,0,1,2.508.832,2.838,2.838,0,0,1,.922,2.215q0,1.68-2.141,4L2.688-1.18H8.4Zm8.984,0H9.93V-1.039l3.938-4.375a9.354,9.354,0,0,0,1.207-1.613,2.693,2.693,0,0,0,.332-1.285,2.041,2.041,0,0,0-.539-1.461,1.885,1.885,0,0,0-1.437-.57,2.232,2.232,0,0,0-1.676.613,2.343,2.343,0,0,0-.6,1.707H9.711a3.355,3.355,0,0,1,1.012-2.539,3.751,3.751,0,0,1,2.707-.969,3.6,3.6,0,0,1,2.508.832,2.838,2.838,0,0,1,.922,2.215q0,1.68-2.141,4l-3.047,3.3h5.711Zm1.633-.758a.905.905,0,0,1,.223-.625.848.848,0,0,1,.668-.25.874.874,0,0,1,.676.25.887.887,0,0,1,.23.625.839.839,0,0,1-.23.6.89.89,0,0,1-.676.242.863.863,0,0,1-.668-.242A.855.855,0,0,1,19.016-.758Zm.008-6.9a.905.905,0,0,1,.223-.625.848.848,0,0,1,.668-.25.874.874,0,0,1,.676.25.887.887,0,0,1,.23.625.839.839,0,0,1-.23.6.89.89,0,0,1-.676.242.863.863,0,0,1-.668-.242A.855.855,0,0,1,19.023-7.656Zm10.9,2.8a6.61,6.61,0,0,1-.867,3.773A3.084,3.084,0,0,1,26.344.156a3.107,3.107,0,0,1-2.7-1.207,6.274,6.274,0,0,1-.906-3.605v-1.93a6.463,6.463,0,0,1,.867-3.727,3.108,3.108,0,0,1,2.719-1.219,3.136,3.136,0,0,1,2.7,1.176,6.237,6.237,0,0,1,.891,3.629ZM28.477-6.828A5.3,5.3,0,0,0,27.961-9.5a1.775,1.775,0,0,0-1.633-.84,1.751,1.751,0,0,0-1.617.836,5.171,5.171,0,0,0-.523,2.57v2.313A5.381,5.381,0,0,0,24.723-1.9a1.771,1.771,0,0,0,1.621.879,1.747,1.747,0,0,0,1.59-.828,5.186,5.186,0,0,0,.543-2.609Zm10.43,1.977a6.61,6.61,0,0,1-.867,3.773A3.084,3.084,0,0,1,35.328.156a3.107,3.107,0,0,1-2.7-1.207,6.274,6.274,0,0,1-.906-3.605v-1.93a6.463,6.463,0,0,1,.867-3.727,3.108,3.108,0,0,1,2.719-1.219,3.136,3.136,0,0,1,2.7,1.176,6.237,6.237,0,0,1,.891,3.629ZM37.461-6.828A5.3,5.3,0,0,0,36.945-9.5a1.775,1.775,0,0,0-1.633-.84,1.751,1.751,0,0,0-1.617.836,5.171,5.171,0,0,0-.523,2.57v2.313A5.381,5.381,0,0,0,33.707-1.9a1.771,1.771,0,0,0,1.621.879,1.747,1.747,0,0,0,1.59-.828,5.186,5.186,0,0,0,.543-2.609Z" transform="translate(835.125 78.001)" fill="#12263f"/>
  <path id="Trazado_884803" data-name="Trazado 884803" d="M8.4,0H.945V-1.039L4.883-5.414A9.354,9.354,0,0,0,6.09-7.027a2.693,2.693,0,0,0,.332-1.285,2.041,2.041,0,0,0-.539-1.461,1.885,1.885,0,0,0-1.437-.57A2.232,2.232,0,0,0,2.77-9.73a2.343,2.343,0,0,0-.6,1.707H.727a3.355,3.355,0,0,1,1.012-2.539,3.751,3.751,0,0,1,2.707-.969,3.6,3.6,0,0,1,2.508.832,2.838,2.838,0,0,1,.922,2.215q0,1.68-2.141,4L2.688-1.18H8.4Zm3.633-6.391h1.086a2.387,2.387,0,0,0,1.609-.539,1.8,1.8,0,0,0,.586-1.414,1.764,1.764,0,0,0-1.992-2,2.072,2.072,0,0,0-1.5.535,1.873,1.873,0,0,0-.559,1.418H9.82a2.9,2.9,0,0,1,.988-2.246,3.6,3.6,0,0,1,2.512-.895,3.558,3.558,0,0,1,2.523.852,3.076,3.076,0,0,1,.914,2.367,2.5,2.5,0,0,1-.48,1.438,2.9,2.9,0,0,1-1.309,1.039,2.8,2.8,0,0,1,1.449.984,2.734,2.734,0,0,1,.512,1.68,3.1,3.1,0,0,1-1,2.43,3.745,3.745,0,0,1-2.6.9,3.844,3.844,0,0,1-2.605-.867A2.877,2.877,0,0,1,9.719-3h1.453a1.859,1.859,0,0,0,.586,1.438,2.229,2.229,0,0,0,1.57.539,2.187,2.187,0,0,0,1.6-.547,2.108,2.108,0,0,0,.555-1.57,1.912,1.912,0,0,0-.609-1.523,2.655,2.655,0,0,0-1.758-.547H12.031ZM19.016-.758a.905.905,0,0,1,.223-.625.848.848,0,0,1,.668-.25.874.874,0,0,1,.676.25.887.887,0,0,1,.23.625.839.839,0,0,1-.23.6.89.89,0,0,1-.676.242.863.863,0,0,1-.668-.242A.855.855,0,0,1,19.016-.758Zm.008-6.9a.905.905,0,0,1,.223-.625.848.848,0,0,1,.668-.25.874.874,0,0,1,.676.25.887.887,0,0,1,.23.625.839.839,0,0,1-.23.6.89.89,0,0,1-.676.242.863.863,0,0,1-.668-.242A.855.855,0,0,1,19.023-7.656Zm10.9,2.8a6.61,6.61,0,0,1-.867,3.773A3.084,3.084,0,0,1,26.344.156a3.107,3.107,0,0,1-2.7-1.207,6.274,6.274,0,0,1-.906-3.605v-1.93a6.463,6.463,0,0,1,.867-3.727,3.108,3.108,0,0,1,2.719-1.219,3.136,3.136,0,0,1,2.7,1.176,6.237,6.237,0,0,1,.891,3.629ZM28.477-6.828A5.3,5.3,0,0,0,27.961-9.5a1.775,1.775,0,0,0-1.633-.84,1.751,1.751,0,0,0-1.617.836,5.171,5.171,0,0,0-.523,2.57v2.313A5.381,5.381,0,0,0,24.723-1.9a1.771,1.771,0,0,0,1.621.879,1.747,1.747,0,0,0,1.59-.828,5.186,5.186,0,0,0,.543-2.609Zm10.43,1.977a6.61,6.61,0,0,1-.867,3.773A3.084,3.084,0,0,1,35.328.156a3.107,3.107,0,0,1-2.7-1.207,6.274,6.274,0,0,1-.906-3.605v-1.93a6.463,6.463,0,0,1,.867-3.727,3.108,3.108,0,0,1,2.719-1.219,3.136,3.136,0,0,1,2.7,1.176,6.237,6.237,0,0,1,.891,3.629ZM37.461-6.828A5.3,5.3,0,0,0,36.945-9.5a1.775,1.775,0,0,0-1.633-.84,1.751,1.751,0,0,0-1.617.836,5.171,5.171,0,0,0-.523,2.57v2.313A5.381,5.381,0,0,0,33.707-1.9a1.771,1.771,0,0,0,1.621.879,1.747,1.747,0,0,0,1.59-.828,5.186,5.186,0,0,0,.543-2.609Z" transform="translate(946.125 78.001)" fill="#12263f"/>
</svg>
