<svg xmlns="http://www.w3.org/2000/svg" xmlns:xlink="http://www.w3.org/1999/xlink" width="1327.051" height="774.785" viewBox="0 0 1327.051 774.785">
  <defs>
    <clipPath id="clip-path">
      <rect id="Rectángulo_404035" data-name="Rectángulo 404035" width="130.289" height="373.028" transform="translate(0)" fill="#fff" stroke="#707070" stroke-width="1"/>
    </clipPath>
    <filter id="Trazado_881533" x="1161" y="58.677" width="325.96" height="326.351" filterUnits="userSpaceOnUse">
      <feOffset dx="5" dy="3" input="SourceAlpha"/>
      <feGaussianBlur stdDeviation="3" result="blur"/>
      <feFlood flood-opacity="0.161"/>
      <feComposite operator="in" in2="blur"/>
      <feComposite in="SourceGraphic"/>
    </filter>
    <clipPath id="clip-path-2">
      <rect id="Rectángulo_404035-2" data-name="Rectángulo 404035" width="129" height="369.337" transform="translate(0 0)" fill="#fff" stroke="#707070" stroke-width="1"/>
    </clipPath>
    <filter id="Trazado_881533-2" x="-148.464" y="399.448" width="322.912" height="323.3" filterUnits="userSpaceOnUse">
      <feOffset dx="5" dy="3" input="SourceAlpha"/>
      <feGaussianBlur stdDeviation="3" result="blur-2"/>
      <feFlood flood-opacity="0.161"/>
      <feComposite operator="in" in2="blur-2"/>
      <feComposite in="SourceGraphic"/>
    </filter>
  </defs>
  <g id="Grupo_1111243" data-name="Grupo 1111243" transform="translate(-136 -623.394)">
    <g id="Grupo_1111242" data-name="Grupo 1111242">
      <g id="Grupo_1111241" data-name="Grupo 1111241">
        <g id="Enmascarar_grupo_1101694" data-name="Enmascarar grupo 1101694" transform="translate(1463.051 996.422) rotate(180)" clip-path="url(#clip-path)">
          <g transform="matrix(-1, 0, 0, -1, 1327.05, 373.03)" filter="url(#Trazado_881533)">
            <path id="Trazado_881533-3" data-name="Trazado 881533" d="M43,169.293c.71,1.087,1.43,2.126,2.15,3.164q-10.327,9.7-19.951,20.285a119.142,119.142,0,0,0,55.843,39.735c4.557-8.3,8.784-16.845,12.663-25.541a90.1,90.1,0,0,0,20.858,3.565q1.165,14.2,3.433,28.359a128,128,0,0,0,34.337-4.612,127.894,127.894,0,0,0,31.56-14.324q-5.528-13.181-12.1-25.843a89.709,89.709,0,0,0,15.833-14.073c7.865,5.3,15.995,10.3,24.322,14.967A126.71,126.71,0,0,0,229.7,165.226a127.047,127.047,0,0,0,8.483-33.543c-9.195-2.59-18.412-4.826-27.691-6.647a93.486,93.486,0,0,0-1.182-21.193c9.04-2.844,18.008-6.061,26.773-9.648a120.035,120.035,0,0,0-33.03-60c-7.781,5.542-15.3,11.42-22.516,17.515a88.9,88.9,0,0,0-17.251-12.292q5.149-13.3,9.131-26.967A115.681,115.681,0,0,0,139.532,1.771,113.633,113.633,0,0,0,104.944.93q-.762,14.332-.336,28.433a88.229,88.229,0,0,0-20.382,5.892Q77.086,23.067,68.819,11.278l-3.94,1.862c-1.282.669-2.524,1.4-3.768,2.126-2.486,1.456-5.01,2.853-7.44,4.4C48.994,23.1,44.166,26.292,40,30.313a117.086,117.086,0,0,0-12.188,12.4c-1.86,2.222-3.547,4.581-5.3,6.9a66.643,66.643,0,0,0-4.791,7.236q10.746,9.518,22.066,17.992l.018.03a87.775,87.775,0,0,0-8.137,19.568c-9.351-1.354-18.755-2.338-28.318-2.925a118.522,118.522,0,0,0,3.758,68.393q14.011-2.424,27.839-6.027A87.751,87.751,0,0,0,43,169.293M81.541,61.113A69.51,69.51,0,1,1,61.361,157.3a69.592,69.592,0,0,1,20.18-96.183" transform="translate(1472.96 287.67) rotate(159)" fill="#b2bbc0"/>
          </g>
        </g>
        <g id="Grupo_1110139" data-name="Grupo 1110139" transform="translate(1680 2931.35) rotate(180)">
          <g id="Enmascarar_grupo_1101694-2" data-name="Enmascarar grupo 1101694" transform="translate(1544 1902.508) rotate(180)" clip-path="url(#clip-path-2)">
            <g transform="matrix(1, 0, 0, 1, 0, -405.45)" filter="url(#Trazado_881533-2)">
              <path id="Trazado_881533-4" data-name="Trazado 881533" d="M42.571,167.617c.7,1.077,1.416,2.1,2.129,3.133q-10.225,9.606-19.754,20.084a117.964,117.964,0,0,0,55.29,39.342c4.512-8.217,8.7-16.678,12.537-25.288a89.207,89.207,0,0,0,20.651,3.529q1.153,14.062,3.4,28.078a126.733,126.733,0,0,0,34-4.566,126.628,126.628,0,0,0,31.247-14.183q-5.474-13.05-11.981-25.588a88.82,88.82,0,0,0,15.677-13.934c7.787,5.249,15.837,10.2,24.081,14.819a125.456,125.456,0,0,0,17.578-29.454,125.791,125.791,0,0,0,8.4-33.211c-9.1-2.564-18.23-4.778-27.417-6.582a92.558,92.558,0,0,0-1.171-20.983c8.951-2.816,17.83-6,26.508-9.552a118.847,118.847,0,0,0-32.7-59.409c-7.7,5.488-15.151,11.307-22.293,17.341a88.022,88.022,0,0,0-17.08-12.17q5.1-13.165,9.041-26.7a114.536,114.536,0,0,0-32.555-10.57A112.508,112.508,0,0,0,103.905.92q-.754,14.19-.332,28.151a87.357,87.357,0,0,0-20.18,5.834q-7.07-12.067-15.256-23.739l-3.9,1.844c-1.27.663-2.5,1.383-3.731,2.1-2.461,1.442-4.961,2.825-7.366,4.354-4.63,3.4-9.41,6.563-13.534,10.544a115.928,115.928,0,0,0-12.068,12.28c-1.842,2.2-3.512,4.536-5.249,6.834a65.984,65.984,0,0,0-4.743,7.164Q28.185,65.714,39.393,74.1l.017.03a86.907,86.907,0,0,0-8.057,19.375c-9.259-1.341-18.569-2.315-28.038-2.9a117.348,117.348,0,0,0,3.72,67.716q13.872-2.4,27.563-5.968a86.883,86.883,0,0,0,7.971,15.256M80.734,60.509a68.823,68.823,0,1,1-19.98,95.231,68.9,68.9,0,0,1,19.98-95.231" transform="translate(-144.46 489.96) rotate(-21)" fill="#b2bbc0"/>
            </g>
          </g>
        </g>
        <rect id="Rectángulo_405011" data-name="Rectángulo 405011" width="1327" height="669" transform="translate(136 687)" fill="none"/>
      </g>
    </g>
  </g>
</svg>
