<svg xmlns="http://www.w3.org/2000/svg" xmlns:xlink="http://www.w3.org/1999/xlink" width="120.373" height="174.411" viewBox="0 0 120.373 174.411">
  <defs>
    <clipPath id="clip-path">
      <path id="Trazado_879493" data-name="Trazado 879493" d="M0,0H120.373V174.411H0Z" fill="none"/>
    </clipPath>
    <filter id="Trazado_879485" x="11.488" y="77.625" width="98.061" height="98.29" filterUnits="userSpaceOnUse">
      <feOffset dx="5" dy="3" input="SourceAlpha"/>
      <feGaussianBlur stdDeviation="3" result="blur"/>
      <feFlood flood-opacity="0.161"/>
      <feComposite operator="in" in2="blur"/>
      <feComposite in="SourceGraphic"/>
    </filter>
  </defs>
  <g id="Enmascarar_grupo_1101668" data-name="Enmascarar grupo 1101668" clip-path="url(#clip-path)">
    <g transform="matrix(1, 0, 0, 1, 0, 0)" filter="url(#Trazado_879485)">
      <path id="Trazado_879485-2" data-name="Trazado 879485" d="M66.567,216.3c.239.366.481.715.723,1.064q-3.471,3.261-6.706,6.819a40.048,40.048,0,0,0,18.771,13.357c1.532-2.79,2.952-5.662,4.256-8.585a30.287,30.287,0,0,0,7.011,1.2q.391,4.774,1.154,9.532a39.954,39.954,0,0,0,22.15-6.365q-1.858-4.431-4.067-8.687a30.154,30.154,0,0,0,5.322-4.73c2.644,1.782,5.377,3.463,8.175,5.031a40.223,40.223,0,0,0,8.819-21.275c-3.091-.87-6.189-1.622-9.308-2.234a31.425,31.425,0,0,0-.4-7.124c3.039-.956,6.053-2.037,9-3.243a40.348,40.348,0,0,0-11.1-20.169c-2.615,1.863-5.144,3.839-7.568,5.887a29.883,29.883,0,0,0-5.8-4.132q1.731-4.469,3.069-9.065a38.884,38.884,0,0,0-11.052-3.588A38.2,38.2,0,0,0,87.39,159.7q-.256,4.818-.113,9.557a29.659,29.659,0,0,0-6.851,1.981q-2.4-4.1-5.179-8.059l-1.324.626c-.431.225-.849.469-1.267.715-.836.49-1.684.959-2.5,1.478a43.267,43.267,0,0,0-4.595,3.58,39.354,39.354,0,0,0-4.1,4.169c-.625.747-1.192,1.54-1.782,2.32a22.405,22.405,0,0,0-1.61,2.432q3.612,3.2,7.417,6.048l.006.01a29.5,29.5,0,0,0-2.735,6.578c-3.143-.455-6.3-.786-9.519-.983A39.839,39.839,0,0,0,54.5,213.144q4.71-.815,9.358-2.026a29.5,29.5,0,0,0,2.706,5.179m12.956-36.363a23.365,23.365,0,1,1-6.783,32.331,23.393,23.393,0,0,1,6.783-32.331" transform="translate(-36.63 -75.77)" fill="#3076b6"/>
    </g>
    <path id="Trazado_879486" data-name="Trazado 879486" d="M93.441,224.739a17.466,17.466,0,1,1,24.173,5.08,17.481,17.481,0,0,1-24.173-5.08" transform="translate(-52.547 -91.424)" fill="#3076b6"/>
    <path id="Trazado_879487" data-name="Trazado 879487" d="M126.765,108.881l-3.6,2.351a25.864,25.864,0,0,0,4.328,5,26.941,26.941,0,0,0,2.61,2.06c.458.3.938.585,1.411.87l.71.428.746.365,1.916-3.828a20.8,20.8,0,0,0,7.364,2.107l-.409,4.272a24.275,24.275,0,0,0,3.314.087,25.551,25.551,0,0,0,3.3-.327,25.233,25.233,0,0,0,6.321-1.983l-1.8-3.883a20.827,20.827,0,0,0,2.643-1.467,20.074,20.074,0,0,0,3.591-2.979l3.089,2.983,1.119-1.22c.371-.415.683-.876,1.018-1.316a24.409,24.409,0,0,0,1.8-2.787,25.309,25.309,0,0,0,2.389-6.168l-4.161-1.017a20.929,20.929,0,0,0,.432-7.64l4.236-.554a24.958,24.958,0,0,0-5.028-12.111l-3.392,2.609a20.853,20.853,0,0,0-5.715-5.1l2.206-3.663a25.416,25.416,0,0,0-12.595-3.633l-.074,4.3a20.4,20.4,0,0,0-7.545,1.3l-1.49-4.027A25.611,25.611,0,0,0,124.8,81.494l3.326,2.732a20.833,20.833,0,0,0-3.7,6.716L120.35,89.6a25.255,25.255,0,0,0-1.218,6.495,27.308,27.308,0,0,0,.018,3.313c.046.554.128,1.1.2,1.653l.112.817c.047.276.118.546.177.814l4.191-.888a20.606,20.606,0,0,0,2.937,7.077M138.4,88.6a10.483,10.483,0,1,1-3.044,14.509A10.474,10.474,0,0,1,138.4,88.6" transform="translate(-53.88 -31.829)" fill="#c10000"/>
  </g>
</svg>
