<svg xmlns="http://www.w3.org/2000/svg" xmlns:xlink="http://www.w3.org/1999/xlink" width="93.094" height="94" viewBox="0 0 93.094 94">
  <defs>
    <filter id="Trazado_882267" x="10.628" y="8.271" width="82.466" height="82.65" filterUnits="userSpaceOnUse">
      <feOffset dx="5" dy="3" input="SourceAlpha"/>
      <feGaussianBlur stdDeviation="3" result="blur"/>
      <feFlood flood-opacity="0.161"/>
      <feComposite operator="in" in2="blur"/>
      <feComposite in="SourceGraphic"/>
    </filter>
  </defs>
  <g id="Grupo_1111237" data-name="Grupo 1111237" transform="translate(-327.737 -11153.193)">
    <ellipse id="Elipse_11699" data-name="Elipse 11699" cx="46.5" cy="47" rx="46.5" ry="47" transform="translate(327.737 11153.193)" fill="#e69999"/>
    <g transform="matrix(1, 0, 0, 1, 327.74, 11153.19)" filter="url(#Trazado_882267)">
      <path id="Trazado_882267-2" data-name="Trazado 882267" d="M63.752,205.213c.192.294.387.575.582.856q-2.8,2.626-5.4,5.49a32.247,32.247,0,0,0,15.114,10.755c1.233-2.246,2.377-4.559,3.427-6.913a24.387,24.387,0,0,0,5.645.965q.315,3.844.929,7.676a32.172,32.172,0,0,0,17.836-5.125q-1.5-3.568-3.275-6.995a24.281,24.281,0,0,0,4.285-3.809c2.129,1.435,4.329,2.789,6.583,4.051a32.388,32.388,0,0,0,7.1-17.13c-2.489-.7-4.983-1.306-7.495-1.8a25.3,25.3,0,0,0-.32-5.736c2.447-.77,4.874-1.64,7.246-2.611a32.489,32.489,0,0,0-8.94-16.24c-2.106,1.5-4.142,3.091-6.094,4.741a24.062,24.062,0,0,0-4.669-3.327q1.394-3.6,2.472-7.3a31.309,31.309,0,0,0-8.9-2.889,30.756,30.756,0,0,0-9.362-.228q-.206,3.879-.091,7.7a23.877,23.877,0,0,0-5.516,1.595q-1.933-3.3-4.17-6.489l-1.066.5c-.347.181-.683.378-1.02.575-.673.394-1.356.772-2.014,1.19a34.838,34.838,0,0,0-3.7,2.882,31.684,31.684,0,0,0-3.3,3.357c-.5.6-.96,1.24-1.435,1.868a18.036,18.036,0,0,0-1.3,1.958q2.908,2.576,5.972,4.87l0,.008a23.758,23.758,0,0,0-2.2,5.3c-2.531-.367-5.076-.633-7.665-.792a32.079,32.079,0,0,0,1.017,18.511q3.792-.656,7.535-1.631a23.747,23.747,0,0,0,2.179,4.17m10.432-29.28a18.814,18.814,0,1,1-5.462,26.033,18.836,18.836,0,0,1,5.462-26.033" transform="translate(-37.49 -145.12)" fill="#3076b6"/>
    </g>
  </g>
</svg>
