<svg xmlns="http://www.w3.org/2000/svg" xmlns:xlink="http://www.w3.org/1999/xlink" width="39.387" height="39.448" viewBox="0 0 39.387 39.448">
  <defs>
    <filter id="Trazado_881527" x="0" y="0" width="39.387" height="39.448" filterUnits="userSpaceOnUse">
      <feOffset dx="5" dy="3" input="SourceAlpha"/>
      <feGaussianBlur stdDeviation="3" result="blur"/>
      <feFlood flood-opacity="0.161"/>
      <feComposite operator="in" in2="blur"/>
      <feComposite in="SourceGraphic"/>
    </filter>
  </defs>
  <g transform="matrix(1, 0, 0, 1, 0, 0)" filter="url(#Trazado_881527)">
    <path id="Trazado_881527-2" data-name="Trazado 881527" d="M55.976,174.593c.064.1.128.191.193.284q-.927.871-1.792,1.821a10.7,10.7,0,0,0,5.014,3.568c.409-.745.789-1.513,1.137-2.293a8.09,8.09,0,0,0,1.873.32q.1,1.275.308,2.546a10.673,10.673,0,0,0,5.917-1.7q-.5-1.184-1.087-2.321a8.056,8.056,0,0,0,1.422-1.264c.706.476,1.436.925,2.184,1.344a10.745,10.745,0,0,0,2.356-5.683c-.826-.233-1.653-.433-2.487-.6a8.394,8.394,0,0,0-.106-1.9c.812-.255,1.617-.544,2.4-.866a10.779,10.779,0,0,0-2.966-5.388c-.7.5-1.374,1.026-2.022,1.573a7.983,7.983,0,0,0-1.549-1.1q.462-1.194.82-2.422a10.387,10.387,0,0,0-2.953-.959,10.2,10.2,0,0,0-3.106-.076q-.068,1.287-.03,2.553a7.922,7.922,0,0,0-1.83.529q-.641-1.094-1.384-2.153l-.354.167c-.115.06-.227.125-.338.191-.223.131-.45.256-.668.395a11.556,11.556,0,0,0-1.227.956,10.512,10.512,0,0,0-1.094,1.114c-.167.2-.318.411-.476.62a5.983,5.983,0,0,0-.43.65q.965.855,1.981,1.616l0,0a7.882,7.882,0,0,0-.731,1.757c-.84-.122-1.684-.21-2.543-.263a10.642,10.642,0,0,0,.337,6.141q1.258-.218,2.5-.541a7.878,7.878,0,0,0,.723,1.384m3.461-9.714a6.242,6.242,0,1,1-1.812,8.637,6.249,6.249,0,0,1,1.812-8.637" transform="translate(-48.11 -153.39)" fill="#ffcf64"/>
  </g>
</svg>
