<svg xmlns="http://www.w3.org/2000/svg" xmlns:xlink="http://www.w3.org/1999/xlink" width="1332.456" height="2998" viewBox="0 0 1332.456 2998">
  <defs>
    <clipPath id="clip-path">
      <rect id="Rectángulo_404205" data-name="Rectángulo 404205" width="131.228" height="406.004" transform="translate(136.051 11962.28)" fill="#fff"/>
    </clipPath>
    <clipPath id="clip-path-2">
      <path id="Trazado_882126" data-name="Trazado 882126" d="M0,0H324.045V469.515H0Z" fill="none"/>
    </clipPath>
    <filter id="Trazado_882118" x="-135.434" y="2192.843" width="233.524" height="234.14" filterUnits="userSpaceOnUse">
      <feOffset dx="5" dy="3" input="SourceAlpha"/>
      <feGaussianBlur stdDeviation="3" result="blur"/>
      <feFlood flood-opacity="0.161"/>
      <feComposite operator="in" in2="blur"/>
      <feComposite in="SourceGraphic"/>
    </filter>
    <clipPath id="clip-path-3">
      <rect id="Rectángulo_404206" data-name="Rectángulo 404206" width="131.228" height="406.003" transform="translate(136.051 11962.28)" fill="#fff"/>
    </clipPath>
    <filter id="Trazado_882127" x="1244.366" y="1338.623" width="233.524" height="234.14" filterUnits="userSpaceOnUse">
      <feOffset dx="5" dy="3" input="SourceAlpha"/>
      <feGaussianBlur stdDeviation="3" result="blur-2"/>
      <feFlood flood-opacity="0.161"/>
      <feComposite operator="in" in2="blur-2"/>
      <feComposite in="SourceGraphic"/>
    </filter>
    <clipPath id="clip-path-5">
      <rect id="Rectángulo_403903" data-name="Rectángulo 403903" width="156.568" height="554.368" transform="translate(0 0)" fill="#fff" stroke="#707070" stroke-width="1"/>
    </clipPath>
    <clipPath id="clip-path-6">
      <path id="Trazado_874501" data-name="Trazado 874501" d="M0,0H440.026V637.563H0Z" fill="none"/>
    </clipPath>
    <clipPath id="clip-path-7">
      <rect id="Rectángulo_403903-2" data-name="Rectángulo 403903" width="148.455" height="525.64" transform="translate(0 0)" fill="#fff" stroke="#707070" stroke-width="1"/>
    </clipPath>
    <clipPath id="clip-path-8">
      <path id="Trazado_874501-2" data-name="Trazado 874501" d="M0,0H417.224V604.524H0Z" fill="none"/>
    </clipPath>
  </defs>
  <g id="Grupo_1111259" data-name="Grupo 1111259" transform="translate(-133.772 -2132)">
    <g id="Enmascarar_grupo_1101752" data-name="Enmascarar grupo 1101752" transform="translate(-2.279 -7809.543)" clip-path="url(#clip-path)">
      <g id="Enmascarar_grupo_1101751" data-name="Enmascarar grupo 1101751" transform="translate(-78.226 11887.012)" clip-path="url(#clip-path-2)">
        <g transform="matrix(1, 0, 0, 1, 214.28, -1945.47)" filter="url(#Trazado_882118)">
          <path id="Trazado_882118-2" data-name="Trazado 882118" d="M91.021,312.582c.642.984,1.294,1.924,1.946,2.863q-9.345,8.78-18.053,18.355a107.811,107.811,0,0,0,50.531,35.956c4.123-7.509,7.948-15.243,11.458-23.112a81.534,81.534,0,0,0,18.874,3.225q1.054,12.852,3.106,25.661a115.826,115.826,0,0,0,31.071-4.173A115.724,115.724,0,0,0,218.511,358.4q-5-11.927-10.949-23.385a81.172,81.172,0,0,0,14.327-12.735c7.117,4.8,14.474,9.323,22.008,13.544a108.28,108.28,0,0,0,23.741-57.271c-8.32-2.343-16.661-4.367-25.057-6.015a84.593,84.593,0,0,0-1.07-19.177c8.18-2.574,16.3-5.484,24.226-8.73a108.617,108.617,0,0,0-29.888-54.3c-7.04,5.015-13.847,10.334-20.374,15.849a80.445,80.445,0,0,0-15.61-11.123q4.659-12.032,8.263-24.4a104.679,104.679,0,0,0-29.753-9.66,102.824,102.824,0,0,0-31.3-.761q-.689,12.969-.3,25.728a79.835,79.835,0,0,0-18.443,5.332q-6.462-11.028-13.943-21.7l-3.566,1.685c-1.16.606-2.284,1.264-3.41,1.923-2.249,1.318-4.534,2.582-6.732,3.979-4.232,3.106-8.6,6-12.369,9.636a105.946,105.946,0,0,0-11.029,11.223c-1.683,2.011-3.209,4.146-4.8,6.246a60.291,60.291,0,0,0-4.335,6.548q9.724,8.613,19.967,16.281l.016.027a79.427,79.427,0,0,0-7.363,17.707c-8.462-1.226-16.971-2.116-25.625-2.647a107.248,107.248,0,0,0,3.4,61.888q12.678-2.194,25.191-5.454a79.4,79.4,0,0,0,7.285,13.943m34.878-97.89a62.9,62.9,0,1,1-18.26,87.034,62.973,62.973,0,0,1,18.26-87.034" transform="translate(-183.55 2039.45)" fill="#265e92"/>
        </g>
        <path id="Trazado_882119" data-name="Trazado 882119" d="M98.24,270.436a47.019,47.019,0,1,1,65.073,13.676A47.059,47.059,0,0,1,98.24,270.436" transform="translate(53.423 116.589)" fill="#fbfbf9"/>
        <path id="Trazado_882120" data-name="Trazado 882120" d="M139.76,170.717l-9.689,6.328A69.624,69.624,0,0,0,141.723,190.5a72.519,72.519,0,0,0,7.026,5.545c1.232.82,2.524,1.575,3.8,2.341l1.911,1.151,2.009.982,5.157-10.306a55.983,55.983,0,0,0,19.823,5.672l-1.1,11.5a65.347,65.347,0,0,0,8.921.234,68.779,68.779,0,0,0,8.889-.881,67.929,67.929,0,0,0,17.015-5.338L210.33,190.95a56.06,56.06,0,0,0,7.115-3.95,54.038,54.038,0,0,0,9.668-8.018l8.315,8.031,3.012-3.284c1-1.116,1.838-2.359,2.74-3.542a65.7,65.7,0,0,0,4.85-7.5,68.131,68.131,0,0,0,6.432-16.605l-11.2-2.739a56.341,56.341,0,0,0,1.164-20.567l11.4-1.491a67.187,67.187,0,0,0-13.534-32.6l-9.132,7.023a56.136,56.136,0,0,0-15.386-13.727l5.937-9.862a68.419,68.419,0,0,0-33.905-9.779l-.2,11.579A54.923,54.923,0,0,0,167.3,87.406l-4.011-10.841A68.945,68.945,0,0,0,134.465,96.99l8.954,7.355a56.084,56.084,0,0,0-9.954,18.08l-10.973-3.612a67.987,67.987,0,0,0-3.278,17.484,73.521,73.521,0,0,0,.048,8.918c.124,1.493.343,2.974.533,4.449l.3,2.2c.126.744.316,1.47.477,2.191l11.282-2.391a55.471,55.471,0,0,0,7.905,19.052m31.33-54.609a28.219,28.219,0,1,1-8.195,39.057,28.2,28.2,0,0,1,8.195-39.057" transform="translate(70.216 42.651)" fill="#9ebdd2"/>
        <path id="Trazado_882121" data-name="Trazado 882121" d="M82.938,223.838a83.208,83.208,0,0,1-19.869-2.394,3.363,3.363,0,0,1-2.551-3.529c.416-5.328.916-10.07,1.521-14.407q-1.881-.622-3.785-1.381c-2.621,4.093-5.359,8.094-8.156,11.925a3.363,3.363,0,0,1-4.222,1.025,83.673,83.673,0,0,1-26.442-20.813,3.37,3.37,0,0,1,.01-4.346c3.292-3.882,6.468-7.414,9.655-10.732q-1.152-1.612-2.245-3.378c-4.4,1.734-8.964,3.365-13.6,4.864a3.36,3.36,0,0,1-4.017-1.642A83.511,83.511,0,0,1,.008,146.655a3.369,3.369,0,0,1,2.561-3.518c4.785-1.168,9.538-2.175,14.168-3,.013-1.35.065-2.694.153-4.025-4.674-1.213-9.344-2.585-13.917-4.087a3.36,3.36,0,0,1-2.28-3.7,83.957,83.957,0,0,1,11.646-31.58A3.37,3.37,0,0,1,16.47,95.4c4.481,1.825,8.918,3.8,13.219,5.883.8-1.089,1.623-2.143,2.483-3.171-2.974-3.629-5.92-7.473-8.784-11.456a3.369,3.369,0,0,1,.339-4.33,83.806,83.806,0,0,1,27.9-18.7,3.369,3.369,0,0,1,4.122,1.342c2.5,4.007,4.933,8.2,7.274,12.487q1.929-.613,3.85-1.1c-.272-4.739-.4-9.6-.377-14.474a3.373,3.373,0,0,1,2.807-3.306,83.207,83.207,0,0,1,33.619,1.262,3.373,3.373,0,0,1,2.548,3.531c-.421,5.341-.922,10.085-1.526,14.405q1.881.622,3.783,1.381c2.623-4.095,5.359-8.094,8.156-11.925a3.37,3.37,0,0,1,4.219-1.027A83.41,83.41,0,0,1,146.55,87.028a3.366,3.366,0,0,1-.008,4.343c-3.224,3.8-6.46,7.4-9.657,10.728.763,1.07,1.509,2.186,2.246,3.361,4.666-1.827,9.229-3.465,13.6-4.88a3.366,3.366,0,0,1,4.02,1.64,83.511,83.511,0,0,1,9.221,32.413,3.368,3.368,0,0,1-2.556,3.518c-4.551,1.113-9.306,2.117-14.164,2.992-.013,1.351-.062,2.694-.157,4.041,4.805,1.257,9.466,2.617,13.895,4.057a3.375,3.375,0,0,1,2.289,3.7,83.8,83.8,0,0,1-11.638,31.605,3.374,3.374,0,0,1-4.13,1.337c-4.473-1.822-8.91-3.8-13.221-5.882q-1.19,1.614-2.473,3.159c3.135,3.839,6.091,7.691,8.81,11.48a3.366,3.366,0,0,1-.347,4.335,84.3,84.3,0,0,1-27.919,18.71,3.372,3.372,0,0,1-4.149-1.351c-2.569-4.178-5-8.371-7.23-12.5q-1.922.61-3.877,1.1c.267,4.659.4,9.5.4,14.442a3.37,3.37,0,0,1-2.806,3.319,82.574,82.574,0,0,1-13.765,1.146m-15.466-8.3a76.928,76.928,0,0,0,25.288.936c-.052-4.794-.237-9.476-.553-13.952a3.367,3.367,0,0,1,2.688-3.537,59.013,59.013,0,0,0,8.555-2.421,3.365,3.365,0,0,1,4.139,1.594c2.1,4,4.4,8.075,6.85,12.158a77.354,77.354,0,0,0,21.012-14.089c-2.679-3.631-5.576-7.309-8.629-10.965a3.363,3.363,0,0,1,.1-4.429,58.658,58.658,0,0,0,5.468-6.993,3.36,3.36,0,0,1,4.311-1.148c4.117,2.063,8.374,4.023,12.69,5.848a77.183,77.183,0,0,0,8.753-23.773c-4.311-1.34-8.832-2.6-13.467-3.761a3.364,3.364,0,0,1-2.529-3.639,60.965,60.965,0,0,0,.337-8.932,3.372,3.372,0,0,1,2.81-3.438c4.683-.787,9.283-1.7,13.7-2.717a76.831,76.831,0,0,0-6.934-24.383c-4.227,1.435-8.616,3.07-13.089,4.877a3.371,3.371,0,0,1-4.182-1.447,61.066,61.066,0,0,0-4.144-6.351c-.267-.356-.536-.688-.793-1a3.369,3.369,0,0,1,.2-4.513c3.113-3.149,6.287-6.587,9.461-10.247a76.744,76.744,0,0,0-19.885-15.656c-2.658,3.74-5.249,7.632-7.727,11.6a3.347,3.347,0,0,1-4.227,1.292A60.082,60.082,0,0,0,99.293,83.4a3.37,3.37,0,0,1-2.429-3.767c.653-4.15,1.192-8.718,1.648-13.889A76.624,76.624,0,0,0,73.238,64.8c.035,4.729.219,9.412.539,13.963A3.365,3.365,0,0,1,71.089,82.3a59.312,59.312,0,0,0-8.516,2.427,3.362,3.362,0,0,1-4.13-1.582c-2.214-4.16-4.526-8.239-6.9-12.158A77.2,77.2,0,0,0,30.563,85.068c2.82,3.823,5.71,7.493,8.613,10.935a3.367,3.367,0,0,1-.1,4.451,56.488,56.488,0,0,0-5.476,7,3.371,3.371,0,0,1-4.314,1.144c-4.114-2.062-8.368-4.023-12.69-5.848a77.492,77.492,0,0,0-8.767,23.763c4.446,1.394,8.964,2.659,13.471,3.769a3.359,3.359,0,0,1,2.54,3.637,63.565,63.565,0,0,0-.339,8.95A3.374,3.374,0,0,1,20.68,146.3c-4.451.73-9.042,1.639-13.69,2.713a76.966,76.966,0,0,0,6.937,24.35c4.481-1.513,8.87-3.146,13.079-4.872a3.374,3.374,0,0,1,4.214,1.469,56.745,56.745,0,0,0,4.122,6.352,9.292,9.292,0,0,0,.666.866,3.363,3.363,0,0,1-.078,4.651c-3.144,3.179-6.258,6.549-9.463,10.248a77.126,77.126,0,0,0,19.886,15.652c2.656-3.739,5.249-7.629,7.726-11.595a3.37,3.37,0,0,1,4.227-1.294,60.474,60.474,0,0,0,8.385,3.052,3.37,3.37,0,0,1,2.429,3.766c-.653,4.166-1.2,8.732-1.648,13.881m15.65-23.356a52.2,52.2,0,0,1-10.709-1.118,51.289,51.289,0,1,1,10.709,1.118m-.259-96.351a45.047,45.047,0,1,0,9.326.973,45.368,45.368,0,0,0-9.326-.973M56.64,100.3h0Z" transform="translate(0 33.867)" fill="#12263f"/>
        <path id="Trazado_882122" data-name="Trazado 882122" d="M62.3,29.359,11.447,0V58.718Z" transform="translate(6.749 0)" fill="#12263f"/>
        <path id="Trazado_882123" data-name="Trazado 882123" d="M112.882,29.359,62.03,0V58.718Z" transform="translate(36.575 0)" fill="#12263f"/>
        <path id="Trazado_882124" data-name="Trazado 882124" d="M163.466,29.359,112.613,0V58.718Z" transform="translate(66.4 0)" fill="#12263f"/>
        <path id="Trazado_882125" data-name="Trazado 882125" d="M214.049,29.359,163.2,0V58.718Z" transform="translate(96.226 0)" fill="#12263f"/>
      </g>
    </g>
    <g id="Enmascarar_grupo_1101754" data-name="Enmascarar grupo 1101754" transform="translate(1602.279 15833.149) rotate(180)" clip-path="url(#clip-path-3)">
      <g id="Enmascarar_grupo_1101753" data-name="Enmascarar grupo 1101753" transform="translate(-78.226 11887.012)" clip-path="url(#clip-path-2)">
        <g transform="matrix(-1, 0, 0, -1, 1546.73, 1814.14)" filter="url(#Trazado_882127)">
          <path id="Trazado_882127-2" data-name="Trazado 882127" d="M91.021,312.582c.642.984,1.294,1.924,1.946,2.863q-9.345,8.78-18.053,18.355a107.811,107.811,0,0,0,50.531,35.956c4.123-7.509,7.948-15.243,11.458-23.112a81.533,81.533,0,0,0,18.874,3.225q1.054,12.852,3.106,25.661a115.825,115.825,0,0,0,31.071-4.173A115.724,115.724,0,0,0,218.511,358.4q-5-11.927-10.949-23.385a81.168,81.168,0,0,0,14.327-12.734c7.117,4.8,14.474,9.323,22.008,13.544a108.28,108.28,0,0,0,23.741-57.271c-8.32-2.343-16.661-4.367-25.057-6.015a84.591,84.591,0,0,0-1.07-19.177c8.18-2.574,16.3-5.484,24.226-8.73a108.617,108.617,0,0,0-29.888-54.3c-7.04,5.015-13.847,10.334-20.374,15.849a80.446,80.446,0,0,0-15.61-11.123q4.659-12.032,8.263-24.4a104.679,104.679,0,0,0-29.753-9.66,102.824,102.824,0,0,0-31.3-.761q-.689,12.969-.3,25.728a79.834,79.834,0,0,0-18.443,5.332q-6.462-11.028-13.943-21.7l-3.566,1.685c-1.16.606-2.284,1.264-3.41,1.923-2.249,1.318-4.534,2.582-6.732,3.979-4.232,3.106-8.6,6-12.369,9.636a105.945,105.945,0,0,0-11.029,11.223c-1.683,2.011-3.209,4.146-4.8,6.246a60.293,60.293,0,0,0-4.335,6.548q9.724,8.613,19.967,16.281l.016.027a79.427,79.427,0,0,0-7.363,17.707c-8.462-1.226-16.971-2.116-25.625-2.647a107.248,107.248,0,0,0,3.4,61.888q12.678-2.194,25.191-5.454a79.4,79.4,0,0,0,7.285,13.943M125.9,214.692a62.9,62.9,0,1,1-18.26,87.034,62.973,62.973,0,0,1,18.26-87.034" transform="translate(1516 1720.16) rotate(180)" fill="#265e92"/>
        </g>
        <path id="Trazado_882128" data-name="Trazado 882128" d="M98.24,270.436a47.019,47.019,0,1,1,65.073,13.676A47.059,47.059,0,0,1,98.24,270.436" transform="translate(53.423 116.588)" fill="#fbfbf9"/>
        <path id="Trazado_882129" data-name="Trazado 882129" d="M139.76,170.717l-9.689,6.328A69.625,69.625,0,0,0,141.723,190.5a72.517,72.517,0,0,0,7.026,5.545c1.232.82,2.524,1.575,3.8,2.341l1.911,1.151,2.009.982,5.157-10.306a55.983,55.983,0,0,0,19.823,5.672l-1.1,11.5a65.345,65.345,0,0,0,8.921.234,68.781,68.781,0,0,0,8.889-.881,67.929,67.929,0,0,0,17.015-5.338L210.33,190.95a56.06,56.06,0,0,0,7.115-3.95,54.037,54.037,0,0,0,9.668-8.018l8.315,8.031,3.012-3.284c1-1.116,1.838-2.359,2.74-3.542a65.7,65.7,0,0,0,4.85-7.5,68.13,68.13,0,0,0,6.432-16.605l-11.2-2.739a56.341,56.341,0,0,0,1.164-20.567l11.4-1.491a67.187,67.187,0,0,0-13.534-32.6l-9.132,7.023a56.136,56.136,0,0,0-15.386-13.727l5.937-9.862a68.419,68.419,0,0,0-33.905-9.779l-.2,11.579A54.923,54.923,0,0,0,167.3,87.406l-4.011-10.841A68.945,68.945,0,0,0,134.465,96.99l8.954,7.355a56.084,56.084,0,0,0-9.954,18.08l-10.973-3.612a67.987,67.987,0,0,0-3.278,17.484,73.519,73.519,0,0,0,.048,8.918c.124,1.493.343,2.974.533,4.449l.3,2.2c.126.744.316,1.47.477,2.191l11.282-2.391a55.471,55.471,0,0,0,7.905,19.052m31.33-54.609a28.219,28.219,0,1,1-8.195,39.057,28.2,28.2,0,0,1,8.195-39.057" transform="translate(70.216 42.651)" fill="#9ebdd2"/>
        <path id="Trazado_882130" data-name="Trazado 882130" d="M82.938,223.838a83.208,83.208,0,0,1-19.869-2.394,3.363,3.363,0,0,1-2.551-3.529c.416-5.328.916-10.07,1.521-14.407q-1.881-.622-3.785-1.381c-2.621,4.093-5.359,8.094-8.156,11.925a3.363,3.363,0,0,1-4.222,1.025,83.673,83.673,0,0,1-26.442-20.813,3.37,3.37,0,0,1,.01-4.346c3.292-3.882,6.468-7.414,9.655-10.732q-1.152-1.612-2.245-3.378c-4.4,1.734-8.964,3.365-13.6,4.864a3.36,3.36,0,0,1-4.017-1.642A83.511,83.511,0,0,1,.008,146.655a3.369,3.369,0,0,1,2.561-3.518c4.785-1.168,9.538-2.175,14.168-3,.013-1.35.065-2.695.153-4.025-4.674-1.213-9.344-2.585-13.917-4.087a3.36,3.36,0,0,1-2.28-3.7,83.957,83.957,0,0,1,11.646-31.58A3.37,3.37,0,0,1,16.47,95.4c4.481,1.825,8.918,3.8,13.219,5.883.8-1.089,1.623-2.143,2.483-3.171-2.974-3.629-5.92-7.473-8.784-11.456a3.369,3.369,0,0,1,.339-4.33,83.806,83.806,0,0,1,27.9-18.7,3.369,3.369,0,0,1,4.122,1.342c2.5,4.007,4.933,8.2,7.274,12.487q1.929-.613,3.85-1.1c-.272-4.739-.4-9.6-.377-14.474a3.373,3.373,0,0,1,2.807-3.306,83.207,83.207,0,0,1,33.619,1.262,3.373,3.373,0,0,1,2.548,3.531c-.421,5.341-.922,10.085-1.526,14.405q1.881.622,3.783,1.381c2.623-4.095,5.359-8.094,8.156-11.925a3.37,3.37,0,0,1,4.219-1.027A83.41,83.41,0,0,1,146.55,87.028a3.366,3.366,0,0,1-.008,4.343c-3.224,3.8-6.46,7.4-9.657,10.728.763,1.07,1.509,2.186,2.246,3.361,4.666-1.827,9.229-3.465,13.6-4.88a3.366,3.366,0,0,1,4.02,1.64,83.511,83.511,0,0,1,9.221,32.413,3.368,3.368,0,0,1-2.556,3.518c-4.551,1.113-9.306,2.117-14.164,2.992-.013,1.351-.062,2.694-.157,4.041,4.805,1.257,9.466,2.617,13.895,4.057a3.375,3.375,0,0,1,2.289,3.7,83.8,83.8,0,0,1-11.638,31.605,3.374,3.374,0,0,1-4.13,1.337c-4.473-1.822-8.91-3.8-13.221-5.882q-1.19,1.614-2.473,3.159c3.135,3.839,6.091,7.691,8.81,11.48a3.366,3.366,0,0,1-.347,4.335,84.3,84.3,0,0,1-27.919,18.71,3.372,3.372,0,0,1-4.149-1.351c-2.569-4.178-5-8.371-7.23-12.5q-1.922.61-3.877,1.1c.267,4.659.4,9.5.4,14.442a3.37,3.37,0,0,1-2.806,3.319,82.573,82.573,0,0,1-13.765,1.146m-15.466-8.3a76.928,76.928,0,0,0,25.288.936c-.052-4.794-.237-9.476-.553-13.952a3.367,3.367,0,0,1,2.688-3.537,59.013,59.013,0,0,0,8.555-2.421,3.365,3.365,0,0,1,4.139,1.594c2.1,4,4.4,8.075,6.85,12.158a77.355,77.355,0,0,0,21.012-14.089c-2.679-3.631-5.576-7.309-8.629-10.965a3.363,3.363,0,0,1,.1-4.429,58.655,58.655,0,0,0,5.468-6.993,3.36,3.36,0,0,1,4.311-1.148c4.117,2.063,8.374,4.023,12.69,5.848a77.183,77.183,0,0,0,8.753-23.773c-4.311-1.34-8.832-2.6-13.467-3.761a3.364,3.364,0,0,1-2.529-3.639,60.965,60.965,0,0,0,.337-8.932,3.372,3.372,0,0,1,2.81-3.438c4.683-.787,9.283-1.7,13.7-2.717a76.831,76.831,0,0,0-6.934-24.383c-4.227,1.435-8.616,3.07-13.089,4.877a3.371,3.371,0,0,1-4.182-1.447,61.068,61.068,0,0,0-4.144-6.351c-.267-.356-.536-.688-.793-1a3.369,3.369,0,0,1,.2-4.513c3.113-3.149,6.287-6.587,9.461-10.247a76.744,76.744,0,0,0-19.885-15.656c-2.658,3.74-5.249,7.632-7.727,11.6a3.347,3.347,0,0,1-4.227,1.292A60.081,60.081,0,0,0,99.293,83.4a3.37,3.37,0,0,1-2.429-3.767c.653-4.15,1.192-8.718,1.648-13.889A76.624,76.624,0,0,0,73.238,64.8c.035,4.729.219,9.412.539,13.963A3.365,3.365,0,0,1,71.089,82.3a59.311,59.311,0,0,0-8.516,2.427,3.362,3.362,0,0,1-4.13-1.582c-2.214-4.16-4.526-8.239-6.9-12.158A77.2,77.2,0,0,0,30.563,85.068c2.82,3.823,5.71,7.493,8.613,10.935a3.367,3.367,0,0,1-.1,4.451,56.488,56.488,0,0,0-5.476,7,3.371,3.371,0,0,1-4.314,1.145c-4.114-2.062-8.368-4.023-12.69-5.848a77.492,77.492,0,0,0-8.767,23.763c4.446,1.394,8.964,2.659,13.471,3.769a3.359,3.359,0,0,1,2.54,3.637,63.565,63.565,0,0,0-.339,8.95A3.374,3.374,0,0,1,20.68,146.3c-4.451.73-9.042,1.639-13.69,2.713a76.966,76.966,0,0,0,6.937,24.35c4.481-1.513,8.87-3.146,13.079-4.872a3.374,3.374,0,0,1,4.214,1.469,56.743,56.743,0,0,0,4.122,6.352,9.29,9.29,0,0,0,.666.866,3.363,3.363,0,0,1-.078,4.651c-3.144,3.179-6.258,6.549-9.463,10.248a77.126,77.126,0,0,0,19.886,15.651c2.656-3.739,5.249-7.629,7.726-11.595a3.37,3.37,0,0,1,4.227-1.294,60.474,60.474,0,0,0,8.385,3.052,3.37,3.37,0,0,1,2.429,3.766c-.653,4.166-1.2,8.732-1.648,13.881m15.65-23.356a52.2,52.2,0,0,1-10.709-1.118,51.289,51.289,0,1,1,10.709,1.118m-.259-96.351a45.047,45.047,0,1,0,9.326.973,45.368,45.368,0,0,0-9.326-.973M56.64,100.3h0Z" transform="translate(0 33.867)" fill="#12263f"/>
        <path id="Trazado_882131" data-name="Trazado 882131" d="M62.3,29.359,11.447,0V58.718Z" transform="translate(6.749 0)" fill="#12263f"/>
        <path id="Trazado_882132" data-name="Trazado 882132" d="M112.882,29.359,62.03,0V58.718Z" transform="translate(36.575 0)" fill="#12263f"/>
        <path id="Trazado_882133" data-name="Trazado 882133" d="M163.466,29.359,112.613,0V58.718Z" transform="translate(66.4 0)" fill="#12263f"/>
        <path id="Trazado_882134" data-name="Trazado 882134" d="M214.049,29.359,163.2,0V58.718Z" transform="translate(96.226 0)" fill="#12263f"/>
      </g>
    </g>
    <g id="Grupo_1110191" data-name="Grupo 1110191" transform="translate(1435.762 4460.49)">
      <g id="Enmascarar_grupo_1101651" data-name="Enmascarar grupo 1101651" transform="translate(-129.28 66.383)" clip-path="url(#clip-path-5)">
        <g id="Enmascarar_grupo_1101601" data-name="Enmascarar grupo 1101601" transform="translate(93.981 -48.318)" clip-path="url(#clip-path-6)">
          <path id="Trazado_874364" data-name="Trazado 874364" d="M147.161,205.93,134,214.523c4.613,6.582,9.636,13.036,15.822,18.275,2.918,2.858,6.329,5.077,9.541,7.529,1.673,1.114,3.428,2.139,5.159,3.18l2.595,1.563,2.729,1.334,7-13.994a76.02,76.02,0,0,0,26.918,7.7l-1.5,15.615a88.731,88.731,0,0,0,12.114.317,93.4,93.4,0,0,0,12.071-1.2,92.24,92.24,0,0,0,23.106-7.249L242.989,233.4a76.122,76.122,0,0,0,9.662-5.364,73.378,73.378,0,0,0,13.129-10.888l11.292,10.905,4.091-4.46c1.358-1.515,2.5-3.2,3.721-4.809a89.206,89.206,0,0,0,6.586-10.186,92.516,92.516,0,0,0,8.734-22.549l-15.212-3.719a76.507,76.507,0,0,0,1.58-27.928l15.486-2.025a91.234,91.234,0,0,0-18.378-44.273l-12.4,9.537a76.228,76.228,0,0,0-20.893-18.639l8.062-13.392c-13.785-8.5-29.912-12.82-46.041-13.28l-.27,15.723a74.581,74.581,0,0,0-27.58,4.742L179.11,78.079a93.622,93.622,0,0,0-39.14,27.736L152.13,115.8a76.157,76.157,0,0,0-13.517,24.552l-14.9-4.9a92.32,92.32,0,0,0-4.451,23.742,99.836,99.836,0,0,0,.065,12.11c.168,2.027.466,4.039.723,6.042l.41,2.987c.171,1.01.43,2,.648,2.975l15.319-3.247a75.325,75.325,0,0,0,10.735,25.871M189.7,131.776a38.32,38.32,0,1,1-11.128,53.037A38.288,38.288,0,0,1,189.7,131.776" transform="translate(-127.332 277.607)" fill="#9ebdd2"/>
          <path id="Trazado_874365" data-name="Trazado 874365" d="M112.623,283.4a112.991,112.991,0,0,1-26.98-3.251,4.567,4.567,0,0,1-3.465-4.792c.566-7.236,1.243-13.675,2.066-19.563q-2.555-.845-5.14-1.876c-3.56,5.558-7.277,10.992-11.076,16.194A4.567,4.567,0,0,1,62.3,271.5a113.622,113.622,0,0,1-35.906-28.262,4.577,4.577,0,0,1,.013-5.9c4.47-5.271,8.783-10.068,13.111-14.573q-1.564-2.189-3.048-4.587c-5.979,2.355-12.172,4.57-18.471,6.605a4.563,4.563,0,0,1-5.455-2.23A113.4,113.4,0,0,1,.011,178.587a4.575,4.575,0,0,1,3.477-4.777c6.5-1.587,12.952-2.953,19.24-4.075.017-1.833.089-3.659.207-5.466-6.346-1.647-12.688-3.51-18.9-5.55a4.562,4.562,0,0,1-3.1-5.027A114.006,114.006,0,0,1,16.756,110.81a4.576,4.576,0,0,1,5.61-1.818c6.085,2.478,12.11,5.159,17.951,7.989,1.084-1.479,2.2-2.91,3.372-4.306-4.039-4.928-8.039-10.148-11.928-15.557a4.575,4.575,0,0,1,.46-5.88A113.8,113.8,0,0,1,70.107,65.848a4.575,4.575,0,0,1,5.6,1.822c3.389,5.442,6.7,11.13,9.878,16.956q2.619-.832,5.228-1.492c-.369-6.435-.542-13.029-.512-19.654a4.58,4.58,0,0,1,3.812-4.49A112.989,112.989,0,0,1,139.763,60.7a4.58,4.58,0,0,1,3.46,4.794c-.572,7.253-1.252,13.694-2.072,19.561q2.555.845,5.137,1.876c3.562-5.561,7.277-10.992,11.076-16.194a4.576,4.576,0,0,1,5.729-1.394A113.264,113.264,0,0,1,199,97.618a4.571,4.571,0,0,1-.011,5.9c-4.378,5.163-8.772,10.05-13.113,14.568,1.036,1.453,2.048,2.968,3.05,4.563,6.335-2.48,12.533-4.706,18.471-6.627a4.571,4.571,0,0,1,5.459,2.228,113.4,113.4,0,0,1,12.522,44.014,4.574,4.574,0,0,1-3.471,4.777c-6.18,1.511-12.636,2.875-19.233,4.062-.017,1.835-.084,3.659-.214,5.487,6.525,1.707,12.854,3.553,18.868,5.509a4.582,4.582,0,0,1,3.108,5.025,113.8,113.8,0,0,1-15.8,42.917,4.582,4.582,0,0,1-5.608,1.815c-6.074-2.474-12.1-5.157-17.953-7.987q-1.616,2.192-3.359,4.289c4.257,5.213,8.272,10.443,11.963,15.589a4.571,4.571,0,0,1-.471,5.886A114.476,114.476,0,0,1,155.3,275.039a4.579,4.579,0,0,1-5.634-1.835c-3.488-5.673-6.787-11.367-9.817-16.973q-2.61.829-5.265,1.489c.363,6.327.548,12.906.542,19.611a4.576,4.576,0,0,1-3.81,4.507,112.13,112.13,0,0,1-18.691,1.556m-21-11.274a104.462,104.462,0,0,0,34.339,1.271c-.071-6.51-.322-12.867-.751-18.946a4.572,4.572,0,0,1,3.65-4.8,80.138,80.138,0,0,0,11.618-3.287,4.569,4.569,0,0,1,5.621,2.165c2.851,5.429,5.973,10.966,9.3,16.509A105.041,105.041,0,0,0,183.932,245.9c-3.637-4.93-7.572-9.925-11.717-14.89a4.566,4.566,0,0,1,.13-6.014,79.653,79.653,0,0,0,7.426-9.5,4.563,4.563,0,0,1,5.854-1.559c5.591,2.8,11.371,5.463,17.232,7.941A104.809,104.809,0,0,0,214.741,189.6c-5.854-1.82-11.993-3.531-18.288-5.107a4.569,4.569,0,0,1-3.434-4.941,82.783,82.783,0,0,0,.458-12.129,4.579,4.579,0,0,1,3.816-4.669c6.359-1.069,12.606-2.307,18.609-3.689a104.33,104.33,0,0,0-9.416-33.111c-5.74,1.949-11.7,4.168-17.774,6.623a4.578,4.578,0,0,1-5.679-1.964,82.924,82.924,0,0,0-5.627-8.624c-.363-.484-.727-.935-1.077-1.358a4.575,4.575,0,0,1,.274-6.128c4.227-4.276,8.537-8.945,12.848-13.914a104.212,104.212,0,0,0-27-21.26c-3.609,5.079-7.128,10.363-10.493,15.749a4.545,4.545,0,0,1-5.74,1.755,81.586,81.586,0,0,0-11.384-4.138,4.576,4.576,0,0,1-3.3-5.116c.887-5.636,1.619-11.838,2.238-18.86a104.05,104.05,0,0,0-34.322-1.278c.047,6.422.3,12.781.732,18.961a4.57,4.57,0,0,1-3.65,4.8,80.54,80.54,0,0,0-11.564,3.3,4.565,4.565,0,0,1-5.608-2.148c-3.007-5.649-6.146-11.188-9.373-16.509A104.833,104.833,0,0,0,41.5,94.957c3.829,5.191,7.754,10.176,11.7,14.849a4.573,4.573,0,0,1-.132,6.044,76.707,76.707,0,0,0-7.436,9.5,4.577,4.577,0,0,1-5.858,1.554c-5.586-2.8-11.363-5.463-17.232-7.941a105.228,105.228,0,0,0-11.9,32.269c6.038,1.893,12.172,3.611,18.292,5.118a4.562,4.562,0,0,1,3.449,4.939,86.316,86.316,0,0,0-.46,12.153,4.582,4.582,0,0,1-3.834,4.654c-6.044.991-12.278,2.225-18.59,3.685a104.513,104.513,0,0,0,9.42,33.065c6.085-2.055,12.045-4.272,17.761-6.616a4.582,4.582,0,0,1,5.722,1.994,77.05,77.05,0,0,0,5.6,8.626,12.618,12.618,0,0,0,.9,1.176,4.566,4.566,0,0,1-.106,6.316c-4.27,4.317-8.5,8.893-12.85,13.916a104.731,104.731,0,0,0,27,21.253c3.607-5.077,7.128-10.359,10.491-15.745a4.577,4.577,0,0,1,5.74-1.757,82.117,82.117,0,0,0,11.387,4.145,4.577,4.577,0,0,1,3.3,5.114c-.887,5.658-1.625,11.857-2.238,18.849M112.873,240.4a70.883,70.883,0,0,1-14.542-1.518,69.646,69.646,0,1,1,14.542,1.518m-.352-130.836a61.17,61.17,0,1,0,12.664,1.321,61.607,61.607,0,0,0-12.664-1.321m-35.608,6.068h0Z" transform="translate(-0.001 66.547)" fill="#1d476d"/>
          <path id="Trazado_874368" data-name="Trazado 874368" d="M181.667,39.867,112.613,0V79.734Z" transform="translate(130.473 0)" fill="#12263f"/>
          <path id="Trazado_874369" data-name="Trazado 874369" d="M232.25,39.867,163.2,0V79.734Z" transform="translate(189.078 0)" fill="#12263f"/>
        </g>
      </g>
    </g>
    <g id="Grupo_1110193" data-name="Grupo 1110193" transform="translate(155.72 3544.312) rotate(180)">
      <g id="Enmascarar_grupo_1101651-2" data-name="Enmascarar grupo 1101651" transform="translate(-129.28 66.383)" clip-path="url(#clip-path-7)">
        <g id="Enmascarar_grupo_1101601-2" data-name="Enmascarar grupo 1101601" transform="translate(89.111 -45.814)" clip-path="url(#clip-path-8)">
          <path id="Trazado_874364-2" data-name="Trazado 874364" d="M145.706,199.007l-12.475,8.148c4.374,6.241,9.137,12.36,15,17.328,2.767,2.71,6,4.814,9.047,7.139,1.586,1.056,3.25,2.028,4.892,3.015l2.46,1.482,2.587,1.265,6.64-13.269a72.08,72.08,0,0,0,25.523,7.3l-1.418,14.806a84.135,84.135,0,0,0,11.486.3,88.558,88.558,0,0,0,11.445-1.134,87.46,87.46,0,0,0,21.908-6.873l-6.234-13.459a72.179,72.179,0,0,0,9.161-5.086,69.575,69.575,0,0,0,12.448-10.324l10.706,10.34,3.879-4.229c1.287-1.437,2.366-3.037,3.528-4.56a84.58,84.58,0,0,0,6.245-9.659,87.721,87.721,0,0,0,8.281-21.38l-14.423-3.526a72.542,72.542,0,0,0,1.5-26.481l14.683-1.92a86.506,86.506,0,0,0-17.426-41.978L263.39,115.3a72.278,72.278,0,0,0-19.81-17.674l7.645-12.7A88.093,88.093,0,0,0,207.57,72.335l-.256,14.908a70.716,70.716,0,0,0-26.151,4.5L176,77.781a88.77,88.77,0,0,0-37.111,26.3l11.529,9.47A72.21,72.21,0,0,0,137.6,136.83l-14.129-4.65a87.536,87.536,0,0,0-4.22,22.512,94.661,94.661,0,0,0,.061,11.482c.16,1.922.442,3.829.686,5.729l.389,2.833c.162.958.407,1.893.614,2.82l14.526-3.078a71.422,71.422,0,0,0,10.178,24.53M186.045,128.7a36.334,36.334,0,1,1-10.551,50.288A36.3,36.3,0,0,1,186.045,128.7" transform="translate(-126.905 259.472)" fill="#9ebdd2"/>
          <path id="Trazado_874365-2" data-name="Trazado 874365" d="M106.787,271.686A107.137,107.137,0,0,1,81.2,268.6a4.33,4.33,0,0,1-3.285-4.544c.536-6.861,1.179-12.966,1.959-18.549q-2.422-.8-4.873-1.779c-3.375,5.27-6.9,10.422-10.5,15.355a4.331,4.331,0,0,1-5.436,1.32,107.734,107.734,0,0,1-34.045-26.8,4.34,4.34,0,0,1,.012-5.6c4.239-5,8.328-9.546,12.432-13.817q-1.483-2.075-2.89-4.349c-5.669,2.233-11.542,4.333-17.514,6.263a4.326,4.326,0,0,1-5.172-2.114A107.524,107.524,0,0,1,.011,172.309a4.338,4.338,0,0,1,3.3-4.529c6.161-1.5,12.28-2.8,18.242-3.864.016-1.738.084-3.469.2-5.182-6.017-1.562-12.031-3.328-17.919-5.262A4.326,4.326,0,0,1,.893,148.7a108.1,108.1,0,0,1,14.994-40.66,4.339,4.339,0,0,1,5.319-1.723c5.77,2.35,11.482,4.892,17.021,7.575,1.027-1.4,2.09-2.759,3.2-4.083-3.829-4.673-7.622-9.622-11.31-14.751a4.338,4.338,0,0,1,.436-5.575A107.9,107.9,0,0,1,66.474,65.412a4.338,4.338,0,0,1,5.307,1.727c3.213,5.16,6.351,10.553,9.366,16.077q2.484-.789,4.957-1.414c-.35-6.1-.514-12.354-.485-18.635a4.343,4.343,0,0,1,3.615-4.257,107.134,107.134,0,0,1,43.286,1.625,4.342,4.342,0,0,1,3.281,4.546c-.542,6.877-1.187,12.984-1.965,18.547q2.422.8,4.871,1.779c3.377-5.272,6.9-10.422,10.5-15.355a4.339,4.339,0,0,1,5.432-1.322,107.394,107.394,0,0,1,34.049,26.806,4.334,4.334,0,0,1-.01,5.592c-4.151,4.9-8.318,9.53-12.434,13.813.982,1.377,1.942,2.814,2.892,4.327,6.007-2.352,11.883-4.462,17.514-6.283a4.334,4.334,0,0,1,5.176,2.112A107.525,107.525,0,0,1,213.7,156.83a4.337,4.337,0,0,1-3.291,4.529c-5.86,1.433-11.982,2.726-18.236,3.852-.016,1.74-.08,3.469-.2,5.2,6.187,1.619,12.188,3.369,17.89,5.223a4.345,4.345,0,0,1,2.947,4.765,107.9,107.9,0,0,1-14.984,40.693,4.345,4.345,0,0,1-5.317,1.721c-5.76-2.346-11.472-4.89-17.023-7.573q-1.532,2.078-3.185,4.067c4.036,4.943,7.843,9.9,11.343,14.781a4.334,4.334,0,0,1-.446,5.581,108.543,108.543,0,0,1-35.947,24.09,4.342,4.342,0,0,1-5.342-1.74c-3.308-5.379-6.435-10.778-9.309-16.093q-2.474.786-4.992,1.412c.344,6,.52,12.237.514,18.595a4.338,4.338,0,0,1-3.612,4.274,106.317,106.317,0,0,1-17.723,1.476M86.874,261a99.048,99.048,0,0,0,32.559,1.206c-.068-6.173-.3-12.2-.712-17.964a4.335,4.335,0,0,1,3.461-4.554,75.985,75.985,0,0,0,11.015-3.117,4.332,4.332,0,0,1,5.33,2.053c2.7,5.148,5.663,10.4,8.819,15.653a99.6,99.6,0,0,0,27.054-18.14c-3.449-4.675-7.18-9.411-11.11-14.118a4.33,4.33,0,0,1,.123-5.7,75.528,75.528,0,0,0,7.041-9A4.326,4.326,0,0,1,176,205.83c5.3,2.657,10.782,5.18,16.339,7.53a99.378,99.378,0,0,0,11.269-30.609c-5.551-1.725-11.372-3.348-17.34-4.843a4.332,4.332,0,0,1-3.256-4.685,78.493,78.493,0,0,0,.434-11.5,4.342,4.342,0,0,1,3.619-4.427c6.03-1.013,11.953-2.188,17.645-3.5a98.923,98.923,0,0,0-8.928-31.395c-5.442,1.848-11.093,3.952-16.853,6.279a4.341,4.341,0,0,1-5.385-1.862,78.627,78.627,0,0,0-5.336-8.177c-.344-.459-.69-.886-1.021-1.287a4.338,4.338,0,0,1,.26-5.811c4.008-4.055,8.095-8.482,12.182-13.193a98.812,98.812,0,0,0-25.6-20.158c-3.422,4.816-6.758,9.826-9.949,14.933a4.309,4.309,0,0,1-5.442,1.664,77.358,77.358,0,0,0-10.794-3.924,4.339,4.339,0,0,1-3.127-4.851c.841-5.344,1.535-11.224,2.122-17.882A98.657,98.657,0,0,0,94.3,66.923c.045,6.089.282,12.119.694,17.979a4.333,4.333,0,0,1-3.461,4.554,76.366,76.366,0,0,0-10.964,3.125,4.329,4.329,0,0,1-5.317-2.037c-2.851-5.356-5.827-10.608-8.887-15.653A99.4,99.4,0,0,0,39.351,93.013c3.631,4.922,7.352,9.648,11.089,14.079a4.336,4.336,0,0,1-.125,5.731,72.732,72.732,0,0,0-7.051,9.012,4.34,4.34,0,0,1-5.555,1.474c-5.3-2.655-10.774-5.18-16.339-7.53a99.775,99.775,0,0,0-11.288,30.6c5.725,1.8,11.542,3.424,17.344,4.853a4.325,4.325,0,0,1,3.271,4.683,81.843,81.843,0,0,0-.436,11.523,4.344,4.344,0,0,1-3.635,4.413c-5.731.939-11.642,2.11-17.626,3.494a99.1,99.1,0,0,0,8.932,31.352c5.77-1.949,11.421-4.05,16.84-6.273A4.345,4.345,0,0,1,40.2,202.31a73.058,73.058,0,0,0,5.307,8.179,11.961,11.961,0,0,0,.858,1.116,4.329,4.329,0,0,1-.1,5.989c-4.048,4.093-8.058,8.433-12.184,13.2a99.3,99.3,0,0,0,25.6,20.152c3.42-4.814,6.758-9.822,9.947-14.929a4.339,4.339,0,0,1,5.442-1.666,77.861,77.861,0,0,0,10.8,3.93A4.34,4.34,0,0,1,89,243.124c-.841,5.364-1.541,11.243-2.122,17.872m20.15-30.073a67.21,67.21,0,0,1-13.789-1.439,66.037,66.037,0,1,1,13.789,1.439m-.334-124.056A58,58,0,1,0,118.7,108.12a58.415,58.415,0,0,0-12.008-1.253M72.928,112.62h0Z" transform="translate(-0.001 60.122)" fill="#1d476d"/>
          <path id="Trazado_874368-2" data-name="Trazado 874368" d="M178.088,37.8,112.613,0V75.6Z" transform="translate(117.876 0)" fill="#12263f"/>
          <path id="Trazado_874369-2" data-name="Trazado 874369" d="M228.671,37.8,163.2,0V75.6Z" transform="translate(170.823 0)" fill="#12263f"/>
        </g>
      </g>
    </g>
    <rect id="Rectángulo_405026" data-name="Rectángulo 405026" width="1329" height="2998" transform="translate(134 2132)" fill="none"/>
  </g>
</svg>
