<svg xmlns="http://www.w3.org/2000/svg" width="1030.229" height="430.105" viewBox="0 0 1030.229 430.105">
  <g id="Grupo_1111242" data-name="Grupo 1111242" transform="translate(-305 -2194.289)">
    <g id="Grupo_1111241" data-name="Grupo 1111241">
      <g id="Grupo_1111240" data-name="Grupo 1111240">
        <g id="Grupo_1111239" data-name="Grupo 1111239">
          <g id="Grupo_1111238" data-name="Grupo 1111238">
            <g id="Grupo_1111237" data-name="Grupo 1111237">
              <path id="Trazado_881535" data-name="Trazado 881535" d="M0,0H1030V49H0Z" transform="translate(305 2194.289)" fill="#e69999"/>
              <g id="Trazado_877956" data-name="Trazado 877956" transform="translate(305 2194.289)" fill="none">
                <path d="M0,0H1030V430.105H0Z" stroke="none"/>
                <path d="M 1 0.999969482421875 L 1 429.1054992675781 L 1029 429.1054992675781 L 1029 0.999969482421875 L 1 0.999969482421875 M 0 -3.0517578125e-05 L 1030 -3.0517578125e-05 L 1030 430.1054992675781 L 0 430.1054992675781 L 0 -3.0517578125e-05 Z" stroke="none" fill="#e9e9e9"/>
              </g>
              <path id="Trazado_883536" data-name="Trazado 883536" d="M14.684-13.887H9.563V0H5.449V-13.887H.422v-3.176H14.684ZM21.41,0a4.459,4.459,0,0,1-.375-1.137A3.672,3.672,0,0,1,17.988.234,4.5,4.5,0,0,1,14.941-.85a3.45,3.45,0,0,1-1.254-2.725,3.546,3.546,0,0,1,1.523-3.117,7.761,7.761,0,0,1,4.43-1.055h1.219v-.671q0-1.755-1.512-1.755a1.236,1.236,0,0,0-1.406,1.39H13.992a3.54,3.54,0,0,1,1.564-2.985,6.575,6.575,0,0,1,3.99-1.147,5.764,5.764,0,0,1,3.832,1.184A4.115,4.115,0,0,1,24.82-8.484v5.613A5.748,5.748,0,0,0,25.359-.2V0ZM18.938-2.578a2.2,2.2,0,0,0,1.225-.316,1.983,1.983,0,0,0,.7-.715V-5.637H19.711q-2.062,0-2.062,1.852a1.131,1.131,0,0,0,.363.873A1.315,1.315,0,0,0,18.938-2.578ZM34.676-9.105l-1.3-.094a2.336,2.336,0,0,0-2.391,1.172V0H27.035V-12.68h3.7l.129,1.629a3.058,3.058,0,0,1,2.777-1.863,3.851,3.851,0,0,1,1.1.141Zm5.672-3.574V.434A4.6,4.6,0,0,1,39.059,3.9,4.952,4.952,0,0,1,35.5,5.121a8.411,8.411,0,0,1-1.863-.2V1.934a7.556,7.556,0,0,0,1.113.105A1.445,1.445,0,0,0,36.387.41V-12.68Zm-4.254-3.27a1.763,1.763,0,0,1,.609-1.383,2.3,2.3,0,0,1,1.582-.539,2.3,2.3,0,0,1,1.582.539,1.763,1.763,0,0,1,.609,1.383,1.763,1.763,0,0,1-.609,1.383,2.3,2.3,0,0,1-1.582.539,2.3,2.3,0,0,1-1.582-.539A1.763,1.763,0,0,1,36.094-15.949ZM48.715.234a6.518,6.518,0,0,1-4.723-1.74,6.009,6.009,0,0,1-1.8-4.529v-.328A7.787,7.787,0,0,1,42.908-9.8a5.274,5.274,0,0,1,2.1-2.3,6.35,6.35,0,0,1,3.281-.814,5.489,5.489,0,0,1,4.219,1.658,6.516,6.516,0,0,1,1.547,4.623V-5.1H46.207a2.846,2.846,0,0,0,.926,1.676,2.755,2.755,0,0,0,1.852.609,3.549,3.549,0,0,0,2.93-1.312l1.8,2.133A5.045,5.045,0,0,1,51.627-.369,7.069,7.069,0,0,1,48.715.234Zm-.445-10.1q-1.734,0-2.062,2.3h3.984v-.3a1.956,1.956,0,0,0-.48-1.471A1.912,1.912,0,0,0,48.27-9.867Zm11.977-5.965v3.152h2.086v2.742H60.246v5.8a1.481,1.481,0,0,0,.258,1,1.383,1.383,0,0,0,1.02.281,5.793,5.793,0,0,0,.984-.07V-.105a7.288,7.288,0,0,1-2.227.34A4.137,4.137,0,0,1,57.27-.727,3.939,3.939,0,0,1,56.3-3.645V-9.937H54.68V-12.68H56.3v-3.152ZM71.027,0a4.459,4.459,0,0,1-.375-1.137A3.672,3.672,0,0,1,67.605.234,4.5,4.5,0,0,1,64.559-.85,3.45,3.45,0,0,1,63.3-3.574a3.546,3.546,0,0,1,1.523-3.117,7.761,7.761,0,0,1,4.43-1.055h1.219v-.671q0-1.755-1.512-1.755a1.236,1.236,0,0,0-1.406,1.39H63.609a3.54,3.54,0,0,1,1.564-2.985,6.575,6.575,0,0,1,3.99-1.147A5.764,5.764,0,0,1,73-11.73a4.115,4.115,0,0,1,1.441,3.246v5.613A5.748,5.748,0,0,0,74.977-.2V0ZM68.555-2.578a2.2,2.2,0,0,0,1.225-.316,1.983,1.983,0,0,0,.7-.715V-5.637H69.328q-2.062,0-2.062,1.852a1.131,1.131,0,0,0,.363.873A1.315,1.315,0,0,0,68.555-2.578ZM88.184-17.062,91.992-5.191l3.8-11.871H101.2V0H97.078V-3.984l.4-8.156L93.352,0H90.633L86.5-12.152l.4,8.168V0H82.781V-17.062ZM110.777,0a4.459,4.459,0,0,1-.375-1.137A3.672,3.672,0,0,1,107.355.234,4.5,4.5,0,0,1,104.309-.85a3.45,3.45,0,0,1-1.254-2.725,3.546,3.546,0,0,1,1.523-3.117,7.761,7.761,0,0,1,4.43-1.055h1.219v-.671q0-1.755-1.512-1.755a1.236,1.236,0,0,0-1.406,1.39h-3.949a3.54,3.54,0,0,1,1.564-2.985,6.575,6.575,0,0,1,3.99-1.147,5.764,5.764,0,0,1,3.832,1.184,4.115,4.115,0,0,1,1.441,3.246v5.613A5.748,5.748,0,0,0,114.727-.2V0ZM108.3-2.578a2.2,2.2,0,0,0,1.225-.316,1.983,1.983,0,0,0,.7-.715V-5.637h-1.148q-2.062,0-2.062,1.852a1.131,1.131,0,0,0,.363.873A1.315,1.315,0,0,0,108.3-2.578Zm14.2,2.813a6.518,6.518,0,0,1-4.723-1.74,6.009,6.009,0,0,1-1.8-4.529v-.328A7.787,7.787,0,0,1,116.7-9.8a5.274,5.274,0,0,1,2.1-2.3,6.35,6.35,0,0,1,3.281-.814,5.489,5.489,0,0,1,4.219,1.658,6.516,6.516,0,0,1,1.547,4.623V-5.1H120a2.846,2.846,0,0,0,.926,1.676,2.755,2.755,0,0,0,1.852.609,3.549,3.549,0,0,0,2.93-1.312l1.8,2.133A5.045,5.045,0,0,1,125.42-.369,7.069,7.069,0,0,1,122.508.234Zm-.445-10.1q-1.734,0-2.062,2.3h3.984v-.3a1.956,1.956,0,0,0-.48-1.471A1.912,1.912,0,0,0,122.063-9.867Zm14.016,6.3a.912.912,0,0,0-.527-.809,8.021,8.021,0,0,0-2-.633,9.138,9.138,0,0,1-2.437-.861,4.083,4.083,0,0,1-1.465-1.295,3.092,3.092,0,0,1-.5-1.746,3.5,3.5,0,0,1,1.441-2.877,5.938,5.938,0,0,1,3.773-1.131,6.579,6.579,0,0,1,4.031,1.137,3.555,3.555,0,0,1,1.523,2.988h-3.961q0-1.523-1.605-1.523a1.591,1.591,0,0,0-1.043.346,1.07,1.07,0,0,0-.422.861.982.982,0,0,0,.516.855,4.872,4.872,0,0,0,1.646.539,14.228,14.228,0,0,1,1.986.5q2.859.984,2.859,3.527a3.321,3.321,0,0,1-1.541,2.824,6.758,6.758,0,0,1-3.99,1.09,6.9,6.9,0,0,1-2.906-.586,4.86,4.86,0,0,1-1.992-1.594,3.609,3.609,0,0,1-.715-2.121h3.691a1.526,1.526,0,0,0,.586,1.283,2.41,2.41,0,0,0,1.441.4,1.9,1.9,0,0,0,1.213-.328A1.05,1.05,0,0,0,136.078-3.562Zm10.254-12.27v3.152h2.086v2.742h-2.086v5.8a1.481,1.481,0,0,0,.258,1,1.383,1.383,0,0,0,1.02.281,5.793,5.793,0,0,0,.984-.07V-.105a7.288,7.288,0,0,1-2.227.34,4.137,4.137,0,0,1-3.012-.961,3.939,3.939,0,0,1-.973-2.918V-9.937h-1.617V-12.68h1.617v-3.152Zm11.309,6.727-1.3-.094a2.336,2.336,0,0,0-2.391,1.172V0H150V-12.68h3.7l.129,1.629a3.058,3.058,0,0,1,2.777-1.863,3.851,3.851,0,0,1,1.1.141ZM165.855,0a4.459,4.459,0,0,1-.375-1.137A3.672,3.672,0,0,1,162.434.234,4.5,4.5,0,0,1,159.387-.85a3.45,3.45,0,0,1-1.254-2.725,3.546,3.546,0,0,1,1.523-3.117,7.761,7.761,0,0,1,4.43-1.055H165.3v-.671q0-1.755-1.512-1.755a1.236,1.236,0,0,0-1.406,1.39h-3.949A3.54,3.54,0,0,1,160-11.767a6.575,6.575,0,0,1,3.99-1.147,5.764,5.764,0,0,1,3.832,1.184,4.115,4.115,0,0,1,1.441,3.246v5.613A5.748,5.748,0,0,0,169.8-.2V0Zm-2.473-2.578a2.2,2.2,0,0,0,1.225-.316,1.983,1.983,0,0,0,.7-.715V-5.637h-1.148q-2.062,0-2.062,1.852a1.131,1.131,0,0,0,.363.873A1.315,1.315,0,0,0,163.383-2.578Z" transform="translate(341 2229.289)"/>
              <path id="Trazado_878151" data-name="Trazado 878151" d="M0,111.532" transform="translate(705.313 2304.289)" fill="rgba(0,0,0,0)" stroke="#e1e1e1" stroke-width="1"/>
              <path id="Trazado_878150" data-name="Trazado 878150" d="M0,112.15" transform="translate(871.313 2304.139)" fill="rgba(0,0,0,0)" stroke="#e1e1e1" stroke-width="1"/>
              <path id="Trazado_883535" data-name="Trazado 883535" d="M3.258,3.625l3.719,9.281L10.7,3.625h1.945V15h-1.5V10.57l.141-4.781L7.547,15H6.4L2.672,5.813,2.82,10.57V15H1.32V3.625Zm18.453,8.4H16.945L15.875,15H14.328L18.672,3.625h1.313L24.336,15H22.8ZM17.4,10.8h3.867l-1.937-5.32ZM34.469,9.68a7.026,7.026,0,0,1-.523,2.84,4.388,4.388,0,0,1-1.469,1.863l2.031,1.594-1.023.945-2.4-1.906a4.88,4.88,0,0,1-1.187.141,4.244,4.244,0,0,1-4-2.543,6.752,6.752,0,0,1-.59-2.832v-.82a6.953,6.953,0,0,1,.57-2.9,4.218,4.218,0,0,1,4-2.594,4.4,4.4,0,0,1,2.418.664,4.284,4.284,0,0,1,1.605,1.91,7.016,7.016,0,0,1,.563,2.91Zm-1.5-.734a5.162,5.162,0,0,0-.8-3.1,2.89,2.89,0,0,0-4.516-.008,5,5,0,0,0-.84,3V9.68a5.147,5.147,0,0,0,.816,3.078,2.885,2.885,0,0,0,4.52.066,5.079,5.079,0,0,0,.82-3.035Zm11.82-5.32v7.734a3.628,3.628,0,0,1-1.012,2.633,4.077,4.077,0,0,1-2.723,1.148l-.4.016a4.258,4.258,0,0,1-2.977-1.008,3.6,3.6,0,0,1-1.125-2.773V3.625h1.484v7.7a2.6,2.6,0,0,0,.68,1.918,3.111,3.111,0,0,0,3.887,0,2.6,2.6,0,0,0,.676-1.914V3.625ZM48.766,15h-1.5V3.625h1.5ZM60.25,15H58.742L53.016,6.234V15H51.508V3.625h1.508l5.742,8.8v-8.8H60.25Zm9.086-2.977H64.57L63.5,15H61.953L66.3,3.625h1.313L71.961,15H70.422ZM65.023,10.8h3.867l-1.937-5.32Zm18.3,5.383H76.164V15H83.32Zm7.219,0H83.383V15h7.156Zm7.219,0H90.6V15h7.156Zm7.219,0H97.82V15h7.156Zm7.219,0h-7.156V15H112.2Zm7.219,0h-7.156V15h7.156Zm7.219,0h-7.156V15h7.156Zm7.219,0H126.7V15h7.156Zm7.219,0h-7.156V15h7.156Zm7.219,0h-7.156V15h7.156Zm7.219,0h-7.156V15h7.156Zm7.219,0H155.57V15h7.156Zm7.219,0h-7.156V15h7.156Zm7.219,0h-7.156V15h7.156Zm7.219,0h-7.156V15h7.156Zm7.219,0h-7.156V15H191.6Zm7.219,0h-7.156V15h7.156Zm7.219,0h-7.156V15h7.156Zm7.219,0H206.1V15h7.156Zm7.219,0H213.32V15h7.156Zm7.219,0h-7.156V15H227.7Zm7.219,0h-7.156V15h7.156Zm7.219,0h-7.156V15h7.156Zm7.219,0H242.2V15h7.156Zm7.219,0h-7.156V15h7.156Zm7.219,0h-7.156V15h7.156Zm7.219,0h-7.156V15h7.156Zm7.219,0H271.07V15h7.156Zm7.219,0h-7.156V15h7.156Zm7.219,0h-7.156V15h7.156Zm7.219,0h-7.156V15h7.156Zm7.219,0h-7.156V15H307.1Zm7.219,0h-7.156V15h7.156Zm7.219,0h-7.156V15h7.156Zm7.219,0H321.6V15h7.156Zm7.219,0H328.82V15h7.156Zm7.219,0h-7.156V15H343.2Zm7.219,0h-7.156V15h7.156Zm7.219,0h-7.156V15h7.156Zm7.219,0H357.7V15h7.156Zm7.219,0h-7.156V15h7.156Zm7.219,0h-7.156V15h7.156Zm7.219,0h-7.156V15h7.156Zm7.219,0H386.57V15h7.156Zm7.219,0h-7.156V15h7.156Zm7.219,0h-7.156V15h7.156Zm7.219,0h-7.156V15h7.156Zm7.219,0h-7.156V15H422.6Zm7.219,0h-7.156V15h7.156Zm7.219,0h-7.156V15h7.156Zm7.219,0H437.1V15h7.156Zm7.219,0H444.32V15h7.156Zm7.219,0h-7.156V15H458.7Zm7.219,0h-7.156V15h7.156Zm7.219,0h-7.156V15h7.156Zm7.219,0H473.2V15h7.156Zm7.219,0h-7.156V15h7.156Zm7.219,0h-7.156V15h7.156Zm7.219,0h-7.156V15h7.156Zm7.219,0H502.07V15h7.156Zm7.219,0h-7.156V15h7.156ZM3.258,33.625l3.719,9.281L10.7,33.625h1.945V45h-1.5V40.57l.141-4.781L7.547,45H6.4L2.672,35.813,2.82,40.57V45H1.32V33.625Zm18.453,8.4H16.945L15.875,45H14.328l4.344-11.375h1.313L24.336,45H22.8ZM17.4,40.8h3.867l-1.937-5.32Zm12.641-.4H27.367V45H25.859V33.625h3.766a4.457,4.457,0,0,1,2.957.875,3.148,3.148,0,0,1,1.035,2.547,3.062,3.062,0,0,1-.574,1.852,3.428,3.428,0,0,1-1.6,1.18l2.672,4.828V45H32.508Zm-2.672-1.227h2.3a2.6,2.6,0,0,0,1.777-.579,1.959,1.959,0,0,0,.66-1.55,2.062,2.062,0,0,0-.629-1.62,2.663,2.663,0,0,0-1.816-.571h-2.3Zm16.719,2.219a4.185,4.185,0,0,1-1.332,2.785,4.365,4.365,0,0,1-2.98.98,4.008,4.008,0,0,1-3.23-1.445,5.815,5.815,0,0,1-1.215-3.867V38.75a6.481,6.481,0,0,1,.566-2.789A4.231,4.231,0,0,1,37.5,34.113a4.47,4.47,0,0,1,2.406-.645,4.11,4.11,0,0,1,2.906,1.012,4.235,4.235,0,0,1,1.273,2.8H42.578a3.268,3.268,0,0,0-.848-1.975,2.565,2.565,0,0,0-1.824-.611,2.684,2.684,0,0,0-2.254,1.063,4.882,4.882,0,0,0-.816,3.026v1.1a5.018,5.018,0,0,0,.773,2.948,2.5,2.5,0,0,0,2.164,1.095,2.886,2.886,0,0,0,1.918-.566,3.143,3.143,0,0,0,.887-1.973Zm8.328.633H47.648L46.578,45H45.031l4.344-11.375h1.313L55.039,45H53.5ZM48.1,40.8h3.867l-1.937-5.32ZM66.4,46.18H59.242V45H66.4Zm7.219,0H66.461V45h7.156Zm7.219,0H73.68V45h7.156Zm7.219,0H80.9V45h7.156Zm7.219,0H88.117V45h7.156Zm7.219,0H95.336V45h7.156Zm7.219,0h-7.156V45h7.156Zm7.219,0h-7.156V45h7.156Zm7.219,0h-7.156V45h7.156Zm7.219,0h-7.156V45h7.156Zm7.219,0H131.43V45h7.156Zm7.219,0h-7.156V45H145.8Zm7.219,0h-7.156V45h7.156Zm7.219,0h-7.156V45h7.156Zm7.219,0H160.3V45h7.156Zm7.219,0h-7.156V45h7.156Zm7.219,0h-7.156V45H181.9Zm7.219,0h-7.156V45h7.156Zm7.219,0H189.18V45h7.156Zm7.219,0H196.4V45h7.156Zm7.219,0h-7.156V45h7.156Zm7.219,0h-7.156V45h7.156Zm7.219,0h-7.156V45h7.156Zm7.219,0h-7.156V45h7.156Zm7.219,0h-7.156V45h7.156Zm7.219,0h-7.156V45h7.156Zm7.219,0H246.93V45h7.156Zm7.219,0h-7.156V45H261.3Zm7.219,0h-7.156V45h7.156Zm7.219,0h-7.156V45h7.156Zm7.219,0H275.8V45h7.156Zm7.219,0h-7.156V45h7.156Zm7.219,0h-7.156V45H297.4Zm7.219,0h-7.156V45h7.156Zm7.219,0H304.68V45h7.156Zm7.219,0H311.9V45h7.156Zm7.219,0h-7.156V45h7.156Zm7.219,0h-7.156V45h7.156Zm7.219,0h-7.156V45h7.156Zm7.219,0h-7.156V45h7.156Zm7.219,0h-7.156V45h7.156Zm7.219,0h-7.156V45h7.156Zm7.219,0H362.43V45h7.156Zm7.219,0h-7.156V45H376.8Zm7.219,0h-7.156V45h7.156Zm7.219,0h-7.156V45h7.156Zm7.219,0H391.3V45h7.156Zm7.219,0h-7.156V45h7.156Zm7.219,0h-7.156V45H412.9Zm7.219,0h-7.156V45h7.156Zm7.219,0H420.18V45h7.156Zm7.219,0H427.4V45h7.156Zm7.219,0h-7.156V45h7.156Zm7.219,0h-7.156V45h7.156Zm7.219,0h-7.156V45h7.156Zm7.219,0h-7.156V45h7.156Zm7.219,0h-7.156V45h7.156Zm7.219,0h-7.156V45h7.156Zm7.219,0H477.93V45h7.156Zm7.219,0h-7.156V45H492.3Zm7.219,0h-7.156V45h7.156Zm7.219,0h-7.156V45h7.156Zm7.219,0H506.8V45h7.156Zm7.219,0h-7.156V45h7.156ZM3.258,63.625l3.719,9.281L10.7,63.625h1.945V75h-1.5V70.57l.141-4.781L7.547,75H6.4L2.672,65.813,2.82,70.57V75H1.32V63.625ZM24.039,69.68a7.037,7.037,0,0,1-.562,2.918,4.261,4.261,0,0,1-1.594,1.9,4.4,4.4,0,0,1-6.4-1.887,6.752,6.752,0,0,1-.59-2.832v-.82a6.953,6.953,0,0,1,.57-2.9,4.218,4.218,0,0,1,4-2.594,4.41,4.41,0,0,1,2.41.66,4.253,4.253,0,0,1,1.605,1.914,7.071,7.071,0,0,1,.563,2.918Zm-1.492-.734a5.1,5.1,0,0,0-.812-3.105,2.68,2.68,0,0,0-2.273-1.082,2.651,2.651,0,0,0-2.238,1.082,5,5,0,0,0-.84,3v.836a5.107,5.107,0,0,0,.824,3.082,2.662,2.662,0,0,0,2.27,1.121,2.652,2.652,0,0,0,2.25-1.059,5.079,5.079,0,0,0,.82-3.035ZM26.289,75V63.625H29.5a5.169,5.169,0,0,1,2.625.656,4.438,4.438,0,0,1,1.762,1.867,6.078,6.078,0,0,1,.629,2.781v.727a6.1,6.1,0,0,1-.621,2.82,4.369,4.369,0,0,1-1.773,1.859A5.5,5.5,0,0,1,29.438,75Zm1.5-10.148v8.922h1.578a3.434,3.434,0,0,0,2.7-1.079,4.458,4.458,0,0,0,.965-3.073v-.665a4.529,4.529,0,0,0-.91-3.014,3.239,3.239,0,0,0-2.582-1.091Zm15.422,4.891h-4.93v4.031h5.727V75H36.781V63.625H43.93v1.227H38.281v3.664h4.93Zm4.172,4.031h5.391V75h-6.9V63.625h1.508ZM62.727,69.68a7.037,7.037,0,0,1-.562,2.918,4.261,4.261,0,0,1-1.594,1.9,4.4,4.4,0,0,1-6.4-1.887,6.752,6.752,0,0,1-.59-2.832v-.82a6.953,6.953,0,0,1,.57-2.9,4.218,4.218,0,0,1,4-2.594,4.41,4.41,0,0,1,2.41.66,4.253,4.253,0,0,1,1.605,1.914,7.071,7.071,0,0,1,.563,2.918Zm-1.492-.734a5.1,5.1,0,0,0-.812-3.105,2.68,2.68,0,0,0-2.273-1.082A2.651,2.651,0,0,0,55.91,65.84a5,5,0,0,0-.84,3v.836a5.107,5.107,0,0,0,.824,3.082,2.888,2.888,0,0,0,4.52.063,5.079,5.079,0,0,0,.82-3.035ZM74.8,76.18H67.648V75H74.8Zm7.219,0H74.867V75h7.156Zm7.219,0H82.086V75h7.156Zm7.219,0H89.3V75h7.156Zm7.219,0H96.523V75h7.156Zm7.219,0h-7.156V75H110.9Zm7.219,0h-7.156V75h7.156Zm7.219,0H118.18V75h7.156Zm7.219,0H125.4V75h7.156Zm7.219,0h-7.156V75h7.156Zm7.219,0h-7.156V75h7.156Zm7.219,0h-7.156V75h7.156Zm7.219,0h-7.156V75h7.156Zm7.219,0h-7.156V75h7.156Zm7.219,0h-7.156V75h7.156Zm7.219,0H175.93V75h7.156Zm7.219,0h-7.156V75H190.3Zm7.219,0h-7.156V75h7.156Zm7.219,0h-7.156V75h7.156Zm7.219,0H204.8V75h7.156Zm7.219,0h-7.156V75h7.156Zm7.219,0h-7.156V75H226.4Zm7.219,0h-7.156V75h7.156Zm7.219,0H233.68V75h7.156Zm7.219,0H240.9V75h7.156Zm7.219,0h-7.156V75h7.156Zm7.219,0h-7.156V75h7.156Zm7.219,0h-7.156V75h7.156Zm7.219,0h-7.156V75h7.156Zm7.219,0h-7.156V75h7.156Zm7.219,0h-7.156V75h7.156Zm7.219,0H291.43V75h7.156Zm7.219,0h-7.156V75H305.8Zm7.219,0h-7.156V75h7.156Zm7.219,0h-7.156V75h7.156Zm7.219,0H320.3V75h7.156Zm7.219,0h-7.156V75h7.156Zm7.219,0h-7.156V75H341.9Zm7.219,0h-7.156V75h7.156Zm7.219,0H349.18V75h7.156Zm7.219,0H356.4V75h7.156Zm7.219,0h-7.156V75h7.156Zm7.219,0h-7.156V75h7.156Zm7.219,0h-7.156V75h7.156Zm7.219,0h-7.156V75h7.156Zm7.219,0h-7.156V75h7.156Zm7.219,0h-7.156V75h7.156Zm7.219,0H406.93V75h7.156Zm7.219,0h-7.156V75H421.3Zm7.219,0h-7.156V75h7.156Zm7.219,0h-7.156V75h7.156Zm7.219,0H435.8V75h7.156Zm7.219,0h-7.156V75h7.156Zm7.219,0h-7.156V75H457.4Zm7.219,0h-7.156V75h7.156Zm7.219,0H464.68V75h7.156Zm7.219,0H471.9V75h7.156Zm7.219,0h-7.156V75h7.156Zm7.219,0h-7.156V75h7.156Zm7.219,0h-7.156V75h7.156Zm7.219,0h-7.156V75h7.156Zm7.219,0h-7.156V75h7.156Zm7.219,0h-7.156V75h7.156ZM7.594,99.977H2.82V105H1.32V93.625H8.367v1.227H2.82v3.9H7.594Zm7.523,2.047H10.352L9.281,105H7.734l4.344-11.375h1.313L17.742,105H16.2ZM10.8,100.8h3.867l-1.937-5.32Zm8.469,4.2V93.625h3.719a4.317,4.317,0,0,1,2.785.766,2.759,2.759,0,0,1,.934,2.266,2.31,2.31,0,0,1-.453,1.41,2.938,2.938,0,0,1-1.234.949,2.638,2.638,0,0,1,1.457.98,2.814,2.814,0,0,1,.535,1.723,3.042,3.042,0,0,1-.992,2.406,4.1,4.1,0,0,1-2.8.875Zm1.5-5.32v4.094H23.25a2.385,2.385,0,0,0,1.652-.543,1.907,1.907,0,0,0,.605-1.5q0-2.055-2.234-2.055Zm0-1.2h2.266a2.375,2.375,0,0,0,1.574-.493,1.654,1.654,0,0,0,.59-1.339,1.626,1.626,0,0,0-.547-1.366,2.686,2.686,0,0,0-1.664-.427H20.773ZM33.406,100.4H30.734V105H29.227V93.625h3.766a4.457,4.457,0,0,1,2.957.875,3.148,3.148,0,0,1,1.035,2.547A3.062,3.062,0,0,1,36.41,98.9a3.428,3.428,0,0,1-1.6,1.18l2.672,4.828V105H35.875Zm-2.672-1.227h2.3a2.6,2.6,0,0,0,1.777-.579,1.959,1.959,0,0,0,.66-1.55,2.062,2.062,0,0,0-.629-1.62,2.663,2.663,0,0,0-1.816-.571h-2.3ZM40.7,105H39.2V93.625h1.5ZM51.8,101.391a4.185,4.185,0,0,1-1.332,2.785,4.365,4.365,0,0,1-2.98.98,4.008,4.008,0,0,1-3.23-1.445,5.815,5.815,0,0,1-1.215-3.867V98.75a6.481,6.481,0,0,1,.566-2.789,4.231,4.231,0,0,1,1.605-1.848,4.47,4.47,0,0,1,2.406-.645,4.11,4.11,0,0,1,2.906,1.012,4.235,4.235,0,0,1,1.273,2.8H50.3a3.268,3.268,0,0,0-.848-1.975,2.565,2.565,0,0,0-1.824-.611,2.684,2.684,0,0,0-2.254,1.063,4.882,4.882,0,0,0-.816,3.026v1.1a5.018,5.018,0,0,0,.773,2.948,2.5,2.5,0,0,0,2.164,1.095,2.887,2.887,0,0,0,1.918-.566,3.143,3.143,0,0,0,.887-1.973Zm8.328.633H55.367L54.3,105H52.75l4.344-11.375h1.313L62.758,105H61.219ZM55.82,100.8h3.867l-1.937-5.32ZM73.031,105H71.523L65.8,96.234V105H64.289V93.625H65.8l5.742,8.8v-8.8h1.492Zm10.3-10.148H79.672V105H78.18V94.852H74.531V93.625h8.8Zm8.117,4.891h-4.93v4.031h5.727V105H85.016V93.625h7.148v1.227H86.516v3.664h4.93Zm12.492,6.438H96.781V105h7.156Zm7.219,0H104V105h7.156Zm7.219,0h-7.156V105h7.156Zm7.219,0h-7.156V105h7.156Zm7.219,0h-7.156V105h7.156Zm7.219,0h-7.156V105h7.156Zm7.219,0h-7.156V105h7.156Zm7.219,0h-7.156V105h7.156Zm7.219,0h-7.156V105h7.156Zm7.219,0H161.75V105h7.156Zm7.219,0h-7.156V105h7.156Zm7.219,0h-7.156V105h7.156Zm7.219,0h-7.156V105h7.156Zm7.219,0h-7.156V105h7.156Zm7.219,0h-7.156V105H205Zm7.219,0h-7.156V105h7.156Zm7.219,0h-7.156V105h7.156Zm7.219,0H219.5V105h7.156Zm7.219,0h-7.156V105h7.156Zm7.219,0h-7.156V105h7.156Zm7.219,0h-7.156V105h7.156Zm7.219,0h-7.156V105h7.156Zm7.219,0h-7.156V105h7.156Zm7.219,0h-7.156V105h7.156Zm7.219,0h-7.156V105h7.156Zm7.219,0H277.25V105h7.156Zm7.219,0h-7.156V105h7.156Zm7.219,0h-7.156V105h7.156Zm7.219,0h-7.156V105h7.156Zm7.219,0h-7.156V105h7.156Zm7.219,0h-7.156V105H320.5Zm7.219,0h-7.156V105h7.156Zm7.219,0h-7.156V105h7.156Zm7.219,0H335V105h7.156Zm7.219,0h-7.156V105h7.156Zm7.219,0h-7.156V105h7.156Zm7.219,0h-7.156V105h7.156Zm7.219,0h-7.156V105h7.156Zm7.219,0h-7.156V105h7.156Zm7.219,0h-7.156V105h7.156Zm7.219,0h-7.156V105h7.156Zm7.219,0H392.75V105h7.156Zm7.219,0h-7.156V105h7.156Zm7.219,0h-7.156V105h7.156Zm7.219,0h-7.156V105h7.156Zm7.219,0h-7.156V105h7.156Zm7.219,0h-7.156V105H436Zm7.219,0h-7.156V105h7.156Zm7.219,0h-7.156V105h7.156Zm7.219,0H450.5V105h7.156Zm7.219,0h-7.156V105h7.156Zm7.219,0h-7.156V105h7.156Zm7.219,0h-7.156V105h7.156Zm7.219,0h-7.156V105h7.156Zm7.219,0h-7.156V105h7.156Zm7.219,0h-7.156V105h7.156Zm7.219,0h-7.156V105h7.156Zm7.219,0H508.25V105h7.156Zm7.219,0h-7.156V105h7.156ZM1.32,135V123.625H4.531a5.169,5.169,0,0,1,2.625.656,4.438,4.438,0,0,1,1.762,1.867,6.078,6.078,0,0,1,.629,2.781v.727a6.1,6.1,0,0,1-.621,2.82,4.369,4.369,0,0,1-1.773,1.859A5.5,5.5,0,0,1,4.469,135Zm1.5-10.148v8.922H4.4a3.434,3.434,0,0,0,2.7-1.079,4.458,4.458,0,0,0,.965-3.073v-.665a4.529,4.529,0,0,0-.91-3.014,3.239,3.239,0,0,0-2.582-1.091ZM13.422,135h-1.5V123.625h1.5Zm4.68-11.375,3.719,9.281,3.719-9.281h1.945V135h-1.5v-4.43l.141-4.781L22.391,135H21.242l-3.727-9.187.148,4.758V135h-1.5V123.625Zm18.461,6.117h-4.93v4.031h5.727V135H30.133V123.625h7.148v1.227H31.633v3.664h4.93ZM47.969,135H46.461l-5.727-8.766V135H39.227V123.625h1.508l5.742,8.8v-8.8h1.492Zm6.016-5.07a7.053,7.053,0,0,1-2.809-1.363,2.6,2.6,0,0,1-.879-2,2.751,2.751,0,0,1,1.074-2.223,4.269,4.269,0,0,1,2.793-.879,4.66,4.66,0,0,1,2.09.453,3.436,3.436,0,0,1,1.422,1.25,3.2,3.2,0,0,1,.5,1.742H56.672a2.08,2.08,0,0,0-.656-1.627,2.669,2.669,0,0,0-1.852-.592,2.732,2.732,0,0,0-1.73.489,1.632,1.632,0,0,0-.621,1.358,1.468,1.468,0,0,0,.59,1.178,5.786,5.786,0,0,0,2.008.88,9.316,9.316,0,0,1,2.219.88,3.367,3.367,0,0,1,1.188,1.121,2.861,2.861,0,0,1,.387,1.508,2.658,2.658,0,0,1-1.078,2.215,4.6,4.6,0,0,1-2.883.832,5.347,5.347,0,0,1-2.187-.449,3.681,3.681,0,0,1-1.566-1.23,3,3,0,0,1-.551-1.773h1.508a1.959,1.959,0,0,0,.762,1.629,3.207,3.207,0,0,0,2.035.6,2.948,2.948,0,0,0,1.82-.484,1.573,1.573,0,0,0,.633-1.32,1.545,1.545,0,0,0-.586-1.293A6.755,6.755,0,0,0,53.984,129.93Zm7.75,5.07h-1.5V123.625h1.5Zm11.492-5.32a7.037,7.037,0,0,1-.562,2.918,4.261,4.261,0,0,1-1.594,1.9,4.4,4.4,0,0,1-6.4-1.887,6.752,6.752,0,0,1-.59-2.832v-.82a6.953,6.953,0,0,1,.57-2.9,4.218,4.218,0,0,1,4-2.594,4.41,4.41,0,0,1,2.41.66,4.253,4.253,0,0,1,1.605,1.914,7.071,7.071,0,0,1,.563,2.918Zm-1.492-.734a5.1,5.1,0,0,0-.812-3.105,2.68,2.68,0,0,0-2.273-1.082,2.651,2.651,0,0,0-2.238,1.082,5,5,0,0,0-.84,3v.836a5.107,5.107,0,0,0,.824,3.082,2.888,2.888,0,0,0,4.52.063,5.079,5.079,0,0,0,.82-3.035ZM84.219,135H82.711l-5.727-8.766V135H75.477V123.625h1.508l5.742,8.8v-8.8h1.492Zm9.094-5.258h-4.93v4.031h5.727V135H86.883V123.625h7.148v1.227H88.383v3.664h4.93Zm6.016.188a7.053,7.053,0,0,1-2.809-1.363,2.6,2.6,0,0,1-.879-2,2.751,2.751,0,0,1,1.074-2.223,4.269,4.269,0,0,1,2.793-.879,4.66,4.66,0,0,1,2.09.453,3.436,3.436,0,0,1,1.422,1.25,3.2,3.2,0,0,1,.5,1.742h-1.508a2.08,2.08,0,0,0-.656-1.627,2.669,2.669,0,0,0-1.852-.592,2.732,2.732,0,0,0-1.73.489,1.632,1.632,0,0,0-.621,1.358,1.468,1.468,0,0,0,.59,1.178,5.786,5.786,0,0,0,2.008.88,9.316,9.316,0,0,1,2.219.88,3.367,3.367,0,0,1,1.188,1.121,2.861,2.861,0,0,1,.387,1.508,2.658,2.658,0,0,1-1.078,2.215,4.6,4.6,0,0,1-2.883.832,5.347,5.347,0,0,1-2.187-.449,3.681,3.681,0,0,1-1.566-1.23,3,3,0,0,1-.551-1.773h1.508a1.959,1.959,0,0,0,.762,1.629,3.207,3.207,0,0,0,2.035.6,2.948,2.948,0,0,0,1.82-.484,1.573,1.573,0,0,0,.633-1.32,1.545,1.545,0,0,0-.586-1.293A6.755,6.755,0,0,0,99.328,129.93Zm5.867,4.313a.905.905,0,0,1,.223-.625.848.848,0,0,1,.668-.25.874.874,0,0,1,.676.25.887.887,0,0,1,.23.625.839.839,0,0,1-.23.6.89.89,0,0,1-.676.242.8.8,0,0,1-.891-.844Zm.008-6.9a.905.905,0,0,1,.223-.625.848.848,0,0,1,.668-.25.874.874,0,0,1,.676.25.887.887,0,0,1,.23.625.839.839,0,0,1-.23.6.89.89,0,0,1-.676.242.8.8,0,0,1-.891-.844Zm26.266,4.68H126.7L125.633,135h-1.547l4.344-11.375h1.313L134.094,135h-1.539Zm-4.312-1.227h3.867l-1.937-5.32Zm9.977,2.977h5.391V135h-6.9V123.625h1.508Zm12.813-8.922h-3.656V135H144.8V124.852h-3.648v-1.227h8.8Zm10.219,4.828a7.037,7.037,0,0,1-.562,2.918,4.261,4.261,0,0,1-1.594,1.9,4.4,4.4,0,0,1-6.4-1.887,6.752,6.752,0,0,1-.59-2.832v-.82a6.953,6.953,0,0,1,.57-2.9,4.218,4.218,0,0,1,4-2.594,4.41,4.41,0,0,1,2.41.66,4.253,4.253,0,0,1,1.605,1.914,7.071,7.071,0,0,1,.563,2.918Zm-1.492-.734a5.1,5.1,0,0,0-.812-3.105,2.68,2.68,0,0,0-2.273-1.082,2.651,2.651,0,0,0-2.238,1.082,5,5,0,0,0-.84,3v.836a5.107,5.107,0,0,0,.824,3.082,2.888,2.888,0,0,0,4.52.063,5.079,5.079,0,0,0,.82-3.035Zm9.609,7.234h-7.156V135h7.156Zm7.219,0h-7.156V135H175.5Zm7.219,0h-7.156V135h7.156Zm7.219,0h-7.156V135h7.156Zm7.219,0H190V135h7.156Zm7.219,0h-7.156V135h7.156Zm7.219,0h-7.156V135h7.156Zm7.219,0h-7.156V135h7.156Zm7.219,0h-7.156V135h7.156Zm7.219,0h-7.156V135h7.156Zm7.219,0h-7.156V135h7.156Zm7.219,0h-7.156V135h7.156Zm7.219,0H247.75V135h7.156Zm11.594-4.156h-4.766L260.664,135h-1.547l4.344-11.375h1.313L269.125,135h-1.539Zm-4.312-1.227h3.867l-1.937-5.32ZM279.4,135h-1.508l-5.727-8.766V135h-1.508V123.625h1.508l5.742,8.8v-8.8H279.4Zm11.031-3.609a4.185,4.185,0,0,1-1.332,2.785,4.365,4.365,0,0,1-2.98.98,4.008,4.008,0,0,1-3.23-1.445,5.815,5.815,0,0,1-1.215-3.867V128.75a6.481,6.481,0,0,1,.566-2.789,4.231,4.231,0,0,1,1.605-1.848,4.47,4.47,0,0,1,2.406-.645,4.11,4.11,0,0,1,2.906,1.012,4.235,4.235,0,0,1,1.273,2.8h-1.508a3.268,3.268,0,0,0-.848-1.975,2.565,2.565,0,0,0-1.824-.611A2.684,2.684,0,0,0,284,125.759a4.882,4.882,0,0,0-.816,3.026v1.1a5.018,5.018,0,0,0,.773,2.948,2.5,2.5,0,0,0,2.164,1.095,2.886,2.886,0,0,0,1.918-.566,3.143,3.143,0,0,0,.887-1.973ZM301.219,135h-1.508v-5.258h-5.734V135h-1.5V123.625h1.5v4.891h5.734v-4.891h1.508Zm11.414-5.32a7.037,7.037,0,0,1-.562,2.918,4.261,4.261,0,0,1-1.594,1.9,4.4,4.4,0,0,1-6.4-1.887,6.751,6.751,0,0,1-.59-2.832v-.82a6.953,6.953,0,0,1,.57-2.9,4.218,4.218,0,0,1,4-2.594,4.41,4.41,0,0,1,2.41.66,4.253,4.253,0,0,1,1.605,1.914,7.071,7.071,0,0,1,.563,2.918Zm-1.492-.734a5.1,5.1,0,0,0-.812-3.105,2.68,2.68,0,0,0-2.273-1.082,2.651,2.651,0,0,0-2.238,1.082,5,5,0,0,0-.84,3v.836a5.107,5.107,0,0,0,.824,3.082,2.888,2.888,0,0,0,4.52.063,5.079,5.079,0,0,0,.82-3.035Zm9.609,7.234h-7.156V135h7.156Zm7.219,0h-7.156V135h7.156Zm7.219,0h-7.156V135h7.156Zm7.219,0H335.25V135h7.156Zm7.219,0h-7.156V135h7.156Zm7.219,0h-7.156V135h7.156Zm7.219,0h-7.156V135h7.156Zm7.219,0h-7.156V135h7.156Zm7.219,0h-7.156V135H378.5Zm7.219,0h-7.156V135h7.156Zm7.219,0h-7.156V135h7.156Zm7.219,0H393V135h7.156Zm7.219,0h-7.156V135h7.156Zm6.82-2.406h5.391V135h-6.9V123.625H414.2Zm13.531-1.75h-4.766L421.891,135h-1.547l4.344-11.375H426L430.352,135h-1.539Zm-4.312-1.227h3.867l-1.937-5.32Zm12.641-.4h-2.672V135h-1.508V123.625h3.766a4.457,4.457,0,0,1,2.957.875,3.148,3.148,0,0,1,1.035,2.547,3.062,3.062,0,0,1-.574,1.852,3.428,3.428,0,0,1-1.6,1.18l2.672,4.828V135h-1.609Zm-2.672-1.227h2.3a2.6,2.6,0,0,0,1.777-.579,1.959,1.959,0,0,0,.66-1.55,2.062,2.062,0,0,0-.629-1.62,2.663,2.663,0,0,0-1.816-.571h-2.3Zm16.75,4.336a3.465,3.465,0,0,1-1.613,1.238,6.517,6.517,0,0,1-2.41.41,4.674,4.674,0,0,1-2.469-.652,4.346,4.346,0,0,1-1.668-1.855,6.408,6.408,0,0,1-.605-2.789v-.992a5.982,5.982,0,0,1,1.2-3.984,4.179,4.179,0,0,1,3.371-1.414,4.316,4.316,0,0,1,2.867.91,3.965,3.965,0,0,1,1.328,2.582h-1.5a2.48,2.48,0,0,0-2.687-2.266,2.655,2.655,0,0,0-2.285,1.06,5.173,5.173,0,0,0-.785,3.069v.93a4.848,4.848,0,0,0,.875,3.046,2.836,2.836,0,0,0,2.367,1.13,5.229,5.229,0,0,0,1.477-.187,2.283,2.283,0,0,0,1.047-.631v-2.549h-2.633v-1.227h4.125Zm11.25-3.828a7.037,7.037,0,0,1-.562,2.918,4.261,4.261,0,0,1-1.594,1.9,4.4,4.4,0,0,1-6.4-1.887,6.751,6.751,0,0,1-.59-2.832v-.82a6.953,6.953,0,0,1,.57-2.9,4.218,4.218,0,0,1,4-2.594,4.41,4.41,0,0,1,2.41.66,4.253,4.253,0,0,1,1.605,1.914,7.071,7.071,0,0,1,.563,2.918Zm-1.492-.734a5.1,5.1,0,0,0-.812-3.105,2.68,2.68,0,0,0-2.273-1.082,2.651,2.651,0,0,0-2.238,1.082,5,5,0,0,0-.84,3v.836a5.107,5.107,0,0,0,.824,3.082,2.888,2.888,0,0,0,4.52.063,5.079,5.079,0,0,0,.82-3.035Zm9.609,7.234h-7.156V135H469.5Zm7.219,0h-7.156V135h7.156Zm7.219,0h-7.156V135h7.156Zm7.219,0H484V135h7.156Zm7.219,0h-7.156V135h7.156Zm7.219,0h-7.156V135h7.156Zm7.219,0h-7.156V135h7.156Zm7.219,0h-7.156V135h7.156ZM1.32,165V153.625H4.531a5.169,5.169,0,0,1,2.625.656,4.438,4.438,0,0,1,1.762,1.867,6.078,6.078,0,0,1,.629,2.781v.727a6.1,6.1,0,0,1-.621,2.82,4.369,4.369,0,0,1-1.773,1.859A5.5,5.5,0,0,1,4.469,165Zm1.5-10.148v8.922H4.4a3.434,3.434,0,0,0,2.7-1.079,4.458,4.458,0,0,0,.965-3.073v-.665a4.529,4.529,0,0,0-.91-3.014,3.239,3.239,0,0,0-2.582-1.091ZM13.422,165h-1.5V153.625h1.5Zm9.164-2.977H17.82L16.75,165H15.2l4.344-11.375h1.313L25.211,165H23.672ZM18.273,160.8h3.867l-1.937-5.32Zm10.406-7.172,3.719,9.281,3.719-9.281h1.945V165h-1.5v-4.43l.141-4.781L32.969,165H31.82l-3.727-9.187.148,4.758V165h-1.5V153.625Zm18.461,6.117h-4.93v4.031h5.727V165H40.711V153.625h7.148v1.227H42.211v3.664h4.93Zm10.68-4.891H54.164V165H52.672V154.852H49.023v-1.227h8.8ZM63.68,160.4H61.008V165H59.5V153.625h3.766a4.457,4.457,0,0,1,2.957.875,3.148,3.148,0,0,1,1.035,2.547,3.062,3.062,0,0,1-.574,1.852,3.428,3.428,0,0,1-1.6,1.18l2.672,4.828V165H66.148Zm-2.672-1.227h2.3a2.6,2.6,0,0,0,1.777-.579,1.959,1.959,0,0,0,.66-1.55,2.062,2.062,0,0,0-.629-1.62,2.663,2.663,0,0,0-1.816-.571h-2.3Zm17.1.508a7.037,7.037,0,0,1-.562,2.918,4.261,4.261,0,0,1-1.594,1.9,4.4,4.4,0,0,1-6.4-1.887,6.752,6.752,0,0,1-.59-2.832v-.82a6.953,6.953,0,0,1,.57-2.9,4.218,4.218,0,0,1,4-2.594,4.41,4.41,0,0,1,2.41.66,4.253,4.253,0,0,1,1.605,1.914,7.071,7.071,0,0,1,.563,2.918Zm-1.492-.734a5.1,5.1,0,0,0-.812-3.105,2.68,2.68,0,0,0-2.273-1.082,2.651,2.651,0,0,0-2.238,1.082,5,5,0,0,0-.84,3v.836a5.107,5.107,0,0,0,.824,3.082,2.888,2.888,0,0,0,4.52.063,5.079,5.079,0,0,0,.82-3.035Zm13.57,7.234H83.031V165h7.156Zm7.219,0H90.25V165h7.156Zm7.219,0H97.469V165h7.156Zm7.219,0h-7.156V165h7.156Zm7.219,0h-7.156V165h7.156Zm7.219,0h-7.156V165h7.156Zm7.219,0h-7.156V165H133.5Zm7.219,0h-7.156V165h7.156Zm7.219,0h-7.156V165h7.156Zm7.219,0H148V165h7.156Zm7.219,0h-7.156V165h7.156Zm7.219,0h-7.156V165h7.156Zm7.219,0h-7.156V165h7.156Zm7.219,0h-7.156V165h7.156Zm7.219,0h-7.156V165h7.156Zm7.219,0h-7.156V165h7.156Zm7.219,0h-7.156V165h7.156Zm7.219,0H205.75V165h7.156Zm7.219,0h-7.156V165h7.156Zm7.219,0h-7.156V165h7.156Zm7.219,0h-7.156V165h7.156Zm7.219,0h-7.156V165h7.156Zm7.219,0h-7.156V165H249Zm7.219,0h-7.156V165h7.156Zm7.219,0h-7.156V165h7.156ZM10.07,219.68a7.037,7.037,0,0,1-.562,2.918,4.261,4.261,0,0,1-1.594,1.9,4.385,4.385,0,0,1-2.406.656,4.347,4.347,0,0,1-2.383-.66,4.363,4.363,0,0,1-1.613-1.883,6.752,6.752,0,0,1-.59-2.832v-.82a6.953,6.953,0,0,1,.57-2.9,4.347,4.347,0,0,1,1.613-1.926,4.329,4.329,0,0,1,2.387-.668,4.41,4.41,0,0,1,2.41.66,4.253,4.253,0,0,1,1.605,1.914,7.071,7.071,0,0,1,.563,2.918Zm-1.492-.734a5.1,5.1,0,0,0-.812-3.105,2.68,2.68,0,0,0-2.273-1.082,2.651,2.651,0,0,0-2.238,1.082,5,5,0,0,0-.84,3v.836a5.107,5.107,0,0,0,.824,3.082,2.662,2.662,0,0,0,2.27,1.121,2.652,2.652,0,0,0,2.25-1.059,5.079,5.079,0,0,0,.82-3.035Zm11.391-4.094H16.313V225H14.82V214.852H11.172v-1.227h8.8Zm5.859,5.547H23.156V225H21.648V213.625h3.766a4.457,4.457,0,0,1,2.957.875,3.148,3.148,0,0,1,1.035,2.547,3.062,3.062,0,0,1-.574,1.852,3.428,3.428,0,0,1-1.6,1.18l2.672,4.828V225H28.3Zm-2.672-1.227h2.3a2.6,2.6,0,0,0,1.777-.579,1.959,1.959,0,0,0,.66-1.55,2.062,2.062,0,0,0-.629-1.62,2.663,2.663,0,0,0-1.816-.571h-2.3Zm17.1.508A7.037,7.037,0,0,1,39.7,222.6a4.261,4.261,0,0,1-1.594,1.9,4.4,4.4,0,0,1-6.4-1.887,6.752,6.752,0,0,1-.59-2.832v-.82a6.953,6.953,0,0,1,.57-2.9,4.218,4.218,0,0,1,4-2.594,4.41,4.41,0,0,1,2.41.66,4.253,4.253,0,0,1,1.605,1.914,7.071,7.071,0,0,1,.563,2.918Zm-1.492-.734a5.1,5.1,0,0,0-.812-3.105,2.68,2.68,0,0,0-2.273-1.082,2.651,2.651,0,0,0-2.238,1.082,5,5,0,0,0-.84,3v.836a5.107,5.107,0,0,0,.824,3.082,2.888,2.888,0,0,0,4.52.063,5.079,5.079,0,0,0,.82-3.035Zm7.094.984a7.053,7.053,0,0,1-2.809-1.363,2.6,2.6,0,0,1-.879-2,2.752,2.752,0,0,1,1.074-2.223,4.269,4.269,0,0,1,2.793-.879,4.66,4.66,0,0,1,2.09.453,3.436,3.436,0,0,1,1.422,1.25,3.2,3.2,0,0,1,.5,1.742H48.547a2.08,2.08,0,0,0-.656-1.627,2.669,2.669,0,0,0-1.852-.592,2.732,2.732,0,0,0-1.73.489,1.632,1.632,0,0,0-.621,1.358,1.468,1.468,0,0,0,.59,1.178,5.786,5.786,0,0,0,2.008.88,9.316,9.316,0,0,1,2.219.88,3.367,3.367,0,0,1,1.188,1.121,2.861,2.861,0,0,1,.387,1.508A2.658,2.658,0,0,1,49,224.324a4.6,4.6,0,0,1-2.883.832,5.347,5.347,0,0,1-2.187-.449,3.681,3.681,0,0,1-1.566-1.23,3,3,0,0,1-.551-1.773H43.32a1.959,1.959,0,0,0,.762,1.629,3.207,3.207,0,0,0,2.035.6,2.948,2.948,0,0,0,1.82-.484,1.573,1.573,0,0,0,.633-1.32,1.545,1.545,0,0,0-.586-1.293A6.755,6.755,0,0,0,45.859,219.93Zm10.1,5.07V213.625h3.211a5.169,5.169,0,0,1,2.625.656,4.438,4.438,0,0,1,1.762,1.867,6.078,6.078,0,0,1,.629,2.781v.727a6.1,6.1,0,0,1-.621,2.82,4.369,4.369,0,0,1-1.773,1.859,5.5,5.5,0,0,1-2.684.664Zm1.5-10.148v8.922h1.578a3.434,3.434,0,0,0,2.7-1.079,4.458,4.458,0,0,0,.965-3.073v-.665a4.529,4.529,0,0,0-.91-3.014,3.239,3.239,0,0,0-2.582-1.091Zm15.109,7.172H67.8L66.734,225H65.188l4.344-11.375h1.313L75.2,225H73.656ZM68.258,220.8h3.867l-1.937-5.32Zm15.32-5.945H79.922V225H78.43V214.852H74.781v-1.227h8.8ZM93.8,219.68a7.037,7.037,0,0,1-.562,2.918,4.261,4.261,0,0,1-1.594,1.9,4.4,4.4,0,0,1-6.4-1.887,6.752,6.752,0,0,1-.59-2.832v-.82a6.953,6.953,0,0,1,.57-2.9,4.218,4.218,0,0,1,4-2.594,4.41,4.41,0,0,1,2.41.66,4.253,4.253,0,0,1,1.605,1.914,7.071,7.071,0,0,1,.563,2.918Zm-1.492-.734a5.1,5.1,0,0,0-.812-3.105,2.68,2.68,0,0,0-2.273-1.082,2.651,2.651,0,0,0-2.238,1.082,5,5,0,0,0-.84,3v.836a5.107,5.107,0,0,0,.824,3.082,2.888,2.888,0,0,0,4.52.063,5.079,5.079,0,0,0,.82-3.035Zm7.094.984a7.053,7.053,0,0,1-2.809-1.363,2.6,2.6,0,0,1-.879-2,2.751,2.751,0,0,1,1.074-2.223,4.269,4.269,0,0,1,2.793-.879,4.66,4.66,0,0,1,2.09.453,3.436,3.436,0,0,1,1.422,1.25,3.2,3.2,0,0,1,.5,1.742h-1.508a2.08,2.08,0,0,0-.656-1.627,2.669,2.669,0,0,0-1.852-.592,2.732,2.732,0,0,0-1.73.489,1.632,1.632,0,0,0-.621,1.358,1.468,1.468,0,0,0,.59,1.178,5.786,5.786,0,0,0,2.008.88,9.316,9.316,0,0,1,2.219.88,3.367,3.367,0,0,1,1.188,1.121,2.861,2.861,0,0,1,.387,1.508,2.658,2.658,0,0,1-1.078,2.215,4.6,4.6,0,0,1-2.883.832,5.347,5.347,0,0,1-2.187-.449,3.681,3.681,0,0,1-1.566-1.23,3,3,0,0,1-.551-1.773h1.508a1.959,1.959,0,0,0,.762,1.629,3.207,3.207,0,0,0,2.035.6,2.948,2.948,0,0,0,1.82-.484,1.573,1.573,0,0,0,.633-1.32,1.545,1.545,0,0,0-.586-1.293A6.755,6.755,0,0,0,99.4,219.93Zm15.969,6.25h-7.156V225h7.156Zm7.219,0H115.43V225h7.156Zm7.219,0h-7.156V225H129.8Zm7.219,0h-7.156V225h7.156Zm7.219,0h-7.156V225h7.156Zm7.219,0H144.3V225h7.156Zm7.219,0h-7.156V225h7.156Zm7.219,0h-7.156V225H165.9Zm7.219,0h-7.156V225h7.156Zm7.219,0H173.18V225h7.156Zm7.219,0H180.4V225h7.156Zm7.219,0h-7.156V225h7.156Zm7.219,0h-7.156V225h7.156Zm7.219,0h-7.156V225h7.156Zm7.219,0h-7.156V225h7.156Zm7.219,0h-7.156V225h7.156Zm7.219,0h-7.156V225h7.156Zm7.219,0H230.93V225h7.156Zm7.219,0h-7.156V225H245.3Zm7.219,0h-7.156V225h7.156Zm7.219,0h-7.156V225h7.156Zm7.219,0H259.8V225h7.156Zm7.219,0h-7.156V225h7.156Zm7.219,0h-7.156V225H281.4Zm7.219,0h-7.156V225h7.156Zm7.219,0H288.68V225h7.156Zm7.219,0H295.9V225h7.156Zm7.219,0h-7.156V225h7.156Zm7.219,0h-7.156V225h7.156Zm7.219,0h-7.156V225h7.156Zm7.219,0h-7.156V225h7.156Zm7.219,0h-7.156V225h7.156Zm7.219,0h-7.156V225h7.156Zm7.219,0H346.43V225h7.156Zm7.219,0h-7.156V225H360.8Zm7.219,0h-7.156V225h7.156Zm7.219,0h-7.156V225h7.156Zm7.219,0H375.3V225h7.156Zm7.219,0h-7.156V225h7.156Zm7.219,0h-7.156V225H396.9Zm7.219,0h-7.156V225h7.156Zm7.219,0H404.18V225h7.156Zm7.219,0H411.4V225h7.156Zm7.219,0h-7.156V225h7.156Zm7.219,0h-7.156V225h7.156Zm7.219,0h-7.156V225h7.156Zm7.219,0h-7.156V225h7.156Zm7.219,0h-7.156V225h7.156Zm7.219,0h-7.156V225h7.156Zm7.219,0H461.93V225h7.156Zm7.219,0h-7.156V225H476.3Zm7.219,0h-7.156V225h7.156Zm7.219,0h-7.156V225h7.156Zm7.219,0H490.8V225h7.156Zm7.219,0h-7.156V225h7.156Zm7.219,0h-7.156V225H512.4Zm7.219,0h-7.156V225h7.156Zm7.219,0H519.68V225h7.156Zm7.219,0H526.9V225h7.156Zm7.219,0h-7.156V225h7.156Zm7.219,0h-7.156V225h7.156Zm7.219,0h-7.156V225h7.156Zm7.219,0h-7.156V225h7.156Zm7.219,0h-7.156V225h7.156Zm7.219,0h-7.156V225h7.156Zm7.219,0H577.43V225h7.156Zm7.219,0h-7.156V225H591.8Zm7.219,0h-7.156V225h7.156Zm7.219,0h-7.156V225h7.156Zm7.219,0H606.3V225h7.156Zm7.219,0h-7.156V225h7.156Zm7.219,0h-7.156V225H627.9Zm7.219,0h-7.156V225h7.156Zm7.219,0H635.18V225h7.156Zm7.219,0H642.4V225h7.156Zm7.219,0h-7.156V225h7.156Zm7.219,0h-7.156V225h7.156Zm7.219,0h-7.156V225h7.156Zm7.219,0h-7.156V225h7.156Zm7.219,0h-7.156V225h7.156Zm7.219,0h-7.156V225h7.156Zm7.219,0H692.93V225h7.156Zm7.219,0h-7.156V225H707.3Zm7.219,0h-7.156V225h7.156Zm7.219,0h-7.156V225h7.156Zm7.219,0H721.8V225h7.156Zm7.219,0h-7.156V225h7.156Zm7.219,0h-7.156V225H743.4Zm7.219,0h-7.156V225h7.156Zm7.219,0H750.68V225h7.156Zm7.219,0H757.9V225h7.156Zm7.219,0h-7.156V225h7.156Zm7.219,0h-7.156V225h7.156Zm7.219,0h-7.156V225h7.156Zm7.219,0h-7.156V225h7.156Zm7.219,0h-7.156V225h7.156Zm7.219,0h-7.156V225h7.156Zm7.219,0H808.43V225h7.156Zm7.219,0h-7.156V225H822.8Zm7.219,0h-7.156V225h7.156Zm7.219,0h-7.156V225h7.156Zm-830.055,30H.031V255H7.188Zm7.219,0H7.25V255h7.156Zm7.219,0H14.469V255h7.156Zm7.219,0H21.688V255h7.156Zm7.219,0H28.906V255h7.156Zm7.219,0H36.125V255h7.156Zm7.219,0H43.344V255H50.5Zm7.219,0H50.563V255h7.156Zm7.219,0H57.781V255h7.156Zm7.219,0H65V255h7.156Zm7.219,0H72.219V255h7.156Zm7.219,0H79.438V255h7.156Zm7.219,0H86.656V255h7.156Zm7.219,0H93.875V255h7.156Zm7.219,0h-7.156V255h7.156Zm7.219,0h-7.156V255h7.156Zm7.219,0h-7.156V255h7.156Zm7.219,0H122.75V255h7.156Zm7.219,0h-7.156V255h7.156Zm7.219,0h-7.156V255h7.156Zm7.219,0h-7.156V255h7.156Zm7.219,0h-7.156V255h7.156Zm7.219,0h-7.156V255H166Zm7.219,0h-7.156V255h7.156Zm7.219,0h-7.156V255h7.156Zm7.219,0H180.5V255h7.156Zm7.219,0h-7.156V255h7.156Zm7.219,0h-7.156V255h7.156Zm7.219,0h-7.156V255h7.156Zm7.219,0h-7.156V255h7.156Zm7.219,0h-7.156V255h7.156Zm7.219,0h-7.156V255h7.156Zm7.219,0h-7.156V255h7.156Zm7.219,0H238.25V255h7.156Zm7.219,0h-7.156V255h7.156Zm7.219,0h-7.156V255h7.156Zm7.219,0h-7.156V255h7.156Zm7.219,0h-7.156V255h7.156Zm7.219,0h-7.156V255H281.5Zm7.219,0h-7.156V255h7.156Zm7.219,0h-7.156V255h7.156Zm7.219,0H296V255h7.156Zm7.219,0h-7.156V255h7.156Zm7.219,0h-7.156V255h7.156Zm7.219,0h-7.156V255h7.156Zm7.219,0h-7.156V255h7.156Zm7.219,0h-7.156V255h7.156Zm7.219,0h-7.156V255h7.156Zm7.219,0h-7.156V255h7.156Zm7.219,0H353.75V255h7.156Zm7.219,0h-7.156V255h7.156Zm7.219,0h-7.156V255h7.156Zm7.219,0h-7.156V255h7.156Zm7.219,0h-7.156V255h7.156Zm7.219,0h-7.156V255H397Zm7.219,0h-7.156V255h7.156Zm7.219,0h-7.156V255h7.156Zm7.219,0H411.5V255h7.156Zm7.219,0h-7.156V255h7.156Zm7.219,0h-7.156V255h7.156Zm7.219,0h-7.156V255h7.156Zm7.219,0h-7.156V255h7.156Zm7.219,0h-7.156V255h7.156Zm7.219,0h-7.156V255h7.156Zm7.219,0h-7.156V255h7.156Zm7.219,0H469.25V255h7.156Zm7.219,0h-7.156V255h7.156Zm7.219,0h-7.156V255h7.156Zm7.219,0h-7.156V255h7.156Zm7.219,0h-7.156V255h7.156Zm7.219,0h-7.156V255H512.5Zm7.219,0h-7.156V255h7.156Zm7.219,0h-7.156V255h7.156Zm7.219,0H527V255h7.156Zm7.219,0h-7.156V255h7.156Zm7.219,0h-7.156V255h7.156Zm7.219,0h-7.156V255h7.156Zm7.219,0h-7.156V255h7.156Zm7.219,0h-7.156V255h7.156Zm7.219,0h-7.156V255h7.156Zm7.219,0h-7.156V255h7.156Zm7.219,0H584.75V255h7.156Zm7.219,0h-7.156V255h7.156Zm7.219,0h-7.156V255h7.156Zm7.219,0h-7.156V255h7.156Zm7.219,0h-7.156V255h7.156Zm7.219,0h-7.156V255H628Zm7.219,0h-7.156V255h7.156Zm7.219,0h-7.156V255h7.156Zm7.219,0H642.5V255h7.156Zm7.219,0h-7.156V255h7.156Zm7.219,0h-7.156V255h7.156Zm7.219,0h-7.156V255h7.156Zm7.219,0h-7.156V255h7.156Zm7.219,0h-7.156V255h7.156Zm7.219,0h-7.156V255h7.156Zm7.219,0h-7.156V255h7.156Zm7.219,0H700.25V255h7.156Zm7.219,0h-7.156V255h7.156Zm7.219,0h-7.156V255h7.156Zm7.219,0h-7.156V255h7.156Zm7.219,0h-7.156V255h7.156Zm7.219,0h-7.156V255H743.5Zm7.219,0h-7.156V255h7.156Zm7.219,0h-7.156V255h7.156Zm7.219,0H758V255h7.156Zm7.219,0h-7.156V255h7.156Zm7.219,0h-7.156V255h7.156Zm7.219,0h-7.156V255h7.156Zm7.219,0h-7.156V255h7.156Zm7.219,0h-7.156V255h7.156Zm7.219,0h-7.156V255h7.156Zm7.219,0h-7.156V255h7.156Zm7.219,0H815.75V255h7.156Zm7.219,0h-7.156V255h7.156Zm7.219,0h-7.156V255h7.156Z" transform="translate(341 2334.289)"/>
              <text id="SECCIÓN_________________________________________no._INTERNO_____________________________________TIPO______________________________________________no._DE_SERIE______________________________________DISTRIBU________________________________________" data-name="SECCIÓN________________________________________
no. INTERNO____________________________________
TIPO ____________________________________________
no. DE SERIE_____________________________________
DISTRIBU________________________________________" transform="translate(895.229 2339.376)" font-size="16" font-family="Roboto-Regular, Roboto"><tspan x="0" y="15">SECCIÓN________________________________________</tspan><tspan x="0" y="45">no. INTERNO____________________________________</tspan><tspan x="0" y="75">TIPO ____________________________________________</tspan><tspan x="0" y="105">no. DE SERIE_____________________________________</tspan><tspan x="0" y="135">DISTRIBU________________________________________</tspan></text>
            </g>
          </g>
        </g>
      </g>
    </g>
  </g>
</svg>
